; NON-PLATED HOLES START AT T1
; THROUGH (PLATED) HOLES START AT T100
M48
INCH
T100C0.035433
T101C0.035000
T102C0.078740
T103C0.038000
T104C0.038795
T105C0.040000
%
T100
X017414Y055874
X026333Y060506
X020217Y054839
X014007Y053046
T101
X028101Y044548
X041101Y028048
X050429Y048720
X033222Y049169
X046101Y030048
X031101Y032048
X038101Y051048
X053601Y045548
X041101Y051048
X048222Y032169
X051101Y034548
X053601Y034548
X031429Y051376
X034601Y039548
X025601Y037548
X048101Y028048
X040101Y054048
X033222Y029927
X044101Y054048
X045101Y025548
X031101Y047048
X039101Y025548
X051101Y041548
X028101Y037548
X038101Y054048
X029272Y030376
X025601Y044548
X051101Y044548
X038101Y028048
X053601Y038548
X041101Y025548
X032101Y027548
X030601Y039548
X025601Y040548
X053601Y041548
X035101Y051048
X050929Y030876
X028101Y034548
X051101Y037548
X034101Y054048
X046101Y049048
X028601Y048548
X048222Y046927
X028101Y041548
X047601Y051548
X044101Y051048
X025601Y033548
X035101Y028048
X035101Y025548
X044101Y028048
T102
X066154Y033662
X012480Y033664
X034136Y065881
X012471Y044650
X066071Y044662
X045066Y012397
X045201Y065946
X034070Y012355
T103
X008533Y021874
X009947Y023288
X010654Y023995
X011361Y024702
X012069Y025409
X009240Y022581
T104
X028890Y019509
X022531Y025869
X031723Y022342
X021827Y012445
X014047Y017385
X023951Y027289
X026066Y029404
X019705Y023043
X031013Y021632
X022530Y013148
X024654Y027991
X015467Y018805
X018995Y022333
X025355Y015973
X026776Y030114
X017583Y020920
X029600Y020219
X021117Y011735
X026065Y016683
X014757Y018095
X024652Y015271
X023942Y014561
X027478Y018096
X016170Y019508
X020415Y023753
X030310Y020929
X018293Y021630
X026775Y017393
X016880Y020218
X021118Y024456
X025364Y028701
X033136Y023754
X023240Y013858
X021828Y025166
X028188Y018806
X020407Y011025
X023241Y026579
X032426Y023044
T105
X030782Y063212
X057579Y037759
X058733Y025180
X058553Y038733
X020005Y052442
X029808Y062237
X059708Y026154
X050035Y016338
X020979Y053416
X049061Y015364
T00
M30
