G04 MADE WITH FRITZING*
G04 WWW.FRITZING.ORG*
G04 DOUBLE SIDED*
G04 HOLES PLATED*
G04 CONTOUR ON CENTER OF CONTOUR VECTOR*
%ASAXBY*%
%FSLAX23Y23*%
%MOIN*%
%OFA0B0*%
%SFA1.0B1.0*%
%ADD10C,0.005556*%
%ADD11R,0.001000X0.001000*%
%LNSILK0*%
G90*
G70*
G54D10*
X3241Y4201D02*
X3241Y4209D01*
X3044Y4209D01*
X3044Y4201D01*
D02*
X3044Y4021D02*
X3044Y4012D01*
X3241Y4012D01*
X3241Y4021D01*
D02*
X3241Y3800D02*
X3241Y3809D01*
X3044Y3809D01*
X3044Y3800D01*
D02*
X3044Y3621D02*
X3044Y3612D01*
X3241Y3612D01*
X3241Y3621D01*
D02*
X3274Y4549D02*
X3268Y4543D01*
X3407Y4403D01*
X3413Y4410D01*
D02*
X3540Y4536D02*
X3546Y4543D01*
X3407Y4682D01*
X3401Y4676D01*
D02*
X3849Y4813D02*
X3840Y4813D01*
X3840Y4616D01*
X3849Y4616D01*
D02*
X4028Y4616D02*
X4037Y4616D01*
X4037Y4813D01*
X4028Y4813D01*
D02*
X4477Y4676D02*
X4471Y4682D01*
X4331Y4543D01*
X4338Y4536D01*
D02*
X4464Y4410D02*
X4471Y4404D01*
X4610Y4543D01*
X4604Y4549D01*
D02*
X4841Y4201D02*
X4841Y4209D01*
X4644Y4209D01*
X4644Y4201D01*
D02*
X4644Y4021D02*
X4644Y4012D01*
X4841Y4012D01*
X4841Y4021D01*
D02*
X4841Y3800D02*
X4841Y3809D01*
X4644Y3809D01*
X4644Y3800D01*
D02*
X4644Y3621D02*
X4644Y3612D01*
X4841Y3612D01*
X4841Y3621D01*
D02*
X4324Y3299D02*
X4318Y3293D01*
X4457Y3153D01*
X4463Y3160D01*
D02*
X4590Y3286D02*
X4596Y3293D01*
X4457Y3432D01*
X4451Y3426D01*
D02*
X3849Y3213D02*
X3840Y3213D01*
X3840Y3016D01*
X3849Y3016D01*
D02*
X4028Y3016D02*
X4037Y3016D01*
X4037Y3213D01*
X4028Y3213D01*
D02*
X3427Y3426D02*
X3421Y3432D01*
X3281Y3293D01*
X3288Y3286D01*
D02*
X3414Y3160D02*
X3421Y3153D01*
X3560Y3293D01*
X3554Y3299D01*
D02*
G54D11*
X4296Y4466D02*
X4300Y4466D01*
X4295Y4465D02*
X4301Y4465D01*
X4293Y4464D02*
X4301Y4464D01*
X4292Y4463D02*
X4302Y4463D01*
X4290Y4462D02*
X4302Y4462D01*
X4289Y4461D02*
X4301Y4461D01*
X4288Y4460D02*
X4301Y4460D01*
X4286Y4459D02*
X4301Y4459D01*
X4285Y4458D02*
X4301Y4458D01*
X4284Y4457D02*
X4300Y4457D01*
X4283Y4456D02*
X4300Y4456D01*
X4282Y4455D02*
X4300Y4455D01*
X4281Y4454D02*
X4299Y4454D01*
X4280Y4453D02*
X4299Y4453D01*
X4279Y4452D02*
X4298Y4452D01*
X4278Y4451D02*
X4298Y4451D01*
X4277Y4450D02*
X4297Y4450D01*
X4276Y4449D02*
X4297Y4449D01*
X4275Y4448D02*
X4296Y4448D01*
X4274Y4447D02*
X4296Y4447D01*
X4273Y4446D02*
X4295Y4446D01*
X4272Y4445D02*
X4295Y4445D01*
X4271Y4444D02*
X4294Y4444D01*
X4269Y4443D02*
X4294Y4443D01*
X4268Y4442D02*
X4282Y4442D01*
X4285Y4442D02*
X4293Y4442D01*
X4267Y4441D02*
X4281Y4441D01*
X4284Y4441D02*
X4293Y4441D01*
X4266Y4440D02*
X4280Y4440D01*
X4284Y4440D02*
X4292Y4440D01*
X4265Y4439D02*
X4279Y4439D01*
X4283Y4439D02*
X4292Y4439D01*
X4264Y4438D02*
X4277Y4438D01*
X4283Y4438D02*
X4291Y4438D01*
X4263Y4437D02*
X4276Y4437D01*
X4282Y4437D02*
X4291Y4437D01*
X4262Y4436D02*
X4275Y4436D01*
X4282Y4436D02*
X4290Y4436D01*
X4261Y4435D02*
X4274Y4435D01*
X4281Y4435D02*
X4290Y4435D01*
X4260Y4434D02*
X4273Y4434D01*
X4280Y4434D02*
X4289Y4434D01*
X4259Y4433D02*
X4272Y4433D01*
X4280Y4433D02*
X4289Y4433D01*
X4258Y4432D02*
X4271Y4432D01*
X4279Y4432D02*
X4288Y4432D01*
X4257Y4431D02*
X4270Y4431D01*
X4278Y4431D02*
X4287Y4431D01*
X4256Y4430D02*
X4269Y4430D01*
X4278Y4430D02*
X4287Y4430D01*
X4255Y4429D02*
X4268Y4429D01*
X4277Y4429D02*
X4286Y4429D01*
X4254Y4428D02*
X4267Y4428D01*
X4276Y4428D02*
X4286Y4428D01*
X4253Y4427D02*
X4266Y4427D01*
X4276Y4427D02*
X4285Y4427D01*
X4252Y4426D02*
X4265Y4426D01*
X4275Y4426D02*
X4285Y4426D01*
X4251Y4425D02*
X4264Y4425D01*
X4274Y4425D02*
X4284Y4425D01*
X4250Y4424D02*
X4263Y4424D01*
X4274Y4424D02*
X4283Y4424D01*
X4249Y4423D02*
X4262Y4423D01*
X4273Y4423D02*
X4283Y4423D01*
X4248Y4422D02*
X4261Y4422D01*
X4272Y4422D02*
X4282Y4422D01*
X4247Y4421D02*
X4260Y4421D01*
X4272Y4421D02*
X4282Y4421D01*
X4246Y4420D02*
X4259Y4420D01*
X4271Y4420D02*
X4281Y4420D01*
X4245Y4419D02*
X4258Y4419D01*
X4270Y4419D02*
X4280Y4419D01*
X4244Y4418D02*
X4257Y4418D01*
X4270Y4418D02*
X4280Y4418D01*
X4243Y4417D02*
X4256Y4417D01*
X4269Y4417D02*
X4279Y4417D01*
X4242Y4416D02*
X4255Y4416D01*
X4269Y4416D02*
X4279Y4416D01*
X4241Y4415D02*
X4254Y4415D01*
X4268Y4415D02*
X4278Y4415D01*
X4240Y4414D02*
X4253Y4414D01*
X4267Y4414D02*
X4277Y4414D01*
X4238Y4413D02*
X4252Y4413D01*
X4267Y4413D02*
X4277Y4413D01*
X4237Y4412D02*
X4251Y4412D01*
X4266Y4412D02*
X4276Y4412D01*
X4236Y4411D02*
X4250Y4411D01*
X4265Y4411D02*
X4275Y4411D01*
X4235Y4410D02*
X4249Y4410D01*
X4265Y4410D02*
X4275Y4410D01*
X4234Y4409D02*
X4248Y4409D01*
X4264Y4409D02*
X4274Y4409D01*
X4233Y4408D02*
X4247Y4408D01*
X4263Y4408D02*
X4274Y4408D01*
X4232Y4407D02*
X4246Y4407D01*
X4263Y4407D02*
X4273Y4407D01*
X4231Y4406D02*
X4245Y4406D01*
X4262Y4406D02*
X4272Y4406D01*
X4229Y4405D02*
X4243Y4405D01*
X4261Y4405D02*
X4272Y4405D01*
X4228Y4404D02*
X4242Y4404D01*
X4260Y4404D02*
X4271Y4404D01*
X4227Y4403D02*
X4241Y4403D01*
X4260Y4403D02*
X4270Y4403D01*
X4226Y4402D02*
X4240Y4402D01*
X4259Y4402D02*
X4270Y4402D01*
X4224Y4401D02*
X4239Y4401D01*
X4258Y4401D02*
X4269Y4401D01*
X4223Y4400D02*
X4238Y4400D01*
X4258Y4400D02*
X4268Y4400D01*
X4222Y4399D02*
X4236Y4399D01*
X4257Y4399D02*
X4268Y4399D01*
X4220Y4398D02*
X4235Y4398D01*
X4256Y4398D02*
X4267Y4398D01*
X4219Y4397D02*
X4234Y4397D01*
X4255Y4397D02*
X4266Y4397D01*
X4217Y4396D02*
X4233Y4396D01*
X4255Y4396D02*
X4266Y4396D01*
X4216Y4395D02*
X4232Y4395D01*
X4254Y4395D02*
X4265Y4395D01*
X4214Y4394D02*
X4230Y4394D01*
X4253Y4394D02*
X4264Y4394D01*
X4213Y4393D02*
X4229Y4393D01*
X4253Y4393D02*
X4264Y4393D01*
X4211Y4392D02*
X4228Y4392D01*
X4252Y4392D02*
X4263Y4392D01*
X4209Y4391D02*
X4226Y4391D01*
X4251Y4391D02*
X4262Y4391D01*
X4208Y4390D02*
X4225Y4390D01*
X4250Y4390D02*
X4261Y4390D01*
X4206Y4389D02*
X4224Y4389D01*
X4249Y4389D02*
X4261Y4389D01*
X4204Y4388D02*
X4222Y4388D01*
X4249Y4388D02*
X4260Y4388D01*
X4203Y4387D02*
X4221Y4387D01*
X4248Y4387D02*
X4259Y4387D01*
X4201Y4386D02*
X4220Y4386D01*
X4247Y4386D02*
X4259Y4386D01*
X4199Y4385D02*
X4218Y4385D01*
X4246Y4385D02*
X4258Y4385D01*
X4198Y4384D02*
X4217Y4384D01*
X4245Y4384D02*
X4257Y4384D01*
X4304Y4384D02*
X4306Y4384D01*
X4196Y4383D02*
X4215Y4383D01*
X4245Y4383D02*
X4256Y4383D01*
X4302Y4383D02*
X4307Y4383D01*
X4194Y4382D02*
X4214Y4382D01*
X4244Y4382D02*
X4256Y4382D01*
X4301Y4382D02*
X4307Y4382D01*
X4193Y4381D02*
X4212Y4381D01*
X4243Y4381D02*
X4255Y4381D01*
X4300Y4381D02*
X4307Y4381D01*
X4191Y4380D02*
X4210Y4380D01*
X4242Y4380D02*
X4254Y4380D01*
X4299Y4380D02*
X4307Y4380D01*
X4189Y4379D02*
X4209Y4379D01*
X4241Y4379D02*
X4254Y4379D01*
X4298Y4379D02*
X4307Y4379D01*
X4187Y4378D02*
X4207Y4378D01*
X4241Y4378D02*
X4253Y4378D01*
X4297Y4378D02*
X4306Y4378D01*
X4186Y4377D02*
X4206Y4377D01*
X4240Y4377D02*
X4252Y4377D01*
X4296Y4377D02*
X4306Y4377D01*
X4184Y4376D02*
X4204Y4376D01*
X4239Y4376D02*
X4251Y4376D01*
X4295Y4376D02*
X4306Y4376D01*
X4182Y4375D02*
X4202Y4375D01*
X4238Y4375D02*
X4250Y4375D01*
X4294Y4375D02*
X4306Y4375D01*
X4180Y4374D02*
X4200Y4374D01*
X4237Y4374D02*
X4250Y4374D01*
X4293Y4374D02*
X4306Y4374D01*
X4178Y4373D02*
X4199Y4373D01*
X4236Y4373D02*
X4249Y4373D01*
X4291Y4373D02*
X4306Y4373D01*
X4177Y4372D02*
X4197Y4372D01*
X4236Y4372D02*
X4248Y4372D01*
X4290Y4372D02*
X4305Y4372D01*
X4175Y4371D02*
X4195Y4371D01*
X4235Y4371D02*
X4247Y4371D01*
X4290Y4371D02*
X4305Y4371D01*
X4173Y4370D02*
X4194Y4370D01*
X4234Y4370D02*
X4246Y4370D01*
X4289Y4370D02*
X4305Y4370D01*
X4171Y4369D02*
X4192Y4369D01*
X4233Y4369D02*
X4246Y4369D01*
X4288Y4369D02*
X4305Y4369D01*
X4169Y4368D02*
X4190Y4368D01*
X4232Y4368D02*
X4245Y4368D01*
X4287Y4368D02*
X4305Y4368D01*
X4167Y4367D02*
X4189Y4367D01*
X4231Y4367D02*
X4244Y4367D01*
X4286Y4367D02*
X4304Y4367D01*
X4165Y4366D02*
X4187Y4366D01*
X4230Y4366D02*
X4243Y4366D01*
X4285Y4366D02*
X4304Y4366D01*
X4163Y4365D02*
X4185Y4365D01*
X4229Y4365D02*
X4242Y4365D01*
X4284Y4365D02*
X4304Y4365D01*
X4161Y4364D02*
X4183Y4364D01*
X4229Y4364D02*
X4241Y4364D01*
X4283Y4364D02*
X4303Y4364D01*
X4159Y4363D02*
X4182Y4363D01*
X4228Y4363D02*
X4240Y4363D01*
X4282Y4363D02*
X4303Y4363D01*
X4157Y4362D02*
X4180Y4362D01*
X4227Y4362D02*
X4240Y4362D01*
X4281Y4362D02*
X4303Y4362D01*
X4155Y4361D02*
X4178Y4361D01*
X4226Y4361D02*
X4239Y4361D01*
X4280Y4361D02*
X4303Y4361D01*
X4152Y4360D02*
X4176Y4360D01*
X4225Y4360D02*
X4238Y4360D01*
X4279Y4360D02*
X4302Y4360D01*
X4150Y4359D02*
X4174Y4359D01*
X4224Y4359D02*
X4237Y4359D01*
X4278Y4359D02*
X4290Y4359D01*
X4293Y4359D02*
X4302Y4359D01*
X4148Y4358D02*
X4172Y4358D01*
X4223Y4358D02*
X4236Y4358D01*
X4277Y4358D02*
X4289Y4358D01*
X4292Y4358D02*
X4301Y4358D01*
X4145Y4357D02*
X4170Y4357D01*
X4222Y4357D02*
X4235Y4357D01*
X4276Y4357D02*
X4288Y4357D01*
X4292Y4357D02*
X4301Y4357D01*
X4143Y4356D02*
X4168Y4356D01*
X4221Y4356D02*
X4234Y4356D01*
X4275Y4356D02*
X4287Y4356D01*
X4291Y4356D02*
X4301Y4356D01*
X4141Y4355D02*
X4165Y4355D01*
X4220Y4355D02*
X4233Y4355D01*
X4274Y4355D02*
X4286Y4355D01*
X4291Y4355D02*
X4300Y4355D01*
X4138Y4354D02*
X4163Y4354D01*
X4219Y4354D02*
X4232Y4354D01*
X4273Y4354D02*
X4285Y4354D01*
X4290Y4354D02*
X4300Y4354D01*
X4136Y4353D02*
X4161Y4353D01*
X4218Y4353D02*
X4232Y4353D01*
X4272Y4353D02*
X4284Y4353D01*
X4290Y4353D02*
X4299Y4353D01*
X4133Y4352D02*
X4158Y4352D01*
X4217Y4352D02*
X4231Y4352D01*
X4271Y4352D02*
X4283Y4352D01*
X4289Y4352D02*
X4299Y4352D01*
X4130Y4351D02*
X4156Y4351D01*
X4216Y4351D02*
X4230Y4351D01*
X4270Y4351D02*
X4282Y4351D01*
X4289Y4351D02*
X4298Y4351D01*
X4128Y4350D02*
X4154Y4350D01*
X4215Y4350D02*
X4229Y4350D01*
X4269Y4350D02*
X4281Y4350D01*
X4288Y4350D02*
X4298Y4350D01*
X4125Y4349D02*
X4151Y4349D01*
X4214Y4349D02*
X4228Y4349D01*
X4268Y4349D02*
X4280Y4349D01*
X4288Y4349D02*
X4297Y4349D01*
X4122Y4348D02*
X4148Y4348D01*
X4213Y4348D02*
X4227Y4348D01*
X4267Y4348D02*
X4279Y4348D01*
X4287Y4348D02*
X4297Y4348D01*
X4118Y4347D02*
X4146Y4347D01*
X4212Y4347D02*
X4226Y4347D01*
X4266Y4347D02*
X4278Y4347D01*
X4286Y4347D02*
X4297Y4347D01*
X4115Y4346D02*
X4143Y4346D01*
X4211Y4346D02*
X4225Y4346D01*
X4265Y4346D02*
X4277Y4346D01*
X4286Y4346D02*
X4296Y4346D01*
X4112Y4345D02*
X4141Y4345D01*
X4210Y4345D02*
X4224Y4345D01*
X4264Y4345D02*
X4276Y4345D01*
X4285Y4345D02*
X4295Y4345D01*
X4109Y4344D02*
X4138Y4344D01*
X4209Y4344D02*
X4223Y4344D01*
X4263Y4344D02*
X4275Y4344D01*
X4285Y4344D02*
X4295Y4344D01*
X4105Y4343D02*
X4135Y4343D01*
X4208Y4343D02*
X4222Y4343D01*
X4262Y4343D02*
X4274Y4343D01*
X4284Y4343D02*
X4294Y4343D01*
X4101Y4342D02*
X4132Y4342D01*
X4207Y4342D02*
X4221Y4342D01*
X4260Y4342D02*
X4273Y4342D01*
X4283Y4342D02*
X4294Y4342D01*
X4098Y4341D02*
X4129Y4341D01*
X4206Y4341D02*
X4220Y4341D01*
X4259Y4341D02*
X4272Y4341D01*
X4283Y4341D02*
X4293Y4341D01*
X4094Y4340D02*
X4126Y4340D01*
X4205Y4340D02*
X4219Y4340D01*
X4258Y4340D02*
X4271Y4340D01*
X4282Y4340D02*
X4293Y4340D01*
X4089Y4339D02*
X4123Y4339D01*
X4204Y4339D02*
X4218Y4339D01*
X4257Y4339D02*
X4270Y4339D01*
X4282Y4339D02*
X4292Y4339D01*
X4085Y4338D02*
X4120Y4338D01*
X4203Y4338D02*
X4217Y4338D01*
X4256Y4338D02*
X4269Y4338D01*
X4281Y4338D02*
X4292Y4338D01*
X4081Y4337D02*
X4117Y4337D01*
X4202Y4337D02*
X4216Y4337D01*
X4255Y4337D02*
X4268Y4337D01*
X4281Y4337D02*
X4291Y4337D01*
X4076Y4336D02*
X4113Y4336D01*
X4201Y4336D02*
X4215Y4336D01*
X4254Y4336D02*
X4267Y4336D01*
X4280Y4336D02*
X4291Y4336D01*
X4072Y4335D02*
X4110Y4335D01*
X4200Y4335D02*
X4214Y4335D01*
X4253Y4335D02*
X4266Y4335D01*
X4279Y4335D02*
X4290Y4335D01*
X4066Y4334D02*
X4107Y4334D01*
X4199Y4334D02*
X4213Y4334D01*
X4252Y4334D02*
X4265Y4334D01*
X4279Y4334D02*
X4289Y4334D01*
X4060Y4333D02*
X4103Y4333D01*
X4198Y4333D02*
X4212Y4333D01*
X4251Y4333D02*
X4264Y4333D01*
X4278Y4333D02*
X4289Y4333D01*
X4049Y4332D02*
X4099Y4332D01*
X4197Y4332D02*
X4211Y4332D01*
X4249Y4332D02*
X4263Y4332D01*
X4277Y4332D02*
X4288Y4332D01*
X3919Y4331D02*
X4095Y4331D01*
X4196Y4331D02*
X4210Y4331D01*
X4248Y4331D02*
X4262Y4331D01*
X4277Y4331D02*
X4288Y4331D01*
X3903Y4330D02*
X4091Y4330D01*
X4194Y4330D02*
X4209Y4330D01*
X4247Y4330D02*
X4261Y4330D01*
X4276Y4330D02*
X4287Y4330D01*
X3893Y4329D02*
X4086Y4329D01*
X4193Y4329D02*
X4208Y4329D01*
X4246Y4329D02*
X4260Y4329D01*
X4275Y4329D02*
X4286Y4329D01*
X3885Y4328D02*
X4082Y4328D01*
X4192Y4328D02*
X4206Y4328D01*
X4245Y4328D02*
X4259Y4328D01*
X4275Y4328D02*
X4286Y4328D01*
X3879Y4327D02*
X4077Y4327D01*
X4191Y4327D02*
X4205Y4327D01*
X4244Y4327D02*
X4257Y4327D01*
X4274Y4327D02*
X4285Y4327D01*
X3873Y4326D02*
X4071Y4326D01*
X4190Y4326D02*
X4204Y4326D01*
X4242Y4326D02*
X4256Y4326D01*
X4274Y4326D02*
X4285Y4326D01*
X3869Y4325D02*
X4066Y4325D01*
X4189Y4325D02*
X4203Y4325D01*
X4241Y4325D02*
X4255Y4325D01*
X4273Y4325D02*
X4284Y4325D01*
X3864Y4324D02*
X3927Y4324D01*
X3968Y4324D02*
X4059Y4324D01*
X4188Y4324D02*
X4202Y4324D01*
X4240Y4324D02*
X4254Y4324D01*
X4272Y4324D02*
X4283Y4324D01*
X3860Y4323D02*
X3915Y4323D01*
X3984Y4323D02*
X4051Y4323D01*
X4186Y4323D02*
X4201Y4323D01*
X4238Y4323D02*
X4253Y4323D01*
X4272Y4323D02*
X4283Y4323D01*
X3856Y4322D02*
X3907Y4322D01*
X4004Y4322D02*
X4037Y4322D01*
X4185Y4322D02*
X4200Y4322D01*
X4237Y4322D02*
X4252Y4322D01*
X4271Y4322D02*
X4282Y4322D01*
X3852Y4321D02*
X3900Y4321D01*
X4184Y4321D02*
X4199Y4321D01*
X4236Y4321D02*
X4250Y4321D01*
X4270Y4321D02*
X4282Y4321D01*
X3849Y4320D02*
X3893Y4320D01*
X4183Y4320D02*
X4197Y4320D01*
X4234Y4320D02*
X4249Y4320D01*
X4270Y4320D02*
X4281Y4320D01*
X3845Y4319D02*
X3887Y4319D01*
X4182Y4319D02*
X4196Y4319D01*
X4233Y4319D02*
X4248Y4319D01*
X4269Y4319D02*
X4280Y4319D01*
X3842Y4318D02*
X3882Y4318D01*
X4180Y4318D02*
X4195Y4318D01*
X4232Y4318D02*
X4247Y4318D01*
X4269Y4318D02*
X4280Y4318D01*
X3839Y4317D02*
X3876Y4317D01*
X4179Y4317D02*
X4194Y4317D01*
X4230Y4317D02*
X4246Y4317D01*
X4268Y4317D02*
X4279Y4317D01*
X3836Y4316D02*
X3872Y4316D01*
X4178Y4316D02*
X4193Y4316D01*
X4229Y4316D02*
X4244Y4316D01*
X4267Y4316D02*
X4278Y4316D01*
X3833Y4315D02*
X3867Y4315D01*
X4177Y4315D02*
X4191Y4315D01*
X4228Y4315D02*
X4243Y4315D01*
X4267Y4315D02*
X4278Y4315D01*
X3830Y4314D02*
X3862Y4314D01*
X4175Y4314D02*
X4190Y4314D01*
X4226Y4314D02*
X4242Y4314D01*
X4266Y4314D02*
X4277Y4314D01*
X3827Y4313D02*
X3858Y4313D01*
X4174Y4313D02*
X4189Y4313D01*
X4225Y4313D02*
X4241Y4313D01*
X4265Y4313D02*
X4276Y4313D01*
X3824Y4312D02*
X3854Y4312D01*
X4173Y4312D02*
X4188Y4312D01*
X4223Y4312D02*
X4239Y4312D01*
X4264Y4312D02*
X4276Y4312D01*
X3821Y4311D02*
X3850Y4311D01*
X4171Y4311D02*
X4186Y4311D01*
X4222Y4311D02*
X4238Y4311D01*
X4264Y4311D02*
X4275Y4311D01*
X3818Y4310D02*
X3846Y4310D01*
X4170Y4310D02*
X4185Y4310D01*
X4221Y4310D02*
X4237Y4310D01*
X4263Y4310D02*
X4274Y4310D01*
X3815Y4309D02*
X3842Y4309D01*
X4168Y4309D02*
X4184Y4309D01*
X4219Y4309D02*
X4235Y4309D01*
X4262Y4309D02*
X4274Y4309D01*
X3812Y4308D02*
X3839Y4308D01*
X4167Y4308D02*
X4183Y4308D01*
X4218Y4308D02*
X4234Y4308D01*
X4262Y4308D02*
X4273Y4308D01*
X3809Y4307D02*
X3836Y4307D01*
X4166Y4307D02*
X4181Y4307D01*
X4216Y4307D02*
X4233Y4307D01*
X4261Y4307D02*
X4272Y4307D01*
X3807Y4306D02*
X3833Y4306D01*
X4164Y4306D02*
X4180Y4306D01*
X4215Y4306D02*
X4231Y4306D01*
X4260Y4306D02*
X4272Y4306D01*
X3804Y4305D02*
X3829Y4305D01*
X4163Y4305D02*
X4179Y4305D01*
X4213Y4305D02*
X4230Y4305D01*
X4260Y4305D02*
X4271Y4305D01*
X3801Y4304D02*
X3826Y4304D01*
X4161Y4304D02*
X4177Y4304D01*
X4212Y4304D02*
X4228Y4304D01*
X4259Y4304D02*
X4270Y4304D01*
X3798Y4303D02*
X3823Y4303D01*
X4160Y4303D02*
X4176Y4303D01*
X4210Y4303D02*
X4227Y4303D01*
X4258Y4303D02*
X4269Y4303D01*
X3796Y4302D02*
X3821Y4302D01*
X4159Y4302D02*
X4174Y4302D01*
X4209Y4302D02*
X4225Y4302D01*
X4258Y4302D02*
X4269Y4302D01*
X3793Y4301D02*
X3818Y4301D01*
X4157Y4301D02*
X4173Y4301D01*
X4207Y4301D02*
X4224Y4301D01*
X4257Y4301D02*
X4268Y4301D01*
X3791Y4300D02*
X3815Y4300D01*
X4156Y4300D02*
X4172Y4300D01*
X4205Y4300D02*
X4223Y4300D01*
X4256Y4300D02*
X4267Y4300D01*
X3788Y4299D02*
X3813Y4299D01*
X4155Y4299D02*
X4170Y4299D01*
X4203Y4299D02*
X4221Y4299D01*
X4255Y4299D02*
X4266Y4299D01*
X3786Y4298D02*
X3810Y4298D01*
X4153Y4298D02*
X4169Y4298D01*
X4201Y4298D02*
X4220Y4298D01*
X4255Y4298D02*
X4266Y4298D01*
X4308Y4298D02*
X4310Y4298D01*
X3784Y4297D02*
X3808Y4297D01*
X4152Y4297D02*
X4168Y4297D01*
X4200Y4297D02*
X4218Y4297D01*
X4254Y4297D02*
X4265Y4297D01*
X4306Y4297D02*
X4311Y4297D01*
X3782Y4296D02*
X3805Y4296D01*
X4151Y4296D02*
X4166Y4296D01*
X4198Y4296D02*
X4217Y4296D01*
X4253Y4296D02*
X4264Y4296D01*
X4305Y4296D02*
X4311Y4296D01*
X3780Y4295D02*
X3803Y4295D01*
X4150Y4295D02*
X4165Y4295D01*
X4197Y4295D02*
X4215Y4295D01*
X4252Y4295D02*
X4264Y4295D01*
X4304Y4295D02*
X4311Y4295D01*
X3778Y4294D02*
X3801Y4294D01*
X4149Y4294D02*
X4163Y4294D01*
X4195Y4294D02*
X4214Y4294D01*
X4252Y4294D02*
X4263Y4294D01*
X4303Y4294D02*
X4311Y4294D01*
X3776Y4293D02*
X3798Y4293D01*
X4148Y4293D02*
X4162Y4293D01*
X4194Y4293D02*
X4212Y4293D01*
X4251Y4293D02*
X4262Y4293D01*
X4302Y4293D02*
X4311Y4293D01*
X3774Y4292D02*
X3796Y4292D01*
X4146Y4292D02*
X4161Y4292D01*
X4192Y4292D02*
X4211Y4292D01*
X4250Y4292D02*
X4261Y4292D01*
X4300Y4292D02*
X4311Y4292D01*
X3772Y4291D02*
X3794Y4291D01*
X4145Y4291D02*
X4159Y4291D01*
X4190Y4291D02*
X4209Y4291D01*
X4249Y4291D02*
X4261Y4291D01*
X4299Y4291D02*
X4311Y4291D01*
X3770Y4290D02*
X3792Y4290D01*
X4144Y4290D02*
X4158Y4290D01*
X4189Y4290D02*
X4207Y4290D01*
X4248Y4290D02*
X4260Y4290D01*
X4298Y4290D02*
X4310Y4290D01*
X3768Y4289D02*
X3790Y4289D01*
X4143Y4289D02*
X4157Y4289D01*
X4187Y4289D02*
X4206Y4289D01*
X4248Y4289D02*
X4259Y4289D01*
X4297Y4289D02*
X4310Y4289D01*
X3767Y4288D02*
X3788Y4288D01*
X4142Y4288D02*
X4156Y4288D01*
X4186Y4288D02*
X4204Y4288D01*
X4247Y4288D02*
X4258Y4288D01*
X4296Y4288D02*
X4310Y4288D01*
X3765Y4287D02*
X3786Y4287D01*
X4141Y4287D02*
X4155Y4287D01*
X4184Y4287D02*
X4202Y4287D01*
X4246Y4287D02*
X4258Y4287D01*
X4295Y4287D02*
X4310Y4287D01*
X3763Y4286D02*
X3784Y4286D01*
X4140Y4286D02*
X4154Y4286D01*
X4182Y4286D02*
X4201Y4286D01*
X4245Y4286D02*
X4257Y4286D01*
X4294Y4286D02*
X4309Y4286D01*
X3761Y4285D02*
X3782Y4285D01*
X4139Y4285D02*
X4153Y4285D01*
X4180Y4285D02*
X4199Y4285D01*
X4245Y4285D02*
X4256Y4285D01*
X4293Y4285D02*
X4309Y4285D01*
X3760Y4284D02*
X3780Y4284D01*
X4138Y4284D02*
X4152Y4284D01*
X4178Y4284D02*
X4197Y4284D01*
X4244Y4284D02*
X4255Y4284D01*
X4292Y4284D02*
X4309Y4284D01*
X3758Y4283D02*
X3778Y4283D01*
X4137Y4283D02*
X4151Y4283D01*
X4176Y4283D02*
X4195Y4283D01*
X4243Y4283D02*
X4255Y4283D01*
X4291Y4283D02*
X4309Y4283D01*
X3756Y4282D02*
X3776Y4282D01*
X4135Y4282D02*
X4151Y4282D01*
X4174Y4282D02*
X4194Y4282D01*
X4242Y4282D02*
X4254Y4282D01*
X4290Y4282D02*
X4308Y4282D01*
X3755Y4281D02*
X3774Y4281D01*
X4134Y4281D02*
X4151Y4281D01*
X4172Y4281D02*
X4192Y4281D01*
X4241Y4281D02*
X4253Y4281D01*
X4289Y4281D02*
X4308Y4281D01*
X3753Y4280D02*
X3772Y4280D01*
X4133Y4280D02*
X4152Y4280D01*
X4170Y4280D02*
X4190Y4280D01*
X4241Y4280D02*
X4252Y4280D01*
X4288Y4280D02*
X4308Y4280D01*
X3752Y4279D02*
X3770Y4279D01*
X4131Y4279D02*
X4153Y4279D01*
X4167Y4279D02*
X4188Y4279D01*
X4240Y4279D02*
X4252Y4279D01*
X4287Y4279D02*
X4307Y4279D01*
X3750Y4278D02*
X3768Y4278D01*
X4130Y4278D02*
X4154Y4278D01*
X4165Y4278D02*
X4186Y4278D01*
X4239Y4278D02*
X4251Y4278D01*
X4286Y4278D02*
X4307Y4278D01*
X3748Y4277D02*
X3766Y4277D01*
X4128Y4277D02*
X4157Y4277D01*
X4162Y4277D02*
X4184Y4277D01*
X4238Y4277D02*
X4250Y4277D01*
X4285Y4277D02*
X4307Y4277D01*
X3747Y4276D02*
X3765Y4276D01*
X4127Y4276D02*
X4182Y4276D01*
X4237Y4276D02*
X4249Y4276D01*
X4284Y4276D02*
X4306Y4276D01*
X3745Y4275D02*
X3763Y4275D01*
X4125Y4275D02*
X4179Y4275D01*
X4236Y4275D02*
X4248Y4275D01*
X4283Y4275D02*
X4306Y4275D01*
X3744Y4274D02*
X3761Y4274D01*
X4123Y4274D02*
X4177Y4274D01*
X4236Y4274D02*
X4248Y4274D01*
X4282Y4274D02*
X4306Y4274D01*
X3742Y4273D02*
X3759Y4273D01*
X4121Y4273D02*
X4175Y4273D01*
X4235Y4273D02*
X4247Y4273D01*
X4281Y4273D02*
X4305Y4273D01*
X3740Y4272D02*
X3758Y4272D01*
X4120Y4272D02*
X4172Y4272D01*
X4234Y4272D02*
X4246Y4272D01*
X4280Y4272D02*
X4293Y4272D01*
X4295Y4272D02*
X4305Y4272D01*
X3739Y4271D02*
X3756Y4271D01*
X4118Y4271D02*
X4170Y4271D01*
X4233Y4271D02*
X4245Y4271D01*
X4279Y4271D02*
X4292Y4271D01*
X4295Y4271D02*
X4304Y4271D01*
X3737Y4270D02*
X3754Y4270D01*
X4116Y4270D02*
X4166Y4270D01*
X4232Y4270D02*
X4244Y4270D01*
X4278Y4270D02*
X4291Y4270D01*
X4295Y4270D02*
X4304Y4270D01*
X3736Y4269D02*
X3752Y4269D01*
X4114Y4269D02*
X4163Y4269D01*
X4232Y4269D02*
X4244Y4269D01*
X4277Y4269D02*
X4289Y4269D01*
X4294Y4269D02*
X4304Y4269D01*
X3734Y4268D02*
X3751Y4268D01*
X4112Y4268D02*
X4159Y4268D01*
X4231Y4268D02*
X4243Y4268D01*
X4276Y4268D02*
X4288Y4268D01*
X4294Y4268D02*
X4303Y4268D01*
X3733Y4267D02*
X3749Y4267D01*
X4110Y4267D02*
X4154Y4267D01*
X4230Y4267D02*
X4242Y4267D01*
X4275Y4267D02*
X4287Y4267D01*
X4294Y4267D02*
X4303Y4267D01*
X3731Y4266D02*
X3747Y4266D01*
X4107Y4266D02*
X4150Y4266D01*
X4229Y4266D02*
X4241Y4266D01*
X4274Y4266D02*
X4286Y4266D01*
X4293Y4266D02*
X4302Y4266D01*
X3730Y4265D02*
X3746Y4265D01*
X4105Y4265D02*
X4146Y4265D01*
X4228Y4265D02*
X4240Y4265D01*
X4273Y4265D02*
X4285Y4265D01*
X4293Y4265D02*
X4302Y4265D01*
X3728Y4264D02*
X3744Y4264D01*
X4103Y4264D02*
X4142Y4264D01*
X4227Y4264D02*
X4239Y4264D01*
X4272Y4264D02*
X4284Y4264D01*
X4292Y4264D02*
X4302Y4264D01*
X3727Y4263D02*
X3743Y4263D01*
X4101Y4263D02*
X4139Y4263D01*
X4227Y4263D02*
X4239Y4263D01*
X4271Y4263D02*
X4284Y4263D01*
X4292Y4263D02*
X4301Y4263D01*
X3725Y4262D02*
X3741Y4262D01*
X4098Y4262D02*
X4135Y4262D01*
X4226Y4262D02*
X4238Y4262D01*
X4270Y4262D02*
X4283Y4262D01*
X4291Y4262D02*
X4301Y4262D01*
X3724Y4261D02*
X3739Y4261D01*
X4096Y4261D02*
X4132Y4261D01*
X4225Y4261D02*
X4237Y4261D01*
X4269Y4261D02*
X4282Y4261D01*
X4291Y4261D02*
X4300Y4261D01*
X3722Y4260D02*
X3738Y4260D01*
X4093Y4260D02*
X4129Y4260D01*
X4224Y4260D02*
X4236Y4260D01*
X4268Y4260D02*
X4281Y4260D01*
X4290Y4260D02*
X4300Y4260D01*
X3721Y4259D02*
X3736Y4259D01*
X4091Y4259D02*
X4126Y4259D01*
X4223Y4259D02*
X4235Y4259D01*
X4267Y4259D02*
X4280Y4259D01*
X4290Y4259D02*
X4299Y4259D01*
X3719Y4258D02*
X3735Y4258D01*
X4088Y4258D02*
X4123Y4258D01*
X4223Y4258D02*
X4235Y4258D01*
X4266Y4258D02*
X4279Y4258D01*
X4289Y4258D02*
X4299Y4258D01*
X3718Y4257D02*
X3733Y4257D01*
X4085Y4257D02*
X4120Y4257D01*
X4222Y4257D02*
X4234Y4257D01*
X4265Y4257D02*
X4278Y4257D01*
X4289Y4257D02*
X4298Y4257D01*
X3717Y4256D02*
X3732Y4256D01*
X4082Y4256D02*
X4117Y4256D01*
X4221Y4256D02*
X4233Y4256D01*
X4264Y4256D02*
X4277Y4256D01*
X4288Y4256D02*
X4298Y4256D01*
X3715Y4255D02*
X3730Y4255D01*
X4079Y4255D02*
X4114Y4255D01*
X4220Y4255D02*
X4232Y4255D01*
X4263Y4255D02*
X4276Y4255D01*
X4288Y4255D02*
X4297Y4255D01*
X3714Y4254D02*
X3729Y4254D01*
X4076Y4254D02*
X4111Y4254D01*
X4219Y4254D02*
X4231Y4254D01*
X4262Y4254D02*
X4275Y4254D01*
X4287Y4254D02*
X4297Y4254D01*
X3712Y4253D02*
X3727Y4253D01*
X4073Y4253D02*
X4107Y4253D01*
X4219Y4253D02*
X4231Y4253D01*
X4261Y4253D02*
X4275Y4253D01*
X4287Y4253D02*
X4297Y4253D01*
X3711Y4252D02*
X3726Y4252D01*
X4069Y4252D02*
X4104Y4252D01*
X4218Y4252D02*
X4230Y4252D01*
X4260Y4252D02*
X4274Y4252D01*
X4286Y4252D02*
X4296Y4252D01*
X3709Y4251D02*
X3724Y4251D01*
X4065Y4251D02*
X4101Y4251D01*
X4217Y4251D02*
X4229Y4251D01*
X4259Y4251D02*
X4273Y4251D01*
X4285Y4251D02*
X4296Y4251D01*
X3708Y4250D02*
X3723Y4250D01*
X4062Y4250D02*
X4097Y4250D01*
X4216Y4250D02*
X4228Y4250D01*
X4258Y4250D02*
X4272Y4250D01*
X4285Y4250D02*
X4295Y4250D01*
X3706Y4249D02*
X3722Y4249D01*
X4058Y4249D02*
X4094Y4249D01*
X4215Y4249D02*
X4227Y4249D01*
X4257Y4249D02*
X4271Y4249D01*
X4284Y4249D02*
X4295Y4249D01*
X3705Y4248D02*
X3720Y4248D01*
X4054Y4248D02*
X4090Y4248D01*
X4214Y4248D02*
X4227Y4248D01*
X4256Y4248D02*
X4270Y4248D01*
X4284Y4248D02*
X4294Y4248D01*
X3704Y4247D02*
X3719Y4247D01*
X4050Y4247D02*
X4086Y4247D01*
X4214Y4247D02*
X4226Y4247D01*
X4255Y4247D02*
X4269Y4247D01*
X4283Y4247D02*
X4294Y4247D01*
X3702Y4246D02*
X3717Y4246D01*
X4046Y4246D02*
X4083Y4246D01*
X4213Y4246D02*
X4225Y4246D01*
X4254Y4246D02*
X4268Y4246D01*
X4283Y4246D02*
X4293Y4246D01*
X3701Y4245D02*
X3716Y4245D01*
X4041Y4245D02*
X4079Y4245D01*
X4212Y4245D02*
X4224Y4245D01*
X4253Y4245D02*
X4267Y4245D01*
X4282Y4245D02*
X4293Y4245D01*
X3700Y4244D02*
X3715Y4244D01*
X4037Y4244D02*
X4075Y4244D01*
X4211Y4244D02*
X4223Y4244D01*
X4252Y4244D02*
X4266Y4244D01*
X4281Y4244D02*
X4292Y4244D01*
X3698Y4243D02*
X3713Y4243D01*
X4032Y4243D02*
X4070Y4243D01*
X4210Y4243D02*
X4223Y4243D01*
X4251Y4243D02*
X4265Y4243D01*
X4281Y4243D02*
X4291Y4243D01*
X3697Y4242D02*
X3712Y4242D01*
X4028Y4242D02*
X4066Y4242D01*
X4210Y4242D02*
X4222Y4242D01*
X4250Y4242D02*
X4264Y4242D01*
X4280Y4242D02*
X4291Y4242D01*
X3696Y4241D02*
X3711Y4241D01*
X4024Y4241D02*
X4062Y4241D01*
X4209Y4241D02*
X4221Y4241D01*
X4248Y4241D02*
X4262Y4241D01*
X4280Y4241D02*
X4290Y4241D01*
X3695Y4240D02*
X3709Y4240D01*
X4021Y4240D02*
X4057Y4240D01*
X4208Y4240D02*
X4221Y4240D01*
X4247Y4240D02*
X4261Y4240D01*
X4279Y4240D02*
X4290Y4240D01*
X3694Y4239D02*
X3708Y4239D01*
X4018Y4239D02*
X4052Y4239D01*
X4207Y4239D02*
X4220Y4239D01*
X4246Y4239D02*
X4260Y4239D01*
X4278Y4239D02*
X4289Y4239D01*
X3693Y4238D02*
X3707Y4238D01*
X4015Y4238D02*
X4046Y4238D01*
X4207Y4238D02*
X4219Y4238D01*
X4245Y4238D02*
X4259Y4238D01*
X4278Y4238D02*
X4289Y4238D01*
X3691Y4237D02*
X3706Y4237D01*
X4013Y4237D02*
X4041Y4237D01*
X4206Y4237D02*
X4219Y4237D01*
X4244Y4237D02*
X4258Y4237D01*
X4277Y4237D02*
X4288Y4237D01*
X3690Y4236D02*
X3704Y4236D01*
X4012Y4236D02*
X4034Y4236D01*
X4205Y4236D02*
X4218Y4236D01*
X4242Y4236D02*
X4257Y4236D01*
X4277Y4236D02*
X4288Y4236D01*
X3689Y4235D02*
X3703Y4235D01*
X4013Y4235D02*
X4025Y4235D01*
X4205Y4235D02*
X4218Y4235D01*
X4241Y4235D02*
X4256Y4235D01*
X4276Y4235D02*
X4287Y4235D01*
X3688Y4234D02*
X3702Y4234D01*
X4204Y4234D02*
X4217Y4234D01*
X4240Y4234D02*
X4255Y4234D01*
X4276Y4234D02*
X4287Y4234D01*
X3687Y4233D02*
X3701Y4233D01*
X3879Y4233D02*
X3893Y4233D01*
X4203Y4233D02*
X4217Y4233D01*
X4239Y4233D02*
X4253Y4233D01*
X4275Y4233D02*
X4286Y4233D01*
X3686Y4232D02*
X3699Y4232D01*
X3876Y4232D02*
X3897Y4232D01*
X4203Y4232D02*
X4216Y4232D01*
X4237Y4232D02*
X4252Y4232D01*
X4274Y4232D02*
X4286Y4232D01*
X3685Y4231D02*
X3698Y4231D01*
X3873Y4231D02*
X3899Y4231D01*
X4202Y4231D02*
X4216Y4231D01*
X4236Y4231D02*
X4251Y4231D01*
X4274Y4231D02*
X4285Y4231D01*
X3684Y4230D02*
X3697Y4230D01*
X3871Y4230D02*
X3901Y4230D01*
X4201Y4230D02*
X4216Y4230D01*
X4234Y4230D02*
X4250Y4230D01*
X4273Y4230D02*
X4284Y4230D01*
X3683Y4229D02*
X3696Y4229D01*
X3869Y4229D02*
X3903Y4229D01*
X4200Y4229D02*
X4216Y4229D01*
X4233Y4229D02*
X4248Y4229D01*
X4273Y4229D02*
X4284Y4229D01*
X3682Y4228D02*
X3695Y4228D01*
X3868Y4228D02*
X3904Y4228D01*
X4199Y4228D02*
X4217Y4228D01*
X4231Y4228D02*
X4247Y4228D01*
X4272Y4228D02*
X4283Y4228D01*
X3682Y4227D02*
X3694Y4227D01*
X3867Y4227D02*
X3906Y4227D01*
X4198Y4227D02*
X4218Y4227D01*
X4229Y4227D02*
X4246Y4227D01*
X4271Y4227D02*
X4283Y4227D01*
X3681Y4226D02*
X3693Y4226D01*
X3865Y4226D02*
X3907Y4226D01*
X4197Y4226D02*
X4222Y4226D01*
X4225Y4226D02*
X4245Y4226D01*
X4271Y4226D02*
X4282Y4226D01*
X3680Y4225D02*
X3692Y4225D01*
X3864Y4225D02*
X3908Y4225D01*
X4196Y4225D02*
X4243Y4225D01*
X4270Y4225D02*
X4281Y4225D01*
X3679Y4224D02*
X3691Y4224D01*
X3863Y4224D02*
X3909Y4224D01*
X4195Y4224D02*
X4242Y4224D01*
X4269Y4224D02*
X4281Y4224D01*
X3678Y4223D02*
X3690Y4223D01*
X3862Y4223D02*
X3878Y4223D01*
X3892Y4223D02*
X3909Y4223D01*
X4194Y4223D02*
X4240Y4223D01*
X4269Y4223D02*
X4280Y4223D01*
X3677Y4222D02*
X3689Y4222D01*
X3861Y4222D02*
X3875Y4222D01*
X3895Y4222D02*
X3910Y4222D01*
X4193Y4222D02*
X4239Y4222D01*
X4268Y4222D02*
X4280Y4222D01*
X3677Y4221D02*
X3688Y4221D01*
X3860Y4221D02*
X3873Y4221D01*
X3898Y4221D02*
X3911Y4221D01*
X4192Y4221D02*
X4237Y4221D01*
X4268Y4221D02*
X4279Y4221D01*
X3676Y4220D02*
X3687Y4220D01*
X3860Y4220D02*
X3872Y4220D01*
X3899Y4220D02*
X3911Y4220D01*
X4190Y4220D02*
X4205Y4220D01*
X4208Y4220D02*
X4235Y4220D01*
X4267Y4220D02*
X4278Y4220D01*
X3675Y4219D02*
X3686Y4219D01*
X3859Y4219D02*
X3870Y4219D01*
X3900Y4219D02*
X3912Y4219D01*
X4189Y4219D02*
X4205Y4219D01*
X4208Y4219D02*
X4234Y4219D01*
X4266Y4219D02*
X4278Y4219D01*
X3675Y4218D02*
X3685Y4218D01*
X3858Y4218D02*
X3869Y4218D01*
X3901Y4218D02*
X3912Y4218D01*
X4188Y4218D02*
X4205Y4218D01*
X4208Y4218D02*
X4232Y4218D01*
X4266Y4218D02*
X4277Y4218D01*
X3674Y4217D02*
X3684Y4217D01*
X3858Y4217D02*
X3868Y4217D01*
X3902Y4217D02*
X3913Y4217D01*
X4187Y4217D02*
X4229Y4217D01*
X4265Y4217D02*
X4277Y4217D01*
X3673Y4216D02*
X3683Y4216D01*
X3857Y4216D02*
X3867Y4216D01*
X3903Y4216D02*
X3913Y4216D01*
X4186Y4216D02*
X4227Y4216D01*
X4264Y4216D02*
X4276Y4216D01*
X3673Y4215D02*
X3683Y4215D01*
X3857Y4215D02*
X3867Y4215D01*
X3904Y4215D02*
X3913Y4215D01*
X4184Y4215D02*
X4224Y4215D01*
X4264Y4215D02*
X4275Y4215D01*
X3672Y4214D02*
X3682Y4214D01*
X3856Y4214D02*
X3866Y4214D01*
X3904Y4214D02*
X3914Y4214D01*
X4183Y4214D02*
X4221Y4214D01*
X4263Y4214D02*
X4275Y4214D01*
X3672Y4213D02*
X3681Y4213D01*
X3856Y4213D02*
X3865Y4213D01*
X3905Y4213D02*
X3914Y4213D01*
X4182Y4213D02*
X4219Y4213D01*
X4262Y4213D02*
X4274Y4213D01*
X3671Y4212D02*
X3681Y4212D01*
X3855Y4212D02*
X3865Y4212D01*
X3906Y4212D02*
X3914Y4212D01*
X4181Y4212D02*
X4217Y4212D01*
X4262Y4212D02*
X4273Y4212D01*
X3670Y4211D02*
X3680Y4211D01*
X3855Y4211D02*
X3864Y4211D01*
X3906Y4211D02*
X3914Y4211D01*
X4179Y4211D02*
X4215Y4211D01*
X4261Y4211D02*
X4272Y4211D01*
X3670Y4210D02*
X3679Y4210D01*
X3855Y4210D02*
X3863Y4210D01*
X3907Y4210D02*
X3915Y4210D01*
X4178Y4210D02*
X4212Y4210D01*
X4260Y4210D02*
X4272Y4210D01*
X3669Y4209D02*
X3679Y4209D01*
X3854Y4209D02*
X3863Y4209D01*
X3907Y4209D02*
X3915Y4209D01*
X4177Y4209D02*
X4211Y4209D01*
X4260Y4209D02*
X4271Y4209D01*
X3669Y4208D02*
X3678Y4208D01*
X3854Y4208D02*
X3863Y4208D01*
X3908Y4208D02*
X3915Y4208D01*
X4175Y4208D02*
X4209Y4208D01*
X4259Y4208D02*
X4270Y4208D01*
X3668Y4207D02*
X3678Y4207D01*
X3854Y4207D02*
X3862Y4207D01*
X3908Y4207D02*
X3915Y4207D01*
X4174Y4207D02*
X4207Y4207D01*
X4259Y4207D02*
X4270Y4207D01*
X3668Y4206D02*
X3677Y4206D01*
X3854Y4206D02*
X3862Y4206D01*
X3908Y4206D02*
X3915Y4206D01*
X4172Y4206D02*
X4205Y4206D01*
X4258Y4206D02*
X4269Y4206D01*
X3668Y4205D02*
X3677Y4205D01*
X3854Y4205D02*
X3862Y4205D01*
X3909Y4205D02*
X3915Y4205D01*
X4171Y4205D02*
X4204Y4205D01*
X4257Y4205D02*
X4268Y4205D01*
X3667Y4204D02*
X3676Y4204D01*
X3854Y4204D02*
X3862Y4204D01*
X3909Y4204D02*
X3915Y4204D01*
X4170Y4204D02*
X4202Y4204D01*
X4257Y4204D02*
X4268Y4204D01*
X3667Y4203D02*
X3676Y4203D01*
X3854Y4203D02*
X3862Y4203D01*
X3909Y4203D02*
X3915Y4203D01*
X4168Y4203D02*
X4200Y4203D01*
X4256Y4203D02*
X4267Y4203D01*
X3667Y4202D02*
X3675Y4202D01*
X3854Y4202D02*
X3862Y4202D01*
X3909Y4202D02*
X3915Y4202D01*
X4167Y4202D02*
X4198Y4202D01*
X4255Y4202D02*
X4266Y4202D01*
X3666Y4201D02*
X3675Y4201D01*
X3854Y4201D02*
X3862Y4201D01*
X3909Y4201D02*
X3915Y4201D01*
X4165Y4201D02*
X4197Y4201D01*
X4255Y4201D02*
X4266Y4201D01*
X3666Y4200D02*
X3674Y4200D01*
X3854Y4200D02*
X3862Y4200D01*
X3908Y4200D02*
X3915Y4200D01*
X4164Y4200D02*
X4195Y4200D01*
X4254Y4200D02*
X4265Y4200D01*
X3666Y4199D02*
X3674Y4199D01*
X3854Y4199D02*
X3862Y4199D01*
X3908Y4199D02*
X3915Y4199D01*
X4162Y4199D02*
X4193Y4199D01*
X4254Y4199D02*
X4264Y4199D01*
X3665Y4198D02*
X3674Y4198D01*
X3854Y4198D02*
X3862Y4198D01*
X3908Y4198D02*
X3915Y4198D01*
X4161Y4198D02*
X4191Y4198D01*
X4253Y4198D02*
X4264Y4198D01*
X3665Y4197D02*
X3673Y4197D01*
X3854Y4197D02*
X3862Y4197D01*
X3907Y4197D02*
X3915Y4197D01*
X4159Y4197D02*
X4190Y4197D01*
X4253Y4197D02*
X4263Y4197D01*
X3665Y4196D02*
X3673Y4196D01*
X3854Y4196D02*
X3863Y4196D01*
X3907Y4196D02*
X3915Y4196D01*
X4158Y4196D02*
X4188Y4196D01*
X4252Y4196D02*
X4263Y4196D01*
X3665Y4195D02*
X3673Y4195D01*
X3854Y4195D02*
X3863Y4195D01*
X3906Y4195D02*
X3915Y4195D01*
X4156Y4195D02*
X4186Y4195D01*
X4252Y4195D02*
X4262Y4195D01*
X3664Y4194D02*
X3673Y4194D01*
X3855Y4194D02*
X3864Y4194D01*
X3906Y4194D02*
X3914Y4194D01*
X4155Y4194D02*
X4184Y4194D01*
X4251Y4194D02*
X4262Y4194D01*
X3664Y4193D02*
X3672Y4193D01*
X3855Y4193D02*
X3864Y4193D01*
X3905Y4193D02*
X3914Y4193D01*
X4153Y4193D02*
X4182Y4193D01*
X4251Y4193D02*
X4261Y4193D01*
X3664Y4192D02*
X3672Y4192D01*
X3855Y4192D02*
X3865Y4192D01*
X3904Y4192D02*
X3914Y4192D01*
X4151Y4192D02*
X4180Y4192D01*
X4250Y4192D02*
X4261Y4192D01*
X3664Y4191D02*
X3672Y4191D01*
X3856Y4191D02*
X3865Y4191D01*
X3904Y4191D02*
X3914Y4191D01*
X4150Y4191D02*
X4178Y4191D01*
X4250Y4191D02*
X4260Y4191D01*
X3664Y4190D02*
X3672Y4190D01*
X3856Y4190D02*
X3866Y4190D01*
X3903Y4190D02*
X3913Y4190D01*
X4148Y4190D02*
X4176Y4190D01*
X4250Y4190D02*
X4260Y4190D01*
X3664Y4189D02*
X3672Y4189D01*
X3857Y4189D02*
X3867Y4189D01*
X3902Y4189D02*
X3913Y4189D01*
X4146Y4189D02*
X4174Y4189D01*
X4249Y4189D02*
X4259Y4189D01*
X3664Y4188D02*
X3672Y4188D01*
X3857Y4188D02*
X3868Y4188D01*
X3901Y4188D02*
X3912Y4188D01*
X4145Y4188D02*
X4172Y4188D01*
X4249Y4188D02*
X4259Y4188D01*
X3664Y4187D02*
X3672Y4187D01*
X3858Y4187D02*
X3869Y4187D01*
X3900Y4187D02*
X3912Y4187D01*
X4143Y4187D02*
X4170Y4187D01*
X4249Y4187D02*
X4258Y4187D01*
X3664Y4186D02*
X3672Y4186D01*
X3858Y4186D02*
X3869Y4186D01*
X3899Y4186D02*
X3912Y4186D01*
X4141Y4186D02*
X4168Y4186D01*
X4249Y4186D02*
X4258Y4186D01*
X3664Y4185D02*
X3672Y4185D01*
X3859Y4185D02*
X3870Y4185D01*
X3898Y4185D02*
X3911Y4185D01*
X4139Y4185D02*
X4166Y4185D01*
X4249Y4185D02*
X4258Y4185D01*
X3663Y4184D02*
X3672Y4184D01*
X3860Y4184D02*
X3872Y4184D01*
X3897Y4184D02*
X3910Y4184D01*
X4137Y4184D02*
X4164Y4184D01*
X4249Y4184D02*
X4258Y4184D01*
X3663Y4183D02*
X3671Y4183D01*
X3860Y4183D02*
X3873Y4183D01*
X3895Y4183D02*
X3910Y4183D01*
X4135Y4183D02*
X4162Y4183D01*
X4249Y4183D02*
X4259Y4183D01*
X3664Y4182D02*
X3672Y4182D01*
X3861Y4182D02*
X3876Y4182D01*
X3892Y4182D02*
X3909Y4182D01*
X4133Y4182D02*
X4159Y4182D01*
X4249Y4182D02*
X4259Y4182D01*
X3664Y4181D02*
X3672Y4181D01*
X3862Y4181D02*
X3908Y4181D01*
X4131Y4181D02*
X4157Y4181D01*
X4249Y4181D02*
X4259Y4181D01*
X3664Y4180D02*
X3672Y4180D01*
X3863Y4180D02*
X3907Y4180D01*
X4129Y4180D02*
X4155Y4180D01*
X4249Y4180D02*
X4260Y4180D01*
X3664Y4179D02*
X3672Y4179D01*
X3864Y4179D02*
X3906Y4179D01*
X4127Y4179D02*
X4153Y4179D01*
X4250Y4179D02*
X4260Y4179D01*
X3664Y4178D02*
X3672Y4178D01*
X3865Y4178D02*
X3905Y4178D01*
X4125Y4178D02*
X4150Y4178D01*
X4250Y4178D02*
X4261Y4178D01*
X3664Y4177D02*
X3672Y4177D01*
X3867Y4177D02*
X3904Y4177D01*
X4123Y4177D02*
X4148Y4177D01*
X4250Y4177D02*
X4261Y4177D01*
X3664Y4176D02*
X3672Y4176D01*
X3868Y4176D02*
X3902Y4176D01*
X4121Y4176D02*
X4146Y4176D01*
X4251Y4176D02*
X4262Y4176D01*
X3664Y4175D02*
X3672Y4175D01*
X3870Y4175D02*
X3901Y4175D01*
X4118Y4175D02*
X4144Y4175D01*
X4251Y4175D02*
X4262Y4175D01*
X3665Y4174D02*
X3673Y4174D01*
X3872Y4174D02*
X3899Y4174D01*
X4116Y4174D02*
X4141Y4174D01*
X4252Y4174D02*
X4263Y4174D01*
X3665Y4173D02*
X3673Y4173D01*
X3874Y4173D02*
X3896Y4173D01*
X4114Y4173D02*
X4139Y4173D01*
X4253Y4173D02*
X4264Y4173D01*
X3665Y4172D02*
X3673Y4172D01*
X3877Y4172D02*
X3893Y4172D01*
X4112Y4172D02*
X4136Y4172D01*
X4253Y4172D02*
X4264Y4172D01*
X3665Y4171D02*
X3674Y4171D01*
X3884Y4171D02*
X3886Y4171D01*
X4109Y4171D02*
X4134Y4171D01*
X4254Y4171D02*
X4265Y4171D01*
X3666Y4170D02*
X3674Y4170D01*
X4107Y4170D02*
X4131Y4170D01*
X4242Y4170D02*
X4242Y4170D01*
X4254Y4170D02*
X4266Y4170D01*
X3666Y4169D02*
X3674Y4169D01*
X4104Y4169D02*
X4129Y4169D01*
X4241Y4169D02*
X4242Y4169D01*
X4255Y4169D02*
X4266Y4169D01*
X3666Y4168D02*
X3675Y4168D01*
X4102Y4168D02*
X4126Y4168D01*
X4239Y4168D02*
X4242Y4168D01*
X4256Y4168D02*
X4267Y4168D01*
X3666Y4167D02*
X3675Y4167D01*
X4099Y4167D02*
X4124Y4167D01*
X4238Y4167D02*
X4241Y4167D01*
X4256Y4167D02*
X4268Y4167D01*
X3667Y4166D02*
X3676Y4166D01*
X4097Y4166D02*
X4121Y4166D01*
X4237Y4166D02*
X4240Y4166D01*
X4257Y4166D02*
X4268Y4166D01*
X3667Y4165D02*
X3676Y4165D01*
X4094Y4165D02*
X4119Y4165D01*
X4236Y4165D02*
X4240Y4165D01*
X4258Y4165D02*
X4269Y4165D01*
X3668Y4164D02*
X3677Y4164D01*
X4092Y4164D02*
X4116Y4164D01*
X4234Y4164D02*
X4239Y4164D01*
X4258Y4164D02*
X4270Y4164D01*
X3668Y4163D02*
X3677Y4163D01*
X4089Y4163D02*
X4113Y4163D01*
X4233Y4163D02*
X4238Y4163D01*
X4259Y4163D02*
X4270Y4163D01*
X3668Y4162D02*
X3678Y4162D01*
X4087Y4162D02*
X4110Y4162D01*
X4232Y4162D02*
X4237Y4162D01*
X4260Y4162D02*
X4271Y4162D01*
X3669Y4161D02*
X3678Y4161D01*
X4084Y4161D02*
X4108Y4161D01*
X4231Y4161D02*
X4236Y4161D01*
X4261Y4161D02*
X4272Y4161D01*
X3669Y4160D02*
X3679Y4160D01*
X4081Y4160D02*
X4105Y4160D01*
X4230Y4160D02*
X4235Y4160D01*
X4261Y4160D02*
X4272Y4160D01*
X3670Y4159D02*
X3680Y4159D01*
X4079Y4159D02*
X4102Y4159D01*
X4229Y4159D02*
X4235Y4159D01*
X4262Y4159D02*
X4273Y4159D01*
X3670Y4158D02*
X3680Y4158D01*
X4076Y4158D02*
X4098Y4158D01*
X4228Y4158D02*
X4234Y4158D01*
X4263Y4158D02*
X4274Y4158D01*
X3671Y4157D02*
X3681Y4157D01*
X4074Y4157D02*
X4095Y4157D01*
X4227Y4157D02*
X4233Y4157D01*
X4263Y4157D02*
X4275Y4157D01*
X3671Y4156D02*
X3682Y4156D01*
X4072Y4156D02*
X4092Y4156D01*
X4225Y4156D02*
X4232Y4156D01*
X4264Y4156D02*
X4275Y4156D01*
X3672Y4155D02*
X3683Y4155D01*
X4070Y4155D02*
X4089Y4155D01*
X4224Y4155D02*
X4231Y4155D01*
X4265Y4155D02*
X4276Y4155D01*
X3673Y4154D02*
X3684Y4154D01*
X4069Y4154D02*
X4085Y4154D01*
X4223Y4154D02*
X4230Y4154D01*
X4265Y4154D02*
X4277Y4154D01*
X3673Y4153D02*
X3685Y4153D01*
X4068Y4153D02*
X4081Y4153D01*
X4222Y4153D02*
X4229Y4153D01*
X4266Y4153D02*
X4277Y4153D01*
X3674Y4152D02*
X3686Y4152D01*
X4068Y4152D02*
X4077Y4152D01*
X4221Y4152D02*
X4228Y4152D01*
X4267Y4152D02*
X4278Y4152D01*
X3675Y4151D02*
X3687Y4151D01*
X4220Y4151D02*
X4227Y4151D01*
X4267Y4151D02*
X4279Y4151D01*
X3675Y4150D02*
X3688Y4150D01*
X4219Y4150D02*
X4226Y4150D01*
X4268Y4150D02*
X4279Y4150D01*
X3676Y4149D02*
X3689Y4149D01*
X4218Y4149D02*
X4225Y4149D01*
X4269Y4149D02*
X4280Y4149D01*
X3677Y4148D02*
X3690Y4148D01*
X4217Y4148D02*
X4224Y4148D01*
X4269Y4148D02*
X4281Y4148D01*
X3678Y4147D02*
X3691Y4147D01*
X4216Y4147D02*
X4223Y4147D01*
X4270Y4147D02*
X4281Y4147D01*
X3679Y4146D02*
X3692Y4146D01*
X4215Y4146D02*
X4222Y4146D01*
X4271Y4146D02*
X4282Y4146D01*
X3680Y4145D02*
X3693Y4145D01*
X4214Y4145D02*
X4221Y4145D01*
X4271Y4145D02*
X4282Y4145D01*
X3681Y4144D02*
X3694Y4144D01*
X4213Y4144D02*
X4220Y4144D01*
X4272Y4144D02*
X4283Y4144D01*
X3682Y4143D02*
X3695Y4143D01*
X4212Y4143D02*
X4219Y4143D01*
X4273Y4143D02*
X4284Y4143D01*
X3683Y4142D02*
X3696Y4142D01*
X4210Y4142D02*
X4218Y4142D01*
X4273Y4142D02*
X4284Y4142D01*
X3684Y4141D02*
X3698Y4141D01*
X4209Y4141D02*
X4217Y4141D01*
X4274Y4141D02*
X4285Y4141D01*
X3685Y4140D02*
X3699Y4140D01*
X4208Y4140D02*
X4216Y4140D01*
X4274Y4140D02*
X4286Y4140D01*
X3686Y4139D02*
X3700Y4139D01*
X4207Y4139D02*
X4215Y4139D01*
X4275Y4139D02*
X4286Y4139D01*
X3687Y4138D02*
X3701Y4138D01*
X4206Y4138D02*
X4214Y4138D01*
X4276Y4138D02*
X4287Y4138D01*
X3688Y4137D02*
X3702Y4137D01*
X4205Y4137D02*
X4213Y4137D01*
X4276Y4137D02*
X4288Y4137D01*
X3689Y4136D02*
X3703Y4136D01*
X4204Y4136D02*
X4212Y4136D01*
X4277Y4136D02*
X4288Y4136D01*
X3691Y4135D02*
X3705Y4135D01*
X4203Y4135D02*
X4211Y4135D01*
X4278Y4135D02*
X4289Y4135D01*
X3692Y4134D02*
X3706Y4134D01*
X4201Y4134D02*
X4210Y4134D01*
X4278Y4134D02*
X4289Y4134D01*
X3693Y4133D02*
X3707Y4133D01*
X4200Y4133D02*
X4209Y4133D01*
X4279Y4133D02*
X4290Y4133D01*
X3694Y4132D02*
X3708Y4132D01*
X4199Y4132D02*
X4208Y4132D01*
X4279Y4132D02*
X4291Y4132D01*
X3695Y4131D02*
X3710Y4131D01*
X4198Y4131D02*
X4206Y4131D01*
X4280Y4131D02*
X4291Y4131D01*
X3697Y4130D02*
X3711Y4130D01*
X4197Y4130D02*
X4205Y4130D01*
X4281Y4130D02*
X4292Y4130D01*
X3609Y4129D02*
X3611Y4129D01*
X3698Y4129D02*
X3712Y4129D01*
X4196Y4129D02*
X4204Y4129D01*
X4281Y4129D02*
X4292Y4129D01*
X3607Y4128D02*
X3612Y4128D01*
X3699Y4128D02*
X3713Y4128D01*
X4194Y4128D02*
X4203Y4128D01*
X4282Y4128D02*
X4293Y4128D01*
X3606Y4127D02*
X3612Y4127D01*
X3700Y4127D02*
X3715Y4127D01*
X4193Y4127D02*
X4202Y4127D01*
X4283Y4127D02*
X4294Y4127D01*
X3605Y4126D02*
X3613Y4126D01*
X3701Y4126D02*
X3716Y4126D01*
X4192Y4126D02*
X4201Y4126D01*
X4283Y4126D02*
X4294Y4126D01*
X3605Y4125D02*
X3613Y4125D01*
X3703Y4125D02*
X3717Y4125D01*
X4191Y4125D02*
X4200Y4125D01*
X4284Y4125D02*
X4295Y4125D01*
X3604Y4124D02*
X3613Y4124D01*
X3704Y4124D02*
X3719Y4124D01*
X4189Y4124D02*
X4199Y4124D01*
X4284Y4124D02*
X4295Y4124D01*
X3603Y4123D02*
X3613Y4123D01*
X3705Y4123D02*
X3720Y4123D01*
X4188Y4123D02*
X4197Y4123D01*
X4285Y4123D02*
X4296Y4123D01*
X3602Y4122D02*
X3613Y4122D01*
X3706Y4122D02*
X3722Y4122D01*
X4187Y4122D02*
X4196Y4122D01*
X4286Y4122D02*
X4297Y4122D01*
X3601Y4121D02*
X3613Y4121D01*
X3708Y4121D02*
X3723Y4121D01*
X4186Y4121D02*
X4195Y4121D01*
X4286Y4121D02*
X4297Y4121D01*
X3600Y4120D02*
X3612Y4120D01*
X3709Y4120D02*
X3724Y4120D01*
X4185Y4120D02*
X4194Y4120D01*
X4287Y4120D02*
X4298Y4120D01*
X3600Y4119D02*
X3612Y4119D01*
X3710Y4119D02*
X3726Y4119D01*
X4183Y4119D02*
X4193Y4119D01*
X4287Y4119D02*
X4298Y4119D01*
X3599Y4118D02*
X3612Y4118D01*
X3712Y4118D02*
X3727Y4118D01*
X4182Y4118D02*
X4191Y4118D01*
X4288Y4118D02*
X4299Y4118D01*
X3598Y4117D02*
X3612Y4117D01*
X3713Y4117D02*
X3729Y4117D01*
X4180Y4117D02*
X4190Y4117D01*
X4270Y4117D02*
X4270Y4117D01*
X4289Y4117D02*
X4300Y4117D01*
X3598Y4116D02*
X3612Y4116D01*
X3714Y4116D02*
X3730Y4116D01*
X4179Y4116D02*
X4189Y4116D01*
X4269Y4116D02*
X4271Y4116D01*
X4289Y4116D02*
X4300Y4116D01*
X3597Y4115D02*
X3612Y4115D01*
X3715Y4115D02*
X3732Y4115D01*
X4178Y4115D02*
X4188Y4115D01*
X4269Y4115D02*
X4271Y4115D01*
X4290Y4115D02*
X4301Y4115D01*
X3596Y4114D02*
X3612Y4114D01*
X3717Y4114D02*
X3733Y4114D01*
X4176Y4114D02*
X4186Y4114D01*
X4269Y4114D02*
X4272Y4114D01*
X4290Y4114D02*
X4301Y4114D01*
X3596Y4113D02*
X3612Y4113D01*
X3718Y4113D02*
X3735Y4113D01*
X4175Y4113D02*
X4185Y4113D01*
X4269Y4113D02*
X4272Y4113D01*
X4291Y4113D02*
X4302Y4113D01*
X3595Y4112D02*
X3611Y4112D01*
X3720Y4112D02*
X3736Y4112D01*
X4173Y4112D02*
X4184Y4112D01*
X4269Y4112D02*
X4272Y4112D01*
X4291Y4112D02*
X4302Y4112D01*
X3594Y4111D02*
X3611Y4111D01*
X3721Y4111D02*
X3738Y4111D01*
X4172Y4111D02*
X4182Y4111D01*
X4269Y4111D02*
X4273Y4111D01*
X4292Y4111D02*
X4303Y4111D01*
X3594Y4110D02*
X3611Y4110D01*
X3722Y4110D02*
X3739Y4110D01*
X4171Y4110D02*
X4181Y4110D01*
X4269Y4110D02*
X4273Y4110D01*
X4293Y4110D02*
X4303Y4110D01*
X3593Y4109D02*
X3611Y4109D01*
X3724Y4109D02*
X3741Y4109D01*
X4169Y4109D02*
X4179Y4109D01*
X4269Y4109D02*
X4273Y4109D01*
X4293Y4109D02*
X4304Y4109D01*
X3592Y4108D02*
X3611Y4108D01*
X3725Y4108D02*
X3743Y4108D01*
X4168Y4108D02*
X4178Y4108D01*
X4269Y4108D02*
X4274Y4108D01*
X4294Y4108D02*
X4305Y4108D01*
X3592Y4107D02*
X3610Y4107D01*
X3727Y4107D02*
X3744Y4107D01*
X4166Y4107D02*
X4176Y4107D01*
X4270Y4107D02*
X4274Y4107D01*
X4294Y4107D02*
X4305Y4107D01*
X3591Y4106D02*
X3610Y4106D01*
X3728Y4106D02*
X3746Y4106D01*
X4164Y4106D02*
X4175Y4106D01*
X4270Y4106D02*
X4274Y4106D01*
X4295Y4106D02*
X4306Y4106D01*
X3590Y4105D02*
X3610Y4105D01*
X3730Y4105D02*
X3748Y4105D01*
X4163Y4105D02*
X4173Y4105D01*
X4270Y4105D02*
X4274Y4105D01*
X4295Y4105D02*
X4306Y4105D01*
X3590Y4104D02*
X3610Y4104D01*
X3731Y4104D02*
X3749Y4104D01*
X4161Y4104D02*
X4172Y4104D01*
X4270Y4104D02*
X4275Y4104D01*
X4296Y4104D02*
X4307Y4104D01*
X3589Y4103D02*
X3610Y4103D01*
X3733Y4103D02*
X3751Y4103D01*
X4160Y4103D02*
X4170Y4103D01*
X4270Y4103D02*
X4275Y4103D01*
X4297Y4103D02*
X4307Y4103D01*
X3589Y4102D02*
X3599Y4102D01*
X3601Y4102D02*
X3609Y4102D01*
X3734Y4102D02*
X3753Y4102D01*
X4158Y4102D02*
X4169Y4102D01*
X4270Y4102D02*
X4275Y4102D01*
X4297Y4102D02*
X4308Y4102D01*
X3588Y4101D02*
X3598Y4101D01*
X3601Y4101D02*
X3609Y4101D01*
X3736Y4101D02*
X3754Y4101D01*
X4156Y4101D02*
X4168Y4101D01*
X4271Y4101D02*
X4275Y4101D01*
X4298Y4101D02*
X4308Y4101D01*
X3587Y4100D02*
X3597Y4100D01*
X3601Y4100D02*
X3609Y4100D01*
X3737Y4100D02*
X3756Y4100D01*
X4155Y4100D02*
X4166Y4100D01*
X4271Y4100D02*
X4275Y4100D01*
X4298Y4100D02*
X4309Y4100D01*
X3587Y4099D02*
X3597Y4099D01*
X3600Y4099D02*
X3609Y4099D01*
X3739Y4099D02*
X3758Y4099D01*
X4153Y4099D02*
X4165Y4099D01*
X4271Y4099D02*
X4276Y4099D01*
X4299Y4099D02*
X4309Y4099D01*
X3586Y4098D02*
X3596Y4098D01*
X3600Y4098D02*
X3609Y4098D01*
X3740Y4098D02*
X3759Y4098D01*
X4151Y4098D02*
X4164Y4098D01*
X4271Y4098D02*
X4276Y4098D01*
X4300Y4098D02*
X4310Y4098D01*
X3586Y4097D02*
X3596Y4097D01*
X3600Y4097D02*
X3608Y4097D01*
X3742Y4097D02*
X3761Y4097D01*
X4150Y4097D02*
X4163Y4097D01*
X4271Y4097D02*
X4276Y4097D01*
X4300Y4097D02*
X4311Y4097D01*
X3585Y4096D02*
X3595Y4096D01*
X3600Y4096D02*
X3608Y4096D01*
X3744Y4096D02*
X3763Y4096D01*
X4148Y4096D02*
X4161Y4096D01*
X4272Y4096D02*
X4276Y4096D01*
X4301Y4096D02*
X4311Y4096D01*
X3585Y4095D02*
X3595Y4095D01*
X3600Y4095D02*
X3608Y4095D01*
X3745Y4095D02*
X3765Y4095D01*
X4146Y4095D02*
X4160Y4095D01*
X4272Y4095D02*
X4276Y4095D01*
X4301Y4095D02*
X4312Y4095D01*
X3584Y4094D02*
X3594Y4094D01*
X3600Y4094D02*
X3608Y4094D01*
X3747Y4094D02*
X3767Y4094D01*
X4144Y4094D02*
X4158Y4094D01*
X4272Y4094D02*
X4276Y4094D01*
X4302Y4094D02*
X4312Y4094D01*
X3583Y4093D02*
X3594Y4093D01*
X3599Y4093D02*
X3608Y4093D01*
X3749Y4093D02*
X3768Y4093D01*
X4143Y4093D02*
X4157Y4093D01*
X4273Y4093D02*
X4276Y4093D01*
X4302Y4093D02*
X4313Y4093D01*
X3583Y4092D02*
X3593Y4092D01*
X3599Y4092D02*
X3607Y4092D01*
X3751Y4092D02*
X3770Y4092D01*
X4141Y4092D02*
X4155Y4092D01*
X4273Y4092D02*
X4277Y4092D01*
X4303Y4092D02*
X4313Y4092D01*
X3582Y4091D02*
X3593Y4091D01*
X3599Y4091D02*
X3607Y4091D01*
X3752Y4091D02*
X3772Y4091D01*
X4139Y4091D02*
X4154Y4091D01*
X4273Y4091D02*
X4277Y4091D01*
X4303Y4091D02*
X4314Y4091D01*
X3582Y4090D02*
X3592Y4090D01*
X3599Y4090D02*
X3607Y4090D01*
X3754Y4090D02*
X3774Y4090D01*
X4137Y4090D02*
X4152Y4090D01*
X4274Y4090D02*
X4277Y4090D01*
X4304Y4090D02*
X4314Y4090D01*
X3581Y4089D02*
X3591Y4089D01*
X3599Y4089D02*
X3607Y4089D01*
X3756Y4089D02*
X3776Y4089D01*
X4135Y4089D02*
X4150Y4089D01*
X4274Y4089D02*
X4277Y4089D01*
X4304Y4089D02*
X4315Y4089D01*
X3581Y4088D02*
X3591Y4088D01*
X3598Y4088D02*
X3607Y4088D01*
X3758Y4088D02*
X3778Y4088D01*
X4133Y4088D02*
X4149Y4088D01*
X4274Y4088D02*
X4277Y4088D01*
X4305Y4088D02*
X4315Y4088D01*
X3580Y4087D02*
X3590Y4087D01*
X3598Y4087D02*
X3606Y4087D01*
X3760Y4087D02*
X3780Y4087D01*
X4131Y4087D02*
X4147Y4087D01*
X4275Y4087D02*
X4277Y4087D01*
X4306Y4087D02*
X4316Y4087D01*
X3580Y4086D02*
X3590Y4086D01*
X3598Y4086D02*
X3606Y4086D01*
X3762Y4086D02*
X3782Y4086D01*
X4129Y4086D02*
X4145Y4086D01*
X4275Y4086D02*
X4277Y4086D01*
X4306Y4086D02*
X4316Y4086D01*
X3579Y4085D02*
X3589Y4085D01*
X3598Y4085D02*
X3606Y4085D01*
X3763Y4085D02*
X3784Y4085D01*
X4127Y4085D02*
X4143Y4085D01*
X4276Y4085D02*
X4277Y4085D01*
X4307Y4085D02*
X4317Y4085D01*
X3579Y4084D02*
X3589Y4084D01*
X3598Y4084D02*
X3606Y4084D01*
X3765Y4084D02*
X3785Y4084D01*
X4125Y4084D02*
X4141Y4084D01*
X4276Y4084D02*
X4277Y4084D01*
X4307Y4084D02*
X4317Y4084D01*
X3578Y4083D02*
X3588Y4083D01*
X3598Y4083D02*
X3606Y4083D01*
X3767Y4083D02*
X3787Y4083D01*
X4123Y4083D02*
X4139Y4083D01*
X4277Y4083D02*
X4277Y4083D01*
X4308Y4083D02*
X4318Y4083D01*
X3578Y4082D02*
X3588Y4082D01*
X3597Y4082D02*
X3605Y4082D01*
X3769Y4082D02*
X3789Y4082D01*
X4121Y4082D02*
X4137Y4082D01*
X4277Y4082D02*
X4278Y4082D01*
X4308Y4082D02*
X4318Y4082D01*
X3577Y4081D02*
X3587Y4081D01*
X3597Y4081D02*
X3605Y4081D01*
X3771Y4081D02*
X3791Y4081D01*
X4119Y4081D02*
X4135Y4081D01*
X4278Y4081D02*
X4278Y4081D01*
X4309Y4081D02*
X4319Y4081D01*
X3577Y4080D02*
X3587Y4080D01*
X3597Y4080D02*
X3605Y4080D01*
X3773Y4080D02*
X3793Y4080D01*
X4117Y4080D02*
X4134Y4080D01*
X4278Y4080D02*
X4278Y4080D01*
X4309Y4080D02*
X4319Y4080D01*
X3576Y4079D02*
X3587Y4079D01*
X3597Y4079D02*
X3605Y4079D01*
X3775Y4079D02*
X3795Y4079D01*
X4115Y4079D02*
X4131Y4079D01*
X4310Y4079D02*
X4320Y4079D01*
X3576Y4078D02*
X3586Y4078D01*
X3597Y4078D02*
X3605Y4078D01*
X3777Y4078D02*
X3797Y4078D01*
X4113Y4078D02*
X4129Y4078D01*
X4310Y4078D02*
X4320Y4078D01*
X3575Y4077D02*
X3586Y4077D01*
X3597Y4077D02*
X3605Y4077D01*
X3779Y4077D02*
X3799Y4077D01*
X4111Y4077D02*
X4127Y4077D01*
X4311Y4077D02*
X4321Y4077D01*
X3575Y4076D02*
X3585Y4076D01*
X3596Y4076D02*
X3604Y4076D01*
X3781Y4076D02*
X3802Y4076D01*
X4109Y4076D02*
X4125Y4076D01*
X4311Y4076D02*
X4321Y4076D01*
X3574Y4075D02*
X3585Y4075D01*
X3596Y4075D02*
X3604Y4075D01*
X3783Y4075D02*
X3804Y4075D01*
X4107Y4075D02*
X4123Y4075D01*
X4311Y4075D02*
X4322Y4075D01*
X3574Y4074D02*
X3584Y4074D01*
X3596Y4074D02*
X3604Y4074D01*
X3785Y4074D02*
X3806Y4074D01*
X4105Y4074D02*
X4121Y4074D01*
X4312Y4074D02*
X4322Y4074D01*
X3573Y4073D02*
X3584Y4073D01*
X3596Y4073D02*
X3604Y4073D01*
X3787Y4073D02*
X3809Y4073D01*
X4103Y4073D02*
X4119Y4073D01*
X4312Y4073D02*
X4322Y4073D01*
X3573Y4072D02*
X3583Y4072D01*
X3596Y4072D02*
X3604Y4072D01*
X3789Y4072D02*
X3811Y4072D01*
X4101Y4072D02*
X4116Y4072D01*
X4313Y4072D02*
X4323Y4072D01*
X3572Y4071D02*
X3583Y4071D01*
X3596Y4071D02*
X3604Y4071D01*
X3792Y4071D02*
X3814Y4071D01*
X4099Y4071D02*
X4114Y4071D01*
X4313Y4071D02*
X4323Y4071D01*
X3572Y4070D02*
X3582Y4070D01*
X3596Y4070D02*
X3603Y4070D01*
X3794Y4070D02*
X3817Y4070D01*
X4097Y4070D02*
X4112Y4070D01*
X4314Y4070D02*
X4324Y4070D01*
X3571Y4069D02*
X3582Y4069D01*
X3595Y4069D02*
X3603Y4069D01*
X3796Y4069D02*
X3820Y4069D01*
X4095Y4069D02*
X4110Y4069D01*
X4314Y4069D02*
X4324Y4069D01*
X3571Y4068D02*
X3581Y4068D01*
X3595Y4068D02*
X3603Y4068D01*
X3798Y4068D02*
X3823Y4068D01*
X4093Y4068D02*
X4107Y4068D01*
X4315Y4068D02*
X4325Y4068D01*
X3571Y4067D02*
X3581Y4067D01*
X3595Y4067D02*
X3603Y4067D01*
X3801Y4067D02*
X3826Y4067D01*
X4092Y4067D02*
X4105Y4067D01*
X4315Y4067D02*
X4325Y4067D01*
X3570Y4066D02*
X3581Y4066D01*
X3595Y4066D02*
X3603Y4066D01*
X3803Y4066D02*
X3829Y4066D01*
X4090Y4066D02*
X4102Y4066D01*
X4315Y4066D02*
X4326Y4066D01*
X3570Y4065D02*
X3580Y4065D01*
X3595Y4065D02*
X3603Y4065D01*
X3806Y4065D02*
X3832Y4065D01*
X4088Y4065D02*
X4099Y4065D01*
X4316Y4065D02*
X4326Y4065D01*
X3569Y4064D02*
X3580Y4064D01*
X3595Y4064D02*
X3603Y4064D01*
X3808Y4064D02*
X3835Y4064D01*
X4086Y4064D02*
X4097Y4064D01*
X4316Y4064D02*
X4327Y4064D01*
X3569Y4063D02*
X3579Y4063D01*
X3595Y4063D02*
X3602Y4063D01*
X3810Y4063D02*
X3839Y4063D01*
X4084Y4063D02*
X4094Y4063D01*
X4317Y4063D02*
X4327Y4063D01*
X3568Y4062D02*
X3579Y4062D01*
X3595Y4062D02*
X3602Y4062D01*
X3813Y4062D02*
X3842Y4062D01*
X4083Y4062D02*
X4091Y4062D01*
X4317Y4062D02*
X4328Y4062D01*
X3568Y4061D02*
X3578Y4061D01*
X3595Y4061D02*
X3602Y4061D01*
X3816Y4061D02*
X3846Y4061D01*
X4082Y4061D02*
X4088Y4061D01*
X4318Y4061D02*
X4328Y4061D01*
X3568Y4060D02*
X3578Y4060D01*
X3594Y4060D02*
X3602Y4060D01*
X3819Y4060D02*
X3849Y4060D01*
X4082Y4060D02*
X4083Y4060D01*
X4318Y4060D02*
X4328Y4060D01*
X3567Y4059D02*
X3577Y4059D01*
X3594Y4059D02*
X3602Y4059D01*
X3821Y4059D02*
X3853Y4059D01*
X4318Y4059D02*
X4329Y4059D01*
X3567Y4058D02*
X3577Y4058D01*
X3594Y4058D02*
X3602Y4058D01*
X3824Y4058D02*
X3857Y4058D01*
X4319Y4058D02*
X4329Y4058D01*
X3566Y4057D02*
X3577Y4057D01*
X3594Y4057D02*
X3602Y4057D01*
X3827Y4057D02*
X3861Y4057D01*
X4319Y4057D02*
X4330Y4057D01*
X3566Y4056D02*
X3576Y4056D01*
X3594Y4056D02*
X3602Y4056D01*
X3830Y4056D02*
X3865Y4056D01*
X4040Y4056D02*
X4060Y4056D01*
X4320Y4056D02*
X4330Y4056D01*
X3566Y4055D02*
X3576Y4055D01*
X3594Y4055D02*
X3601Y4055D01*
X3834Y4055D02*
X3870Y4055D01*
X4032Y4055D02*
X4066Y4055D01*
X4320Y4055D02*
X4330Y4055D01*
X3565Y4054D02*
X3575Y4054D01*
X3594Y4054D02*
X3601Y4054D01*
X3837Y4054D02*
X3874Y4054D01*
X4025Y4054D02*
X4070Y4054D01*
X4320Y4054D02*
X4331Y4054D01*
X3565Y4053D02*
X3575Y4053D01*
X3594Y4053D02*
X3601Y4053D01*
X3840Y4053D02*
X3879Y4053D01*
X4019Y4053D02*
X4073Y4053D01*
X4321Y4053D02*
X4331Y4053D01*
X3564Y4052D02*
X3574Y4052D01*
X3594Y4052D02*
X3601Y4052D01*
X3843Y4052D02*
X3884Y4052D01*
X4013Y4052D02*
X4077Y4052D01*
X4321Y4052D02*
X4332Y4052D01*
X3564Y4051D02*
X3574Y4051D01*
X3594Y4051D02*
X3601Y4051D01*
X3847Y4051D02*
X3890Y4051D01*
X4007Y4051D02*
X4079Y4051D01*
X4322Y4051D02*
X4332Y4051D01*
X3564Y4050D02*
X3574Y4050D01*
X3594Y4050D02*
X3601Y4050D01*
X3851Y4050D02*
X3898Y4050D01*
X3999Y4050D02*
X4082Y4050D01*
X4322Y4050D02*
X4332Y4050D01*
X3563Y4049D02*
X3573Y4049D01*
X3594Y4049D02*
X3601Y4049D01*
X3855Y4049D02*
X3914Y4049D01*
X3983Y4049D02*
X4084Y4049D01*
X4322Y4049D02*
X4333Y4049D01*
X3563Y4048D02*
X3573Y4048D01*
X3594Y4048D02*
X3601Y4048D01*
X3859Y4048D02*
X4087Y4048D01*
X4323Y4048D02*
X4333Y4048D01*
X3562Y4047D02*
X3572Y4047D01*
X3594Y4047D02*
X3601Y4047D01*
X3864Y4047D02*
X4035Y4047D01*
X4055Y4047D02*
X4089Y4047D01*
X4323Y4047D02*
X4334Y4047D01*
X3562Y4046D02*
X3572Y4046D01*
X3594Y4046D02*
X3601Y4046D01*
X3869Y4046D02*
X4030Y4046D01*
X4062Y4046D02*
X4091Y4046D01*
X4323Y4046D02*
X4334Y4046D01*
X3562Y4045D02*
X3572Y4045D01*
X3593Y4045D02*
X3601Y4045D01*
X3874Y4045D02*
X4026Y4045D01*
X4066Y4045D02*
X4093Y4045D01*
X4324Y4045D02*
X4335Y4045D01*
X3561Y4044D02*
X3571Y4044D01*
X3593Y4044D02*
X3601Y4044D01*
X3879Y4044D02*
X4021Y4044D01*
X4070Y4044D02*
X4095Y4044D01*
X4324Y4044D02*
X4335Y4044D01*
X3561Y4043D02*
X3571Y4043D01*
X3593Y4043D02*
X3601Y4043D01*
X3885Y4043D02*
X4015Y4043D01*
X4073Y4043D02*
X4097Y4043D01*
X4324Y4043D02*
X4335Y4043D01*
X3561Y4042D02*
X3570Y4042D01*
X3593Y4042D02*
X3601Y4042D01*
X3892Y4042D02*
X4008Y4042D01*
X4076Y4042D02*
X4099Y4042D01*
X4325Y4042D02*
X4336Y4042D01*
X3560Y4041D02*
X3570Y4041D01*
X3593Y4041D02*
X3601Y4041D01*
X3899Y4041D02*
X3998Y4041D01*
X4079Y4041D02*
X4100Y4041D01*
X4325Y4041D02*
X4336Y4041D01*
X3560Y4040D02*
X3570Y4040D01*
X3593Y4040D02*
X3601Y4040D01*
X3909Y4040D02*
X3986Y4040D01*
X4081Y4040D02*
X4102Y4040D01*
X4326Y4040D02*
X4336Y4040D01*
X3560Y4039D02*
X3569Y4039D01*
X3593Y4039D02*
X3601Y4039D01*
X3923Y4039D02*
X3967Y4039D01*
X4084Y4039D02*
X4104Y4039D01*
X4326Y4039D02*
X4337Y4039D01*
X3559Y4038D02*
X3569Y4038D01*
X3593Y4038D02*
X3601Y4038D01*
X4086Y4038D02*
X4105Y4038D01*
X4326Y4038D02*
X4337Y4038D01*
X3559Y4037D02*
X3568Y4037D01*
X3593Y4037D02*
X3601Y4037D01*
X4088Y4037D02*
X4107Y4037D01*
X4327Y4037D02*
X4338Y4037D01*
X3558Y4036D02*
X3568Y4036D01*
X3593Y4036D02*
X3601Y4036D01*
X4090Y4036D02*
X4108Y4036D01*
X4327Y4036D02*
X4338Y4036D01*
X3558Y4035D02*
X3568Y4035D01*
X3593Y4035D02*
X3601Y4035D01*
X4092Y4035D02*
X4110Y4035D01*
X4327Y4035D02*
X4338Y4035D01*
X3558Y4034D02*
X3567Y4034D01*
X3593Y4034D02*
X3601Y4034D01*
X4094Y4034D02*
X4111Y4034D01*
X4328Y4034D02*
X4339Y4034D01*
X3557Y4033D02*
X3567Y4033D01*
X3593Y4033D02*
X3601Y4033D01*
X4096Y4033D02*
X4113Y4033D01*
X4328Y4033D02*
X4339Y4033D01*
X3557Y4032D02*
X3567Y4032D01*
X3593Y4032D02*
X3601Y4032D01*
X4097Y4032D02*
X4114Y4032D01*
X4328Y4032D02*
X4339Y4032D01*
X3557Y4031D02*
X3566Y4031D01*
X3593Y4031D02*
X3601Y4031D01*
X4099Y4031D02*
X4116Y4031D01*
X4329Y4031D02*
X4340Y4031D01*
X3556Y4030D02*
X3566Y4030D01*
X3593Y4030D02*
X3601Y4030D01*
X4101Y4030D02*
X4117Y4030D01*
X4329Y4030D02*
X4340Y4030D01*
X3556Y4029D02*
X3566Y4029D01*
X3593Y4029D02*
X3601Y4029D01*
X4102Y4029D02*
X4118Y4029D01*
X4329Y4029D02*
X4340Y4029D01*
X3556Y4028D02*
X3565Y4028D01*
X3593Y4028D02*
X3601Y4028D01*
X4104Y4028D02*
X4119Y4028D01*
X4330Y4028D02*
X4341Y4028D01*
X3556Y4027D02*
X3565Y4027D01*
X3593Y4027D02*
X3601Y4027D01*
X4105Y4027D02*
X4120Y4027D01*
X4330Y4027D02*
X4341Y4027D01*
X3555Y4026D02*
X3564Y4026D01*
X3593Y4026D02*
X3601Y4026D01*
X4107Y4026D02*
X4122Y4026D01*
X4331Y4026D02*
X4341Y4026D01*
X3555Y4025D02*
X3564Y4025D01*
X3593Y4025D02*
X3601Y4025D01*
X4108Y4025D02*
X4123Y4025D01*
X4331Y4025D02*
X4341Y4025D01*
X3555Y4024D02*
X3564Y4024D01*
X3593Y4024D02*
X3601Y4024D01*
X4109Y4024D02*
X4124Y4024D01*
X4331Y4024D02*
X4342Y4024D01*
X3554Y4023D02*
X3563Y4023D01*
X3593Y4023D02*
X3601Y4023D01*
X4111Y4023D02*
X4125Y4023D01*
X4332Y4023D02*
X4342Y4023D01*
X3554Y4022D02*
X3563Y4022D01*
X3593Y4022D02*
X3601Y4022D01*
X4112Y4022D02*
X4126Y4022D01*
X4332Y4022D02*
X4342Y4022D01*
X3554Y4021D02*
X3563Y4021D01*
X3593Y4021D02*
X3601Y4021D01*
X4113Y4021D02*
X4127Y4021D01*
X4332Y4021D02*
X4343Y4021D01*
X3553Y4020D02*
X3562Y4020D01*
X3593Y4020D02*
X3601Y4020D01*
X4114Y4020D02*
X4128Y4020D01*
X4332Y4020D02*
X4343Y4020D01*
X3553Y4019D02*
X3562Y4019D01*
X3593Y4019D02*
X3601Y4019D01*
X4115Y4019D02*
X4129Y4019D01*
X4333Y4019D02*
X4343Y4019D01*
X3553Y4018D02*
X3562Y4018D01*
X3593Y4018D02*
X3601Y4018D01*
X4116Y4018D02*
X4130Y4018D01*
X4333Y4018D02*
X4344Y4018D01*
X3553Y4017D02*
X3561Y4017D01*
X3593Y4017D02*
X3601Y4017D01*
X4117Y4017D02*
X4131Y4017D01*
X4333Y4017D02*
X4344Y4017D01*
X3552Y4016D02*
X3561Y4016D01*
X3593Y4016D02*
X3601Y4016D01*
X4119Y4016D02*
X4132Y4016D01*
X4334Y4016D02*
X4344Y4016D01*
X3552Y4015D02*
X3561Y4015D01*
X3593Y4015D02*
X3601Y4015D01*
X4120Y4015D02*
X4133Y4015D01*
X4334Y4015D02*
X4345Y4015D01*
X3552Y4014D02*
X3561Y4014D01*
X3593Y4014D02*
X3601Y4014D01*
X4121Y4014D02*
X4133Y4014D01*
X4334Y4014D02*
X4345Y4014D01*
X3551Y4013D02*
X3560Y4013D01*
X3593Y4013D02*
X3601Y4013D01*
X4122Y4013D02*
X4134Y4013D01*
X4335Y4013D02*
X4345Y4013D01*
X3551Y4012D02*
X3560Y4012D01*
X3593Y4012D02*
X3601Y4012D01*
X4122Y4012D02*
X4135Y4012D01*
X4335Y4012D02*
X4345Y4012D01*
X3551Y4011D02*
X3560Y4011D01*
X3593Y4011D02*
X3601Y4011D01*
X4123Y4011D02*
X4136Y4011D01*
X4335Y4011D02*
X4346Y4011D01*
X3551Y4010D02*
X3559Y4010D01*
X3593Y4010D02*
X3601Y4010D01*
X4124Y4010D02*
X4136Y4010D01*
X4336Y4010D02*
X4346Y4010D01*
X3550Y4009D02*
X3559Y4009D01*
X3593Y4009D02*
X3601Y4009D01*
X4125Y4009D02*
X4137Y4009D01*
X4336Y4009D02*
X4346Y4009D01*
X3550Y4008D02*
X3559Y4008D01*
X3593Y4008D02*
X3601Y4008D01*
X4126Y4008D02*
X4138Y4008D01*
X4336Y4008D02*
X4346Y4008D01*
X3550Y4007D02*
X3558Y4007D01*
X3593Y4007D02*
X3601Y4007D01*
X4127Y4007D02*
X4138Y4007D01*
X4337Y4007D02*
X4347Y4007D01*
X3550Y4006D02*
X3558Y4006D01*
X3593Y4006D02*
X3601Y4006D01*
X4128Y4006D02*
X4139Y4006D01*
X4337Y4006D02*
X4347Y4006D01*
X3549Y4005D02*
X3558Y4005D01*
X3593Y4005D02*
X3601Y4005D01*
X4128Y4005D02*
X4140Y4005D01*
X4337Y4005D02*
X4347Y4005D01*
X3549Y4004D02*
X3557Y4004D01*
X3593Y4004D02*
X3602Y4004D01*
X4129Y4004D02*
X4140Y4004D01*
X4337Y4004D02*
X4348Y4004D01*
X3549Y4003D02*
X3557Y4003D01*
X3593Y4003D02*
X3602Y4003D01*
X4130Y4003D02*
X4141Y4003D01*
X4338Y4003D02*
X4348Y4003D01*
X3548Y4002D02*
X3557Y4002D01*
X3593Y4002D02*
X3602Y4002D01*
X4130Y4002D02*
X4141Y4002D01*
X4338Y4002D02*
X4348Y4002D01*
X3548Y4001D02*
X3557Y4001D01*
X3593Y4001D02*
X3602Y4001D01*
X4131Y4001D02*
X4142Y4001D01*
X4338Y4001D02*
X4348Y4001D01*
X3548Y4000D02*
X3556Y4000D01*
X3593Y4000D02*
X3602Y4000D01*
X4132Y4000D02*
X4143Y4000D01*
X4339Y4000D02*
X4349Y4000D01*
X3548Y3999D02*
X3556Y3999D01*
X3593Y3999D02*
X3602Y3999D01*
X4132Y3999D02*
X4143Y3999D01*
X4339Y3999D02*
X4349Y3999D01*
X3548Y3998D02*
X3556Y3998D01*
X3594Y3998D02*
X3602Y3998D01*
X4133Y3998D02*
X4144Y3998D01*
X4339Y3998D02*
X4349Y3998D01*
X3547Y3997D02*
X3555Y3997D01*
X3594Y3997D02*
X3602Y3997D01*
X4134Y3997D02*
X4144Y3997D01*
X4339Y3997D02*
X4349Y3997D01*
X3547Y3996D02*
X3555Y3996D01*
X3594Y3996D02*
X3602Y3996D01*
X4134Y3996D02*
X4145Y3996D01*
X4340Y3996D02*
X4350Y3996D01*
X3547Y3995D02*
X3555Y3995D01*
X3594Y3995D02*
X3602Y3995D01*
X4135Y3995D02*
X4145Y3995D01*
X4340Y3995D02*
X4350Y3995D01*
X3547Y3994D02*
X3555Y3994D01*
X3594Y3994D02*
X3602Y3994D01*
X4136Y3994D02*
X4146Y3994D01*
X4340Y3994D02*
X4350Y3994D01*
X3546Y3993D02*
X3554Y3993D01*
X3594Y3993D02*
X3602Y3993D01*
X4136Y3993D02*
X4146Y3993D01*
X4341Y3993D02*
X4350Y3993D01*
X3546Y3992D02*
X3554Y3992D01*
X3594Y3992D02*
X3602Y3992D01*
X4137Y3992D02*
X4147Y3992D01*
X4341Y3992D02*
X4351Y3992D01*
X3546Y3991D02*
X3554Y3991D01*
X3594Y3991D02*
X3602Y3991D01*
X4137Y3991D02*
X4147Y3991D01*
X4341Y3991D02*
X4351Y3991D01*
X3546Y3990D02*
X3554Y3990D01*
X3594Y3990D02*
X3602Y3990D01*
X4138Y3990D02*
X4148Y3990D01*
X4341Y3990D02*
X4351Y3990D01*
X3545Y3989D02*
X3553Y3989D01*
X3594Y3989D02*
X3603Y3989D01*
X4138Y3989D02*
X4148Y3989D01*
X4342Y3989D02*
X4351Y3989D01*
X3545Y3988D02*
X3553Y3988D01*
X3594Y3988D02*
X3603Y3988D01*
X4139Y3988D02*
X4148Y3988D01*
X4342Y3988D02*
X4352Y3988D01*
X3545Y3987D02*
X3553Y3987D01*
X3594Y3987D02*
X3603Y3987D01*
X4139Y3987D02*
X4149Y3987D01*
X4342Y3987D02*
X4352Y3987D01*
X3545Y3986D02*
X3553Y3986D01*
X3594Y3986D02*
X3603Y3986D01*
X4140Y3986D02*
X4149Y3986D01*
X4342Y3986D02*
X4352Y3986D01*
X3545Y3985D02*
X3553Y3985D01*
X3595Y3985D02*
X3603Y3985D01*
X4140Y3985D02*
X4150Y3985D01*
X4343Y3985D02*
X4352Y3985D01*
X3544Y3984D02*
X3552Y3984D01*
X3595Y3984D02*
X3603Y3984D01*
X4140Y3984D02*
X4150Y3984D01*
X4343Y3984D02*
X4352Y3984D01*
X3544Y3983D02*
X3552Y3983D01*
X3595Y3983D02*
X3603Y3983D01*
X4141Y3983D02*
X4150Y3983D01*
X4343Y3983D02*
X4353Y3983D01*
X3544Y3982D02*
X3552Y3982D01*
X3595Y3982D02*
X3603Y3982D01*
X4141Y3982D02*
X4151Y3982D01*
X4343Y3982D02*
X4353Y3982D01*
X3544Y3981D02*
X3552Y3981D01*
X3595Y3981D02*
X3603Y3981D01*
X4142Y3981D02*
X4151Y3981D01*
X4344Y3981D02*
X4353Y3981D01*
X3544Y3980D02*
X3551Y3980D01*
X3595Y3980D02*
X3603Y3980D01*
X4142Y3980D02*
X4151Y3980D01*
X4344Y3980D02*
X4353Y3980D01*
X3544Y3979D02*
X3551Y3979D01*
X3595Y3979D02*
X3604Y3979D01*
X4143Y3979D02*
X4152Y3979D01*
X4344Y3979D02*
X4354Y3979D01*
X3543Y3978D02*
X3551Y3978D01*
X3595Y3978D02*
X3604Y3978D01*
X4143Y3978D02*
X4152Y3978D01*
X4344Y3978D02*
X4354Y3978D01*
X3543Y3977D02*
X3551Y3977D01*
X3596Y3977D02*
X3604Y3977D01*
X4143Y3977D02*
X4153Y3977D01*
X4289Y3977D02*
X4289Y3977D01*
X4345Y3977D02*
X4354Y3977D01*
X3543Y3976D02*
X3551Y3976D01*
X3596Y3976D02*
X3604Y3976D01*
X4144Y3976D02*
X4153Y3976D01*
X4289Y3976D02*
X4289Y3976D01*
X4345Y3976D02*
X4354Y3976D01*
X3543Y3975D02*
X3551Y3975D01*
X3596Y3975D02*
X3604Y3975D01*
X4144Y3975D02*
X4153Y3975D01*
X4288Y3975D02*
X4289Y3975D01*
X4345Y3975D02*
X4354Y3975D01*
X3543Y3974D02*
X3550Y3974D01*
X3596Y3974D02*
X3604Y3974D01*
X4144Y3974D02*
X4153Y3974D01*
X4288Y3974D02*
X4289Y3974D01*
X4345Y3974D02*
X4354Y3974D01*
X3542Y3973D02*
X3550Y3973D01*
X3596Y3973D02*
X3604Y3973D01*
X4145Y3973D02*
X4154Y3973D01*
X4288Y3973D02*
X4289Y3973D01*
X4346Y3973D02*
X4355Y3973D01*
X3542Y3972D02*
X3550Y3972D01*
X3596Y3972D02*
X3604Y3972D01*
X4145Y3972D02*
X4154Y3972D01*
X4287Y3972D02*
X4289Y3972D01*
X4346Y3972D02*
X4355Y3972D01*
X3542Y3971D02*
X3550Y3971D01*
X3596Y3971D02*
X3605Y3971D01*
X4145Y3971D02*
X4154Y3971D01*
X4287Y3971D02*
X4289Y3971D01*
X4346Y3971D02*
X4355Y3971D01*
X3542Y3970D02*
X3550Y3970D01*
X3596Y3970D02*
X3605Y3970D01*
X4146Y3970D02*
X4155Y3970D01*
X4287Y3970D02*
X4289Y3970D01*
X4346Y3970D02*
X4355Y3970D01*
X3542Y3969D02*
X3549Y3969D01*
X3597Y3969D02*
X3605Y3969D01*
X4146Y3969D02*
X4155Y3969D01*
X4287Y3969D02*
X4288Y3969D01*
X4346Y3969D02*
X4355Y3969D01*
X3542Y3968D02*
X3549Y3968D01*
X3597Y3968D02*
X3605Y3968D01*
X4146Y3968D02*
X4155Y3968D01*
X4286Y3968D02*
X4288Y3968D01*
X4347Y3968D02*
X4356Y3968D01*
X3541Y3967D02*
X3549Y3967D01*
X3597Y3967D02*
X3605Y3967D01*
X4146Y3967D02*
X4155Y3967D01*
X4286Y3967D02*
X4288Y3967D01*
X4347Y3967D02*
X4356Y3967D01*
X3541Y3966D02*
X3549Y3966D01*
X3597Y3966D02*
X3605Y3966D01*
X4147Y3966D02*
X4156Y3966D01*
X4286Y3966D02*
X4288Y3966D01*
X4347Y3966D02*
X4356Y3966D01*
X3541Y3965D02*
X3549Y3965D01*
X3597Y3965D02*
X3605Y3965D01*
X4147Y3965D02*
X4156Y3965D01*
X4286Y3965D02*
X4288Y3965D01*
X4347Y3965D02*
X4356Y3965D01*
X3541Y3964D02*
X3549Y3964D01*
X3597Y3964D02*
X3606Y3964D01*
X4147Y3964D02*
X4156Y3964D01*
X4285Y3964D02*
X4288Y3964D01*
X4347Y3964D02*
X4356Y3964D01*
X3541Y3963D02*
X3548Y3963D01*
X3598Y3963D02*
X3606Y3963D01*
X4147Y3963D02*
X4156Y3963D01*
X4285Y3963D02*
X4288Y3963D01*
X4347Y3963D02*
X4356Y3963D01*
X3541Y3962D02*
X3548Y3962D01*
X3598Y3962D02*
X3606Y3962D01*
X4148Y3962D02*
X4157Y3962D01*
X4285Y3962D02*
X4288Y3962D01*
X4348Y3962D02*
X4357Y3962D01*
X3540Y3961D02*
X3548Y3961D01*
X3598Y3961D02*
X3606Y3961D01*
X4148Y3961D02*
X4157Y3961D01*
X4285Y3961D02*
X4288Y3961D01*
X4348Y3961D02*
X4357Y3961D01*
X3540Y3960D02*
X3548Y3960D01*
X3598Y3960D02*
X3606Y3960D01*
X4148Y3960D02*
X4157Y3960D01*
X4284Y3960D02*
X4287Y3960D01*
X4348Y3960D02*
X4357Y3960D01*
X3540Y3959D02*
X3548Y3959D01*
X3598Y3959D02*
X3606Y3959D01*
X4148Y3959D02*
X4157Y3959D01*
X4284Y3959D02*
X4287Y3959D01*
X4348Y3959D02*
X4357Y3959D01*
X3540Y3958D02*
X3548Y3958D01*
X3598Y3958D02*
X3607Y3958D01*
X4149Y3958D02*
X4158Y3958D01*
X4284Y3958D02*
X4287Y3958D01*
X4348Y3958D02*
X4357Y3958D01*
X3540Y3957D02*
X3548Y3957D01*
X3599Y3957D02*
X3607Y3957D01*
X4149Y3957D02*
X4158Y3957D01*
X4284Y3957D02*
X4287Y3957D01*
X4348Y3957D02*
X4357Y3957D01*
X3540Y3956D02*
X3547Y3956D01*
X3599Y3956D02*
X3607Y3956D01*
X4149Y3956D02*
X4158Y3956D01*
X4284Y3956D02*
X4287Y3956D01*
X4349Y3956D02*
X4357Y3956D01*
X3540Y3955D02*
X3547Y3955D01*
X3599Y3955D02*
X3607Y3955D01*
X4149Y3955D02*
X4158Y3955D01*
X4283Y3955D02*
X4287Y3955D01*
X4349Y3955D02*
X4358Y3955D01*
X3539Y3954D02*
X3547Y3954D01*
X3599Y3954D02*
X3607Y3954D01*
X4149Y3954D02*
X4158Y3954D01*
X4283Y3954D02*
X4286Y3954D01*
X4349Y3954D02*
X4358Y3954D01*
X3539Y3953D02*
X3547Y3953D01*
X3599Y3953D02*
X3608Y3953D01*
X4149Y3953D02*
X4158Y3953D01*
X4283Y3953D02*
X4286Y3953D01*
X4349Y3953D02*
X4358Y3953D01*
X3539Y3952D02*
X3547Y3952D01*
X3600Y3952D02*
X3608Y3952D01*
X4149Y3952D02*
X4159Y3952D01*
X4283Y3952D02*
X4286Y3952D01*
X4349Y3952D02*
X4358Y3952D01*
X3539Y3951D02*
X3547Y3951D01*
X3600Y3951D02*
X3608Y3951D01*
X4150Y3951D02*
X4159Y3951D01*
X4282Y3951D02*
X4286Y3951D01*
X4349Y3951D02*
X4358Y3951D01*
X3539Y3950D02*
X3547Y3950D01*
X3600Y3950D02*
X3608Y3950D01*
X4150Y3950D02*
X4159Y3950D01*
X4282Y3950D02*
X4286Y3950D01*
X4349Y3950D02*
X4358Y3950D01*
X3539Y3949D02*
X3547Y3949D01*
X3600Y3949D02*
X3608Y3949D01*
X4150Y3949D02*
X4159Y3949D01*
X4282Y3949D02*
X4285Y3949D01*
X4350Y3949D02*
X4358Y3949D01*
X3539Y3948D02*
X3547Y3948D01*
X3601Y3948D02*
X3609Y3948D01*
X4150Y3948D02*
X4159Y3948D01*
X4282Y3948D02*
X4285Y3948D01*
X4350Y3948D02*
X4359Y3948D01*
X3539Y3947D02*
X3546Y3947D01*
X3601Y3947D02*
X3609Y3947D01*
X4150Y3947D02*
X4159Y3947D01*
X4281Y3947D02*
X4285Y3947D01*
X4350Y3947D02*
X4359Y3947D01*
X3538Y3946D02*
X3546Y3946D01*
X3601Y3946D02*
X3609Y3946D01*
X4150Y3946D02*
X4159Y3946D01*
X4281Y3946D02*
X4285Y3946D01*
X4350Y3946D02*
X4359Y3946D01*
X3538Y3945D02*
X3546Y3945D01*
X3601Y3945D02*
X3609Y3945D01*
X4150Y3945D02*
X4159Y3945D01*
X4281Y3945D02*
X4284Y3945D01*
X4350Y3945D02*
X4359Y3945D01*
X3538Y3944D02*
X3546Y3944D01*
X3601Y3944D02*
X3610Y3944D01*
X4150Y3944D02*
X4159Y3944D01*
X4281Y3944D02*
X4284Y3944D01*
X4350Y3944D02*
X4359Y3944D01*
X3538Y3943D02*
X3546Y3943D01*
X3602Y3943D02*
X3610Y3943D01*
X4150Y3943D02*
X4159Y3943D01*
X4280Y3943D02*
X4284Y3943D01*
X4350Y3943D02*
X4359Y3943D01*
X3538Y3942D02*
X3546Y3942D01*
X3602Y3942D02*
X3610Y3942D01*
X4150Y3942D02*
X4160Y3942D01*
X4280Y3942D02*
X4284Y3942D01*
X4350Y3942D02*
X4359Y3942D01*
X3538Y3941D02*
X3546Y3941D01*
X3602Y3941D02*
X3610Y3941D01*
X4150Y3941D02*
X4160Y3941D01*
X4280Y3941D02*
X4283Y3941D01*
X4350Y3941D02*
X4359Y3941D01*
X3538Y3940D02*
X3546Y3940D01*
X3602Y3940D02*
X3611Y3940D01*
X4150Y3940D02*
X4160Y3940D01*
X4279Y3940D02*
X4283Y3940D01*
X4351Y3940D02*
X4360Y3940D01*
X3538Y3939D02*
X3546Y3939D01*
X3603Y3939D02*
X3611Y3939D01*
X4150Y3939D02*
X4160Y3939D01*
X4279Y3939D02*
X4283Y3939D01*
X4351Y3939D02*
X4360Y3939D01*
X3538Y3938D02*
X3546Y3938D01*
X3603Y3938D02*
X3611Y3938D01*
X4150Y3938D02*
X4160Y3938D01*
X4279Y3938D02*
X4283Y3938D01*
X4351Y3938D02*
X4360Y3938D01*
X3537Y3937D02*
X3546Y3937D01*
X3603Y3937D02*
X3611Y3937D01*
X4150Y3937D02*
X4160Y3937D01*
X4279Y3937D02*
X4282Y3937D01*
X4351Y3937D02*
X4360Y3937D01*
X3537Y3936D02*
X3545Y3936D01*
X3603Y3936D02*
X3612Y3936D01*
X4150Y3936D02*
X4160Y3936D01*
X4278Y3936D02*
X4282Y3936D01*
X4351Y3936D02*
X4360Y3936D01*
X3537Y3935D02*
X3545Y3935D01*
X3604Y3935D02*
X3612Y3935D01*
X4150Y3935D02*
X4160Y3935D01*
X4278Y3935D02*
X4282Y3935D01*
X4351Y3935D02*
X4360Y3935D01*
X3537Y3934D02*
X3545Y3934D01*
X3604Y3934D02*
X3612Y3934D01*
X4150Y3934D02*
X4160Y3934D01*
X4278Y3934D02*
X4282Y3934D01*
X4351Y3934D02*
X4360Y3934D01*
X3537Y3933D02*
X3545Y3933D01*
X3604Y3933D02*
X3612Y3933D01*
X4150Y3933D02*
X4160Y3933D01*
X4277Y3933D02*
X4281Y3933D01*
X4351Y3933D02*
X4360Y3933D01*
X3537Y3932D02*
X3545Y3932D01*
X3604Y3932D02*
X3613Y3932D01*
X4150Y3932D02*
X4160Y3932D01*
X4277Y3932D02*
X4281Y3932D01*
X4351Y3932D02*
X4360Y3932D01*
X3537Y3931D02*
X3545Y3931D01*
X3605Y3931D02*
X3613Y3931D01*
X4150Y3931D02*
X4160Y3931D01*
X4277Y3931D02*
X4281Y3931D01*
X4351Y3931D02*
X4361Y3931D01*
X3537Y3930D02*
X3545Y3930D01*
X3605Y3930D02*
X3613Y3930D01*
X4150Y3930D02*
X4159Y3930D01*
X4277Y3930D02*
X4281Y3930D01*
X4351Y3930D02*
X4361Y3930D01*
X3537Y3929D02*
X3545Y3929D01*
X3605Y3929D02*
X3614Y3929D01*
X4150Y3929D02*
X4159Y3929D01*
X4276Y3929D02*
X4280Y3929D01*
X4352Y3929D02*
X4361Y3929D01*
X3537Y3928D02*
X3545Y3928D01*
X3606Y3928D02*
X3614Y3928D01*
X4150Y3928D02*
X4159Y3928D01*
X4276Y3928D02*
X4280Y3928D01*
X4352Y3928D02*
X4361Y3928D01*
X3537Y3927D02*
X3545Y3927D01*
X3606Y3927D02*
X3614Y3927D01*
X4150Y3927D02*
X4159Y3927D01*
X4276Y3927D02*
X4280Y3927D01*
X4352Y3927D02*
X4361Y3927D01*
X3537Y3926D02*
X3545Y3926D01*
X3606Y3926D02*
X3614Y3926D01*
X4150Y3926D02*
X4159Y3926D01*
X4275Y3926D02*
X4279Y3926D01*
X4352Y3926D02*
X4361Y3926D01*
X3536Y3925D02*
X3545Y3925D01*
X3606Y3925D02*
X3615Y3925D01*
X4150Y3925D02*
X4159Y3925D01*
X4275Y3925D02*
X4279Y3925D01*
X4352Y3925D02*
X4361Y3925D01*
X3536Y3924D02*
X3545Y3924D01*
X3607Y3924D02*
X3615Y3924D01*
X4150Y3924D02*
X4159Y3924D01*
X4275Y3924D02*
X4279Y3924D01*
X4352Y3924D02*
X4361Y3924D01*
X3536Y3923D02*
X3545Y3923D01*
X3607Y3923D02*
X3615Y3923D01*
X4150Y3923D02*
X4159Y3923D01*
X4274Y3923D02*
X4279Y3923D01*
X4352Y3923D02*
X4361Y3923D01*
X3536Y3922D02*
X3545Y3922D01*
X3607Y3922D02*
X3616Y3922D01*
X4149Y3922D02*
X4159Y3922D01*
X4274Y3922D02*
X4278Y3922D01*
X4352Y3922D02*
X4361Y3922D01*
X3536Y3921D02*
X3545Y3921D01*
X3608Y3921D02*
X3616Y3921D01*
X4149Y3921D02*
X4158Y3921D01*
X4274Y3921D02*
X4278Y3921D01*
X4352Y3921D02*
X4362Y3921D01*
X3536Y3920D02*
X3545Y3920D01*
X3608Y3920D02*
X3616Y3920D01*
X4149Y3920D02*
X4158Y3920D01*
X4273Y3920D02*
X4278Y3920D01*
X4352Y3920D02*
X4362Y3920D01*
X3536Y3919D02*
X3545Y3919D01*
X3608Y3919D02*
X3617Y3919D01*
X4149Y3919D02*
X4158Y3919D01*
X4273Y3919D02*
X4277Y3919D01*
X4352Y3919D02*
X4362Y3919D01*
X3536Y3918D02*
X3544Y3918D01*
X3609Y3918D02*
X3617Y3918D01*
X4149Y3918D02*
X4158Y3918D01*
X4273Y3918D02*
X4277Y3918D01*
X4352Y3918D02*
X4362Y3918D01*
X3536Y3917D02*
X3544Y3917D01*
X3609Y3917D02*
X3617Y3917D01*
X4149Y3917D02*
X4158Y3917D01*
X4272Y3917D02*
X4277Y3917D01*
X4337Y3917D02*
X4338Y3917D01*
X4352Y3917D02*
X4362Y3917D01*
X3536Y3916D02*
X3544Y3916D01*
X3609Y3916D02*
X3618Y3916D01*
X4148Y3916D02*
X4157Y3916D01*
X4272Y3916D02*
X4276Y3916D01*
X4337Y3916D02*
X4337Y3916D01*
X4352Y3916D02*
X4362Y3916D01*
X3536Y3915D02*
X3544Y3915D01*
X3609Y3915D02*
X3618Y3915D01*
X4148Y3915D02*
X4157Y3915D01*
X4272Y3915D02*
X4276Y3915D01*
X4352Y3915D02*
X4362Y3915D01*
X3536Y3914D02*
X3544Y3914D01*
X3610Y3914D02*
X3618Y3914D01*
X4148Y3914D02*
X4157Y3914D01*
X4271Y3914D02*
X4276Y3914D01*
X4353Y3914D02*
X4362Y3914D01*
X3536Y3913D02*
X3544Y3913D01*
X3610Y3913D02*
X3619Y3913D01*
X4148Y3913D02*
X4157Y3913D01*
X4271Y3913D02*
X4275Y3913D01*
X4353Y3913D02*
X4362Y3913D01*
X3536Y3912D02*
X3544Y3912D01*
X3610Y3912D02*
X3619Y3912D01*
X4147Y3912D02*
X4157Y3912D01*
X4271Y3912D02*
X4275Y3912D01*
X4353Y3912D02*
X4362Y3912D01*
X3536Y3911D02*
X3544Y3911D01*
X3611Y3911D02*
X3619Y3911D01*
X4147Y3911D02*
X4156Y3911D01*
X4270Y3911D02*
X4275Y3911D01*
X4336Y3911D02*
X4336Y3911D01*
X4353Y3911D02*
X4362Y3911D01*
X3536Y3910D02*
X3544Y3910D01*
X3611Y3910D02*
X3620Y3910D01*
X4147Y3910D02*
X4156Y3910D01*
X4270Y3910D02*
X4274Y3910D01*
X4335Y3910D02*
X4337Y3910D01*
X4353Y3910D02*
X4363Y3910D01*
X3536Y3909D02*
X3544Y3909D01*
X3611Y3909D02*
X3620Y3909D01*
X4147Y3909D02*
X4156Y3909D01*
X4270Y3909D02*
X4274Y3909D01*
X4335Y3909D02*
X4338Y3909D01*
X4353Y3909D02*
X4363Y3909D01*
X3536Y3908D02*
X3544Y3908D01*
X3562Y3908D02*
X3562Y3908D01*
X3612Y3908D02*
X3620Y3908D01*
X4146Y3908D02*
X4155Y3908D01*
X4269Y3908D02*
X4274Y3908D01*
X4335Y3908D02*
X4338Y3908D01*
X4353Y3908D02*
X4363Y3908D01*
X3536Y3907D02*
X3544Y3907D01*
X3562Y3907D02*
X3563Y3907D01*
X3612Y3907D02*
X3621Y3907D01*
X4146Y3907D02*
X4155Y3907D01*
X4269Y3907D02*
X4273Y3907D01*
X4335Y3907D02*
X4338Y3907D01*
X4353Y3907D02*
X4363Y3907D01*
X3536Y3906D02*
X3544Y3906D01*
X3562Y3906D02*
X3563Y3906D01*
X3612Y3906D02*
X3621Y3906D01*
X4146Y3906D02*
X4155Y3906D01*
X4269Y3906D02*
X4273Y3906D01*
X4335Y3906D02*
X4338Y3906D01*
X4353Y3906D02*
X4363Y3906D01*
X3536Y3905D02*
X3544Y3905D01*
X3562Y3905D02*
X3563Y3905D01*
X3613Y3905D02*
X3622Y3905D01*
X4145Y3905D02*
X4155Y3905D01*
X4268Y3905D02*
X4273Y3905D01*
X4334Y3905D02*
X4339Y3905D01*
X4353Y3905D02*
X4363Y3905D01*
X3535Y3904D02*
X3544Y3904D01*
X3562Y3904D02*
X3563Y3904D01*
X3613Y3904D02*
X3622Y3904D01*
X4145Y3904D02*
X4154Y3904D01*
X4268Y3904D02*
X4272Y3904D01*
X4334Y3904D02*
X4339Y3904D01*
X4353Y3904D02*
X4363Y3904D01*
X3535Y3903D02*
X3544Y3903D01*
X3562Y3903D02*
X3563Y3903D01*
X3614Y3903D02*
X3622Y3903D01*
X4145Y3903D02*
X4154Y3903D01*
X4267Y3903D02*
X4272Y3903D01*
X4334Y3903D02*
X4339Y3903D01*
X4353Y3903D02*
X4363Y3903D01*
X3535Y3902D02*
X3544Y3902D01*
X3562Y3902D02*
X3563Y3902D01*
X3614Y3902D02*
X3623Y3902D01*
X4144Y3902D02*
X4153Y3902D01*
X4267Y3902D02*
X4271Y3902D01*
X4334Y3902D02*
X4339Y3902D01*
X4353Y3902D02*
X4363Y3902D01*
X3535Y3901D02*
X3544Y3901D01*
X3562Y3901D02*
X3564Y3901D01*
X3614Y3901D02*
X3623Y3901D01*
X4144Y3901D02*
X4153Y3901D01*
X4267Y3901D02*
X4271Y3901D01*
X4334Y3901D02*
X4339Y3901D01*
X4353Y3901D02*
X4363Y3901D01*
X3535Y3900D02*
X3544Y3900D01*
X3562Y3900D02*
X3564Y3900D01*
X3615Y3900D02*
X3624Y3900D01*
X4143Y3900D02*
X4153Y3900D01*
X4266Y3900D02*
X4271Y3900D01*
X4334Y3900D02*
X4339Y3900D01*
X4353Y3900D02*
X4363Y3900D01*
X3535Y3899D02*
X3544Y3899D01*
X3562Y3899D02*
X3564Y3899D01*
X3615Y3899D02*
X3624Y3899D01*
X4143Y3899D02*
X4152Y3899D01*
X4266Y3899D02*
X4270Y3899D01*
X4334Y3899D02*
X4339Y3899D01*
X4353Y3899D02*
X4363Y3899D01*
X3535Y3898D02*
X3544Y3898D01*
X3562Y3898D02*
X3564Y3898D01*
X3615Y3898D02*
X3624Y3898D01*
X4143Y3898D02*
X4152Y3898D01*
X4265Y3898D02*
X4270Y3898D01*
X4334Y3898D02*
X4339Y3898D01*
X4353Y3898D02*
X4363Y3898D01*
X3535Y3897D02*
X3544Y3897D01*
X3562Y3897D02*
X3564Y3897D01*
X3616Y3897D02*
X3625Y3897D01*
X4142Y3897D02*
X4152Y3897D01*
X4265Y3897D02*
X4270Y3897D01*
X4334Y3897D02*
X4340Y3897D01*
X4353Y3897D02*
X4363Y3897D01*
X3535Y3896D02*
X3544Y3896D01*
X3562Y3896D02*
X3564Y3896D01*
X3616Y3896D02*
X3625Y3896D01*
X4142Y3896D02*
X4151Y3896D01*
X4265Y3896D02*
X4269Y3896D01*
X4334Y3896D02*
X4340Y3896D01*
X4353Y3896D02*
X4363Y3896D01*
X3535Y3895D02*
X3544Y3895D01*
X3562Y3895D02*
X3564Y3895D01*
X3617Y3895D02*
X3626Y3895D01*
X4141Y3895D02*
X4151Y3895D01*
X4264Y3895D02*
X4269Y3895D01*
X4334Y3895D02*
X4340Y3895D01*
X4353Y3895D02*
X4363Y3895D01*
X3535Y3894D02*
X3544Y3894D01*
X3562Y3894D02*
X3565Y3894D01*
X3617Y3894D02*
X3626Y3894D01*
X4141Y3894D02*
X4150Y3894D01*
X4264Y3894D02*
X4269Y3894D01*
X4334Y3894D02*
X4340Y3894D01*
X4353Y3894D02*
X4363Y3894D01*
X3535Y3893D02*
X3544Y3893D01*
X3562Y3893D02*
X3565Y3893D01*
X3617Y3893D02*
X3627Y3893D01*
X4140Y3893D02*
X4150Y3893D01*
X4263Y3893D02*
X4268Y3893D01*
X4334Y3893D02*
X4340Y3893D01*
X4353Y3893D02*
X4363Y3893D01*
X3535Y3892D02*
X3544Y3892D01*
X3562Y3892D02*
X3565Y3892D01*
X3618Y3892D02*
X3627Y3892D01*
X4140Y3892D02*
X4149Y3892D01*
X4263Y3892D02*
X4268Y3892D01*
X4334Y3892D02*
X4340Y3892D01*
X4353Y3892D02*
X4363Y3892D01*
X3535Y3891D02*
X3544Y3891D01*
X3562Y3891D02*
X3565Y3891D01*
X3618Y3891D02*
X3627Y3891D01*
X4139Y3891D02*
X4149Y3891D01*
X4263Y3891D02*
X4267Y3891D01*
X4333Y3891D02*
X4340Y3891D01*
X4353Y3891D02*
X4363Y3891D01*
X3535Y3890D02*
X3544Y3890D01*
X3562Y3890D02*
X3565Y3890D01*
X3619Y3890D02*
X3628Y3890D01*
X4139Y3890D02*
X4149Y3890D01*
X4262Y3890D02*
X4267Y3890D01*
X4333Y3890D02*
X4339Y3890D01*
X4353Y3890D02*
X4363Y3890D01*
X3535Y3889D02*
X3544Y3889D01*
X3562Y3889D02*
X3565Y3889D01*
X3619Y3889D02*
X3628Y3889D01*
X4138Y3889D02*
X4148Y3889D01*
X4262Y3889D02*
X4267Y3889D01*
X4333Y3889D02*
X4339Y3889D01*
X4353Y3889D02*
X4363Y3889D01*
X3535Y3888D02*
X3544Y3888D01*
X3562Y3888D02*
X3565Y3888D01*
X3619Y3888D02*
X3629Y3888D01*
X4138Y3888D02*
X4148Y3888D01*
X4261Y3888D02*
X4266Y3888D01*
X4333Y3888D02*
X4339Y3888D01*
X4353Y3888D02*
X4363Y3888D01*
X3535Y3887D02*
X3544Y3887D01*
X3563Y3887D02*
X3565Y3887D01*
X3620Y3887D02*
X3629Y3887D01*
X4137Y3887D02*
X4147Y3887D01*
X4261Y3887D02*
X4266Y3887D01*
X4333Y3887D02*
X4339Y3887D01*
X4353Y3887D02*
X4363Y3887D01*
X3535Y3886D02*
X3544Y3886D01*
X3563Y3886D02*
X3565Y3886D01*
X3620Y3886D02*
X3630Y3886D01*
X4137Y3886D02*
X4147Y3886D01*
X4260Y3886D02*
X4266Y3886D01*
X4333Y3886D02*
X4339Y3886D01*
X4353Y3886D02*
X4363Y3886D01*
X3536Y3885D02*
X3544Y3885D01*
X3563Y3885D02*
X3566Y3885D01*
X3621Y3885D02*
X3630Y3885D01*
X4136Y3885D02*
X4146Y3885D01*
X4260Y3885D02*
X4265Y3885D01*
X4333Y3885D02*
X4339Y3885D01*
X4353Y3885D02*
X4363Y3885D01*
X3536Y3884D02*
X3544Y3884D01*
X3563Y3884D02*
X3566Y3884D01*
X3621Y3884D02*
X3631Y3884D01*
X4135Y3884D02*
X4146Y3884D01*
X4259Y3884D02*
X4265Y3884D01*
X4332Y3884D02*
X4339Y3884D01*
X4353Y3884D02*
X4363Y3884D01*
X3536Y3883D02*
X3544Y3883D01*
X3563Y3883D02*
X3566Y3883D01*
X3622Y3883D02*
X3631Y3883D01*
X4135Y3883D02*
X4145Y3883D01*
X4259Y3883D02*
X4264Y3883D01*
X4332Y3883D02*
X4339Y3883D01*
X4353Y3883D02*
X4363Y3883D01*
X3536Y3882D02*
X3544Y3882D01*
X3563Y3882D02*
X3566Y3882D01*
X3622Y3882D02*
X3632Y3882D01*
X4134Y3882D02*
X4144Y3882D01*
X4259Y3882D02*
X4264Y3882D01*
X4332Y3882D02*
X4339Y3882D01*
X4353Y3882D02*
X4363Y3882D01*
X3536Y3881D02*
X3544Y3881D01*
X3563Y3881D02*
X3566Y3881D01*
X3622Y3881D02*
X3632Y3881D01*
X4134Y3881D02*
X4144Y3881D01*
X4258Y3881D02*
X4264Y3881D01*
X4332Y3881D02*
X4338Y3881D01*
X4353Y3881D02*
X4363Y3881D01*
X3536Y3880D02*
X3544Y3880D01*
X3564Y3880D02*
X3566Y3880D01*
X3623Y3880D02*
X3632Y3880D01*
X4133Y3880D02*
X4143Y3880D01*
X4258Y3880D02*
X4263Y3880D01*
X4332Y3880D02*
X4338Y3880D01*
X4353Y3880D02*
X4363Y3880D01*
X3536Y3879D02*
X3544Y3879D01*
X3564Y3879D02*
X3566Y3879D01*
X3623Y3879D02*
X3633Y3879D01*
X4132Y3879D02*
X4143Y3879D01*
X4257Y3879D02*
X4263Y3879D01*
X4332Y3879D02*
X4338Y3879D01*
X4353Y3879D02*
X4363Y3879D01*
X3536Y3878D02*
X3544Y3878D01*
X3564Y3878D02*
X3566Y3878D01*
X3624Y3878D02*
X3633Y3878D01*
X4132Y3878D02*
X4142Y3878D01*
X4257Y3878D02*
X4262Y3878D01*
X4331Y3878D02*
X4338Y3878D01*
X4353Y3878D02*
X4363Y3878D01*
X3536Y3877D02*
X3544Y3877D01*
X3564Y3877D02*
X3566Y3877D01*
X3624Y3877D02*
X3634Y3877D01*
X4131Y3877D02*
X4142Y3877D01*
X4256Y3877D02*
X4262Y3877D01*
X4331Y3877D02*
X4337Y3877D01*
X4353Y3877D02*
X4363Y3877D01*
X3536Y3876D02*
X3544Y3876D01*
X3564Y3876D02*
X3567Y3876D01*
X3625Y3876D02*
X3634Y3876D01*
X4130Y3876D02*
X4141Y3876D01*
X4256Y3876D02*
X4261Y3876D01*
X4331Y3876D02*
X4337Y3876D01*
X4353Y3876D02*
X4363Y3876D01*
X3536Y3875D02*
X3544Y3875D01*
X3564Y3875D02*
X3567Y3875D01*
X3625Y3875D02*
X3635Y3875D01*
X4129Y3875D02*
X4140Y3875D01*
X4255Y3875D02*
X4261Y3875D01*
X4331Y3875D02*
X4337Y3875D01*
X4353Y3875D02*
X4363Y3875D01*
X3536Y3874D02*
X3544Y3874D01*
X3565Y3874D02*
X3567Y3874D01*
X3626Y3874D02*
X3635Y3874D01*
X4129Y3874D02*
X4140Y3874D01*
X4255Y3874D02*
X4261Y3874D01*
X4331Y3874D02*
X4337Y3874D01*
X4353Y3874D02*
X4362Y3874D01*
X3536Y3873D02*
X3544Y3873D01*
X3565Y3873D02*
X3567Y3873D01*
X3626Y3873D02*
X3636Y3873D01*
X4128Y3873D02*
X4139Y3873D01*
X4254Y3873D02*
X4260Y3873D01*
X4330Y3873D02*
X4336Y3873D01*
X4353Y3873D02*
X4362Y3873D01*
X3536Y3872D02*
X3545Y3872D01*
X3565Y3872D02*
X3567Y3872D01*
X3627Y3872D02*
X3636Y3872D01*
X4127Y3872D02*
X4138Y3872D01*
X4254Y3872D02*
X4260Y3872D01*
X4330Y3872D02*
X4336Y3872D01*
X4353Y3872D02*
X4362Y3872D01*
X3536Y3871D02*
X3545Y3871D01*
X3565Y3871D02*
X3567Y3871D01*
X3627Y3871D02*
X3637Y3871D01*
X4126Y3871D02*
X4138Y3871D01*
X4253Y3871D02*
X4259Y3871D01*
X4330Y3871D02*
X4336Y3871D01*
X4353Y3871D02*
X4362Y3871D01*
X3536Y3870D02*
X3545Y3870D01*
X3565Y3870D02*
X3568Y3870D01*
X3628Y3870D02*
X3637Y3870D01*
X4126Y3870D02*
X4137Y3870D01*
X4253Y3870D02*
X4259Y3870D01*
X4330Y3870D02*
X4336Y3870D01*
X4353Y3870D02*
X4362Y3870D01*
X3536Y3869D02*
X3545Y3869D01*
X3566Y3869D02*
X3568Y3869D01*
X3628Y3869D02*
X3638Y3869D01*
X4125Y3869D02*
X4136Y3869D01*
X4252Y3869D02*
X4258Y3869D01*
X4330Y3869D02*
X4335Y3869D01*
X4353Y3869D02*
X4362Y3869D01*
X3536Y3868D02*
X3545Y3868D01*
X3566Y3868D02*
X3568Y3868D01*
X3629Y3868D02*
X3638Y3868D01*
X4124Y3868D02*
X4135Y3868D01*
X4252Y3868D02*
X4258Y3868D01*
X4329Y3868D02*
X4335Y3868D01*
X4353Y3868D02*
X4362Y3868D01*
X3536Y3867D02*
X3545Y3867D01*
X3566Y3867D02*
X3568Y3867D01*
X3629Y3867D02*
X3639Y3867D01*
X4123Y3867D02*
X4135Y3867D01*
X4251Y3867D02*
X4257Y3867D01*
X4329Y3867D02*
X4335Y3867D01*
X4352Y3867D02*
X4362Y3867D01*
X3536Y3866D02*
X3545Y3866D01*
X3566Y3866D02*
X3568Y3866D01*
X3629Y3866D02*
X3639Y3866D01*
X4122Y3866D02*
X4134Y3866D01*
X4251Y3866D02*
X4257Y3866D01*
X4329Y3866D02*
X4335Y3866D01*
X4352Y3866D02*
X4361Y3866D01*
X3536Y3865D02*
X3545Y3865D01*
X3567Y3865D02*
X3569Y3865D01*
X3630Y3865D02*
X3640Y3865D01*
X4121Y3865D02*
X4133Y3865D01*
X4250Y3865D02*
X4256Y3865D01*
X4329Y3865D02*
X4334Y3865D01*
X4352Y3865D02*
X4361Y3865D01*
X3536Y3864D02*
X3545Y3864D01*
X3567Y3864D02*
X3569Y3864D01*
X3630Y3864D02*
X3641Y3864D01*
X4120Y3864D02*
X4132Y3864D01*
X4250Y3864D02*
X4256Y3864D01*
X4329Y3864D02*
X4334Y3864D01*
X4352Y3864D02*
X4361Y3864D01*
X3537Y3863D02*
X3545Y3863D01*
X3567Y3863D02*
X3569Y3863D01*
X3631Y3863D02*
X3641Y3863D01*
X4119Y3863D02*
X4132Y3863D01*
X4249Y3863D02*
X4256Y3863D01*
X4328Y3863D02*
X4334Y3863D01*
X4352Y3863D02*
X4361Y3863D01*
X3537Y3862D02*
X3545Y3862D01*
X3567Y3862D02*
X3569Y3862D01*
X3631Y3862D02*
X3642Y3862D01*
X4118Y3862D02*
X4131Y3862D01*
X4249Y3862D02*
X4255Y3862D01*
X4328Y3862D02*
X4334Y3862D01*
X4352Y3862D02*
X4361Y3862D01*
X3537Y3861D02*
X3545Y3861D01*
X3567Y3861D02*
X3569Y3861D01*
X3632Y3861D02*
X3642Y3861D01*
X4117Y3861D02*
X4130Y3861D01*
X4248Y3861D02*
X4255Y3861D01*
X4328Y3861D02*
X4333Y3861D01*
X4352Y3861D02*
X4361Y3861D01*
X3537Y3860D02*
X3545Y3860D01*
X3568Y3860D02*
X3570Y3860D01*
X3633Y3860D02*
X3643Y3860D01*
X4116Y3860D02*
X4129Y3860D01*
X4248Y3860D02*
X4254Y3860D01*
X4328Y3860D02*
X4333Y3860D01*
X4352Y3860D02*
X4361Y3860D01*
X3537Y3859D02*
X3545Y3859D01*
X3568Y3859D02*
X3570Y3859D01*
X3633Y3859D02*
X3643Y3859D01*
X4115Y3859D02*
X4128Y3859D01*
X4247Y3859D02*
X4254Y3859D01*
X4327Y3859D02*
X4333Y3859D01*
X4352Y3859D02*
X4361Y3859D01*
X3537Y3858D02*
X3545Y3858D01*
X3568Y3858D02*
X3570Y3858D01*
X3634Y3858D02*
X3644Y3858D01*
X4114Y3858D02*
X4127Y3858D01*
X4247Y3858D02*
X4253Y3858D01*
X4327Y3858D02*
X4333Y3858D01*
X4352Y3858D02*
X4361Y3858D01*
X3537Y3857D02*
X3545Y3857D01*
X3568Y3857D02*
X3570Y3857D01*
X3634Y3857D02*
X3644Y3857D01*
X4113Y3857D02*
X4126Y3857D01*
X4246Y3857D02*
X4253Y3857D01*
X4327Y3857D02*
X4333Y3857D01*
X4352Y3857D02*
X4360Y3857D01*
X3537Y3856D02*
X3545Y3856D01*
X3569Y3856D02*
X3571Y3856D01*
X3635Y3856D02*
X3645Y3856D01*
X4112Y3856D02*
X4125Y3856D01*
X4245Y3856D02*
X4252Y3856D01*
X4327Y3856D02*
X4332Y3856D01*
X4351Y3856D02*
X4360Y3856D01*
X3537Y3855D02*
X3545Y3855D01*
X3569Y3855D02*
X3571Y3855D01*
X3635Y3855D02*
X3645Y3855D01*
X4111Y3855D02*
X4124Y3855D01*
X4245Y3855D02*
X4252Y3855D01*
X4326Y3855D02*
X4332Y3855D01*
X4351Y3855D02*
X4360Y3855D01*
X3537Y3854D02*
X3545Y3854D01*
X3569Y3854D02*
X3571Y3854D01*
X3636Y3854D02*
X3646Y3854D01*
X4109Y3854D02*
X4123Y3854D01*
X4244Y3854D02*
X4251Y3854D01*
X4326Y3854D02*
X4332Y3854D01*
X4351Y3854D02*
X4360Y3854D01*
X3537Y3853D02*
X3546Y3853D01*
X3569Y3853D02*
X3571Y3853D01*
X3636Y3853D02*
X3646Y3853D01*
X4108Y3853D02*
X4122Y3853D01*
X4244Y3853D02*
X4251Y3853D01*
X4326Y3853D02*
X4332Y3853D01*
X4351Y3853D02*
X4360Y3853D01*
X3537Y3852D02*
X3546Y3852D01*
X3570Y3852D02*
X3572Y3852D01*
X3637Y3852D02*
X3647Y3852D01*
X4107Y3852D02*
X4121Y3852D01*
X4243Y3852D02*
X4250Y3852D01*
X4325Y3852D02*
X4332Y3852D01*
X4351Y3852D02*
X4360Y3852D01*
X3538Y3851D02*
X3546Y3851D01*
X3570Y3851D02*
X3572Y3851D01*
X3637Y3851D02*
X3648Y3851D01*
X4106Y3851D02*
X4120Y3851D01*
X4243Y3851D02*
X4250Y3851D01*
X4325Y3851D02*
X4332Y3851D01*
X4351Y3851D02*
X4360Y3851D01*
X3538Y3850D02*
X3546Y3850D01*
X3570Y3850D02*
X3572Y3850D01*
X3638Y3850D02*
X3648Y3850D01*
X4104Y3850D02*
X4119Y3850D01*
X4242Y3850D02*
X4249Y3850D01*
X4325Y3850D02*
X4331Y3850D01*
X4351Y3850D02*
X4360Y3850D01*
X3538Y3849D02*
X3546Y3849D01*
X3570Y3849D02*
X3572Y3849D01*
X3638Y3849D02*
X3649Y3849D01*
X4103Y3849D02*
X4118Y3849D01*
X4241Y3849D02*
X4249Y3849D01*
X4325Y3849D02*
X4331Y3849D01*
X4351Y3849D02*
X4359Y3849D01*
X3538Y3848D02*
X3546Y3848D01*
X3570Y3848D02*
X3573Y3848D01*
X3639Y3848D02*
X3649Y3848D01*
X4101Y3848D02*
X4117Y3848D01*
X4241Y3848D02*
X4248Y3848D01*
X4324Y3848D02*
X4331Y3848D01*
X4350Y3848D02*
X4359Y3848D01*
X3538Y3847D02*
X3546Y3847D01*
X3571Y3847D02*
X3573Y3847D01*
X3640Y3847D02*
X3650Y3847D01*
X4100Y3847D02*
X4115Y3847D01*
X4240Y3847D02*
X4247Y3847D01*
X4324Y3847D02*
X4331Y3847D01*
X4350Y3847D02*
X4359Y3847D01*
X3538Y3846D02*
X3546Y3846D01*
X3571Y3846D02*
X3573Y3846D01*
X3640Y3846D02*
X3650Y3846D01*
X4098Y3846D02*
X4114Y3846D01*
X4240Y3846D02*
X4247Y3846D01*
X4324Y3846D02*
X4331Y3846D01*
X4350Y3846D02*
X4359Y3846D01*
X3538Y3845D02*
X3546Y3845D01*
X3571Y3845D02*
X3574Y3845D01*
X3641Y3845D02*
X3651Y3845D01*
X4097Y3845D02*
X4113Y3845D01*
X4239Y3845D02*
X4246Y3845D01*
X4323Y3845D02*
X4331Y3845D01*
X4350Y3845D02*
X4359Y3845D01*
X3538Y3844D02*
X3546Y3844D01*
X3571Y3844D02*
X3574Y3844D01*
X3641Y3844D02*
X3652Y3844D01*
X4095Y3844D02*
X4112Y3844D01*
X4238Y3844D02*
X4246Y3844D01*
X4323Y3844D02*
X4331Y3844D01*
X4350Y3844D02*
X4359Y3844D01*
X3538Y3843D02*
X3547Y3843D01*
X3571Y3843D02*
X3574Y3843D01*
X3642Y3843D02*
X3652Y3843D01*
X4093Y3843D02*
X4110Y3843D01*
X4238Y3843D02*
X4245Y3843D01*
X4323Y3843D02*
X4330Y3843D01*
X4350Y3843D02*
X4359Y3843D01*
X3539Y3842D02*
X3547Y3842D01*
X3572Y3842D02*
X3574Y3842D01*
X3643Y3842D02*
X3653Y3842D01*
X4091Y3842D02*
X4109Y3842D01*
X4237Y3842D02*
X4245Y3842D01*
X4322Y3842D02*
X4330Y3842D01*
X4350Y3842D02*
X4358Y3842D01*
X3539Y3841D02*
X3547Y3841D01*
X3572Y3841D02*
X3575Y3841D01*
X3643Y3841D02*
X3653Y3841D01*
X4090Y3841D02*
X4107Y3841D01*
X4237Y3841D02*
X4244Y3841D01*
X4322Y3841D02*
X4330Y3841D01*
X4349Y3841D02*
X4358Y3841D01*
X3539Y3840D02*
X3547Y3840D01*
X3572Y3840D02*
X3575Y3840D01*
X3644Y3840D02*
X3654Y3840D01*
X4088Y3840D02*
X4106Y3840D01*
X4236Y3840D02*
X4243Y3840D01*
X4322Y3840D02*
X4330Y3840D01*
X4349Y3840D02*
X4358Y3840D01*
X3539Y3839D02*
X3547Y3839D01*
X3572Y3839D02*
X3575Y3839D01*
X3644Y3839D02*
X3655Y3839D01*
X4086Y3839D02*
X4105Y3839D01*
X4235Y3839D02*
X4243Y3839D01*
X4321Y3839D02*
X4330Y3839D01*
X4349Y3839D02*
X4358Y3839D01*
X3539Y3838D02*
X3547Y3838D01*
X3572Y3838D02*
X3576Y3838D01*
X3645Y3838D02*
X3655Y3838D01*
X4084Y3838D02*
X4103Y3838D01*
X4235Y3838D02*
X4242Y3838D01*
X4321Y3838D02*
X4330Y3838D01*
X4349Y3838D02*
X4358Y3838D01*
X3539Y3837D02*
X3547Y3837D01*
X3572Y3837D02*
X3576Y3837D01*
X3646Y3837D02*
X3656Y3837D01*
X4082Y3837D02*
X4102Y3837D01*
X4234Y3837D02*
X4242Y3837D01*
X4321Y3837D02*
X4330Y3837D01*
X4349Y3837D02*
X4358Y3837D01*
X3539Y3836D02*
X3547Y3836D01*
X3573Y3836D02*
X3576Y3836D01*
X3646Y3836D02*
X3656Y3836D01*
X4080Y3836D02*
X4100Y3836D01*
X4233Y3836D02*
X4241Y3836D01*
X4321Y3836D02*
X4330Y3836D01*
X4349Y3836D02*
X4358Y3836D01*
X3540Y3835D02*
X3548Y3835D01*
X3573Y3835D02*
X3577Y3835D01*
X3647Y3835D02*
X3657Y3835D01*
X4078Y3835D02*
X4098Y3835D01*
X4233Y3835D02*
X4240Y3835D01*
X4320Y3835D02*
X4329Y3835D01*
X4348Y3835D02*
X4357Y3835D01*
X3540Y3834D02*
X3548Y3834D01*
X3573Y3834D02*
X3577Y3834D01*
X3647Y3834D02*
X3658Y3834D01*
X4076Y3834D02*
X4097Y3834D01*
X4232Y3834D02*
X4240Y3834D01*
X4320Y3834D02*
X4329Y3834D01*
X4348Y3834D02*
X4357Y3834D01*
X3540Y3833D02*
X3548Y3833D01*
X3573Y3833D02*
X3577Y3833D01*
X3648Y3833D02*
X3658Y3833D01*
X4075Y3833D02*
X4095Y3833D01*
X4231Y3833D02*
X4239Y3833D01*
X4320Y3833D02*
X4329Y3833D01*
X4348Y3833D02*
X4357Y3833D01*
X3540Y3832D02*
X3548Y3832D01*
X3573Y3832D02*
X3578Y3832D01*
X3649Y3832D02*
X3659Y3832D01*
X4015Y3832D02*
X4093Y3832D01*
X4231Y3832D02*
X4238Y3832D01*
X4319Y3832D02*
X4329Y3832D01*
X4348Y3832D02*
X4357Y3832D01*
X3540Y3831D02*
X3548Y3831D01*
X3574Y3831D02*
X3578Y3831D01*
X3649Y3831D02*
X3660Y3831D01*
X3995Y3831D02*
X4091Y3831D01*
X4230Y3831D02*
X4238Y3831D01*
X4319Y3831D02*
X4329Y3831D01*
X4348Y3831D02*
X4357Y3831D01*
X3540Y3830D02*
X3548Y3830D01*
X3574Y3830D02*
X3578Y3830D01*
X3650Y3830D02*
X3660Y3830D01*
X3985Y3830D02*
X4089Y3830D01*
X4229Y3830D02*
X4237Y3830D01*
X4319Y3830D02*
X4329Y3830D01*
X4348Y3830D02*
X4357Y3830D01*
X3540Y3829D02*
X3548Y3829D01*
X3574Y3829D02*
X3579Y3829D01*
X3651Y3829D02*
X3661Y3829D01*
X3978Y3829D02*
X4086Y3829D01*
X4229Y3829D02*
X4236Y3829D01*
X4319Y3829D02*
X4329Y3829D01*
X4348Y3829D02*
X4356Y3829D01*
X3541Y3828D02*
X3549Y3828D01*
X3575Y3828D02*
X3579Y3828D01*
X3651Y3828D02*
X3662Y3828D01*
X3972Y3828D02*
X4083Y3828D01*
X4228Y3828D02*
X4236Y3828D01*
X4318Y3828D02*
X4329Y3828D01*
X4347Y3828D02*
X4356Y3828D01*
X3541Y3827D02*
X3549Y3827D01*
X3575Y3827D02*
X3579Y3827D01*
X3652Y3827D02*
X3662Y3827D01*
X3968Y3827D02*
X4080Y3827D01*
X4227Y3827D02*
X4235Y3827D01*
X4318Y3827D02*
X4329Y3827D01*
X4347Y3827D02*
X4356Y3827D01*
X3541Y3826D02*
X3549Y3826D01*
X3575Y3826D02*
X3580Y3826D01*
X3653Y3826D02*
X3663Y3826D01*
X3964Y3826D02*
X4076Y3826D01*
X4227Y3826D02*
X4234Y3826D01*
X4318Y3826D02*
X4328Y3826D01*
X4347Y3826D02*
X4356Y3826D01*
X3541Y3825D02*
X3549Y3825D01*
X3575Y3825D02*
X3580Y3825D01*
X3653Y3825D02*
X3664Y3825D01*
X3960Y3825D02*
X4070Y3825D01*
X4226Y3825D02*
X4234Y3825D01*
X4317Y3825D02*
X4328Y3825D01*
X4347Y3825D02*
X4356Y3825D01*
X3541Y3824D02*
X3549Y3824D01*
X3576Y3824D02*
X3580Y3824D01*
X3654Y3824D02*
X3664Y3824D01*
X3957Y3824D02*
X4062Y3824D01*
X4225Y3824D02*
X4233Y3824D01*
X4317Y3824D02*
X4328Y3824D01*
X4347Y3824D02*
X4356Y3824D01*
X3541Y3823D02*
X3550Y3823D01*
X3576Y3823D02*
X3581Y3823D01*
X3655Y3823D02*
X3665Y3823D01*
X3954Y3823D02*
X4045Y3823D01*
X4225Y3823D02*
X4232Y3823D01*
X4317Y3823D02*
X4328Y3823D01*
X4346Y3823D02*
X4355Y3823D01*
X3542Y3822D02*
X3550Y3822D01*
X3576Y3822D02*
X3581Y3822D01*
X3655Y3822D02*
X3666Y3822D01*
X3951Y3822D02*
X3992Y3822D01*
X4224Y3822D02*
X4231Y3822D01*
X4316Y3822D02*
X4328Y3822D01*
X4346Y3822D02*
X4355Y3822D01*
X3542Y3821D02*
X3550Y3821D01*
X3577Y3821D02*
X3581Y3821D01*
X3656Y3821D02*
X3666Y3821D01*
X3948Y3821D02*
X3983Y3821D01*
X4223Y3821D02*
X4231Y3821D01*
X4316Y3821D02*
X4328Y3821D01*
X4346Y3821D02*
X4355Y3821D01*
X3542Y3820D02*
X3550Y3820D01*
X3577Y3820D02*
X3582Y3820D01*
X3657Y3820D02*
X3667Y3820D01*
X3779Y3820D02*
X3800Y3820D01*
X3945Y3820D02*
X3978Y3820D01*
X4222Y3820D02*
X4230Y3820D01*
X4316Y3820D02*
X4328Y3820D01*
X4346Y3820D02*
X4355Y3820D01*
X3542Y3819D02*
X3550Y3819D01*
X3577Y3819D02*
X3582Y3819D01*
X3657Y3819D02*
X3668Y3819D01*
X3770Y3819D02*
X3803Y3819D01*
X3942Y3819D02*
X3974Y3819D01*
X4222Y3819D02*
X4229Y3819D01*
X4315Y3819D02*
X4328Y3819D01*
X4346Y3819D02*
X4355Y3819D01*
X3542Y3818D02*
X3551Y3818D01*
X3578Y3818D02*
X3582Y3818D01*
X3658Y3818D02*
X3668Y3818D01*
X3764Y3818D02*
X3805Y3818D01*
X3940Y3818D02*
X3970Y3818D01*
X4221Y3818D02*
X4228Y3818D01*
X4315Y3818D02*
X4328Y3818D01*
X4345Y3818D02*
X4355Y3818D01*
X3542Y3817D02*
X3551Y3817D01*
X3578Y3817D02*
X3583Y3817D01*
X3659Y3817D02*
X3669Y3817D01*
X3758Y3817D02*
X3805Y3817D01*
X3937Y3817D02*
X3967Y3817D01*
X4220Y3817D02*
X4228Y3817D01*
X4315Y3817D02*
X4328Y3817D01*
X4345Y3817D02*
X4354Y3817D01*
X3543Y3816D02*
X3551Y3816D01*
X3579Y3816D02*
X3583Y3816D01*
X3659Y3816D02*
X3670Y3816D01*
X3753Y3816D02*
X3806Y3816D01*
X3935Y3816D02*
X3963Y3816D01*
X4219Y3816D02*
X4227Y3816D01*
X4314Y3816D02*
X4327Y3816D01*
X4345Y3816D02*
X4354Y3816D01*
X3543Y3815D02*
X3551Y3815D01*
X3579Y3815D02*
X3584Y3815D01*
X3660Y3815D02*
X3671Y3815D01*
X3749Y3815D02*
X3806Y3815D01*
X3933Y3815D02*
X3960Y3815D01*
X4219Y3815D02*
X4226Y3815D01*
X4314Y3815D02*
X4327Y3815D01*
X4345Y3815D02*
X4354Y3815D01*
X3543Y3814D02*
X3551Y3814D01*
X3579Y3814D02*
X3584Y3814D01*
X3661Y3814D02*
X3671Y3814D01*
X3745Y3814D02*
X3806Y3814D01*
X3930Y3814D02*
X3957Y3814D01*
X4218Y3814D02*
X4225Y3814D01*
X4314Y3814D02*
X4327Y3814D01*
X4345Y3814D02*
X4354Y3814D01*
X3543Y3813D02*
X3552Y3813D01*
X3580Y3813D02*
X3584Y3813D01*
X3662Y3813D02*
X3672Y3813D01*
X3741Y3813D02*
X3805Y3813D01*
X3928Y3813D02*
X3954Y3813D01*
X4217Y3813D02*
X4225Y3813D01*
X4313Y3813D02*
X4327Y3813D01*
X4344Y3813D02*
X4354Y3813D01*
X3543Y3812D02*
X3552Y3812D01*
X3580Y3812D02*
X3585Y3812D01*
X3662Y3812D02*
X3673Y3812D01*
X3737Y3812D02*
X3805Y3812D01*
X3926Y3812D02*
X3951Y3812D01*
X4216Y3812D02*
X4224Y3812D01*
X4313Y3812D02*
X4327Y3812D01*
X4344Y3812D02*
X4353Y3812D01*
X3544Y3811D02*
X3552Y3811D01*
X3580Y3811D02*
X3585Y3811D01*
X3663Y3811D02*
X3674Y3811D01*
X3733Y3811D02*
X3774Y3811D01*
X3782Y3811D02*
X3804Y3811D01*
X3924Y3811D02*
X3949Y3811D01*
X4216Y3811D02*
X4223Y3811D01*
X4312Y3811D02*
X4327Y3811D01*
X4344Y3811D02*
X4353Y3811D01*
X3544Y3810D02*
X3552Y3810D01*
X3581Y3810D02*
X3585Y3810D01*
X3664Y3810D02*
X3675Y3810D01*
X3730Y3810D02*
X3766Y3810D01*
X3787Y3810D02*
X3803Y3810D01*
X3922Y3810D02*
X3946Y3810D01*
X4215Y3810D02*
X4222Y3810D01*
X4312Y3810D02*
X4327Y3810D01*
X4344Y3810D02*
X4353Y3810D01*
X3544Y3809D02*
X3552Y3809D01*
X3581Y3809D02*
X3586Y3809D01*
X3665Y3809D02*
X3675Y3809D01*
X3727Y3809D02*
X3761Y3809D01*
X3785Y3809D02*
X3801Y3809D01*
X3921Y3809D02*
X3944Y3809D01*
X4214Y3809D02*
X4221Y3809D01*
X4312Y3809D02*
X4327Y3809D01*
X4344Y3809D02*
X4353Y3809D01*
X3544Y3808D02*
X3553Y3808D01*
X3581Y3808D02*
X3586Y3808D01*
X3665Y3808D02*
X3676Y3808D01*
X3724Y3808D02*
X3757Y3808D01*
X3783Y3808D02*
X3800Y3808D01*
X3919Y3808D02*
X3941Y3808D01*
X4213Y3808D02*
X4221Y3808D01*
X4311Y3808D02*
X4326Y3808D01*
X4343Y3808D02*
X4353Y3808D01*
X3545Y3807D02*
X3553Y3807D01*
X3582Y3807D02*
X3587Y3807D01*
X3666Y3807D02*
X3677Y3807D01*
X3721Y3807D02*
X3752Y3807D01*
X3781Y3807D02*
X3799Y3807D01*
X3917Y3807D02*
X3939Y3807D01*
X4212Y3807D02*
X4220Y3807D01*
X4311Y3807D02*
X4326Y3807D01*
X4343Y3807D02*
X4352Y3807D01*
X3545Y3806D02*
X3553Y3806D01*
X3582Y3806D02*
X3587Y3806D01*
X3667Y3806D02*
X3678Y3806D01*
X3718Y3806D02*
X3748Y3806D01*
X3780Y3806D02*
X3797Y3806D01*
X3915Y3806D02*
X3937Y3806D01*
X4212Y3806D02*
X4219Y3806D01*
X4310Y3806D02*
X4326Y3806D01*
X4343Y3806D02*
X4352Y3806D01*
X3545Y3805D02*
X3553Y3805D01*
X3583Y3805D02*
X3587Y3805D01*
X3668Y3805D02*
X3679Y3805D01*
X3716Y3805D02*
X3745Y3805D01*
X3778Y3805D02*
X3795Y3805D01*
X3914Y3805D02*
X3935Y3805D01*
X4211Y3805D02*
X4218Y3805D01*
X4310Y3805D02*
X4326Y3805D01*
X4343Y3805D02*
X4352Y3805D01*
X3545Y3804D02*
X3554Y3804D01*
X3583Y3804D02*
X3588Y3804D01*
X3669Y3804D02*
X3680Y3804D01*
X3713Y3804D02*
X3741Y3804D01*
X3776Y3804D02*
X3793Y3804D01*
X3912Y3804D02*
X3932Y3804D01*
X4210Y3804D02*
X4217Y3804D01*
X4310Y3804D02*
X4325Y3804D01*
X4343Y3804D02*
X4352Y3804D01*
X3545Y3803D02*
X3554Y3803D01*
X3583Y3803D02*
X3588Y3803D01*
X3669Y3803D02*
X3681Y3803D01*
X3711Y3803D02*
X3737Y3803D01*
X3774Y3803D02*
X3792Y3803D01*
X3910Y3803D02*
X3930Y3803D01*
X4209Y3803D02*
X4216Y3803D01*
X4309Y3803D02*
X4318Y3803D01*
X4322Y3803D02*
X4325Y3803D01*
X4342Y3803D02*
X4352Y3803D01*
X3546Y3802D02*
X3554Y3802D01*
X3584Y3802D02*
X3589Y3802D01*
X3670Y3802D02*
X3682Y3802D01*
X3709Y3802D02*
X3734Y3802D01*
X3772Y3802D02*
X3790Y3802D01*
X3909Y3802D02*
X3928Y3802D01*
X4208Y3802D02*
X4216Y3802D01*
X4309Y3802D02*
X4317Y3802D01*
X4323Y3802D02*
X4324Y3802D01*
X4342Y3802D02*
X4351Y3802D01*
X3546Y3801D02*
X3554Y3801D01*
X3584Y3801D02*
X3589Y3801D01*
X3671Y3801D02*
X3683Y3801D01*
X3706Y3801D02*
X3731Y3801D01*
X3771Y3801D02*
X3788Y3801D01*
X3907Y3801D02*
X3926Y3801D01*
X4207Y3801D02*
X4215Y3801D01*
X4308Y3801D02*
X4316Y3801D01*
X4342Y3801D02*
X4351Y3801D01*
X3546Y3800D02*
X3555Y3800D01*
X3585Y3800D02*
X3589Y3800D01*
X3672Y3800D02*
X3684Y3800D01*
X3704Y3800D02*
X3728Y3800D01*
X3769Y3800D02*
X3786Y3800D01*
X3906Y3800D02*
X3924Y3800D01*
X4206Y3800D02*
X4214Y3800D01*
X4308Y3800D02*
X4316Y3800D01*
X4342Y3800D02*
X4351Y3800D01*
X3546Y3799D02*
X3555Y3799D01*
X3585Y3799D02*
X3590Y3799D01*
X3673Y3799D02*
X3685Y3799D01*
X3701Y3799D02*
X3725Y3799D01*
X3767Y3799D02*
X3784Y3799D01*
X3904Y3799D02*
X3922Y3799D01*
X4206Y3799D02*
X4213Y3799D01*
X4307Y3799D02*
X4315Y3799D01*
X4341Y3799D02*
X4351Y3799D01*
X3547Y3798D02*
X3555Y3798D01*
X3585Y3798D02*
X3590Y3798D01*
X3674Y3798D02*
X3687Y3798D01*
X3699Y3798D02*
X3722Y3798D01*
X3766Y3798D02*
X3783Y3798D01*
X3903Y3798D02*
X3920Y3798D01*
X4205Y3798D02*
X4212Y3798D01*
X4307Y3798D02*
X4315Y3798D01*
X4341Y3798D02*
X4350Y3798D01*
X3547Y3797D02*
X3555Y3797D01*
X3586Y3797D02*
X3591Y3797D01*
X3674Y3797D02*
X3688Y3797D01*
X3696Y3797D02*
X3719Y3797D01*
X3764Y3797D02*
X3781Y3797D01*
X3902Y3797D02*
X3918Y3797D01*
X4204Y3797D02*
X4212Y3797D01*
X4307Y3797D02*
X4314Y3797D01*
X4341Y3797D02*
X4350Y3797D01*
X3547Y3796D02*
X3556Y3796D01*
X3586Y3796D02*
X3591Y3796D01*
X3675Y3796D02*
X3717Y3796D01*
X3763Y3796D02*
X3779Y3796D01*
X3900Y3796D02*
X3916Y3796D01*
X4203Y3796D02*
X4211Y3796D01*
X4306Y3796D02*
X4314Y3796D01*
X4341Y3796D02*
X4350Y3796D01*
X3547Y3795D02*
X3556Y3795D01*
X3587Y3795D02*
X3591Y3795D01*
X3676Y3795D02*
X3715Y3795D01*
X3761Y3795D02*
X3777Y3795D01*
X3899Y3795D02*
X3914Y3795D01*
X4202Y3795D02*
X4210Y3795D01*
X4306Y3795D02*
X4313Y3795D01*
X4340Y3795D02*
X4350Y3795D01*
X3548Y3794D02*
X3556Y3794D01*
X3587Y3794D02*
X3592Y3794D01*
X3677Y3794D02*
X3712Y3794D01*
X3760Y3794D02*
X3776Y3794D01*
X3897Y3794D02*
X3912Y3794D01*
X4201Y3794D02*
X4209Y3794D01*
X4305Y3794D02*
X4313Y3794D01*
X4340Y3794D02*
X4349Y3794D01*
X3548Y3793D02*
X3556Y3793D01*
X3587Y3793D02*
X3592Y3793D01*
X3678Y3793D02*
X3710Y3793D01*
X3758Y3793D02*
X3774Y3793D01*
X3896Y3793D02*
X3911Y3793D01*
X4200Y3793D02*
X4208Y3793D01*
X4305Y3793D02*
X4312Y3793D01*
X4340Y3793D02*
X4349Y3793D01*
X3548Y3792D02*
X3557Y3792D01*
X3588Y3792D02*
X3593Y3792D01*
X3679Y3792D02*
X3708Y3792D01*
X3757Y3792D02*
X3772Y3792D01*
X3895Y3792D02*
X3909Y3792D01*
X4199Y3792D02*
X4207Y3792D01*
X4304Y3792D02*
X4312Y3792D01*
X4340Y3792D02*
X4349Y3792D01*
X3548Y3791D02*
X3557Y3791D01*
X3588Y3791D02*
X3593Y3791D01*
X3680Y3791D02*
X3706Y3791D01*
X3756Y3791D02*
X3771Y3791D01*
X3894Y3791D02*
X3907Y3791D01*
X4199Y3791D02*
X4206Y3791D01*
X4304Y3791D02*
X4312Y3791D01*
X4339Y3791D02*
X4349Y3791D01*
X3549Y3790D02*
X3557Y3790D01*
X3589Y3790D02*
X3593Y3790D01*
X3681Y3790D02*
X3703Y3790D01*
X3755Y3790D02*
X3769Y3790D01*
X3892Y3790D02*
X3905Y3790D01*
X4198Y3790D02*
X4205Y3790D01*
X4303Y3790D02*
X4311Y3790D01*
X4339Y3790D02*
X4349Y3790D01*
X3549Y3789D02*
X3557Y3789D01*
X3589Y3789D02*
X3594Y3789D01*
X3682Y3789D02*
X3701Y3789D01*
X3753Y3789D02*
X3768Y3789D01*
X3891Y3789D02*
X3904Y3789D01*
X4197Y3789D02*
X4204Y3789D01*
X4303Y3789D02*
X4311Y3789D01*
X4339Y3789D02*
X4348Y3789D01*
X3549Y3788D02*
X3558Y3788D01*
X3589Y3788D02*
X3594Y3788D01*
X3683Y3788D02*
X3698Y3788D01*
X3752Y3788D02*
X3766Y3788D01*
X3890Y3788D02*
X3903Y3788D01*
X4196Y3788D02*
X4204Y3788D01*
X4303Y3788D02*
X4311Y3788D01*
X4339Y3788D02*
X4348Y3788D01*
X3549Y3787D02*
X3558Y3787D01*
X3590Y3787D02*
X3595Y3787D01*
X3684Y3787D02*
X3695Y3787D01*
X3751Y3787D02*
X3765Y3787D01*
X3889Y3787D02*
X3901Y3787D01*
X4195Y3787D02*
X4203Y3787D01*
X4302Y3787D02*
X4310Y3787D01*
X4338Y3787D02*
X4348Y3787D01*
X3550Y3786D02*
X3558Y3786D01*
X3590Y3786D02*
X3595Y3786D01*
X3687Y3786D02*
X3691Y3786D01*
X3750Y3786D02*
X3764Y3786D01*
X3888Y3786D02*
X3900Y3786D01*
X3923Y3786D02*
X3946Y3786D01*
X4194Y3786D02*
X4202Y3786D01*
X4302Y3786D02*
X4310Y3786D01*
X4338Y3786D02*
X4348Y3786D01*
X3550Y3785D02*
X3558Y3785D01*
X3591Y3785D02*
X3596Y3785D01*
X3748Y3785D02*
X3763Y3785D01*
X3887Y3785D02*
X3899Y3785D01*
X3916Y3785D02*
X3955Y3785D01*
X4193Y3785D02*
X4201Y3785D01*
X4301Y3785D02*
X4310Y3785D01*
X4338Y3785D02*
X4347Y3785D01*
X3550Y3784D02*
X3559Y3784D01*
X3591Y3784D02*
X3596Y3784D01*
X3747Y3784D02*
X3761Y3784D01*
X3886Y3784D02*
X3898Y3784D01*
X3910Y3784D02*
X3961Y3784D01*
X4192Y3784D02*
X4200Y3784D01*
X4301Y3784D02*
X4309Y3784D01*
X4338Y3784D02*
X4347Y3784D01*
X3550Y3783D02*
X3559Y3783D01*
X3592Y3783D02*
X3597Y3783D01*
X3746Y3783D02*
X3760Y3783D01*
X3885Y3783D02*
X3898Y3783D01*
X3904Y3783D02*
X3966Y3783D01*
X4191Y3783D02*
X4199Y3783D01*
X4300Y3783D02*
X4309Y3783D01*
X4337Y3783D02*
X4347Y3783D01*
X3551Y3782D02*
X3559Y3782D01*
X3592Y3782D02*
X3597Y3782D01*
X3745Y3782D02*
X3759Y3782D01*
X3884Y3782D02*
X3969Y3782D01*
X4190Y3782D02*
X4198Y3782D01*
X4300Y3782D02*
X4309Y3782D01*
X4337Y3782D02*
X4346Y3782D01*
X3551Y3781D02*
X3560Y3781D01*
X3592Y3781D02*
X3597Y3781D01*
X3744Y3781D02*
X3758Y3781D01*
X3884Y3781D02*
X3973Y3781D01*
X4189Y3781D02*
X4197Y3781D01*
X4299Y3781D02*
X4309Y3781D01*
X4337Y3781D02*
X4346Y3781D01*
X3551Y3780D02*
X3560Y3780D01*
X3593Y3780D02*
X3598Y3780D01*
X3743Y3780D02*
X3756Y3780D01*
X3883Y3780D02*
X3976Y3780D01*
X4188Y3780D02*
X4196Y3780D01*
X4299Y3780D02*
X4308Y3780D01*
X4336Y3780D02*
X4346Y3780D01*
X3552Y3779D02*
X3560Y3779D01*
X3593Y3779D02*
X3598Y3779D01*
X3742Y3779D02*
X3755Y3779D01*
X3882Y3779D02*
X3979Y3779D01*
X4187Y3779D02*
X4195Y3779D01*
X4298Y3779D02*
X4308Y3779D01*
X4336Y3779D02*
X4346Y3779D01*
X3552Y3778D02*
X3561Y3778D01*
X3594Y3778D02*
X3599Y3778D01*
X3741Y3778D02*
X3754Y3778D01*
X3882Y3778D02*
X3933Y3778D01*
X3942Y3778D02*
X3981Y3778D01*
X4186Y3778D02*
X4194Y3778D01*
X4298Y3778D02*
X4308Y3778D01*
X4336Y3778D02*
X4345Y3778D01*
X3552Y3777D02*
X3561Y3777D01*
X3594Y3777D02*
X3599Y3777D01*
X3665Y3777D02*
X3667Y3777D01*
X3740Y3777D02*
X3753Y3777D01*
X3881Y3777D02*
X3923Y3777D01*
X3950Y3777D02*
X3983Y3777D01*
X4185Y3777D02*
X4193Y3777D01*
X4297Y3777D02*
X4308Y3777D01*
X4336Y3777D02*
X4345Y3777D01*
X3553Y3776D02*
X3561Y3776D01*
X3595Y3776D02*
X3600Y3776D01*
X3664Y3776D02*
X3666Y3776D01*
X3740Y3776D02*
X3752Y3776D01*
X3881Y3776D02*
X3917Y3776D01*
X3955Y3776D02*
X3985Y3776D01*
X4184Y3776D02*
X4193Y3776D01*
X4297Y3776D02*
X4308Y3776D01*
X4335Y3776D02*
X4345Y3776D01*
X3553Y3775D02*
X3562Y3775D01*
X3595Y3775D02*
X3600Y3775D01*
X3663Y3775D02*
X3665Y3775D01*
X3739Y3775D02*
X3751Y3775D01*
X3881Y3775D02*
X3912Y3775D01*
X3960Y3775D02*
X3987Y3775D01*
X4183Y3775D02*
X4192Y3775D01*
X4296Y3775D02*
X4307Y3775D01*
X4335Y3775D02*
X4345Y3775D01*
X3553Y3774D02*
X3562Y3774D01*
X3596Y3774D02*
X3601Y3774D01*
X3662Y3774D02*
X3665Y3774D01*
X3738Y3774D02*
X3750Y3774D01*
X3880Y3774D02*
X3906Y3774D01*
X3964Y3774D02*
X3989Y3774D01*
X4182Y3774D02*
X4191Y3774D01*
X4296Y3774D02*
X4307Y3774D01*
X4335Y3774D02*
X4344Y3774D01*
X3553Y3773D02*
X3562Y3773D01*
X3596Y3773D02*
X3601Y3773D01*
X3661Y3773D02*
X3663Y3773D01*
X3737Y3773D02*
X3749Y3773D01*
X3881Y3773D02*
X3901Y3773D01*
X3968Y3773D02*
X3991Y3773D01*
X4181Y3773D02*
X4190Y3773D01*
X4295Y3773D02*
X4307Y3773D01*
X4334Y3773D02*
X4344Y3773D01*
X3554Y3772D02*
X3563Y3772D01*
X3597Y3772D02*
X3602Y3772D01*
X3660Y3772D02*
X3662Y3772D01*
X3736Y3772D02*
X3748Y3772D01*
X3881Y3772D02*
X3895Y3772D01*
X3971Y3772D02*
X3993Y3772D01*
X4180Y3772D02*
X4189Y3772D01*
X4295Y3772D02*
X4307Y3772D01*
X4334Y3772D02*
X4344Y3772D01*
X3554Y3771D02*
X3563Y3771D01*
X3597Y3771D02*
X3602Y3771D01*
X3659Y3771D02*
X3661Y3771D01*
X3736Y3771D02*
X3747Y3771D01*
X3882Y3771D02*
X3887Y3771D01*
X3975Y3771D02*
X3994Y3771D01*
X4179Y3771D02*
X4188Y3771D01*
X4294Y3771D02*
X4307Y3771D01*
X4334Y3771D02*
X4343Y3771D01*
X3554Y3770D02*
X3563Y3770D01*
X3598Y3770D02*
X3603Y3770D01*
X3658Y3770D02*
X3660Y3770D01*
X3735Y3770D02*
X3746Y3770D01*
X3977Y3770D02*
X3996Y3770D01*
X4177Y3770D02*
X4187Y3770D01*
X4294Y3770D02*
X4306Y3770D01*
X4333Y3770D02*
X4343Y3770D01*
X3555Y3769D02*
X3564Y3769D01*
X3598Y3769D02*
X3603Y3769D01*
X3657Y3769D02*
X3659Y3769D01*
X3734Y3769D02*
X3745Y3769D01*
X3980Y3769D02*
X3997Y3769D01*
X4176Y3769D02*
X4186Y3769D01*
X4293Y3769D02*
X4306Y3769D01*
X4333Y3769D02*
X4343Y3769D01*
X3555Y3768D02*
X3564Y3768D01*
X3599Y3768D02*
X3604Y3768D01*
X3657Y3768D02*
X3658Y3768D01*
X3734Y3768D02*
X3744Y3768D01*
X3982Y3768D02*
X3999Y3768D01*
X4175Y3768D02*
X4185Y3768D01*
X4293Y3768D02*
X4306Y3768D01*
X4333Y3768D02*
X4342Y3768D01*
X3555Y3767D02*
X3565Y3767D01*
X3599Y3767D02*
X3604Y3767D01*
X3656Y3767D02*
X3656Y3767D01*
X3733Y3767D02*
X3744Y3767D01*
X3984Y3767D02*
X4000Y3767D01*
X4174Y3767D02*
X4184Y3767D01*
X4292Y3767D02*
X4305Y3767D01*
X4332Y3767D02*
X4342Y3767D01*
X3556Y3766D02*
X3565Y3766D01*
X3600Y3766D02*
X3605Y3766D01*
X3655Y3766D02*
X3655Y3766D01*
X3732Y3766D02*
X3743Y3766D01*
X3986Y3766D02*
X4002Y3766D01*
X4173Y3766D02*
X4183Y3766D01*
X4292Y3766D02*
X4304Y3766D01*
X4332Y3766D02*
X4342Y3766D01*
X3556Y3765D02*
X3565Y3765D01*
X3600Y3765D02*
X3605Y3765D01*
X3654Y3765D02*
X3654Y3765D01*
X3732Y3765D02*
X3742Y3765D01*
X3988Y3765D02*
X4003Y3765D01*
X4172Y3765D02*
X4182Y3765D01*
X4291Y3765D02*
X4303Y3765D01*
X4332Y3765D02*
X4341Y3765D01*
X3556Y3764D02*
X3566Y3764D01*
X3601Y3764D02*
X3606Y3764D01*
X3731Y3764D02*
X3741Y3764D01*
X3989Y3764D02*
X4005Y3764D01*
X4171Y3764D02*
X4181Y3764D01*
X4291Y3764D02*
X4302Y3764D01*
X4331Y3764D02*
X4341Y3764D01*
X3557Y3763D02*
X3566Y3763D01*
X3601Y3763D02*
X3606Y3763D01*
X3731Y3763D02*
X3740Y3763D01*
X3991Y3763D02*
X4006Y3763D01*
X4170Y3763D02*
X4180Y3763D01*
X4290Y3763D02*
X4301Y3763D01*
X4331Y3763D02*
X4341Y3763D01*
X3557Y3762D02*
X3566Y3762D01*
X3602Y3762D02*
X3607Y3762D01*
X3730Y3762D02*
X3740Y3762D01*
X3992Y3762D02*
X4007Y3762D01*
X4168Y3762D02*
X4179Y3762D01*
X4290Y3762D02*
X4301Y3762D01*
X4331Y3762D02*
X4341Y3762D01*
X3557Y3761D02*
X3567Y3761D01*
X3602Y3761D02*
X3607Y3761D01*
X3730Y3761D02*
X3739Y3761D01*
X3994Y3761D02*
X4008Y3761D01*
X4167Y3761D02*
X4178Y3761D01*
X4289Y3761D02*
X4300Y3761D01*
X4330Y3761D02*
X4340Y3761D01*
X3558Y3760D02*
X3567Y3760D01*
X3603Y3760D02*
X3608Y3760D01*
X3729Y3760D02*
X3738Y3760D01*
X3995Y3760D02*
X4010Y3760D01*
X4166Y3760D02*
X4177Y3760D01*
X4289Y3760D02*
X4299Y3760D01*
X4330Y3760D02*
X4340Y3760D01*
X3558Y3759D02*
X3568Y3759D01*
X3603Y3759D02*
X3608Y3759D01*
X3729Y3759D02*
X3738Y3759D01*
X3996Y3759D02*
X4011Y3759D01*
X4165Y3759D02*
X4176Y3759D01*
X4288Y3759D02*
X4299Y3759D01*
X4329Y3759D02*
X4340Y3759D01*
X3558Y3758D02*
X3568Y3758D01*
X3604Y3758D02*
X3609Y3758D01*
X3729Y3758D02*
X3737Y3758D01*
X3997Y3758D02*
X4012Y3758D01*
X4164Y3758D02*
X4175Y3758D01*
X4287Y3758D02*
X4298Y3758D01*
X4329Y3758D02*
X4339Y3758D01*
X3559Y3757D02*
X3568Y3757D01*
X3604Y3757D02*
X3609Y3757D01*
X3728Y3757D02*
X3737Y3757D01*
X3999Y3757D02*
X4013Y3757D01*
X4162Y3757D02*
X4174Y3757D01*
X4287Y3757D02*
X4297Y3757D01*
X4329Y3757D02*
X4339Y3757D01*
X3559Y3756D02*
X3569Y3756D01*
X3605Y3756D02*
X3610Y3756D01*
X3728Y3756D02*
X3736Y3756D01*
X4000Y3756D02*
X4014Y3756D01*
X4161Y3756D02*
X4172Y3756D01*
X4286Y3756D02*
X4297Y3756D01*
X4328Y3756D02*
X4338Y3756D01*
X3560Y3755D02*
X3569Y3755D01*
X3606Y3755D02*
X3610Y3755D01*
X3728Y3755D02*
X3736Y3755D01*
X4001Y3755D02*
X4015Y3755D01*
X4160Y3755D02*
X4171Y3755D01*
X4286Y3755D02*
X4296Y3755D01*
X4328Y3755D02*
X4338Y3755D01*
X3560Y3754D02*
X3569Y3754D01*
X3606Y3754D02*
X3611Y3754D01*
X3728Y3754D02*
X3736Y3754D01*
X4002Y3754D02*
X4016Y3754D01*
X4159Y3754D02*
X4170Y3754D01*
X4285Y3754D02*
X4295Y3754D01*
X4327Y3754D02*
X4338Y3754D01*
X3560Y3753D02*
X3570Y3753D01*
X3607Y3753D02*
X3612Y3753D01*
X3728Y3753D02*
X3735Y3753D01*
X4003Y3753D02*
X4017Y3753D01*
X4157Y3753D02*
X4169Y3753D01*
X4285Y3753D02*
X4295Y3753D01*
X4327Y3753D02*
X4337Y3753D01*
X3561Y3752D02*
X3570Y3752D01*
X3607Y3752D02*
X3612Y3752D01*
X3728Y3752D02*
X3736Y3752D01*
X4004Y3752D02*
X4018Y3752D01*
X4156Y3752D02*
X4168Y3752D01*
X4284Y3752D02*
X4294Y3752D01*
X4327Y3752D02*
X4337Y3752D01*
X3561Y3751D02*
X3571Y3751D01*
X3608Y3751D02*
X3613Y3751D01*
X3728Y3751D02*
X3737Y3751D01*
X4005Y3751D02*
X4019Y3751D01*
X4155Y3751D02*
X4167Y3751D01*
X4284Y3751D02*
X4294Y3751D01*
X4326Y3751D02*
X4337Y3751D01*
X3561Y3750D02*
X3571Y3750D01*
X3608Y3750D02*
X3613Y3750D01*
X3727Y3750D02*
X3738Y3750D01*
X4006Y3750D02*
X4020Y3750D01*
X4154Y3750D02*
X4166Y3750D01*
X4283Y3750D02*
X4293Y3750D01*
X4326Y3750D02*
X4336Y3750D01*
X3562Y3749D02*
X3572Y3749D01*
X3609Y3749D02*
X3614Y3749D01*
X3728Y3749D02*
X3739Y3749D01*
X4007Y3749D02*
X4021Y3749D01*
X4152Y3749D02*
X4165Y3749D01*
X4282Y3749D02*
X4292Y3749D01*
X4326Y3749D02*
X4336Y3749D01*
X3562Y3748D02*
X3572Y3748D01*
X3610Y3748D02*
X3615Y3748D01*
X3728Y3748D02*
X3741Y3748D01*
X4008Y3748D02*
X4022Y3748D01*
X4151Y3748D02*
X4163Y3748D01*
X4282Y3748D02*
X4292Y3748D01*
X4325Y3748D02*
X4336Y3748D01*
X3563Y3747D02*
X3572Y3747D01*
X3610Y3747D02*
X3615Y3747D01*
X3728Y3747D02*
X3742Y3747D01*
X4009Y3747D02*
X4023Y3747D01*
X4150Y3747D02*
X4162Y3747D01*
X4281Y3747D02*
X4291Y3747D01*
X4325Y3747D02*
X4335Y3747D01*
X3563Y3746D02*
X3573Y3746D01*
X3611Y3746D02*
X3616Y3746D01*
X3729Y3746D02*
X3744Y3746D01*
X4010Y3746D02*
X4024Y3746D01*
X4148Y3746D02*
X4161Y3746D01*
X4281Y3746D02*
X4291Y3746D01*
X4324Y3746D02*
X4335Y3746D01*
X3563Y3745D02*
X3573Y3745D01*
X3611Y3745D02*
X3617Y3745D01*
X3729Y3745D02*
X3745Y3745D01*
X4011Y3745D02*
X4025Y3745D01*
X4147Y3745D02*
X4160Y3745D01*
X4280Y3745D02*
X4290Y3745D01*
X4324Y3745D02*
X4334Y3745D01*
X3564Y3744D02*
X3574Y3744D01*
X3612Y3744D02*
X3617Y3744D01*
X3730Y3744D02*
X3746Y3744D01*
X4012Y3744D02*
X4026Y3744D01*
X4145Y3744D02*
X4158Y3744D01*
X4279Y3744D02*
X4290Y3744D01*
X4323Y3744D02*
X4334Y3744D01*
X3564Y3743D02*
X3574Y3743D01*
X3612Y3743D02*
X3618Y3743D01*
X3732Y3743D02*
X3748Y3743D01*
X4013Y3743D02*
X4026Y3743D01*
X4144Y3743D02*
X4157Y3743D01*
X4279Y3743D02*
X4289Y3743D01*
X4323Y3743D02*
X4334Y3743D01*
X3565Y3742D02*
X3574Y3742D01*
X3613Y3742D02*
X3619Y3742D01*
X3733Y3742D02*
X3749Y3742D01*
X4014Y3742D02*
X4027Y3742D01*
X4143Y3742D02*
X4156Y3742D01*
X4278Y3742D02*
X4288Y3742D01*
X4323Y3742D02*
X4333Y3742D01*
X3565Y3741D02*
X3575Y3741D01*
X3614Y3741D02*
X3619Y3741D01*
X3734Y3741D02*
X3751Y3741D01*
X4015Y3741D02*
X4028Y3741D01*
X4141Y3741D02*
X4154Y3741D01*
X4277Y3741D02*
X4288Y3741D01*
X4322Y3741D02*
X4333Y3741D01*
X3565Y3740D02*
X3575Y3740D01*
X3614Y3740D02*
X3620Y3740D01*
X3736Y3740D02*
X3752Y3740D01*
X4016Y3740D02*
X4029Y3740D01*
X4140Y3740D02*
X4153Y3740D01*
X4277Y3740D02*
X4287Y3740D01*
X4322Y3740D02*
X4333Y3740D01*
X3566Y3739D02*
X3576Y3739D01*
X3615Y3739D02*
X3621Y3739D01*
X3737Y3739D02*
X3754Y3739D01*
X4017Y3739D02*
X4029Y3739D01*
X4138Y3739D02*
X4152Y3739D01*
X4276Y3739D02*
X4287Y3739D01*
X4321Y3739D02*
X4332Y3739D01*
X3566Y3738D02*
X3576Y3738D01*
X3615Y3738D02*
X3621Y3738D01*
X3738Y3738D02*
X3755Y3738D01*
X4018Y3738D02*
X4030Y3738D01*
X4137Y3738D02*
X4150Y3738D01*
X4275Y3738D02*
X4286Y3738D01*
X4321Y3738D02*
X4332Y3738D01*
X3567Y3737D02*
X3576Y3737D01*
X3616Y3737D02*
X3622Y3737D01*
X3740Y3737D02*
X3757Y3737D01*
X4018Y3737D02*
X4031Y3737D01*
X4135Y3737D02*
X4148Y3737D01*
X4275Y3737D02*
X4285Y3737D01*
X4320Y3737D02*
X4331Y3737D01*
X3567Y3736D02*
X3577Y3736D01*
X3617Y3736D02*
X3623Y3736D01*
X3741Y3736D02*
X3758Y3736D01*
X4019Y3736D02*
X4031Y3736D01*
X4134Y3736D02*
X4147Y3736D01*
X4274Y3736D02*
X4285Y3736D01*
X4320Y3736D02*
X4331Y3736D01*
X3567Y3735D02*
X3577Y3735D01*
X3617Y3735D02*
X3623Y3735D01*
X3743Y3735D02*
X3760Y3735D01*
X4020Y3735D02*
X4032Y3735D01*
X4132Y3735D02*
X4145Y3735D01*
X4274Y3735D02*
X4284Y3735D01*
X4320Y3735D02*
X4330Y3735D01*
X3568Y3734D02*
X3578Y3734D01*
X3618Y3734D02*
X3624Y3734D01*
X3744Y3734D02*
X3761Y3734D01*
X4021Y3734D02*
X4032Y3734D01*
X4131Y3734D02*
X4144Y3734D01*
X4273Y3734D02*
X4283Y3734D01*
X4319Y3734D02*
X4330Y3734D01*
X3568Y3733D02*
X3578Y3733D01*
X3618Y3733D02*
X3625Y3733D01*
X3746Y3733D02*
X3763Y3733D01*
X4021Y3733D02*
X4033Y3733D01*
X4129Y3733D02*
X4142Y3733D01*
X4272Y3733D02*
X4283Y3733D01*
X4319Y3733D02*
X4330Y3733D01*
X3569Y3732D02*
X3579Y3732D01*
X3619Y3732D02*
X3625Y3732D01*
X3747Y3732D02*
X3765Y3732D01*
X4022Y3732D02*
X4034Y3732D01*
X4128Y3732D02*
X4141Y3732D01*
X4272Y3732D02*
X4282Y3732D01*
X4318Y3732D02*
X4329Y3732D01*
X3569Y3731D02*
X3579Y3731D01*
X3620Y3731D02*
X3626Y3731D01*
X3749Y3731D02*
X3766Y3731D01*
X4023Y3731D02*
X4034Y3731D01*
X4126Y3731D02*
X4139Y3731D01*
X4271Y3731D02*
X4281Y3731D01*
X4318Y3731D02*
X4329Y3731D01*
X3570Y3730D02*
X3580Y3730D01*
X3620Y3730D02*
X3627Y3730D01*
X3750Y3730D02*
X3768Y3730D01*
X4024Y3730D02*
X4035Y3730D01*
X4124Y3730D02*
X4137Y3730D01*
X4270Y3730D02*
X4281Y3730D01*
X4317Y3730D02*
X4328Y3730D01*
X3570Y3729D02*
X3580Y3729D01*
X3621Y3729D02*
X3627Y3729D01*
X3752Y3729D02*
X3770Y3729D01*
X4024Y3729D02*
X4035Y3729D01*
X4123Y3729D02*
X4136Y3729D01*
X4269Y3729D02*
X4280Y3729D01*
X4317Y3729D02*
X4328Y3729D01*
X3570Y3728D02*
X3580Y3728D01*
X3622Y3728D02*
X3628Y3728D01*
X3753Y3728D02*
X3771Y3728D01*
X4025Y3728D02*
X4036Y3728D01*
X4121Y3728D02*
X4134Y3728D01*
X4269Y3728D02*
X4279Y3728D01*
X4316Y3728D02*
X4328Y3728D01*
X3571Y3727D02*
X3581Y3727D01*
X3622Y3727D02*
X3629Y3727D01*
X3755Y3727D02*
X3773Y3727D01*
X4026Y3727D02*
X4036Y3727D01*
X4120Y3727D02*
X4132Y3727D01*
X4268Y3727D02*
X4279Y3727D01*
X4316Y3727D02*
X4327Y3727D01*
X3571Y3726D02*
X3581Y3726D01*
X3623Y3726D02*
X3629Y3726D01*
X3756Y3726D02*
X3775Y3726D01*
X4026Y3726D02*
X4037Y3726D01*
X4118Y3726D02*
X4131Y3726D01*
X4267Y3726D02*
X4278Y3726D01*
X4315Y3726D02*
X4327Y3726D01*
X3572Y3725D02*
X3582Y3725D01*
X3623Y3725D02*
X3630Y3725D01*
X3758Y3725D02*
X3776Y3725D01*
X4027Y3725D02*
X4037Y3725D01*
X4116Y3725D02*
X4129Y3725D01*
X4267Y3725D02*
X4277Y3725D01*
X4315Y3725D02*
X4326Y3725D01*
X3572Y3724D02*
X3582Y3724D01*
X3624Y3724D02*
X3631Y3724D01*
X3759Y3724D02*
X3778Y3724D01*
X4028Y3724D02*
X4038Y3724D01*
X4114Y3724D02*
X4127Y3724D01*
X4266Y3724D02*
X4277Y3724D01*
X4314Y3724D02*
X4326Y3724D01*
X3573Y3723D02*
X3583Y3723D01*
X3625Y3723D02*
X3631Y3723D01*
X3761Y3723D02*
X3780Y3723D01*
X4028Y3723D02*
X4038Y3723D01*
X4113Y3723D02*
X4125Y3723D01*
X4265Y3723D02*
X4276Y3723D01*
X4314Y3723D02*
X4325Y3723D01*
X3573Y3722D02*
X3583Y3722D01*
X3626Y3722D02*
X3632Y3722D01*
X3763Y3722D02*
X3781Y3722D01*
X4029Y3722D02*
X4039Y3722D01*
X4111Y3722D02*
X4124Y3722D01*
X4265Y3722D02*
X4275Y3722D01*
X4314Y3722D02*
X4325Y3722D01*
X3574Y3721D02*
X3584Y3721D01*
X3626Y3721D02*
X3633Y3721D01*
X3764Y3721D02*
X3783Y3721D01*
X4030Y3721D02*
X4039Y3721D01*
X4109Y3721D02*
X4122Y3721D01*
X4264Y3721D02*
X4274Y3721D01*
X4313Y3721D02*
X4324Y3721D01*
X3574Y3720D02*
X3584Y3720D01*
X3627Y3720D02*
X3634Y3720D01*
X3766Y3720D02*
X3785Y3720D01*
X4030Y3720D02*
X4040Y3720D01*
X4107Y3720D02*
X4120Y3720D01*
X4263Y3720D02*
X4274Y3720D01*
X4313Y3720D02*
X4324Y3720D01*
X3575Y3719D02*
X3585Y3719D01*
X3628Y3719D02*
X3634Y3719D01*
X3767Y3719D02*
X3787Y3719D01*
X4031Y3719D02*
X4040Y3719D01*
X4106Y3719D02*
X4118Y3719D01*
X4262Y3719D02*
X4273Y3719D01*
X4312Y3719D02*
X4323Y3719D01*
X3575Y3718D02*
X3585Y3718D01*
X3628Y3718D02*
X3635Y3718D01*
X3769Y3718D02*
X3789Y3718D01*
X4031Y3718D02*
X4040Y3718D01*
X4104Y3718D02*
X4116Y3718D01*
X4262Y3718D02*
X4272Y3718D01*
X4312Y3718D02*
X4323Y3718D01*
X3576Y3717D02*
X3586Y3717D01*
X3629Y3717D02*
X3636Y3717D01*
X3771Y3717D02*
X3791Y3717D01*
X4032Y3717D02*
X4041Y3717D01*
X4102Y3717D02*
X4115Y3717D01*
X4261Y3717D02*
X4271Y3717D01*
X4311Y3717D02*
X4322Y3717D01*
X3576Y3716D02*
X3586Y3716D01*
X3630Y3716D02*
X3636Y3716D01*
X3773Y3716D02*
X3793Y3716D01*
X4032Y3716D02*
X4041Y3716D01*
X4100Y3716D02*
X4113Y3716D01*
X4260Y3716D02*
X4270Y3716D01*
X4311Y3716D02*
X4322Y3716D01*
X3577Y3715D02*
X3587Y3715D01*
X3630Y3715D02*
X3637Y3715D01*
X3775Y3715D02*
X3795Y3715D01*
X4033Y3715D02*
X4041Y3715D01*
X4098Y3715D02*
X4111Y3715D01*
X4259Y3715D02*
X4270Y3715D01*
X4310Y3715D02*
X4321Y3715D01*
X3577Y3714D02*
X3587Y3714D01*
X3631Y3714D02*
X3638Y3714D01*
X3776Y3714D02*
X3797Y3714D01*
X4033Y3714D02*
X4042Y3714D01*
X4096Y3714D02*
X4109Y3714D01*
X4259Y3714D02*
X4269Y3714D01*
X4310Y3714D02*
X4321Y3714D01*
X3578Y3713D02*
X3588Y3713D01*
X3632Y3713D02*
X3639Y3713D01*
X3778Y3713D02*
X3799Y3713D01*
X4033Y3713D02*
X4042Y3713D01*
X4094Y3713D02*
X4107Y3713D01*
X4258Y3713D02*
X4268Y3713D01*
X4309Y3713D02*
X4320Y3713D01*
X3578Y3712D02*
X3588Y3712D01*
X3632Y3712D02*
X3639Y3712D01*
X3780Y3712D02*
X3801Y3712D01*
X4034Y3712D02*
X4042Y3712D01*
X4092Y3712D02*
X4105Y3712D01*
X4257Y3712D02*
X4267Y3712D01*
X4309Y3712D02*
X4320Y3712D01*
X3578Y3711D02*
X3589Y3711D01*
X3633Y3711D02*
X3640Y3711D01*
X3782Y3711D02*
X3804Y3711D01*
X4034Y3711D02*
X4042Y3711D01*
X4090Y3711D02*
X4103Y3711D01*
X4257Y3711D02*
X4266Y3711D01*
X4308Y3711D02*
X4319Y3711D01*
X3579Y3710D02*
X3589Y3710D01*
X3634Y3710D02*
X3641Y3710D01*
X3784Y3710D02*
X3806Y3710D01*
X4034Y3710D02*
X4042Y3710D01*
X4088Y3710D02*
X4101Y3710D01*
X4256Y3710D02*
X4266Y3710D01*
X4308Y3710D02*
X4319Y3710D01*
X3579Y3709D02*
X3590Y3709D01*
X3634Y3709D02*
X3641Y3709D01*
X3786Y3709D02*
X3808Y3709D01*
X4035Y3709D02*
X4042Y3709D01*
X4086Y3709D02*
X4100Y3709D01*
X4255Y3709D02*
X4265Y3709D01*
X4307Y3709D02*
X4318Y3709D01*
X3580Y3708D02*
X3590Y3708D01*
X3635Y3708D02*
X3642Y3708D01*
X3788Y3708D02*
X3811Y3708D01*
X4035Y3708D02*
X4043Y3708D01*
X4084Y3708D02*
X4098Y3708D01*
X4254Y3708D02*
X4264Y3708D01*
X4307Y3708D02*
X4318Y3708D01*
X3581Y3707D02*
X3591Y3707D01*
X3636Y3707D02*
X3643Y3707D01*
X3790Y3707D02*
X3813Y3707D01*
X4035Y3707D02*
X4043Y3707D01*
X4082Y3707D02*
X4096Y3707D01*
X4253Y3707D02*
X4264Y3707D01*
X4275Y3707D02*
X4275Y3707D01*
X4306Y3707D02*
X4317Y3707D01*
X3581Y3706D02*
X3591Y3706D01*
X3637Y3706D02*
X3644Y3706D01*
X3792Y3706D02*
X3816Y3706D01*
X4035Y3706D02*
X4043Y3706D01*
X4080Y3706D02*
X4094Y3706D01*
X4253Y3706D02*
X4263Y3706D01*
X4274Y3706D02*
X4276Y3706D01*
X4305Y3706D02*
X4317Y3706D01*
X3582Y3705D02*
X3592Y3705D01*
X3637Y3705D02*
X3645Y3705D01*
X3794Y3705D02*
X3818Y3705D01*
X4036Y3705D02*
X4043Y3705D01*
X4078Y3705D02*
X4092Y3705D01*
X4252Y3705D02*
X4262Y3705D01*
X4273Y3705D02*
X4276Y3705D01*
X4305Y3705D02*
X4316Y3705D01*
X3582Y3704D02*
X3592Y3704D01*
X3638Y3704D02*
X3645Y3704D01*
X3796Y3704D02*
X3821Y3704D01*
X4036Y3704D02*
X4043Y3704D01*
X4076Y3704D02*
X4090Y3704D01*
X4251Y3704D02*
X4262Y3704D01*
X4273Y3704D02*
X4275Y3704D01*
X4304Y3704D02*
X4316Y3704D01*
X3583Y3703D02*
X3593Y3703D01*
X3639Y3703D02*
X3646Y3703D01*
X3799Y3703D02*
X3823Y3703D01*
X4036Y3703D02*
X4043Y3703D01*
X4074Y3703D02*
X4088Y3703D01*
X4250Y3703D02*
X4261Y3703D01*
X4304Y3703D02*
X4315Y3703D01*
X3583Y3702D02*
X3593Y3702D01*
X3640Y3702D02*
X3647Y3702D01*
X3801Y3702D02*
X3826Y3702D01*
X4036Y3702D02*
X4043Y3702D01*
X4072Y3702D02*
X4086Y3702D01*
X4250Y3702D02*
X4260Y3702D01*
X4303Y3702D02*
X4315Y3702D01*
X3584Y3701D02*
X3594Y3701D01*
X3640Y3701D02*
X3648Y3701D01*
X3804Y3701D02*
X3829Y3701D01*
X4036Y3701D02*
X4043Y3701D01*
X4070Y3701D02*
X4083Y3701D01*
X4249Y3701D02*
X4260Y3701D01*
X4303Y3701D02*
X4314Y3701D01*
X3584Y3700D02*
X3595Y3700D01*
X3641Y3700D02*
X3649Y3700D01*
X3806Y3700D02*
X3832Y3700D01*
X4035Y3700D02*
X4043Y3700D01*
X4069Y3700D02*
X4081Y3700D01*
X4248Y3700D02*
X4259Y3700D01*
X4302Y3700D02*
X4314Y3700D01*
X3585Y3699D02*
X3595Y3699D01*
X3642Y3699D02*
X3649Y3699D01*
X3808Y3699D02*
X3835Y3699D01*
X4035Y3699D02*
X4043Y3699D01*
X4067Y3699D02*
X4079Y3699D01*
X4247Y3699D02*
X4258Y3699D01*
X4302Y3699D02*
X4313Y3699D01*
X3585Y3698D02*
X3596Y3698D01*
X3643Y3698D02*
X3650Y3698D01*
X3811Y3698D02*
X3838Y3698D01*
X4035Y3698D02*
X4043Y3698D01*
X4065Y3698D02*
X4077Y3698D01*
X4246Y3698D02*
X4257Y3698D01*
X4301Y3698D02*
X4313Y3698D01*
X3586Y3697D02*
X3596Y3697D01*
X3643Y3697D02*
X3651Y3697D01*
X3813Y3697D02*
X3842Y3697D01*
X4034Y3697D02*
X4043Y3697D01*
X4064Y3697D02*
X4075Y3697D01*
X4246Y3697D02*
X4257Y3697D01*
X4301Y3697D02*
X4312Y3697D01*
X3586Y3696D02*
X3597Y3696D01*
X3644Y3696D02*
X3652Y3696D01*
X3816Y3696D02*
X3845Y3696D01*
X4033Y3696D02*
X4043Y3696D01*
X4062Y3696D02*
X4072Y3696D01*
X4245Y3696D02*
X4256Y3696D01*
X4300Y3696D02*
X4312Y3696D01*
X3587Y3695D02*
X3597Y3695D01*
X3645Y3695D02*
X3653Y3695D01*
X3819Y3695D02*
X3849Y3695D01*
X4032Y3695D02*
X4043Y3695D01*
X4061Y3695D02*
X4070Y3695D01*
X4244Y3695D02*
X4255Y3695D01*
X4299Y3695D02*
X4311Y3695D01*
X3587Y3694D02*
X3598Y3694D01*
X3646Y3694D02*
X3653Y3694D01*
X3821Y3694D02*
X3853Y3694D01*
X4030Y3694D02*
X4043Y3694D01*
X4061Y3694D02*
X4067Y3694D01*
X4243Y3694D02*
X4255Y3694D01*
X4299Y3694D02*
X4310Y3694D01*
X3588Y3693D02*
X3599Y3693D01*
X3647Y3693D02*
X3654Y3693D01*
X3824Y3693D02*
X3856Y3693D01*
X4027Y3693D02*
X4043Y3693D01*
X4060Y3693D02*
X4064Y3693D01*
X4242Y3693D02*
X4254Y3693D01*
X4298Y3693D02*
X4310Y3693D01*
X3589Y3692D02*
X3599Y3692D01*
X3648Y3692D02*
X3655Y3692D01*
X3827Y3692D02*
X3860Y3692D01*
X4024Y3692D02*
X4043Y3692D01*
X4242Y3692D02*
X4253Y3692D01*
X4298Y3692D02*
X4309Y3692D01*
X3589Y3691D02*
X3600Y3691D01*
X3648Y3691D02*
X3656Y3691D01*
X3830Y3691D02*
X3865Y3691D01*
X4020Y3691D02*
X4043Y3691D01*
X4241Y3691D02*
X4253Y3691D01*
X4297Y3691D02*
X4309Y3691D01*
X3590Y3690D02*
X3600Y3690D01*
X3649Y3690D02*
X3657Y3690D01*
X3833Y3690D02*
X3869Y3690D01*
X4016Y3690D02*
X4043Y3690D01*
X4240Y3690D02*
X4252Y3690D01*
X4297Y3690D02*
X4308Y3690D01*
X3590Y3689D02*
X3601Y3689D01*
X3650Y3689D02*
X3657Y3689D01*
X3837Y3689D02*
X3874Y3689D01*
X4011Y3689D02*
X4043Y3689D01*
X4239Y3689D02*
X4251Y3689D01*
X4296Y3689D02*
X4307Y3689D01*
X3591Y3688D02*
X3602Y3688D01*
X3651Y3688D02*
X3658Y3688D01*
X3840Y3688D02*
X3880Y3688D01*
X4006Y3688D02*
X4043Y3688D01*
X4238Y3688D02*
X4250Y3688D01*
X4295Y3688D02*
X4307Y3688D01*
X3591Y3687D02*
X3602Y3687D01*
X3652Y3687D02*
X3659Y3687D01*
X3843Y3687D02*
X3886Y3687D01*
X4000Y3687D02*
X4043Y3687D01*
X4237Y3687D02*
X4250Y3687D01*
X4295Y3687D02*
X4306Y3687D01*
X3592Y3686D02*
X3603Y3686D01*
X3653Y3686D02*
X3660Y3686D01*
X3847Y3686D02*
X3892Y3686D01*
X3993Y3686D02*
X4043Y3686D01*
X4237Y3686D02*
X4249Y3686D01*
X4294Y3686D02*
X4306Y3686D01*
X3593Y3685D02*
X3603Y3685D01*
X3654Y3685D02*
X3660Y3685D01*
X3851Y3685D02*
X3900Y3685D01*
X3985Y3685D02*
X4043Y3685D01*
X4236Y3685D02*
X4248Y3685D01*
X4294Y3685D02*
X4305Y3685D01*
X3593Y3684D02*
X3604Y3684D01*
X3654Y3684D02*
X3661Y3684D01*
X3854Y3684D02*
X3909Y3684D01*
X3976Y3684D02*
X4043Y3684D01*
X4235Y3684D02*
X4247Y3684D01*
X4293Y3684D02*
X4305Y3684D01*
X3594Y3683D02*
X3605Y3683D01*
X3655Y3683D02*
X3662Y3683D01*
X3858Y3683D02*
X3922Y3683D01*
X3963Y3683D02*
X4032Y3683D01*
X4038Y3683D02*
X4043Y3683D01*
X4234Y3683D02*
X4247Y3683D01*
X4292Y3683D02*
X4304Y3683D01*
X3594Y3682D02*
X3605Y3682D01*
X3656Y3682D02*
X3663Y3682D01*
X3863Y3682D02*
X4026Y3682D01*
X4038Y3682D02*
X4043Y3682D01*
X4233Y3682D02*
X4246Y3682D01*
X4292Y3682D02*
X4303Y3682D01*
X3595Y3681D02*
X3606Y3681D01*
X3657Y3681D02*
X3663Y3681D01*
X3867Y3681D02*
X4020Y3681D01*
X4038Y3681D02*
X4043Y3681D01*
X4232Y3681D02*
X4245Y3681D01*
X4291Y3681D02*
X4303Y3681D01*
X3596Y3680D02*
X3607Y3680D01*
X3658Y3680D02*
X3664Y3680D01*
X3872Y3680D02*
X4014Y3680D01*
X4038Y3680D02*
X4043Y3680D01*
X4231Y3680D02*
X4244Y3680D01*
X4291Y3680D02*
X4302Y3680D01*
X3596Y3679D02*
X3607Y3679D01*
X3659Y3679D02*
X3665Y3679D01*
X3877Y3679D02*
X4009Y3679D01*
X4038Y3679D02*
X4043Y3679D01*
X4231Y3679D02*
X4243Y3679D01*
X4290Y3679D02*
X4301Y3679D01*
X3597Y3678D02*
X3608Y3678D01*
X3661Y3678D02*
X3666Y3678D01*
X3883Y3678D02*
X4003Y3678D01*
X4038Y3678D02*
X4043Y3678D01*
X4230Y3678D02*
X4242Y3678D01*
X4289Y3678D02*
X4301Y3678D01*
X3598Y3677D02*
X3608Y3677D01*
X3662Y3677D02*
X3666Y3677D01*
X3888Y3677D02*
X3998Y3677D01*
X4038Y3677D02*
X4043Y3677D01*
X4229Y3677D02*
X4241Y3677D01*
X4289Y3677D02*
X4300Y3677D01*
X3598Y3676D02*
X3609Y3676D01*
X3663Y3676D02*
X3667Y3676D01*
X3896Y3676D02*
X3991Y3676D01*
X4038Y3676D02*
X4043Y3676D01*
X4228Y3676D02*
X4240Y3676D01*
X4288Y3676D02*
X4300Y3676D01*
X3599Y3675D02*
X3610Y3675D01*
X3665Y3675D02*
X3668Y3675D01*
X3903Y3675D02*
X3984Y3675D01*
X4038Y3675D02*
X4043Y3675D01*
X4227Y3675D02*
X4239Y3675D01*
X4288Y3675D02*
X4299Y3675D01*
X3599Y3674D02*
X3610Y3674D01*
X3666Y3674D02*
X3668Y3674D01*
X3914Y3674D02*
X3975Y3674D01*
X4037Y3674D02*
X4043Y3674D01*
X4226Y3674D02*
X4238Y3674D01*
X4287Y3674D02*
X4298Y3674D01*
X3600Y3673D02*
X3611Y3673D01*
X3668Y3673D02*
X3669Y3673D01*
X3928Y3673D02*
X3962Y3673D01*
X4037Y3673D02*
X4043Y3673D01*
X4225Y3673D02*
X4237Y3673D01*
X4286Y3673D02*
X4298Y3673D01*
X3601Y3672D02*
X3612Y3672D01*
X4037Y3672D02*
X4043Y3672D01*
X4224Y3672D02*
X4237Y3672D01*
X4286Y3672D02*
X4297Y3672D01*
X3601Y3671D02*
X3612Y3671D01*
X4037Y3671D02*
X4043Y3671D01*
X4223Y3671D02*
X4236Y3671D01*
X4285Y3671D02*
X4296Y3671D01*
X3602Y3670D02*
X3613Y3670D01*
X4037Y3670D02*
X4043Y3670D01*
X4222Y3670D02*
X4235Y3670D01*
X4284Y3670D02*
X4296Y3670D01*
X3603Y3669D02*
X3614Y3669D01*
X4037Y3669D02*
X4043Y3669D01*
X4221Y3669D02*
X4234Y3669D01*
X4284Y3669D02*
X4295Y3669D01*
X3603Y3668D02*
X3614Y3668D01*
X4037Y3668D02*
X4043Y3668D01*
X4220Y3668D02*
X4232Y3668D01*
X4283Y3668D02*
X4294Y3668D01*
X3604Y3667D02*
X3615Y3667D01*
X4037Y3667D02*
X4043Y3667D01*
X4219Y3667D02*
X4231Y3667D01*
X4282Y3667D02*
X4294Y3667D01*
X3605Y3666D02*
X3616Y3666D01*
X4037Y3666D02*
X4043Y3666D01*
X4218Y3666D02*
X4230Y3666D01*
X4282Y3666D02*
X4293Y3666D01*
X3605Y3665D02*
X3617Y3665D01*
X4037Y3665D02*
X4043Y3665D01*
X4217Y3665D02*
X4229Y3665D01*
X4281Y3665D02*
X4293Y3665D01*
X3606Y3664D02*
X3617Y3664D01*
X4037Y3664D02*
X4043Y3664D01*
X4216Y3664D02*
X4228Y3664D01*
X4280Y3664D02*
X4292Y3664D01*
X3607Y3663D02*
X3618Y3663D01*
X4037Y3663D02*
X4043Y3663D01*
X4215Y3663D02*
X4227Y3663D01*
X4280Y3663D02*
X4291Y3663D01*
X3607Y3662D02*
X3619Y3662D01*
X4036Y3662D02*
X4042Y3662D01*
X4214Y3662D02*
X4226Y3662D01*
X4279Y3662D02*
X4290Y3662D01*
X3608Y3661D02*
X3619Y3661D01*
X4036Y3661D02*
X4042Y3661D01*
X4212Y3661D02*
X4225Y3661D01*
X4278Y3661D02*
X4290Y3661D01*
X3609Y3660D02*
X3620Y3660D01*
X4036Y3660D02*
X4042Y3660D01*
X4211Y3660D02*
X4224Y3660D01*
X4277Y3660D02*
X4289Y3660D01*
X3609Y3659D02*
X3621Y3659D01*
X4036Y3659D02*
X4042Y3659D01*
X4210Y3659D02*
X4222Y3659D01*
X4277Y3659D02*
X4288Y3659D01*
X3610Y3658D02*
X3621Y3658D01*
X4036Y3658D02*
X4042Y3658D01*
X4209Y3658D02*
X4221Y3658D01*
X4276Y3658D02*
X4288Y3658D01*
X3611Y3657D02*
X3622Y3657D01*
X4036Y3657D02*
X4042Y3657D01*
X4208Y3657D02*
X4220Y3657D01*
X4275Y3657D02*
X4287Y3657D01*
X3612Y3656D02*
X3623Y3656D01*
X3726Y3656D02*
X3726Y3656D01*
X4036Y3656D02*
X4042Y3656D01*
X4207Y3656D02*
X4219Y3656D01*
X4275Y3656D02*
X4286Y3656D01*
X3612Y3655D02*
X3624Y3655D01*
X3726Y3655D02*
X3727Y3655D01*
X4035Y3655D02*
X4042Y3655D01*
X4206Y3655D02*
X4218Y3655D01*
X4274Y3655D02*
X4286Y3655D01*
X3613Y3654D02*
X3624Y3654D01*
X3726Y3654D02*
X3727Y3654D01*
X4035Y3654D02*
X4042Y3654D01*
X4204Y3654D02*
X4217Y3654D01*
X4273Y3654D02*
X4285Y3654D01*
X3614Y3653D02*
X3625Y3653D01*
X3726Y3653D02*
X3728Y3653D01*
X4035Y3653D02*
X4041Y3653D01*
X4203Y3653D02*
X4216Y3653D01*
X4272Y3653D02*
X4284Y3653D01*
X3614Y3652D02*
X3626Y3652D01*
X3726Y3652D02*
X3728Y3652D01*
X4035Y3652D02*
X4041Y3652D01*
X4202Y3652D02*
X4215Y3652D01*
X4272Y3652D02*
X4283Y3652D01*
X3615Y3651D02*
X3627Y3651D01*
X3726Y3651D02*
X3729Y3651D01*
X4035Y3651D02*
X4041Y3651D01*
X4201Y3651D02*
X4213Y3651D01*
X4271Y3651D02*
X4283Y3651D01*
X3616Y3650D02*
X3627Y3650D01*
X3726Y3650D02*
X3730Y3650D01*
X4035Y3650D02*
X4041Y3650D01*
X4199Y3650D02*
X4212Y3650D01*
X4270Y3650D02*
X4282Y3650D01*
X3617Y3649D02*
X3628Y3649D01*
X3726Y3649D02*
X3730Y3649D01*
X4034Y3649D02*
X4041Y3649D01*
X4198Y3649D02*
X4211Y3649D01*
X4270Y3649D02*
X4281Y3649D01*
X3617Y3648D02*
X3629Y3648D01*
X3726Y3648D02*
X3731Y3648D01*
X4034Y3648D02*
X4041Y3648D01*
X4197Y3648D02*
X4210Y3648D01*
X4269Y3648D02*
X4281Y3648D01*
X3618Y3647D02*
X3630Y3647D01*
X3726Y3647D02*
X3731Y3647D01*
X4034Y3647D02*
X4040Y3647D01*
X4196Y3647D02*
X4209Y3647D01*
X4268Y3647D02*
X4280Y3647D01*
X3619Y3646D02*
X3630Y3646D01*
X3726Y3646D02*
X3732Y3646D01*
X4033Y3646D02*
X4040Y3646D01*
X4194Y3646D02*
X4208Y3646D01*
X4267Y3646D02*
X4279Y3646D01*
X3620Y3645D02*
X3631Y3645D01*
X3726Y3645D02*
X3732Y3645D01*
X4033Y3645D02*
X4040Y3645D01*
X4193Y3645D02*
X4207Y3645D01*
X4266Y3645D02*
X4278Y3645D01*
X3620Y3644D02*
X3632Y3644D01*
X3726Y3644D02*
X3733Y3644D01*
X4033Y3644D02*
X4040Y3644D01*
X4192Y3644D02*
X4205Y3644D01*
X4266Y3644D02*
X4278Y3644D01*
X3621Y3643D02*
X3633Y3643D01*
X3726Y3643D02*
X3734Y3643D01*
X4033Y3643D02*
X4040Y3643D01*
X4191Y3643D02*
X4204Y3643D01*
X4265Y3643D02*
X4277Y3643D01*
X3622Y3642D02*
X3634Y3642D01*
X3726Y3642D02*
X3734Y3642D01*
X4032Y3642D02*
X4039Y3642D01*
X4189Y3642D02*
X4203Y3642D01*
X4264Y3642D02*
X4276Y3642D01*
X3623Y3641D02*
X3634Y3641D01*
X3726Y3641D02*
X3735Y3641D01*
X4032Y3641D02*
X4039Y3641D01*
X4188Y3641D02*
X4202Y3641D01*
X4263Y3641D02*
X4275Y3641D01*
X3623Y3640D02*
X3635Y3640D01*
X3727Y3640D02*
X3736Y3640D01*
X4032Y3640D02*
X4039Y3640D01*
X4187Y3640D02*
X4201Y3640D01*
X4262Y3640D02*
X4275Y3640D01*
X3624Y3639D02*
X3636Y3639D01*
X3727Y3639D02*
X3737Y3639D01*
X4031Y3639D02*
X4039Y3639D01*
X4185Y3639D02*
X4200Y3639D01*
X4262Y3639D02*
X4274Y3639D01*
X3625Y3638D02*
X3637Y3638D01*
X3727Y3638D02*
X3737Y3638D01*
X4031Y3638D02*
X4038Y3638D01*
X4184Y3638D02*
X4199Y3638D01*
X4261Y3638D02*
X4273Y3638D01*
X3626Y3637D02*
X3638Y3637D01*
X3727Y3637D02*
X3738Y3637D01*
X4031Y3637D02*
X4038Y3637D01*
X4183Y3637D02*
X4197Y3637D01*
X4260Y3637D02*
X4272Y3637D01*
X3627Y3636D02*
X3638Y3636D01*
X3728Y3636D02*
X3739Y3636D01*
X4030Y3636D02*
X4038Y3636D01*
X4181Y3636D02*
X4196Y3636D01*
X4259Y3636D02*
X4271Y3636D01*
X3627Y3635D02*
X3639Y3635D01*
X3729Y3635D02*
X3740Y3635D01*
X4030Y3635D02*
X4038Y3635D01*
X4180Y3635D02*
X4195Y3635D01*
X4258Y3635D02*
X4271Y3635D01*
X3628Y3634D02*
X3640Y3634D01*
X3730Y3634D02*
X3741Y3634D01*
X4029Y3634D02*
X4037Y3634D01*
X4179Y3634D02*
X4194Y3634D01*
X4220Y3634D02*
X4220Y3634D01*
X4258Y3634D02*
X4270Y3634D01*
X3629Y3633D02*
X3641Y3633D01*
X3730Y3633D02*
X3742Y3633D01*
X4029Y3633D02*
X4037Y3633D01*
X4177Y3633D02*
X4193Y3633D01*
X4219Y3633D02*
X4220Y3633D01*
X4257Y3633D02*
X4269Y3633D01*
X3630Y3632D02*
X3642Y3632D01*
X3731Y3632D02*
X3742Y3632D01*
X4029Y3632D02*
X4037Y3632D01*
X4176Y3632D02*
X4192Y3632D01*
X4218Y3632D02*
X4219Y3632D01*
X4256Y3632D02*
X4268Y3632D01*
X3631Y3631D02*
X3643Y3631D01*
X3732Y3631D02*
X3743Y3631D01*
X4028Y3631D02*
X4036Y3631D01*
X4174Y3631D02*
X4190Y3631D01*
X4217Y3631D02*
X4218Y3631D01*
X4255Y3631D02*
X4268Y3631D01*
X3631Y3630D02*
X3644Y3630D01*
X3733Y3630D02*
X3744Y3630D01*
X4028Y3630D02*
X4036Y3630D01*
X4173Y3630D02*
X4189Y3630D01*
X4254Y3630D02*
X4267Y3630D01*
X3632Y3629D02*
X3644Y3629D01*
X3733Y3629D02*
X3745Y3629D01*
X4027Y3629D02*
X4036Y3629D01*
X4172Y3629D02*
X4188Y3629D01*
X4253Y3629D02*
X4266Y3629D01*
X3633Y3628D02*
X3645Y3628D01*
X3734Y3628D02*
X3746Y3628D01*
X4027Y3628D02*
X4035Y3628D01*
X4170Y3628D02*
X4187Y3628D01*
X4253Y3628D02*
X4265Y3628D01*
X3634Y3627D02*
X3646Y3627D01*
X3735Y3627D02*
X3747Y3627D01*
X4026Y3627D02*
X4035Y3627D01*
X4169Y3627D02*
X4185Y3627D01*
X4252Y3627D02*
X4264Y3627D01*
X3635Y3626D02*
X3647Y3626D01*
X3736Y3626D02*
X3748Y3626D01*
X4026Y3626D02*
X4034Y3626D01*
X4167Y3626D02*
X4184Y3626D01*
X4251Y3626D02*
X4263Y3626D01*
X3636Y3625D02*
X3648Y3625D01*
X3737Y3625D02*
X3749Y3625D01*
X4026Y3625D02*
X4034Y3625D01*
X4166Y3625D02*
X4183Y3625D01*
X4250Y3625D02*
X4262Y3625D01*
X3636Y3624D02*
X3649Y3624D01*
X3738Y3624D02*
X3750Y3624D01*
X4025Y3624D02*
X4033Y3624D01*
X4164Y3624D02*
X4181Y3624D01*
X4249Y3624D02*
X4262Y3624D01*
X3637Y3623D02*
X3650Y3623D01*
X3739Y3623D02*
X3751Y3623D01*
X4025Y3623D02*
X4033Y3623D01*
X4163Y3623D02*
X4180Y3623D01*
X4248Y3623D02*
X4261Y3623D01*
X3638Y3622D02*
X3651Y3622D01*
X3740Y3622D02*
X3752Y3622D01*
X4024Y3622D02*
X4033Y3622D01*
X4161Y3622D02*
X4179Y3622D01*
X4247Y3622D02*
X4260Y3622D01*
X3639Y3621D02*
X3651Y3621D01*
X3741Y3621D02*
X3753Y3621D01*
X4024Y3621D02*
X4032Y3621D01*
X4160Y3621D02*
X4177Y3621D01*
X4246Y3621D02*
X4259Y3621D01*
X3640Y3620D02*
X3652Y3620D01*
X3742Y3620D02*
X3753Y3620D01*
X4023Y3620D02*
X4032Y3620D01*
X4158Y3620D02*
X4176Y3620D01*
X4245Y3620D02*
X4258Y3620D01*
X3641Y3619D02*
X3653Y3619D01*
X3743Y3619D02*
X3754Y3619D01*
X4022Y3619D02*
X4031Y3619D01*
X4157Y3619D02*
X4174Y3619D01*
X4244Y3619D02*
X4257Y3619D01*
X3642Y3618D02*
X3654Y3618D01*
X3744Y3618D02*
X3755Y3618D01*
X4022Y3618D02*
X4030Y3618D01*
X4155Y3618D02*
X4173Y3618D01*
X4243Y3618D02*
X4256Y3618D01*
X3643Y3617D02*
X3655Y3617D01*
X3745Y3617D02*
X3756Y3617D01*
X4021Y3617D02*
X4030Y3617D01*
X4154Y3617D02*
X4171Y3617D01*
X4243Y3617D02*
X4256Y3617D01*
X3643Y3616D02*
X3656Y3616D01*
X3747Y3616D02*
X3757Y3616D01*
X4021Y3616D02*
X4029Y3616D01*
X4152Y3616D02*
X4170Y3616D01*
X4242Y3616D02*
X4255Y3616D01*
X3644Y3615D02*
X3657Y3615D01*
X3748Y3615D02*
X3758Y3615D01*
X4020Y3615D02*
X4029Y3615D01*
X4151Y3615D02*
X4168Y3615D01*
X4241Y3615D02*
X4254Y3615D01*
X3645Y3614D02*
X3658Y3614D01*
X3749Y3614D02*
X3759Y3614D01*
X4019Y3614D02*
X4028Y3614D01*
X4149Y3614D02*
X4167Y3614D01*
X4240Y3614D02*
X4253Y3614D01*
X3646Y3613D02*
X3659Y3613D01*
X3750Y3613D02*
X3760Y3613D01*
X4018Y3613D02*
X4028Y3613D01*
X4147Y3613D02*
X4165Y3613D01*
X4239Y3613D02*
X4252Y3613D01*
X3647Y3612D02*
X3660Y3612D01*
X3751Y3612D02*
X3761Y3612D01*
X4018Y3612D02*
X4027Y3612D01*
X4146Y3612D02*
X4164Y3612D01*
X4238Y3612D02*
X4251Y3612D01*
X3648Y3611D02*
X3661Y3611D01*
X3752Y3611D02*
X3763Y3611D01*
X4017Y3611D02*
X4026Y3611D01*
X4144Y3611D02*
X4162Y3611D01*
X4237Y3611D02*
X4250Y3611D01*
X3649Y3610D02*
X3662Y3610D01*
X3754Y3610D02*
X3764Y3610D01*
X4016Y3610D02*
X4026Y3610D01*
X4142Y3610D02*
X4161Y3610D01*
X4236Y3610D02*
X4249Y3610D01*
X3650Y3609D02*
X3663Y3609D01*
X3755Y3609D02*
X3765Y3609D01*
X4015Y3609D02*
X4025Y3609D01*
X4141Y3609D02*
X4159Y3609D01*
X4235Y3609D02*
X4248Y3609D01*
X3651Y3608D02*
X3664Y3608D01*
X3756Y3608D02*
X3766Y3608D01*
X4014Y3608D02*
X4024Y3608D01*
X4139Y3608D02*
X4158Y3608D01*
X4234Y3608D02*
X4247Y3608D01*
X3652Y3607D02*
X3665Y3607D01*
X3757Y3607D02*
X3767Y3607D01*
X4013Y3607D02*
X4023Y3607D01*
X4137Y3607D02*
X4156Y3607D01*
X4233Y3607D02*
X4246Y3607D01*
X3653Y3606D02*
X3666Y3606D01*
X3759Y3606D02*
X3768Y3606D01*
X4012Y3606D02*
X4023Y3606D01*
X4136Y3606D02*
X4154Y3606D01*
X4232Y3606D02*
X4245Y3606D01*
X3653Y3605D02*
X3667Y3605D01*
X3760Y3605D02*
X3769Y3605D01*
X4011Y3605D02*
X4022Y3605D01*
X4134Y3605D02*
X4153Y3605D01*
X4231Y3605D02*
X4244Y3605D01*
X3654Y3604D02*
X3668Y3604D01*
X3761Y3604D02*
X3770Y3604D01*
X4010Y3604D02*
X4021Y3604D01*
X4132Y3604D02*
X4151Y3604D01*
X4230Y3604D02*
X4243Y3604D01*
X3655Y3603D02*
X3669Y3603D01*
X3763Y3603D02*
X3771Y3603D01*
X4009Y3603D02*
X4020Y3603D01*
X4130Y3603D02*
X4149Y3603D01*
X4229Y3603D02*
X4242Y3603D01*
X3656Y3602D02*
X3670Y3602D01*
X3764Y3602D02*
X3772Y3602D01*
X4008Y3602D02*
X4019Y3602D01*
X4128Y3602D02*
X4147Y3602D01*
X4228Y3602D02*
X4241Y3602D01*
X3657Y3601D02*
X3671Y3601D01*
X3765Y3601D02*
X3774Y3601D01*
X4007Y3601D02*
X4019Y3601D01*
X4127Y3601D02*
X4145Y3601D01*
X4227Y3601D02*
X4240Y3601D01*
X3658Y3600D02*
X3672Y3600D01*
X3767Y3600D02*
X3775Y3600D01*
X4006Y3600D02*
X4018Y3600D01*
X4125Y3600D02*
X4143Y3600D01*
X4225Y3600D02*
X4239Y3600D01*
X3659Y3599D02*
X3673Y3599D01*
X3768Y3599D02*
X3776Y3599D01*
X4005Y3599D02*
X4017Y3599D01*
X4123Y3599D02*
X4141Y3599D01*
X4224Y3599D02*
X4238Y3599D01*
X3660Y3598D02*
X3674Y3598D01*
X3769Y3598D02*
X3777Y3598D01*
X4005Y3598D02*
X4016Y3598D01*
X4121Y3598D02*
X4139Y3598D01*
X4223Y3598D02*
X4237Y3598D01*
X3661Y3597D02*
X3675Y3597D01*
X3771Y3597D02*
X3778Y3597D01*
X4004Y3597D02*
X4015Y3597D01*
X4119Y3597D02*
X4137Y3597D01*
X4222Y3597D02*
X4236Y3597D01*
X3662Y3596D02*
X3676Y3596D01*
X3772Y3596D02*
X3780Y3596D01*
X4002Y3596D02*
X4014Y3596D01*
X4117Y3596D02*
X4135Y3596D01*
X4221Y3596D02*
X4235Y3596D01*
X3663Y3595D02*
X3677Y3595D01*
X3773Y3595D02*
X3781Y3595D01*
X4001Y3595D02*
X4013Y3595D01*
X4115Y3595D02*
X4133Y3595D01*
X4220Y3595D02*
X4234Y3595D01*
X3664Y3594D02*
X3678Y3594D01*
X3775Y3594D02*
X3782Y3594D01*
X4000Y3594D02*
X4012Y3594D01*
X4113Y3594D02*
X4131Y3594D01*
X4219Y3594D02*
X4233Y3594D01*
X3665Y3593D02*
X3679Y3593D01*
X3776Y3593D02*
X3784Y3593D01*
X3999Y3593D02*
X4011Y3593D01*
X4111Y3593D02*
X4129Y3593D01*
X4218Y3593D02*
X4232Y3593D01*
X3666Y3592D02*
X3681Y3592D01*
X3777Y3592D02*
X3786Y3592D01*
X3998Y3592D02*
X4010Y3592D01*
X4109Y3592D02*
X4127Y3592D01*
X4217Y3592D02*
X4231Y3592D01*
X3667Y3591D02*
X3682Y3591D01*
X3779Y3591D02*
X3788Y3591D01*
X3997Y3591D02*
X4009Y3591D01*
X4107Y3591D02*
X4126Y3591D01*
X4215Y3591D02*
X4230Y3591D01*
X3669Y3590D02*
X3683Y3590D01*
X3781Y3590D02*
X3790Y3590D01*
X3996Y3590D02*
X4008Y3590D01*
X4104Y3590D02*
X4124Y3590D01*
X4214Y3590D02*
X4229Y3590D01*
X3670Y3589D02*
X3684Y3589D01*
X3782Y3589D02*
X3792Y3589D01*
X3995Y3589D02*
X4007Y3589D01*
X4102Y3589D02*
X4122Y3589D01*
X4213Y3589D02*
X4228Y3589D01*
X3671Y3588D02*
X3685Y3588D01*
X3784Y3588D02*
X3794Y3588D01*
X3993Y3588D02*
X4006Y3588D01*
X4099Y3588D02*
X4120Y3588D01*
X4212Y3588D02*
X4227Y3588D01*
X3672Y3587D02*
X3686Y3587D01*
X3785Y3587D02*
X3796Y3587D01*
X3992Y3587D02*
X4005Y3587D01*
X4097Y3587D02*
X4119Y3587D01*
X4211Y3587D02*
X4225Y3587D01*
X3673Y3586D02*
X3687Y3586D01*
X3787Y3586D02*
X3799Y3586D01*
X3991Y3586D02*
X4004Y3586D01*
X4094Y3586D02*
X4117Y3586D01*
X4210Y3586D02*
X4224Y3586D01*
X3674Y3585D02*
X3689Y3585D01*
X3789Y3585D02*
X3801Y3585D01*
X3989Y3585D02*
X4003Y3585D01*
X4092Y3585D02*
X4115Y3585D01*
X4208Y3585D02*
X4223Y3585D01*
X3675Y3584D02*
X3690Y3584D01*
X3791Y3584D02*
X3804Y3584D01*
X3988Y3584D02*
X4001Y3584D01*
X4089Y3584D02*
X4112Y3584D01*
X4207Y3584D02*
X4222Y3584D01*
X3676Y3583D02*
X3691Y3583D01*
X3794Y3583D02*
X3807Y3583D01*
X3986Y3583D02*
X4000Y3583D01*
X4086Y3583D02*
X4110Y3583D01*
X4206Y3583D02*
X4221Y3583D01*
X3677Y3582D02*
X3692Y3582D01*
X3796Y3582D02*
X3809Y3582D01*
X3984Y3582D02*
X3999Y3582D01*
X4084Y3582D02*
X4108Y3582D01*
X4205Y3582D02*
X4220Y3582D01*
X3678Y3581D02*
X3693Y3581D01*
X3798Y3581D02*
X3812Y3581D01*
X3983Y3581D02*
X3998Y3581D01*
X4081Y3581D02*
X4105Y3581D01*
X4203Y3581D02*
X4219Y3581D01*
X3680Y3580D02*
X3695Y3580D01*
X3801Y3580D02*
X3815Y3580D01*
X3981Y3580D02*
X3996Y3580D01*
X4078Y3580D02*
X4103Y3580D01*
X4202Y3580D02*
X4218Y3580D01*
X3681Y3579D02*
X3696Y3579D01*
X3804Y3579D02*
X3818Y3579D01*
X3979Y3579D02*
X3995Y3579D01*
X4075Y3579D02*
X4100Y3579D01*
X4201Y3579D02*
X4216Y3579D01*
X3682Y3578D02*
X3697Y3578D01*
X3807Y3578D02*
X3821Y3578D01*
X3977Y3578D02*
X3993Y3578D01*
X4072Y3578D02*
X4098Y3578D01*
X4199Y3578D02*
X4215Y3578D01*
X3683Y3577D02*
X3699Y3577D01*
X3810Y3577D02*
X3824Y3577D01*
X3975Y3577D02*
X3992Y3577D01*
X4069Y3577D02*
X4095Y3577D01*
X4198Y3577D02*
X4214Y3577D01*
X3684Y3576D02*
X3700Y3576D01*
X3813Y3576D02*
X3827Y3576D01*
X3972Y3576D02*
X3990Y3576D01*
X4066Y3576D02*
X4092Y3576D01*
X4197Y3576D02*
X4213Y3576D01*
X3686Y3575D02*
X3701Y3575D01*
X3816Y3575D02*
X3830Y3575D01*
X3970Y3575D02*
X3988Y3575D01*
X4063Y3575D02*
X4089Y3575D01*
X4196Y3575D02*
X4211Y3575D01*
X3687Y3574D02*
X3702Y3574D01*
X3819Y3574D02*
X3834Y3574D01*
X3967Y3574D02*
X3987Y3574D01*
X4060Y3574D02*
X4087Y3574D01*
X4194Y3574D02*
X4210Y3574D01*
X3688Y3573D02*
X3704Y3573D01*
X3822Y3573D02*
X3837Y3573D01*
X3965Y3573D02*
X3985Y3573D01*
X4057Y3573D02*
X4084Y3573D01*
X4193Y3573D02*
X4209Y3573D01*
X3689Y3572D02*
X3705Y3572D01*
X3825Y3572D02*
X3840Y3572D01*
X3963Y3572D02*
X3983Y3572D01*
X4053Y3572D02*
X4081Y3572D01*
X4191Y3572D02*
X4208Y3572D01*
X3691Y3571D02*
X3707Y3571D01*
X3829Y3571D02*
X3844Y3571D01*
X3960Y3571D02*
X3981Y3571D01*
X4050Y3571D02*
X4078Y3571D01*
X4190Y3571D02*
X4206Y3571D01*
X3692Y3570D02*
X3708Y3570D01*
X3832Y3570D02*
X3847Y3570D01*
X3958Y3570D02*
X3978Y3570D01*
X4046Y3570D02*
X4075Y3570D01*
X4188Y3570D02*
X4205Y3570D01*
X3693Y3569D02*
X3709Y3569D01*
X3835Y3569D02*
X3851Y3569D01*
X3956Y3569D02*
X3976Y3569D01*
X4042Y3569D02*
X4072Y3569D01*
X4187Y3569D02*
X4204Y3569D01*
X3695Y3568D02*
X3711Y3568D01*
X3838Y3568D02*
X3855Y3568D01*
X3955Y3568D02*
X3973Y3568D01*
X4038Y3568D02*
X4069Y3568D01*
X4186Y3568D02*
X4203Y3568D01*
X3696Y3567D02*
X3712Y3567D01*
X3842Y3567D02*
X3859Y3567D01*
X3954Y3567D02*
X3968Y3567D01*
X4034Y3567D02*
X4066Y3567D01*
X4184Y3567D02*
X4201Y3567D01*
X3697Y3566D02*
X3714Y3566D01*
X3845Y3566D02*
X3863Y3566D01*
X4029Y3566D02*
X4062Y3566D01*
X4183Y3566D02*
X4200Y3566D01*
X3699Y3565D02*
X3715Y3565D01*
X3848Y3565D02*
X3868Y3565D01*
X4023Y3565D02*
X4059Y3565D01*
X4181Y3565D02*
X4199Y3565D01*
X3700Y3564D02*
X3717Y3564D01*
X3852Y3564D02*
X3873Y3564D01*
X4018Y3564D02*
X4055Y3564D01*
X4180Y3564D02*
X4197Y3564D01*
X3702Y3563D02*
X3718Y3563D01*
X3856Y3563D02*
X3878Y3563D01*
X4012Y3563D02*
X4052Y3563D01*
X4178Y3563D02*
X4196Y3563D01*
X3703Y3562D02*
X3720Y3562D01*
X3859Y3562D02*
X3884Y3562D01*
X4006Y3562D02*
X4048Y3562D01*
X4177Y3562D02*
X4194Y3562D01*
X3705Y3561D02*
X3721Y3561D01*
X3863Y3561D02*
X3889Y3561D01*
X4000Y3561D02*
X4044Y3561D01*
X4175Y3561D02*
X4193Y3561D01*
X3706Y3560D02*
X3723Y3560D01*
X3867Y3560D02*
X3894Y3560D01*
X3993Y3560D02*
X4039Y3560D01*
X4173Y3560D02*
X4192Y3560D01*
X3708Y3559D02*
X3725Y3559D01*
X3872Y3559D02*
X3898Y3559D01*
X3987Y3559D02*
X4034Y3559D01*
X4172Y3559D02*
X4190Y3559D01*
X3709Y3558D02*
X3726Y3558D01*
X3880Y3558D02*
X3901Y3558D01*
X3980Y3558D02*
X4029Y3558D01*
X4170Y3558D02*
X4189Y3558D01*
X3711Y3557D02*
X3728Y3557D01*
X3891Y3557D02*
X3898Y3557D01*
X3973Y3557D02*
X4023Y3557D01*
X4169Y3557D02*
X4187Y3557D01*
X3712Y3556D02*
X3730Y3556D01*
X3964Y3556D02*
X4017Y3556D01*
X4167Y3556D02*
X4186Y3556D01*
X3714Y3555D02*
X3731Y3555D01*
X3931Y3555D02*
X4011Y3555D01*
X4165Y3555D02*
X4184Y3555D01*
X3715Y3554D02*
X3733Y3554D01*
X3928Y3554D02*
X4004Y3554D01*
X4164Y3554D02*
X4183Y3554D01*
X3717Y3553D02*
X3734Y3553D01*
X3929Y3553D02*
X3997Y3553D01*
X4162Y3553D02*
X4181Y3553D01*
X3719Y3552D02*
X3736Y3552D01*
X3933Y3552D02*
X3989Y3552D01*
X4160Y3552D02*
X4180Y3552D01*
X3720Y3551D02*
X3738Y3551D01*
X3938Y3551D02*
X3981Y3551D01*
X4159Y3551D02*
X4178Y3551D01*
X3722Y3550D02*
X3739Y3550D01*
X3944Y3550D02*
X3972Y3550D01*
X4157Y3550D02*
X4177Y3550D01*
X3723Y3549D02*
X3741Y3549D01*
X3955Y3549D02*
X3959Y3549D01*
X4155Y3549D02*
X4175Y3549D01*
X3725Y3548D02*
X3743Y3548D01*
X4154Y3548D02*
X4174Y3548D01*
X3726Y3547D02*
X3744Y3547D01*
X4152Y3547D02*
X4172Y3547D01*
X3728Y3546D02*
X3746Y3546D01*
X4150Y3546D02*
X4171Y3546D01*
X3730Y3545D02*
X3748Y3545D01*
X4148Y3545D02*
X4169Y3545D01*
X3731Y3544D02*
X3750Y3544D01*
X4147Y3544D02*
X4167Y3544D01*
X3733Y3543D02*
X3751Y3543D01*
X4145Y3543D02*
X4166Y3543D01*
X3735Y3542D02*
X3753Y3542D01*
X4143Y3542D02*
X4164Y3542D01*
X3736Y3541D02*
X3755Y3541D01*
X4141Y3541D02*
X4162Y3541D01*
X3738Y3540D02*
X3757Y3540D01*
X4139Y3540D02*
X4161Y3540D01*
X3740Y3539D02*
X3759Y3539D01*
X4137Y3539D02*
X4159Y3539D01*
X3741Y3538D02*
X3761Y3538D01*
X4135Y3538D02*
X4157Y3538D01*
X3743Y3537D02*
X3763Y3537D01*
X4133Y3537D02*
X4155Y3537D01*
X3745Y3536D02*
X3765Y3536D01*
X4132Y3536D02*
X4154Y3536D01*
X3747Y3535D02*
X3767Y3535D01*
X4130Y3535D02*
X4152Y3535D01*
X3748Y3534D02*
X3769Y3534D01*
X4128Y3534D02*
X4150Y3534D01*
X3750Y3533D02*
X3771Y3533D01*
X4126Y3533D02*
X4148Y3533D01*
X3752Y3532D02*
X3773Y3532D01*
X4124Y3532D02*
X4146Y3532D01*
X3754Y3531D02*
X3775Y3531D01*
X4122Y3531D02*
X4144Y3531D01*
X3755Y3530D02*
X3778Y3530D01*
X4119Y3530D02*
X4142Y3530D01*
X3757Y3529D02*
X3780Y3529D01*
X4117Y3529D02*
X4141Y3529D01*
X3759Y3528D02*
X3782Y3528D01*
X4115Y3528D02*
X4139Y3528D01*
X3761Y3527D02*
X3784Y3527D01*
X4113Y3527D02*
X4136Y3527D01*
X3763Y3526D02*
X3786Y3526D01*
X4111Y3526D02*
X4134Y3526D01*
X3765Y3525D02*
X3789Y3525D01*
X4109Y3525D02*
X4132Y3525D01*
X3767Y3524D02*
X3791Y3524D01*
X4107Y3524D02*
X4130Y3524D01*
X3769Y3523D02*
X3793Y3523D01*
X4104Y3523D02*
X4128Y3523D01*
X3771Y3522D02*
X3795Y3522D01*
X4102Y3522D02*
X4126Y3522D01*
X3773Y3521D02*
X3798Y3521D01*
X4100Y3521D02*
X4124Y3521D01*
X3775Y3520D02*
X3800Y3520D01*
X4097Y3520D02*
X4122Y3520D01*
X3776Y3519D02*
X3802Y3519D01*
X4095Y3519D02*
X4120Y3519D01*
X3779Y3518D02*
X3804Y3518D01*
X4092Y3518D02*
X4117Y3518D01*
X3781Y3517D02*
X3807Y3517D01*
X4090Y3517D02*
X4115Y3517D01*
X3783Y3516D02*
X3809Y3516D01*
X4087Y3516D02*
X4113Y3516D01*
X3785Y3515D02*
X3812Y3515D01*
X4085Y3515D02*
X4110Y3515D01*
X3787Y3514D02*
X3814Y3514D01*
X4082Y3514D02*
X4108Y3514D01*
X3789Y3513D02*
X3817Y3513D01*
X4080Y3513D02*
X4106Y3513D01*
X3792Y3512D02*
X3820Y3512D01*
X4077Y3512D02*
X4103Y3512D01*
X3794Y3511D02*
X3823Y3511D01*
X4074Y3511D02*
X4101Y3511D01*
X3797Y3510D02*
X3826Y3510D01*
X4071Y3510D02*
X4098Y3510D01*
X3800Y3509D02*
X3829Y3509D01*
X4068Y3509D02*
X4096Y3509D01*
X3802Y3508D02*
X3832Y3508D01*
X4065Y3508D02*
X4093Y3508D01*
X3805Y3507D02*
X3835Y3507D01*
X4061Y3507D02*
X4091Y3507D01*
X3808Y3506D02*
X3839Y3506D01*
X4058Y3506D02*
X4088Y3506D01*
X3811Y3505D02*
X3842Y3505D01*
X4055Y3505D02*
X4085Y3505D01*
X3814Y3504D02*
X3846Y3504D01*
X4052Y3504D02*
X4083Y3504D01*
X3817Y3503D02*
X3849Y3503D01*
X4048Y3503D02*
X4080Y3503D01*
X3820Y3502D02*
X3853Y3502D01*
X4045Y3502D02*
X4077Y3502D01*
X3823Y3501D02*
X3857Y3501D01*
X4041Y3501D02*
X4074Y3501D01*
X3826Y3500D02*
X3862Y3500D01*
X4038Y3500D02*
X4071Y3500D01*
X3830Y3499D02*
X3867Y3499D01*
X4033Y3499D02*
X4068Y3499D01*
X3833Y3498D02*
X3873Y3498D01*
X4029Y3498D02*
X4065Y3498D01*
X3837Y3497D02*
X3879Y3497D01*
X4024Y3497D02*
X4062Y3497D01*
X3840Y3496D02*
X3889Y3496D01*
X4018Y3496D02*
X4059Y3496D01*
X3844Y3495D02*
X3902Y3495D01*
X4009Y3495D02*
X4055Y3495D01*
X3848Y3494D02*
X3943Y3494D01*
X3979Y3494D02*
X4052Y3494D01*
X3852Y3493D02*
X4049Y3493D01*
X3856Y3492D02*
X4046Y3492D01*
X3861Y3491D02*
X4042Y3491D01*
X3866Y3490D02*
X4038Y3490D01*
X3871Y3489D02*
X4034Y3489D01*
X3877Y3488D02*
X4029Y3488D01*
X3884Y3487D02*
X4023Y3487D01*
X3891Y3486D02*
X4017Y3486D01*
X3900Y3485D02*
X4009Y3485D01*
X3912Y3484D02*
X3999Y3484D01*
X3926Y3483D02*
X3985Y3483D01*
X3562Y3460D02*
X3595Y3460D01*
X3645Y3460D02*
X3654Y3460D01*
X3699Y3460D02*
X3704Y3460D01*
X3733Y3460D02*
X3746Y3460D01*
X3791Y3460D02*
X3796Y3460D01*
X3843Y3460D02*
X3887Y3460D01*
X3923Y3460D02*
X3962Y3460D01*
X4005Y3460D02*
X4014Y3460D01*
X4059Y3460D02*
X4081Y3460D01*
X4131Y3460D02*
X4178Y3460D01*
X4211Y3460D02*
X4250Y3460D01*
X4275Y3460D02*
X4297Y3460D01*
X3560Y3459D02*
X3597Y3459D01*
X3643Y3459D02*
X3656Y3459D01*
X3698Y3459D02*
X3705Y3459D01*
X3733Y3459D02*
X3746Y3459D01*
X3790Y3459D02*
X3797Y3459D01*
X3842Y3459D02*
X3889Y3459D01*
X3921Y3459D02*
X3962Y3459D01*
X4003Y3459D02*
X4016Y3459D01*
X4058Y3459D02*
X4083Y3459D01*
X4130Y3459D02*
X4178Y3459D01*
X4209Y3459D02*
X4250Y3459D01*
X4274Y3459D02*
X4299Y3459D01*
X3558Y3458D02*
X3598Y3458D01*
X3642Y3458D02*
X3657Y3458D01*
X3697Y3458D02*
X3706Y3458D01*
X3732Y3458D02*
X3746Y3458D01*
X3789Y3458D02*
X3797Y3458D01*
X3841Y3458D02*
X3889Y3458D01*
X3919Y3458D02*
X3962Y3458D01*
X4002Y3458D02*
X4017Y3458D01*
X4057Y3458D02*
X4085Y3458D01*
X4129Y3458D02*
X4178Y3458D01*
X4207Y3458D02*
X4250Y3458D01*
X4273Y3458D02*
X4301Y3458D01*
X3557Y3457D02*
X3599Y3457D01*
X3641Y3457D02*
X3658Y3457D01*
X3697Y3457D02*
X3706Y3457D01*
X3732Y3457D02*
X3746Y3457D01*
X3789Y3457D02*
X3798Y3457D01*
X3841Y3457D02*
X3890Y3457D01*
X3918Y3457D02*
X3962Y3457D01*
X4001Y3457D02*
X4018Y3457D01*
X4057Y3457D02*
X4086Y3457D01*
X4129Y3457D02*
X4178Y3457D01*
X4206Y3457D02*
X4250Y3457D01*
X4273Y3457D02*
X4302Y3457D01*
X3556Y3456D02*
X3600Y3456D01*
X3640Y3456D02*
X3659Y3456D01*
X3697Y3456D02*
X3706Y3456D01*
X3731Y3456D02*
X3746Y3456D01*
X3789Y3456D02*
X3798Y3456D01*
X3841Y3456D02*
X3890Y3456D01*
X3917Y3456D02*
X3962Y3456D01*
X4000Y3456D02*
X4019Y3456D01*
X4057Y3456D02*
X4087Y3456D01*
X4129Y3456D02*
X4178Y3456D01*
X4205Y3456D02*
X4250Y3456D01*
X4273Y3456D02*
X4303Y3456D01*
X3555Y3455D02*
X3600Y3455D01*
X3639Y3455D02*
X3660Y3455D01*
X3697Y3455D02*
X3706Y3455D01*
X3731Y3455D02*
X3746Y3455D01*
X3788Y3455D02*
X3798Y3455D01*
X3841Y3455D02*
X3890Y3455D01*
X3916Y3455D02*
X3962Y3455D01*
X3999Y3455D02*
X4020Y3455D01*
X4057Y3455D02*
X4088Y3455D01*
X4129Y3455D02*
X4178Y3455D01*
X4204Y3455D02*
X4250Y3455D01*
X4273Y3455D02*
X4304Y3455D01*
X3555Y3454D02*
X3601Y3454D01*
X3638Y3454D02*
X3660Y3454D01*
X3697Y3454D02*
X3706Y3454D01*
X3730Y3454D02*
X3746Y3454D01*
X3788Y3454D02*
X3799Y3454D01*
X3841Y3454D02*
X3889Y3454D01*
X3915Y3454D02*
X3962Y3454D01*
X3998Y3454D02*
X4020Y3454D01*
X4057Y3454D02*
X4089Y3454D01*
X4129Y3454D02*
X4178Y3454D01*
X4203Y3454D02*
X4250Y3454D01*
X4273Y3454D02*
X4305Y3454D01*
X3554Y3453D02*
X3601Y3453D01*
X3638Y3453D02*
X3661Y3453D01*
X3697Y3453D02*
X3706Y3453D01*
X3730Y3453D02*
X3746Y3453D01*
X3788Y3453D02*
X3799Y3453D01*
X3842Y3453D02*
X3889Y3453D01*
X3915Y3453D02*
X3962Y3453D01*
X3998Y3453D02*
X4021Y3453D01*
X4058Y3453D02*
X4090Y3453D01*
X4130Y3453D02*
X4178Y3453D01*
X4203Y3453D02*
X4250Y3453D01*
X4274Y3453D02*
X4306Y3453D01*
X3554Y3452D02*
X3602Y3452D01*
X3637Y3452D02*
X3662Y3452D01*
X3697Y3452D02*
X3706Y3452D01*
X3730Y3452D02*
X3746Y3452D01*
X3787Y3452D02*
X3799Y3452D01*
X3843Y3452D02*
X3888Y3452D01*
X3914Y3452D02*
X3962Y3452D01*
X3997Y3452D02*
X4022Y3452D01*
X4059Y3452D02*
X4090Y3452D01*
X4131Y3452D02*
X4178Y3452D01*
X4202Y3452D02*
X4250Y3452D01*
X4275Y3452D02*
X4306Y3452D01*
X3553Y3451D02*
X3602Y3451D01*
X3637Y3451D02*
X3662Y3451D01*
X3697Y3451D02*
X3706Y3451D01*
X3729Y3451D02*
X3746Y3451D01*
X3787Y3451D02*
X3800Y3451D01*
X3845Y3451D02*
X3886Y3451D01*
X3914Y3451D02*
X3962Y3451D01*
X3997Y3451D02*
X4022Y3451D01*
X4061Y3451D02*
X4091Y3451D01*
X4133Y3451D02*
X4178Y3451D01*
X4202Y3451D02*
X4250Y3451D01*
X4277Y3451D02*
X4307Y3451D01*
X3553Y3450D02*
X3563Y3450D01*
X3593Y3450D02*
X3602Y3450D01*
X3636Y3450D02*
X3647Y3450D01*
X3652Y3450D02*
X3662Y3450D01*
X3697Y3450D02*
X3706Y3450D01*
X3729Y3450D02*
X3746Y3450D01*
X3787Y3450D02*
X3800Y3450D01*
X3861Y3450D02*
X3870Y3450D01*
X3914Y3450D02*
X3925Y3450D01*
X3953Y3450D02*
X3962Y3450D01*
X3996Y3450D02*
X4007Y3450D01*
X4012Y3450D02*
X4022Y3450D01*
X4080Y3450D02*
X4092Y3450D01*
X4169Y3450D02*
X4178Y3450D01*
X4202Y3450D02*
X4213Y3450D01*
X4241Y3450D02*
X4250Y3450D01*
X4296Y3450D02*
X4308Y3450D01*
X3553Y3449D02*
X3563Y3449D01*
X3593Y3449D02*
X3602Y3449D01*
X3636Y3449D02*
X3646Y3449D01*
X3653Y3449D02*
X3663Y3449D01*
X3697Y3449D02*
X3706Y3449D01*
X3728Y3449D02*
X3746Y3449D01*
X3787Y3449D02*
X3800Y3449D01*
X3861Y3449D02*
X3870Y3449D01*
X3913Y3449D02*
X3923Y3449D01*
X3953Y3449D02*
X3962Y3449D01*
X3996Y3449D02*
X4006Y3449D01*
X4013Y3449D02*
X4023Y3449D01*
X4081Y3449D02*
X4093Y3449D01*
X4169Y3449D02*
X4178Y3449D01*
X4201Y3449D02*
X4211Y3449D01*
X4241Y3449D02*
X4250Y3449D01*
X4297Y3449D02*
X4309Y3449D01*
X3553Y3448D02*
X3562Y3448D01*
X3592Y3448D02*
X3602Y3448D01*
X3635Y3448D02*
X3646Y3448D01*
X3653Y3448D02*
X3663Y3448D01*
X3697Y3448D02*
X3706Y3448D01*
X3728Y3448D02*
X3746Y3448D01*
X3786Y3448D02*
X3800Y3448D01*
X3861Y3448D02*
X3870Y3448D01*
X3913Y3448D02*
X3923Y3448D01*
X3953Y3448D02*
X3962Y3448D01*
X3995Y3448D02*
X4006Y3448D01*
X4013Y3448D02*
X4023Y3448D01*
X4082Y3448D02*
X4093Y3448D01*
X4169Y3448D02*
X4178Y3448D01*
X4201Y3448D02*
X4211Y3448D01*
X4241Y3448D02*
X4250Y3448D01*
X4298Y3448D02*
X4309Y3448D01*
X3553Y3447D02*
X3562Y3447D01*
X3591Y3447D02*
X3601Y3447D01*
X3635Y3447D02*
X3645Y3447D01*
X3654Y3447D02*
X3664Y3447D01*
X3697Y3447D02*
X3706Y3447D01*
X3727Y3447D02*
X3746Y3447D01*
X3786Y3447D02*
X3801Y3447D01*
X3861Y3447D02*
X3870Y3447D01*
X3913Y3447D02*
X3922Y3447D01*
X3953Y3447D02*
X3962Y3447D01*
X3995Y3447D02*
X4005Y3447D01*
X4014Y3447D02*
X4024Y3447D01*
X4082Y3447D02*
X4094Y3447D01*
X4169Y3447D02*
X4178Y3447D01*
X4201Y3447D02*
X4210Y3447D01*
X4241Y3447D02*
X4250Y3447D01*
X4298Y3447D02*
X4310Y3447D01*
X3553Y3446D02*
X3562Y3446D01*
X3590Y3446D02*
X3601Y3446D01*
X3634Y3446D02*
X3645Y3446D01*
X3654Y3446D02*
X3664Y3446D01*
X3697Y3446D02*
X3706Y3446D01*
X3727Y3446D02*
X3746Y3446D01*
X3786Y3446D02*
X3801Y3446D01*
X3861Y3446D02*
X3870Y3446D01*
X3913Y3446D02*
X3922Y3446D01*
X3953Y3446D02*
X3962Y3446D01*
X3994Y3446D02*
X4005Y3446D01*
X4014Y3446D02*
X4024Y3446D01*
X4083Y3446D02*
X4095Y3446D01*
X4169Y3446D02*
X4178Y3446D01*
X4201Y3446D02*
X4210Y3446D01*
X4241Y3446D02*
X4250Y3446D01*
X4299Y3446D02*
X4311Y3446D01*
X3554Y3445D02*
X3561Y3445D01*
X3589Y3445D02*
X3601Y3445D01*
X3634Y3445D02*
X3644Y3445D01*
X3655Y3445D02*
X3665Y3445D01*
X3697Y3445D02*
X3706Y3445D01*
X3726Y3445D02*
X3746Y3445D01*
X3785Y3445D02*
X3801Y3445D01*
X3861Y3445D02*
X3870Y3445D01*
X3913Y3445D02*
X3922Y3445D01*
X3953Y3445D02*
X3962Y3445D01*
X3994Y3445D02*
X4004Y3445D01*
X4015Y3445D02*
X4025Y3445D01*
X4084Y3445D02*
X4096Y3445D01*
X4169Y3445D02*
X4178Y3445D01*
X4201Y3445D02*
X4210Y3445D01*
X4241Y3445D02*
X4250Y3445D01*
X4300Y3445D02*
X4312Y3445D01*
X3554Y3444D02*
X3561Y3444D01*
X3589Y3444D02*
X3600Y3444D01*
X3633Y3444D02*
X3644Y3444D01*
X3655Y3444D02*
X3665Y3444D01*
X3697Y3444D02*
X3706Y3444D01*
X3726Y3444D02*
X3746Y3444D01*
X3785Y3444D02*
X3802Y3444D01*
X3861Y3444D02*
X3870Y3444D01*
X3913Y3444D02*
X3922Y3444D01*
X3953Y3444D02*
X3962Y3444D01*
X3993Y3444D02*
X4004Y3444D01*
X4015Y3444D02*
X4025Y3444D01*
X4085Y3444D02*
X4097Y3444D01*
X4169Y3444D02*
X4178Y3444D01*
X4201Y3444D02*
X4210Y3444D01*
X4241Y3444D02*
X4250Y3444D01*
X4301Y3444D02*
X4313Y3444D01*
X3556Y3443D02*
X3559Y3443D01*
X3588Y3443D02*
X3600Y3443D01*
X3633Y3443D02*
X3643Y3443D01*
X3656Y3443D02*
X3666Y3443D01*
X3697Y3443D02*
X3706Y3443D01*
X3726Y3443D02*
X3746Y3443D01*
X3785Y3443D02*
X3802Y3443D01*
X3861Y3443D02*
X3870Y3443D01*
X3913Y3443D02*
X3922Y3443D01*
X3953Y3443D02*
X3962Y3443D01*
X3993Y3443D02*
X4003Y3443D01*
X4016Y3443D02*
X4026Y3443D01*
X4085Y3443D02*
X4097Y3443D01*
X4169Y3443D02*
X4178Y3443D01*
X4201Y3443D02*
X4210Y3443D01*
X4241Y3443D02*
X4250Y3443D01*
X4301Y3443D02*
X4313Y3443D01*
X3587Y3442D02*
X3599Y3442D01*
X3632Y3442D02*
X3643Y3442D01*
X3656Y3442D02*
X3666Y3442D01*
X3697Y3442D02*
X3706Y3442D01*
X3725Y3442D02*
X3746Y3442D01*
X3785Y3442D02*
X3802Y3442D01*
X3861Y3442D02*
X3870Y3442D01*
X3913Y3442D02*
X3922Y3442D01*
X3953Y3442D02*
X3962Y3442D01*
X3992Y3442D02*
X4003Y3442D01*
X4016Y3442D02*
X4026Y3442D01*
X4086Y3442D02*
X4098Y3442D01*
X4169Y3442D02*
X4178Y3442D01*
X4201Y3442D02*
X4210Y3442D01*
X4241Y3442D02*
X4250Y3442D01*
X4302Y3442D02*
X4314Y3442D01*
X3586Y3441D02*
X3598Y3441D01*
X3632Y3441D02*
X3642Y3441D01*
X3657Y3441D02*
X3667Y3441D01*
X3697Y3441D02*
X3706Y3441D01*
X3725Y3441D02*
X3735Y3441D01*
X3737Y3441D02*
X3746Y3441D01*
X3784Y3441D02*
X3803Y3441D01*
X3861Y3441D02*
X3870Y3441D01*
X3913Y3441D02*
X3922Y3441D01*
X3953Y3441D02*
X3962Y3441D01*
X3992Y3441D02*
X4002Y3441D01*
X4017Y3441D02*
X4027Y3441D01*
X4087Y3441D02*
X4099Y3441D01*
X4169Y3441D02*
X4178Y3441D01*
X4201Y3441D02*
X4210Y3441D01*
X4241Y3441D02*
X4250Y3441D01*
X4303Y3441D02*
X4315Y3441D01*
X3586Y3440D02*
X3598Y3440D01*
X3631Y3440D02*
X3642Y3440D01*
X3657Y3440D02*
X3667Y3440D01*
X3697Y3440D02*
X3706Y3440D01*
X3724Y3440D02*
X3734Y3440D01*
X3737Y3440D02*
X3746Y3440D01*
X3784Y3440D02*
X3803Y3440D01*
X3861Y3440D02*
X3870Y3440D01*
X3913Y3440D02*
X3922Y3440D01*
X3953Y3440D02*
X3962Y3440D01*
X3991Y3440D02*
X4002Y3440D01*
X4017Y3440D02*
X4027Y3440D01*
X4088Y3440D02*
X4100Y3440D01*
X4169Y3440D02*
X4178Y3440D01*
X4201Y3440D02*
X4210Y3440D01*
X4241Y3440D02*
X4250Y3440D01*
X4304Y3440D02*
X4316Y3440D01*
X3585Y3439D02*
X3597Y3439D01*
X3631Y3439D02*
X3641Y3439D01*
X3658Y3439D02*
X3668Y3439D01*
X3697Y3439D02*
X3706Y3439D01*
X3724Y3439D02*
X3734Y3439D01*
X3737Y3439D02*
X3746Y3439D01*
X3784Y3439D02*
X3803Y3439D01*
X3861Y3439D02*
X3870Y3439D01*
X3913Y3439D02*
X3922Y3439D01*
X3953Y3439D02*
X3962Y3439D01*
X3991Y3439D02*
X4001Y3439D01*
X4018Y3439D02*
X4028Y3439D01*
X4089Y3439D02*
X4100Y3439D01*
X4169Y3439D02*
X4178Y3439D01*
X4201Y3439D02*
X4210Y3439D01*
X4241Y3439D02*
X4250Y3439D01*
X4305Y3439D02*
X4316Y3439D01*
X3584Y3438D02*
X3596Y3438D01*
X3630Y3438D02*
X3641Y3438D01*
X3658Y3438D02*
X3668Y3438D01*
X3697Y3438D02*
X3706Y3438D01*
X3723Y3438D02*
X3734Y3438D01*
X3737Y3438D02*
X3746Y3438D01*
X3783Y3438D02*
X3803Y3438D01*
X3861Y3438D02*
X3870Y3438D01*
X3913Y3438D02*
X3923Y3438D01*
X3953Y3438D02*
X3962Y3438D01*
X3990Y3438D02*
X4001Y3438D01*
X4018Y3438D02*
X4028Y3438D01*
X4089Y3438D02*
X4101Y3438D01*
X4169Y3438D02*
X4178Y3438D01*
X4201Y3438D02*
X4211Y3438D01*
X4241Y3438D02*
X4250Y3438D01*
X4305Y3438D02*
X4317Y3438D01*
X3583Y3437D02*
X3595Y3437D01*
X3630Y3437D02*
X3640Y3437D01*
X3659Y3437D02*
X3669Y3437D01*
X3697Y3437D02*
X3706Y3437D01*
X3723Y3437D02*
X3733Y3437D01*
X3737Y3437D02*
X3746Y3437D01*
X3783Y3437D02*
X3804Y3437D01*
X3861Y3437D02*
X3870Y3437D01*
X3913Y3437D02*
X3924Y3437D01*
X3953Y3437D02*
X3962Y3437D01*
X3990Y3437D02*
X4000Y3437D01*
X4019Y3437D02*
X4029Y3437D01*
X4090Y3437D02*
X4102Y3437D01*
X4169Y3437D02*
X4178Y3437D01*
X4201Y3437D02*
X4212Y3437D01*
X4241Y3437D02*
X4250Y3437D01*
X4306Y3437D02*
X4318Y3437D01*
X3582Y3436D02*
X3594Y3436D01*
X3629Y3436D02*
X3640Y3436D01*
X3659Y3436D02*
X3669Y3436D01*
X3697Y3436D02*
X3706Y3436D01*
X3723Y3436D02*
X3733Y3436D01*
X3737Y3436D02*
X3746Y3436D01*
X3783Y3436D02*
X3792Y3436D01*
X3794Y3436D02*
X3804Y3436D01*
X3861Y3436D02*
X3870Y3436D01*
X3914Y3436D02*
X3925Y3436D01*
X3953Y3436D02*
X3962Y3436D01*
X3989Y3436D02*
X4000Y3436D01*
X4019Y3436D02*
X4029Y3436D01*
X4091Y3436D02*
X4103Y3436D01*
X4169Y3436D02*
X4178Y3436D01*
X4202Y3436D02*
X4213Y3436D01*
X4241Y3436D02*
X4250Y3436D01*
X4307Y3436D02*
X4319Y3436D01*
X3582Y3435D02*
X3594Y3435D01*
X3629Y3435D02*
X3639Y3435D01*
X3660Y3435D02*
X3670Y3435D01*
X3697Y3435D02*
X3706Y3435D01*
X3722Y3435D02*
X3732Y3435D01*
X3737Y3435D02*
X3746Y3435D01*
X3783Y3435D02*
X3792Y3435D01*
X3795Y3435D02*
X3804Y3435D01*
X3861Y3435D02*
X3870Y3435D01*
X3914Y3435D02*
X3962Y3435D01*
X3989Y3435D02*
X3999Y3435D01*
X4020Y3435D02*
X4030Y3435D01*
X4092Y3435D02*
X4103Y3435D01*
X4169Y3435D02*
X4178Y3435D01*
X4202Y3435D02*
X4250Y3435D01*
X4308Y3435D02*
X4319Y3435D01*
X3581Y3434D02*
X3593Y3434D01*
X3628Y3434D02*
X3639Y3434D01*
X3660Y3434D02*
X3670Y3434D01*
X3697Y3434D02*
X3706Y3434D01*
X3722Y3434D02*
X3732Y3434D01*
X3737Y3434D02*
X3746Y3434D01*
X3782Y3434D02*
X3792Y3434D01*
X3795Y3434D02*
X3805Y3434D01*
X3861Y3434D02*
X3870Y3434D01*
X3914Y3434D02*
X3962Y3434D01*
X3988Y3434D02*
X3999Y3434D01*
X4020Y3434D02*
X4030Y3434D01*
X4093Y3434D02*
X4104Y3434D01*
X4169Y3434D02*
X4178Y3434D01*
X4202Y3434D02*
X4250Y3434D01*
X4309Y3434D02*
X4320Y3434D01*
X3580Y3433D02*
X3592Y3433D01*
X3628Y3433D02*
X3638Y3433D01*
X3661Y3433D02*
X3671Y3433D01*
X3697Y3433D02*
X3706Y3433D01*
X3721Y3433D02*
X3731Y3433D01*
X3737Y3433D02*
X3746Y3433D01*
X3782Y3433D02*
X3792Y3433D01*
X3795Y3433D02*
X3805Y3433D01*
X3861Y3433D02*
X3870Y3433D01*
X3915Y3433D02*
X3962Y3433D01*
X3988Y3433D02*
X3998Y3433D01*
X4021Y3433D02*
X4031Y3433D01*
X4093Y3433D02*
X4104Y3433D01*
X4169Y3433D02*
X4178Y3433D01*
X4203Y3433D02*
X4250Y3433D01*
X4309Y3433D02*
X4320Y3433D01*
X3579Y3432D02*
X3591Y3432D01*
X3627Y3432D02*
X3638Y3432D01*
X3661Y3432D02*
X3671Y3432D01*
X3697Y3432D02*
X3706Y3432D01*
X3721Y3432D02*
X3731Y3432D01*
X3737Y3432D02*
X3746Y3432D01*
X3782Y3432D02*
X3791Y3432D01*
X3796Y3432D02*
X3805Y3432D01*
X3861Y3432D02*
X3870Y3432D01*
X3916Y3432D02*
X3962Y3432D01*
X3987Y3432D02*
X3998Y3432D01*
X4021Y3432D02*
X4031Y3432D01*
X4094Y3432D02*
X4105Y3432D01*
X4169Y3432D02*
X4178Y3432D01*
X4204Y3432D02*
X4250Y3432D01*
X4310Y3432D02*
X4321Y3432D01*
X3579Y3431D02*
X3591Y3431D01*
X3627Y3431D02*
X3637Y3431D01*
X3662Y3431D02*
X3672Y3431D01*
X3697Y3431D02*
X3706Y3431D01*
X3720Y3431D02*
X3730Y3431D01*
X3737Y3431D02*
X3746Y3431D01*
X3781Y3431D02*
X3791Y3431D01*
X3796Y3431D02*
X3805Y3431D01*
X3861Y3431D02*
X3870Y3431D01*
X3916Y3431D02*
X3962Y3431D01*
X3987Y3431D02*
X3997Y3431D01*
X4022Y3431D02*
X4032Y3431D01*
X4095Y3431D02*
X4105Y3431D01*
X4169Y3431D02*
X4178Y3431D01*
X4204Y3431D02*
X4250Y3431D01*
X4311Y3431D02*
X4321Y3431D01*
X3578Y3430D02*
X3590Y3430D01*
X3627Y3430D02*
X3637Y3430D01*
X3662Y3430D02*
X3672Y3430D01*
X3697Y3430D02*
X3706Y3430D01*
X3720Y3430D02*
X3730Y3430D01*
X3737Y3430D02*
X3746Y3430D01*
X3781Y3430D02*
X3791Y3430D01*
X3796Y3430D02*
X3806Y3430D01*
X3861Y3430D02*
X3870Y3430D01*
X3917Y3430D02*
X3962Y3430D01*
X3987Y3430D02*
X3997Y3430D01*
X4022Y3430D02*
X4032Y3430D01*
X4095Y3430D02*
X4105Y3430D01*
X4169Y3430D02*
X4178Y3430D01*
X4205Y3430D02*
X4250Y3430D01*
X4311Y3430D02*
X4321Y3430D01*
X3577Y3429D02*
X3589Y3429D01*
X3626Y3429D02*
X3636Y3429D01*
X3663Y3429D02*
X3673Y3429D01*
X3697Y3429D02*
X3706Y3429D01*
X3719Y3429D02*
X3730Y3429D01*
X3737Y3429D02*
X3746Y3429D01*
X3781Y3429D02*
X3790Y3429D01*
X3797Y3429D02*
X3806Y3429D01*
X3861Y3429D02*
X3870Y3429D01*
X3918Y3429D02*
X3962Y3429D01*
X3986Y3429D02*
X3996Y3429D01*
X4023Y3429D02*
X4033Y3429D01*
X4096Y3429D02*
X4105Y3429D01*
X4169Y3429D02*
X4178Y3429D01*
X4206Y3429D02*
X4250Y3429D01*
X4312Y3429D02*
X4321Y3429D01*
X3576Y3428D02*
X3588Y3428D01*
X3626Y3428D02*
X3636Y3428D01*
X3663Y3428D02*
X3673Y3428D01*
X3697Y3428D02*
X3706Y3428D01*
X3719Y3428D02*
X3729Y3428D01*
X3737Y3428D02*
X3746Y3428D01*
X3781Y3428D02*
X3790Y3428D01*
X3797Y3428D02*
X3806Y3428D01*
X3861Y3428D02*
X3870Y3428D01*
X3920Y3428D02*
X3962Y3428D01*
X3986Y3428D02*
X3996Y3428D01*
X4023Y3428D02*
X4033Y3428D01*
X4096Y3428D02*
X4106Y3428D01*
X4169Y3428D02*
X4178Y3428D01*
X4208Y3428D02*
X4250Y3428D01*
X4312Y3428D02*
X4322Y3428D01*
X3575Y3427D02*
X3587Y3427D01*
X3626Y3427D02*
X3635Y3427D01*
X3664Y3427D02*
X3673Y3427D01*
X3697Y3427D02*
X3706Y3427D01*
X3719Y3427D02*
X3729Y3427D01*
X3737Y3427D02*
X3746Y3427D01*
X3780Y3427D02*
X3790Y3427D01*
X3797Y3427D02*
X3807Y3427D01*
X3861Y3427D02*
X3870Y3427D01*
X3921Y3427D02*
X3962Y3427D01*
X3986Y3427D02*
X3995Y3427D01*
X4024Y3427D02*
X4033Y3427D01*
X4096Y3427D02*
X4106Y3427D01*
X4154Y3427D02*
X4178Y3427D01*
X4209Y3427D02*
X4250Y3427D01*
X4312Y3427D02*
X4322Y3427D01*
X3575Y3426D02*
X3587Y3426D01*
X3625Y3426D02*
X3635Y3426D01*
X3664Y3426D02*
X3673Y3426D01*
X3697Y3426D02*
X3706Y3426D01*
X3718Y3426D02*
X3728Y3426D01*
X3737Y3426D02*
X3746Y3426D01*
X3780Y3426D02*
X3789Y3426D01*
X3797Y3426D02*
X3807Y3426D01*
X3861Y3426D02*
X3870Y3426D01*
X3924Y3426D02*
X3962Y3426D01*
X3985Y3426D02*
X3995Y3426D01*
X4024Y3426D02*
X4033Y3426D01*
X4097Y3426D02*
X4106Y3426D01*
X4151Y3426D02*
X4178Y3426D01*
X4212Y3426D02*
X4250Y3426D01*
X4313Y3426D02*
X4322Y3426D01*
X3574Y3425D02*
X3586Y3425D01*
X3625Y3425D02*
X3634Y3425D01*
X3664Y3425D02*
X3674Y3425D01*
X3697Y3425D02*
X3706Y3425D01*
X3718Y3425D02*
X3728Y3425D01*
X3737Y3425D02*
X3746Y3425D01*
X3780Y3425D02*
X3789Y3425D01*
X3798Y3425D02*
X3807Y3425D01*
X3861Y3425D02*
X3870Y3425D01*
X3934Y3425D02*
X3945Y3425D01*
X3953Y3425D02*
X3962Y3425D01*
X3985Y3425D02*
X3994Y3425D01*
X4024Y3425D02*
X4034Y3425D01*
X4097Y3425D02*
X4106Y3425D01*
X4150Y3425D02*
X4178Y3425D01*
X4222Y3425D02*
X4233Y3425D01*
X4241Y3425D02*
X4250Y3425D01*
X4313Y3425D02*
X4322Y3425D01*
X3573Y3424D02*
X3585Y3424D01*
X3625Y3424D02*
X3634Y3424D01*
X3664Y3424D02*
X3674Y3424D01*
X3697Y3424D02*
X3706Y3424D01*
X3717Y3424D02*
X3727Y3424D01*
X3737Y3424D02*
X3746Y3424D01*
X3779Y3424D02*
X3789Y3424D01*
X3798Y3424D02*
X3808Y3424D01*
X3861Y3424D02*
X3870Y3424D01*
X3933Y3424D02*
X3944Y3424D01*
X3953Y3424D02*
X3962Y3424D01*
X3985Y3424D02*
X3994Y3424D01*
X4024Y3424D02*
X4034Y3424D01*
X4097Y3424D02*
X4106Y3424D01*
X4149Y3424D02*
X4178Y3424D01*
X4221Y3424D02*
X4232Y3424D01*
X4241Y3424D02*
X4250Y3424D01*
X4313Y3424D02*
X4322Y3424D01*
X3572Y3423D02*
X3584Y3423D01*
X3625Y3423D02*
X3634Y3423D01*
X3665Y3423D02*
X3674Y3423D01*
X3697Y3423D02*
X3706Y3423D01*
X3717Y3423D02*
X3727Y3423D01*
X3737Y3423D02*
X3746Y3423D01*
X3779Y3423D02*
X3789Y3423D01*
X3798Y3423D02*
X3808Y3423D01*
X3861Y3423D02*
X3870Y3423D01*
X3933Y3423D02*
X3943Y3423D01*
X3953Y3423D02*
X3962Y3423D01*
X3985Y3423D02*
X3994Y3423D01*
X4025Y3423D02*
X4034Y3423D01*
X4097Y3423D02*
X4106Y3423D01*
X4149Y3423D02*
X4178Y3423D01*
X4221Y3423D02*
X4231Y3423D01*
X4241Y3423D02*
X4250Y3423D01*
X4313Y3423D02*
X4322Y3423D01*
X3572Y3422D02*
X3584Y3422D01*
X3625Y3422D02*
X3634Y3422D01*
X3665Y3422D02*
X3674Y3422D01*
X3697Y3422D02*
X3706Y3422D01*
X3716Y3422D02*
X3726Y3422D01*
X3737Y3422D02*
X3746Y3422D01*
X3779Y3422D02*
X3788Y3422D01*
X3799Y3422D02*
X3808Y3422D01*
X3861Y3422D02*
X3870Y3422D01*
X3932Y3422D02*
X3943Y3422D01*
X3953Y3422D02*
X3962Y3422D01*
X3985Y3422D02*
X3994Y3422D01*
X4025Y3422D02*
X4034Y3422D01*
X4097Y3422D02*
X4106Y3422D01*
X4149Y3422D02*
X4178Y3422D01*
X4220Y3422D02*
X4231Y3422D01*
X4241Y3422D02*
X4250Y3422D01*
X4313Y3422D02*
X4322Y3422D01*
X3571Y3421D02*
X3583Y3421D01*
X3625Y3421D02*
X3634Y3421D01*
X3665Y3421D02*
X3674Y3421D01*
X3697Y3421D02*
X3706Y3421D01*
X3716Y3421D02*
X3726Y3421D01*
X3737Y3421D02*
X3746Y3421D01*
X3778Y3421D02*
X3788Y3421D01*
X3799Y3421D02*
X3808Y3421D01*
X3861Y3421D02*
X3870Y3421D01*
X3931Y3421D02*
X3942Y3421D01*
X3953Y3421D02*
X3962Y3421D01*
X3985Y3421D02*
X3994Y3421D01*
X4025Y3421D02*
X4034Y3421D01*
X4097Y3421D02*
X4106Y3421D01*
X4149Y3421D02*
X4178Y3421D01*
X4219Y3421D02*
X4230Y3421D01*
X4241Y3421D02*
X4250Y3421D01*
X4313Y3421D02*
X4322Y3421D01*
X3570Y3420D02*
X3582Y3420D01*
X3625Y3420D02*
X3634Y3420D01*
X3664Y3420D02*
X3674Y3420D01*
X3697Y3420D02*
X3706Y3420D01*
X3716Y3420D02*
X3726Y3420D01*
X3737Y3420D02*
X3746Y3420D01*
X3778Y3420D02*
X3788Y3420D01*
X3799Y3420D02*
X3809Y3420D01*
X3861Y3420D02*
X3870Y3420D01*
X3931Y3420D02*
X3942Y3420D01*
X3953Y3420D02*
X3962Y3420D01*
X3985Y3420D02*
X3994Y3420D01*
X4024Y3420D02*
X4034Y3420D01*
X4097Y3420D02*
X4106Y3420D01*
X4149Y3420D02*
X4178Y3420D01*
X4219Y3420D02*
X4230Y3420D01*
X4241Y3420D02*
X4250Y3420D01*
X4313Y3420D02*
X4322Y3420D01*
X3569Y3419D02*
X3581Y3419D01*
X3625Y3419D02*
X3634Y3419D01*
X3664Y3419D02*
X3674Y3419D01*
X3697Y3419D02*
X3706Y3419D01*
X3715Y3419D02*
X3725Y3419D01*
X3737Y3419D02*
X3746Y3419D01*
X3778Y3419D02*
X3787Y3419D01*
X3799Y3419D02*
X3809Y3419D01*
X3861Y3419D02*
X3870Y3419D01*
X3930Y3419D02*
X3941Y3419D01*
X3953Y3419D02*
X3962Y3419D01*
X3985Y3419D02*
X3994Y3419D01*
X4024Y3419D02*
X4034Y3419D01*
X4097Y3419D02*
X4106Y3419D01*
X4150Y3419D02*
X4178Y3419D01*
X4218Y3419D02*
X4229Y3419D01*
X4241Y3419D02*
X4250Y3419D01*
X4313Y3419D02*
X4322Y3419D01*
X3568Y3418D02*
X3580Y3418D01*
X3625Y3418D02*
X3635Y3418D01*
X3664Y3418D02*
X3673Y3418D01*
X3697Y3418D02*
X3706Y3418D01*
X3715Y3418D02*
X3725Y3418D01*
X3737Y3418D02*
X3746Y3418D01*
X3778Y3418D02*
X3787Y3418D01*
X3800Y3418D02*
X3809Y3418D01*
X3861Y3418D02*
X3870Y3418D01*
X3930Y3418D02*
X3940Y3418D01*
X3953Y3418D02*
X3962Y3418D01*
X3985Y3418D02*
X3995Y3418D01*
X4024Y3418D02*
X4033Y3418D01*
X4057Y3418D02*
X4078Y3418D01*
X4097Y3418D02*
X4106Y3418D01*
X4151Y3418D02*
X4178Y3418D01*
X4218Y3418D02*
X4228Y3418D01*
X4241Y3418D02*
X4250Y3418D01*
X4273Y3418D02*
X4294Y3418D01*
X4313Y3418D02*
X4322Y3418D01*
X3568Y3417D02*
X3580Y3417D01*
X3626Y3417D02*
X3635Y3417D01*
X3664Y3417D02*
X3673Y3417D01*
X3697Y3417D02*
X3706Y3417D01*
X3714Y3417D02*
X3724Y3417D01*
X3737Y3417D02*
X3746Y3417D01*
X3777Y3417D02*
X3787Y3417D01*
X3800Y3417D02*
X3810Y3417D01*
X3861Y3417D02*
X3870Y3417D01*
X3929Y3417D02*
X3940Y3417D01*
X3953Y3417D02*
X3962Y3417D01*
X3986Y3417D02*
X3995Y3417D01*
X4024Y3417D02*
X4033Y3417D01*
X4057Y3417D02*
X4079Y3417D01*
X4097Y3417D02*
X4106Y3417D01*
X4153Y3417D02*
X4178Y3417D01*
X4217Y3417D02*
X4228Y3417D01*
X4241Y3417D02*
X4250Y3417D01*
X4273Y3417D02*
X4295Y3417D01*
X4313Y3417D02*
X4322Y3417D01*
X3567Y3416D02*
X3579Y3416D01*
X3626Y3416D02*
X3636Y3416D01*
X3663Y3416D02*
X3673Y3416D01*
X3697Y3416D02*
X3706Y3416D01*
X3714Y3416D02*
X3724Y3416D01*
X3737Y3416D02*
X3746Y3416D01*
X3777Y3416D02*
X3787Y3416D01*
X3800Y3416D02*
X3810Y3416D01*
X3861Y3416D02*
X3870Y3416D01*
X3929Y3416D02*
X3939Y3416D01*
X3953Y3416D02*
X3962Y3416D01*
X3986Y3416D02*
X3996Y3416D01*
X4023Y3416D02*
X4033Y3416D01*
X4057Y3416D02*
X4080Y3416D01*
X4097Y3416D02*
X4106Y3416D01*
X4169Y3416D02*
X4178Y3416D01*
X4217Y3416D02*
X4227Y3416D01*
X4241Y3416D02*
X4250Y3416D01*
X4273Y3416D02*
X4296Y3416D01*
X4313Y3416D02*
X4322Y3416D01*
X3566Y3415D02*
X3578Y3415D01*
X3626Y3415D02*
X3636Y3415D01*
X3663Y3415D02*
X3673Y3415D01*
X3697Y3415D02*
X3706Y3415D01*
X3713Y3415D02*
X3723Y3415D01*
X3737Y3415D02*
X3746Y3415D01*
X3777Y3415D02*
X3786Y3415D01*
X3801Y3415D02*
X3810Y3415D01*
X3861Y3415D02*
X3870Y3415D01*
X3928Y3415D02*
X3939Y3415D01*
X3953Y3415D02*
X3962Y3415D01*
X3986Y3415D02*
X3996Y3415D01*
X4023Y3415D02*
X4033Y3415D01*
X4057Y3415D02*
X4081Y3415D01*
X4097Y3415D02*
X4106Y3415D01*
X4169Y3415D02*
X4178Y3415D01*
X4216Y3415D02*
X4227Y3415D01*
X4241Y3415D02*
X4250Y3415D01*
X4273Y3415D02*
X4297Y3415D01*
X4313Y3415D02*
X4322Y3415D01*
X3565Y3414D02*
X3577Y3414D01*
X3626Y3414D02*
X3636Y3414D01*
X3662Y3414D02*
X3672Y3414D01*
X3697Y3414D02*
X3706Y3414D01*
X3713Y3414D02*
X3723Y3414D01*
X3737Y3414D02*
X3746Y3414D01*
X3776Y3414D02*
X3786Y3414D01*
X3801Y3414D02*
X3810Y3414D01*
X3861Y3414D02*
X3870Y3414D01*
X3927Y3414D02*
X3938Y3414D01*
X3953Y3414D02*
X3962Y3414D01*
X3986Y3414D02*
X3996Y3414D01*
X4022Y3414D02*
X4032Y3414D01*
X4057Y3414D02*
X4081Y3414D01*
X4097Y3414D02*
X4106Y3414D01*
X4169Y3414D02*
X4178Y3414D01*
X4215Y3414D02*
X4226Y3414D01*
X4241Y3414D02*
X4250Y3414D01*
X4273Y3414D02*
X4297Y3414D01*
X4313Y3414D02*
X4322Y3414D01*
X3565Y3413D02*
X3577Y3413D01*
X3627Y3413D02*
X3637Y3413D01*
X3662Y3413D02*
X3672Y3413D01*
X3697Y3413D02*
X3706Y3413D01*
X3712Y3413D02*
X3723Y3413D01*
X3737Y3413D02*
X3746Y3413D01*
X3776Y3413D02*
X3786Y3413D01*
X3801Y3413D02*
X3811Y3413D01*
X3861Y3413D02*
X3870Y3413D01*
X3927Y3413D02*
X3938Y3413D01*
X3953Y3413D02*
X3962Y3413D01*
X3987Y3413D02*
X3997Y3413D01*
X4022Y3413D02*
X4032Y3413D01*
X4057Y3413D02*
X4081Y3413D01*
X4097Y3413D02*
X4106Y3413D01*
X4169Y3413D02*
X4178Y3413D01*
X4215Y3413D02*
X4226Y3413D01*
X4241Y3413D02*
X4250Y3413D01*
X4273Y3413D02*
X4297Y3413D01*
X4313Y3413D02*
X4322Y3413D01*
X3564Y3412D02*
X3576Y3412D01*
X3627Y3412D02*
X3637Y3412D01*
X3661Y3412D02*
X3672Y3412D01*
X3697Y3412D02*
X3706Y3412D01*
X3712Y3412D02*
X3722Y3412D01*
X3737Y3412D02*
X3746Y3412D01*
X3776Y3412D02*
X3785Y3412D01*
X3801Y3412D02*
X3811Y3412D01*
X3861Y3412D02*
X3870Y3412D01*
X3926Y3412D02*
X3937Y3412D01*
X3953Y3412D02*
X3962Y3412D01*
X3987Y3412D02*
X3997Y3412D01*
X4021Y3412D02*
X4032Y3412D01*
X4057Y3412D02*
X4081Y3412D01*
X4097Y3412D02*
X4106Y3412D01*
X4169Y3412D02*
X4178Y3412D01*
X4214Y3412D02*
X4225Y3412D01*
X4241Y3412D02*
X4250Y3412D01*
X4273Y3412D02*
X4297Y3412D01*
X4313Y3412D02*
X4322Y3412D01*
X3563Y3411D02*
X3575Y3411D01*
X3628Y3411D02*
X3638Y3411D01*
X3661Y3411D02*
X3671Y3411D01*
X3697Y3411D02*
X3706Y3411D01*
X3712Y3411D02*
X3722Y3411D01*
X3737Y3411D02*
X3746Y3411D01*
X3776Y3411D02*
X3785Y3411D01*
X3802Y3411D02*
X3811Y3411D01*
X3861Y3411D02*
X3870Y3411D01*
X3926Y3411D02*
X3936Y3411D01*
X3953Y3411D02*
X3962Y3411D01*
X3988Y3411D02*
X3998Y3411D01*
X4021Y3411D02*
X4031Y3411D01*
X4057Y3411D02*
X4080Y3411D01*
X4097Y3411D02*
X4106Y3411D01*
X4169Y3411D02*
X4178Y3411D01*
X4214Y3411D02*
X4224Y3411D01*
X4241Y3411D02*
X4250Y3411D01*
X4273Y3411D02*
X4296Y3411D01*
X4313Y3411D02*
X4322Y3411D01*
X3562Y3410D02*
X3574Y3410D01*
X3628Y3410D02*
X3638Y3410D01*
X3660Y3410D02*
X3671Y3410D01*
X3697Y3410D02*
X3706Y3410D01*
X3711Y3410D02*
X3721Y3410D01*
X3737Y3410D02*
X3746Y3410D01*
X3775Y3410D02*
X3812Y3410D01*
X3861Y3410D02*
X3870Y3410D01*
X3925Y3410D02*
X3936Y3410D01*
X3953Y3410D02*
X3962Y3410D01*
X3988Y3410D02*
X3998Y3410D01*
X4020Y3410D02*
X4031Y3410D01*
X4057Y3410D02*
X4080Y3410D01*
X4097Y3410D02*
X4106Y3410D01*
X4169Y3410D02*
X4178Y3410D01*
X4213Y3410D02*
X4224Y3410D01*
X4241Y3410D02*
X4250Y3410D01*
X4273Y3410D02*
X4296Y3410D01*
X4313Y3410D02*
X4322Y3410D01*
X3561Y3409D02*
X3573Y3409D01*
X3629Y3409D02*
X3639Y3409D01*
X3660Y3409D02*
X3670Y3409D01*
X3697Y3409D02*
X3706Y3409D01*
X3711Y3409D02*
X3721Y3409D01*
X3737Y3409D02*
X3746Y3409D01*
X3775Y3409D02*
X3812Y3409D01*
X3861Y3409D02*
X3870Y3409D01*
X3924Y3409D02*
X3935Y3409D01*
X3953Y3409D02*
X3962Y3409D01*
X3989Y3409D02*
X3999Y3409D01*
X4020Y3409D02*
X4030Y3409D01*
X4057Y3409D02*
X4078Y3409D01*
X4097Y3409D02*
X4106Y3409D01*
X4169Y3409D02*
X4178Y3409D01*
X4212Y3409D02*
X4223Y3409D01*
X4241Y3409D02*
X4250Y3409D01*
X4273Y3409D02*
X4294Y3409D01*
X4313Y3409D02*
X4322Y3409D01*
X3561Y3408D02*
X3573Y3408D01*
X3629Y3408D02*
X3639Y3408D01*
X3659Y3408D02*
X3670Y3408D01*
X3697Y3408D02*
X3706Y3408D01*
X3710Y3408D02*
X3720Y3408D01*
X3737Y3408D02*
X3746Y3408D01*
X3775Y3408D02*
X3812Y3408D01*
X3861Y3408D02*
X3870Y3408D01*
X3924Y3408D02*
X3935Y3408D01*
X3953Y3408D02*
X3962Y3408D01*
X3989Y3408D02*
X3999Y3408D01*
X4019Y3408D02*
X4030Y3408D01*
X4057Y3408D02*
X4066Y3408D01*
X4097Y3408D02*
X4106Y3408D01*
X4169Y3408D02*
X4178Y3408D01*
X4212Y3408D02*
X4223Y3408D01*
X4241Y3408D02*
X4250Y3408D01*
X4273Y3408D02*
X4282Y3408D01*
X4313Y3408D02*
X4322Y3408D01*
X3560Y3407D02*
X3572Y3407D01*
X3630Y3407D02*
X3640Y3407D01*
X3659Y3407D02*
X3669Y3407D01*
X3697Y3407D02*
X3706Y3407D01*
X3710Y3407D02*
X3720Y3407D01*
X3737Y3407D02*
X3746Y3407D01*
X3774Y3407D02*
X3812Y3407D01*
X3861Y3407D02*
X3870Y3407D01*
X3923Y3407D02*
X3934Y3407D01*
X3953Y3407D02*
X3962Y3407D01*
X3990Y3407D02*
X4000Y3407D01*
X4019Y3407D02*
X4029Y3407D01*
X4057Y3407D02*
X4066Y3407D01*
X4097Y3407D02*
X4106Y3407D01*
X4169Y3407D02*
X4178Y3407D01*
X4211Y3407D02*
X4222Y3407D01*
X4241Y3407D02*
X4250Y3407D01*
X4273Y3407D02*
X4282Y3407D01*
X4313Y3407D02*
X4322Y3407D01*
X3559Y3406D02*
X3571Y3406D01*
X3630Y3406D02*
X3640Y3406D01*
X3658Y3406D02*
X3669Y3406D01*
X3697Y3406D02*
X3706Y3406D01*
X3709Y3406D02*
X3719Y3406D01*
X3737Y3406D02*
X3746Y3406D01*
X3774Y3406D02*
X3813Y3406D01*
X3861Y3406D02*
X3870Y3406D01*
X3923Y3406D02*
X3933Y3406D01*
X3953Y3406D02*
X3962Y3406D01*
X3990Y3406D02*
X4000Y3406D01*
X4018Y3406D02*
X4029Y3406D01*
X4057Y3406D02*
X4066Y3406D01*
X4097Y3406D02*
X4106Y3406D01*
X4169Y3406D02*
X4178Y3406D01*
X4211Y3406D02*
X4221Y3406D01*
X4241Y3406D02*
X4250Y3406D01*
X4273Y3406D02*
X4282Y3406D01*
X4313Y3406D02*
X4322Y3406D01*
X3558Y3405D02*
X3570Y3405D01*
X3631Y3405D02*
X3641Y3405D01*
X3658Y3405D02*
X3668Y3405D01*
X3697Y3405D02*
X3706Y3405D01*
X3709Y3405D02*
X3719Y3405D01*
X3737Y3405D02*
X3746Y3405D01*
X3774Y3405D02*
X3813Y3405D01*
X3861Y3405D02*
X3870Y3405D01*
X3922Y3405D02*
X3933Y3405D01*
X3953Y3405D02*
X3962Y3405D01*
X3991Y3405D02*
X4001Y3405D01*
X4018Y3405D02*
X4028Y3405D01*
X4057Y3405D02*
X4066Y3405D01*
X4097Y3405D02*
X4106Y3405D01*
X4169Y3405D02*
X4178Y3405D01*
X4210Y3405D02*
X4221Y3405D01*
X4241Y3405D02*
X4250Y3405D01*
X4273Y3405D02*
X4282Y3405D01*
X4313Y3405D02*
X4322Y3405D01*
X3558Y3404D02*
X3570Y3404D01*
X3631Y3404D02*
X3641Y3404D01*
X3657Y3404D02*
X3668Y3404D01*
X3697Y3404D02*
X3706Y3404D01*
X3708Y3404D02*
X3719Y3404D01*
X3737Y3404D02*
X3746Y3404D01*
X3774Y3404D02*
X3813Y3404D01*
X3861Y3404D02*
X3870Y3404D01*
X3922Y3404D02*
X3932Y3404D01*
X3953Y3404D02*
X3962Y3404D01*
X3991Y3404D02*
X4001Y3404D01*
X4017Y3404D02*
X4028Y3404D01*
X4057Y3404D02*
X4066Y3404D01*
X4097Y3404D02*
X4106Y3404D01*
X4169Y3404D02*
X4178Y3404D01*
X4210Y3404D02*
X4220Y3404D01*
X4241Y3404D02*
X4250Y3404D01*
X4273Y3404D02*
X4282Y3404D01*
X4313Y3404D02*
X4322Y3404D01*
X3557Y3403D02*
X3569Y3403D01*
X3632Y3403D02*
X3642Y3403D01*
X3657Y3403D02*
X3667Y3403D01*
X3697Y3403D02*
X3706Y3403D01*
X3708Y3403D02*
X3718Y3403D01*
X3737Y3403D02*
X3746Y3403D01*
X3773Y3403D02*
X3814Y3403D01*
X3861Y3403D02*
X3870Y3403D01*
X3921Y3403D02*
X3932Y3403D01*
X3953Y3403D02*
X3962Y3403D01*
X3992Y3403D02*
X4002Y3403D01*
X4017Y3403D02*
X4027Y3403D01*
X4057Y3403D02*
X4066Y3403D01*
X4097Y3403D02*
X4106Y3403D01*
X4169Y3403D02*
X4178Y3403D01*
X4209Y3403D02*
X4220Y3403D01*
X4241Y3403D02*
X4250Y3403D01*
X4273Y3403D02*
X4282Y3403D01*
X4313Y3403D02*
X4322Y3403D01*
X3556Y3402D02*
X3568Y3402D01*
X3632Y3402D02*
X3642Y3402D01*
X3656Y3402D02*
X3667Y3402D01*
X3697Y3402D02*
X3706Y3402D01*
X3708Y3402D02*
X3718Y3402D01*
X3737Y3402D02*
X3746Y3402D01*
X3773Y3402D02*
X3814Y3402D01*
X3861Y3402D02*
X3870Y3402D01*
X3920Y3402D02*
X3931Y3402D01*
X3953Y3402D02*
X3962Y3402D01*
X3992Y3402D02*
X4002Y3402D01*
X4016Y3402D02*
X4027Y3402D01*
X4057Y3402D02*
X4066Y3402D01*
X4097Y3402D02*
X4106Y3402D01*
X4169Y3402D02*
X4178Y3402D01*
X4208Y3402D02*
X4219Y3402D01*
X4241Y3402D02*
X4250Y3402D01*
X4273Y3402D02*
X4282Y3402D01*
X4313Y3402D02*
X4322Y3402D01*
X3555Y3401D02*
X3567Y3401D01*
X3596Y3401D02*
X3599Y3401D01*
X3633Y3401D02*
X3643Y3401D01*
X3656Y3401D02*
X3666Y3401D01*
X3697Y3401D02*
X3717Y3401D01*
X3737Y3401D02*
X3746Y3401D01*
X3773Y3401D02*
X3814Y3401D01*
X3861Y3401D02*
X3870Y3401D01*
X3920Y3401D02*
X3931Y3401D01*
X3953Y3401D02*
X3962Y3401D01*
X3993Y3401D02*
X4003Y3401D01*
X4016Y3401D02*
X4026Y3401D01*
X4057Y3401D02*
X4066Y3401D01*
X4097Y3401D02*
X4106Y3401D01*
X4169Y3401D02*
X4178Y3401D01*
X4208Y3401D02*
X4219Y3401D01*
X4241Y3401D02*
X4250Y3401D01*
X4273Y3401D02*
X4282Y3401D01*
X4313Y3401D02*
X4322Y3401D01*
X3555Y3400D02*
X3566Y3400D01*
X3594Y3400D02*
X3600Y3400D01*
X3633Y3400D02*
X3643Y3400D01*
X3655Y3400D02*
X3666Y3400D01*
X3697Y3400D02*
X3717Y3400D01*
X3737Y3400D02*
X3746Y3400D01*
X3772Y3400D02*
X3815Y3400D01*
X3861Y3400D02*
X3870Y3400D01*
X3919Y3400D02*
X3930Y3400D01*
X3953Y3400D02*
X3962Y3400D01*
X3993Y3400D02*
X4003Y3400D01*
X4015Y3400D02*
X4026Y3400D01*
X4057Y3400D02*
X4066Y3400D01*
X4097Y3400D02*
X4106Y3400D01*
X4169Y3400D02*
X4178Y3400D01*
X4207Y3400D02*
X4218Y3400D01*
X4241Y3400D02*
X4250Y3400D01*
X4273Y3400D02*
X4282Y3400D01*
X4313Y3400D02*
X4322Y3400D01*
X3554Y3399D02*
X3566Y3399D01*
X3593Y3399D02*
X3601Y3399D01*
X3634Y3399D02*
X3644Y3399D01*
X3655Y3399D02*
X3665Y3399D01*
X3697Y3399D02*
X3716Y3399D01*
X3737Y3399D02*
X3746Y3399D01*
X3772Y3399D02*
X3781Y3399D01*
X3805Y3399D02*
X3815Y3399D01*
X3861Y3399D02*
X3870Y3399D01*
X3919Y3399D02*
X3929Y3399D01*
X3953Y3399D02*
X3962Y3399D01*
X3994Y3399D02*
X4004Y3399D01*
X4015Y3399D02*
X4025Y3399D01*
X4057Y3399D02*
X4066Y3399D01*
X4097Y3399D02*
X4106Y3399D01*
X4169Y3399D02*
X4178Y3399D01*
X4207Y3399D02*
X4217Y3399D01*
X4241Y3399D02*
X4250Y3399D01*
X4273Y3399D02*
X4282Y3399D01*
X4313Y3399D02*
X4322Y3399D01*
X3554Y3398D02*
X3565Y3398D01*
X3593Y3398D02*
X3601Y3398D01*
X3634Y3398D02*
X3644Y3398D01*
X3654Y3398D02*
X3665Y3398D01*
X3697Y3398D02*
X3716Y3398D01*
X3737Y3398D02*
X3746Y3398D01*
X3772Y3398D02*
X3781Y3398D01*
X3806Y3398D02*
X3815Y3398D01*
X3861Y3398D02*
X3870Y3398D01*
X3918Y3398D02*
X3929Y3398D01*
X3953Y3398D02*
X3962Y3398D01*
X3994Y3398D02*
X4004Y3398D01*
X4014Y3398D02*
X4025Y3398D01*
X4057Y3398D02*
X4066Y3398D01*
X4097Y3398D02*
X4106Y3398D01*
X4169Y3398D02*
X4178Y3398D01*
X4206Y3398D02*
X4217Y3398D01*
X4241Y3398D02*
X4250Y3398D01*
X4273Y3398D02*
X4282Y3398D01*
X4313Y3398D02*
X4322Y3398D01*
X3553Y3397D02*
X3564Y3397D01*
X3593Y3397D02*
X3602Y3397D01*
X3635Y3397D02*
X3645Y3397D01*
X3654Y3397D02*
X3664Y3397D01*
X3697Y3397D02*
X3716Y3397D01*
X3737Y3397D02*
X3746Y3397D01*
X3771Y3397D02*
X3781Y3397D01*
X3806Y3397D02*
X3815Y3397D01*
X3861Y3397D02*
X3870Y3397D01*
X3917Y3397D02*
X3928Y3397D01*
X3953Y3397D02*
X3962Y3397D01*
X3995Y3397D02*
X4005Y3397D01*
X4014Y3397D02*
X4024Y3397D01*
X4057Y3397D02*
X4066Y3397D01*
X4096Y3397D02*
X4106Y3397D01*
X4169Y3397D02*
X4178Y3397D01*
X4205Y3397D02*
X4216Y3397D01*
X4241Y3397D02*
X4250Y3397D01*
X4273Y3397D02*
X4282Y3397D01*
X4312Y3397D02*
X4322Y3397D01*
X3553Y3396D02*
X3563Y3396D01*
X3593Y3396D02*
X3602Y3396D01*
X3635Y3396D02*
X3645Y3396D01*
X3653Y3396D02*
X3664Y3396D01*
X3697Y3396D02*
X3715Y3396D01*
X3737Y3396D02*
X3746Y3396D01*
X3771Y3396D02*
X3781Y3396D01*
X3806Y3396D02*
X3816Y3396D01*
X3861Y3396D02*
X3870Y3396D01*
X3917Y3396D02*
X3928Y3396D01*
X3953Y3396D02*
X3962Y3396D01*
X3995Y3396D02*
X4005Y3396D01*
X4013Y3396D02*
X4024Y3396D01*
X4057Y3396D02*
X4067Y3396D01*
X4096Y3396D02*
X4106Y3396D01*
X4169Y3396D02*
X4178Y3396D01*
X4205Y3396D02*
X4216Y3396D01*
X4241Y3396D02*
X4250Y3396D01*
X4273Y3396D02*
X4283Y3396D01*
X4312Y3396D02*
X4322Y3396D01*
X3553Y3395D02*
X3563Y3395D01*
X3592Y3395D02*
X3602Y3395D01*
X3636Y3395D02*
X3646Y3395D01*
X3653Y3395D02*
X3663Y3395D01*
X3697Y3395D02*
X3715Y3395D01*
X3737Y3395D02*
X3746Y3395D01*
X3771Y3395D02*
X3780Y3395D01*
X3806Y3395D02*
X3816Y3395D01*
X3861Y3395D02*
X3870Y3395D01*
X3916Y3395D02*
X3927Y3395D01*
X3953Y3395D02*
X3962Y3395D01*
X3996Y3395D02*
X4006Y3395D01*
X4013Y3395D02*
X4023Y3395D01*
X4057Y3395D02*
X4067Y3395D01*
X4095Y3395D02*
X4105Y3395D01*
X4169Y3395D02*
X4178Y3395D01*
X4204Y3395D02*
X4215Y3395D01*
X4241Y3395D02*
X4250Y3395D01*
X4273Y3395D02*
X4283Y3395D01*
X4311Y3395D02*
X4321Y3395D01*
X3553Y3394D02*
X3562Y3394D01*
X3592Y3394D02*
X3602Y3394D01*
X3636Y3394D02*
X3647Y3394D01*
X3652Y3394D02*
X3663Y3394D01*
X3697Y3394D02*
X3714Y3394D01*
X3737Y3394D02*
X3746Y3394D01*
X3771Y3394D02*
X3780Y3394D01*
X3807Y3394D02*
X3816Y3394D01*
X3861Y3394D02*
X3870Y3394D01*
X3916Y3394D02*
X3926Y3394D01*
X3953Y3394D02*
X3962Y3394D01*
X3996Y3394D02*
X4007Y3394D01*
X4012Y3394D02*
X4023Y3394D01*
X4058Y3394D02*
X4068Y3394D01*
X4094Y3394D02*
X4105Y3394D01*
X4169Y3394D02*
X4178Y3394D01*
X4204Y3394D02*
X4214Y3394D01*
X4241Y3394D02*
X4250Y3394D01*
X4274Y3394D02*
X4284Y3394D01*
X4310Y3394D02*
X4321Y3394D01*
X3553Y3393D02*
X3601Y3393D01*
X3637Y3393D02*
X3662Y3393D01*
X3697Y3393D02*
X3714Y3393D01*
X3737Y3393D02*
X3746Y3393D01*
X3770Y3393D02*
X3780Y3393D01*
X3807Y3393D02*
X3817Y3393D01*
X3847Y3393D02*
X3884Y3393D01*
X3915Y3393D02*
X3926Y3393D01*
X3953Y3393D02*
X3962Y3393D01*
X3997Y3393D02*
X4022Y3393D01*
X4058Y3393D02*
X4105Y3393D01*
X4135Y3393D02*
X4178Y3393D01*
X4203Y3393D02*
X4214Y3393D01*
X4241Y3393D02*
X4250Y3393D01*
X4274Y3393D02*
X4321Y3393D01*
X3553Y3392D02*
X3601Y3392D01*
X3637Y3392D02*
X3662Y3392D01*
X3697Y3392D02*
X3713Y3392D01*
X3737Y3392D02*
X3746Y3392D01*
X3770Y3392D02*
X3779Y3392D01*
X3807Y3392D02*
X3817Y3392D01*
X3843Y3392D02*
X3888Y3392D01*
X3915Y3392D02*
X3925Y3392D01*
X3953Y3392D02*
X3962Y3392D01*
X3997Y3392D02*
X4022Y3392D01*
X4058Y3392D02*
X4105Y3392D01*
X4131Y3392D02*
X4178Y3392D01*
X4203Y3392D02*
X4213Y3392D01*
X4241Y3392D02*
X4250Y3392D01*
X4274Y3392D02*
X4321Y3392D01*
X3554Y3391D02*
X3601Y3391D01*
X3638Y3391D02*
X3661Y3391D01*
X3697Y3391D02*
X3713Y3391D01*
X3737Y3391D02*
X3746Y3391D01*
X3770Y3391D02*
X3779Y3391D01*
X3808Y3391D02*
X3817Y3391D01*
X3842Y3391D02*
X3889Y3391D01*
X3914Y3391D02*
X3925Y3391D01*
X3953Y3391D02*
X3962Y3391D01*
X3998Y3391D02*
X4021Y3391D01*
X4059Y3391D02*
X4104Y3391D01*
X4130Y3391D02*
X4178Y3391D01*
X4202Y3391D02*
X4213Y3391D01*
X4241Y3391D02*
X4250Y3391D01*
X4275Y3391D02*
X4320Y3391D01*
X3554Y3390D02*
X3600Y3390D01*
X3638Y3390D02*
X3661Y3390D01*
X3697Y3390D02*
X3712Y3390D01*
X3737Y3390D02*
X3746Y3390D01*
X3769Y3390D02*
X3779Y3390D01*
X3808Y3390D02*
X3817Y3390D01*
X3841Y3390D02*
X3889Y3390D01*
X3913Y3390D02*
X3924Y3390D01*
X3953Y3390D02*
X3962Y3390D01*
X3998Y3390D02*
X4021Y3390D01*
X4059Y3390D02*
X4103Y3390D01*
X4129Y3390D02*
X4178Y3390D01*
X4201Y3390D02*
X4212Y3390D01*
X4241Y3390D02*
X4250Y3390D01*
X4275Y3390D02*
X4319Y3390D01*
X3554Y3389D02*
X3599Y3389D01*
X3639Y3389D02*
X3660Y3389D01*
X3697Y3389D02*
X3712Y3389D01*
X3737Y3389D02*
X3746Y3389D01*
X3769Y3389D02*
X3779Y3389D01*
X3808Y3389D02*
X3818Y3389D01*
X3841Y3389D02*
X3890Y3389D01*
X3913Y3389D02*
X3924Y3389D01*
X3953Y3389D02*
X3962Y3389D01*
X3999Y3389D02*
X4020Y3389D01*
X4060Y3389D02*
X4103Y3389D01*
X4129Y3389D02*
X4178Y3389D01*
X4201Y3389D02*
X4212Y3389D01*
X4241Y3389D02*
X4250Y3389D01*
X4276Y3389D02*
X4319Y3389D01*
X3555Y3388D02*
X3599Y3388D01*
X3640Y3388D02*
X3659Y3388D01*
X3697Y3388D02*
X3712Y3388D01*
X3737Y3388D02*
X3746Y3388D01*
X3769Y3388D02*
X3778Y3388D01*
X3809Y3388D02*
X3818Y3388D01*
X3841Y3388D02*
X3890Y3388D01*
X3913Y3388D02*
X3923Y3388D01*
X3953Y3388D02*
X3962Y3388D01*
X4000Y3388D02*
X4019Y3388D01*
X4061Y3388D02*
X4102Y3388D01*
X4129Y3388D02*
X4178Y3388D01*
X4201Y3388D02*
X4211Y3388D01*
X4241Y3388D02*
X4250Y3388D01*
X4277Y3388D02*
X4318Y3388D01*
X3556Y3387D02*
X3598Y3387D01*
X3640Y3387D02*
X3658Y3387D01*
X3697Y3387D02*
X3711Y3387D01*
X3737Y3387D02*
X3746Y3387D01*
X3769Y3387D02*
X3778Y3387D01*
X3809Y3387D02*
X3818Y3387D01*
X3841Y3387D02*
X3890Y3387D01*
X3913Y3387D02*
X3922Y3387D01*
X3953Y3387D02*
X3962Y3387D01*
X4000Y3387D02*
X4018Y3387D01*
X4062Y3387D02*
X4101Y3387D01*
X4129Y3387D02*
X4178Y3387D01*
X4201Y3387D02*
X4210Y3387D01*
X4241Y3387D02*
X4250Y3387D01*
X4278Y3387D02*
X4317Y3387D01*
X3557Y3386D02*
X3597Y3386D01*
X3642Y3386D02*
X3657Y3386D01*
X3697Y3386D02*
X3711Y3386D01*
X3737Y3386D02*
X3745Y3386D01*
X3769Y3386D02*
X3778Y3386D01*
X3809Y3386D02*
X3818Y3386D01*
X3841Y3386D02*
X3889Y3386D01*
X3913Y3386D02*
X3922Y3386D01*
X3953Y3386D02*
X3961Y3386D01*
X4002Y3386D02*
X4017Y3386D01*
X4063Y3386D02*
X4100Y3386D01*
X4129Y3386D02*
X4178Y3386D01*
X4201Y3386D02*
X4210Y3386D01*
X4241Y3386D02*
X4249Y3386D01*
X4279Y3386D02*
X4316Y3386D01*
X3558Y3385D02*
X3595Y3385D01*
X3643Y3385D02*
X3656Y3385D01*
X3697Y3385D02*
X3710Y3385D01*
X3738Y3385D02*
X3745Y3385D01*
X3770Y3385D02*
X3777Y3385D01*
X3810Y3385D02*
X3817Y3385D01*
X3842Y3385D02*
X3889Y3385D01*
X3914Y3385D02*
X3921Y3385D01*
X3954Y3385D02*
X3961Y3385D01*
X4003Y3385D02*
X4016Y3385D01*
X4065Y3385D02*
X4098Y3385D01*
X4130Y3385D02*
X4178Y3385D01*
X4202Y3385D02*
X4209Y3385D01*
X4242Y3385D02*
X4249Y3385D01*
X4281Y3385D02*
X4314Y3385D01*
X3560Y3384D02*
X3594Y3384D01*
X3645Y3384D02*
X3654Y3384D01*
X3697Y3384D02*
X3710Y3384D01*
X3739Y3384D02*
X3744Y3384D01*
X3771Y3384D02*
X3776Y3384D01*
X3811Y3384D02*
X3816Y3384D01*
X3843Y3384D02*
X3888Y3384D01*
X3915Y3384D02*
X3920Y3384D01*
X3955Y3384D02*
X3960Y3384D01*
X4005Y3384D02*
X4014Y3384D01*
X4067Y3384D02*
X4096Y3384D01*
X4131Y3384D02*
X4178Y3384D01*
X4203Y3384D02*
X4208Y3384D01*
X4243Y3384D02*
X4248Y3384D01*
X4283Y3384D02*
X4312Y3384D01*
X3563Y3383D02*
X3589Y3383D01*
X3649Y3383D02*
X3650Y3383D01*
X3697Y3383D02*
X3709Y3383D01*
X3741Y3383D02*
X3741Y3383D01*
X3774Y3383D02*
X3774Y3383D01*
X3813Y3383D02*
X3813Y3383D01*
X3846Y3383D02*
X3885Y3383D01*
X3918Y3383D02*
X3918Y3383D01*
X3957Y3383D02*
X3957Y3383D01*
X4009Y3383D02*
X4010Y3383D01*
X4071Y3383D02*
X4092Y3383D01*
X4134Y3383D02*
X4177Y3383D01*
X4206Y3383D02*
X4206Y3383D01*
X4245Y3383D02*
X4245Y3383D01*
X4287Y3383D02*
X4308Y3383D01*
D02*
G04 End of Silk0*
M02*