; NON-PLATED HOLES START AT T1
; THROUGH (PLATED) HOLES START AT T100
M48
INCH
T1C1.968504
T100C0.125984
T101C0.030000
T102C0.035000
T103C0.038000
%
T1
X020656Y020904
T100
X009611Y020498
X032111Y020498
X020611Y031998
T101
X018111Y003996
X037611Y017998
X023111Y036496
X018111Y004998
X036609Y017998
X023111Y037498
X004109Y022998
X005111Y022998
T102
X028111Y035998
X005493Y014074
X023611Y034998
X027187Y036381
X008196Y031584
X027035Y005381
X006611Y019498
X033025Y009412
X019611Y037498
X036376Y014846
X032196Y032912
X033611Y031498
X021611Y006498
X036228Y026922
X005111Y014998
X031611Y007998
X014035Y005115
X008111Y009498
X019611Y003998
X037611Y021498
X006111Y027998
X006611Y023498
X021611Y037498
X020611Y037498
X014187Y036115
X017611Y006498
X035111Y017498
X035111Y021498
X020611Y003998
X005728Y027074
X035611Y012998
X035845Y027846
X008904Y032291
X026111Y004998
X026263Y036763
X005345Y026150
X013111Y005498
X004111Y020498
X032903Y032205
X036611Y025998
X009525Y008084
X013263Y035733
X019611Y034998
X004111Y021498
X021611Y003998
X037611Y020498
X004111Y019498
X027958Y005764
X009611Y032998
X008818Y008791
X014958Y004733
X005876Y013150
X032318Y008705
X035993Y013922
X037611Y019498
X015111Y036498
T103
X022111Y010498
X028611Y012498
X021111Y010498
X026111Y010498
X013111Y010498
X018111Y010498
X027111Y010498
X024111Y010498
X025111Y010498
X017111Y010498
X014111Y010498
X019111Y010498
X023111Y010498
X028111Y010498
X027611Y012498
X015111Y010498
X016111Y010498
X020111Y010498
T00
M30
