; NON-PLATED HOLES START AT T1
; THROUGH (PLATED) HOLES START AT T100
M48
INCH
T100C0.074803
T101C0.038000
T102C0.035433
T103C0.040000
T104C0.035000
T105C0.038795
%
T100
X070261Y042364
X070226Y036051
X008460Y036096
X008497Y042398
X042449Y070085
X042522Y008482
X036183Y008482
X036111Y070121
T101
X007681Y020901
X009095Y022316
X008388Y021608
X029820Y063662
X009802Y023023
X010510Y023730
X011217Y024437
X029113Y064370
T102
X032888Y063609
X055388Y015608
T103
X013704Y062328
X055802Y016953
X060044Y012710
X014411Y063035
X016533Y056671
X021925Y057122
X019472Y054590
X020950Y056148
X012997Y061620
X016533Y065156
X062873Y015538
X057216Y018367
X060044Y021195
X019361Y059499
X015118Y063742
X012290Y060913
X057923Y019074
X020775Y060913
X062166Y014831
X064994Y017660
X018654Y058792
X063580Y016245
X021482Y061620
X056645Y022800
X064287Y016953
X058171Y024326
X059145Y025300
X020068Y060206
X056509Y017660
X055671Y021826
X059337Y020488
X015825Y064449
X060751Y013417
X017240Y065863
X017947Y058085
X018498Y053615
X061458Y014124
X060751Y021902
X017240Y057378
X058630Y019781
T104
X053388Y041109
X044888Y025108
X047888Y027608
X050888Y034109
X045888Y029608
X048010Y046487
X053388Y045109
X040888Y025108
X034888Y027608
X043888Y053609
X027888Y044109
X030888Y031608
X025388Y037109
X050888Y044109
X053388Y038109
X033010Y029487
X038888Y025108
X045888Y048609
X030388Y039109
X025388Y033109
X050888Y041109
X047388Y051109
X031217Y050937
X048010Y031730
X025388Y044109
X027888Y041109
X043888Y027608
X033888Y053609
X034888Y050609
X053388Y034109
X043888Y050609
X037888Y027608
X033010Y048730
X039888Y053609
X037888Y050609
X034888Y025108
X050888Y037109
X025388Y040109
X029060Y029937
X028388Y048109
X027888Y034109
X050217Y048280
X031888Y027108
X037888Y053609
X040888Y050609
X040888Y027608
X034388Y039109
X027888Y037109
X030888Y046609
X050717Y030437
T105
X030801Y021192
X021614Y012006
X020906Y024016
X022318Y025429
X023730Y014121
X025854Y028964
X028678Y019069
X023028Y026139
X023738Y026849
X015255Y018365
X020904Y011296
X030098Y020489
X020194Y010586
X021616Y024726
X024440Y014831
X023027Y013419
X026564Y029674
X020203Y023314
X025853Y016244
X031511Y021902
X025151Y028262
X022317Y012709
X018080Y021191
X027265Y017657
X016667Y019778
X032923Y023315
X014545Y017655
X018783Y021894
X013835Y016945
X025142Y015534
X015957Y019068
X027975Y018367
X026562Y016954
X019493Y022604
X029388Y019779
X032213Y022605
X017370Y020481
X024441Y027552
T00
M30
