; NON-PLATED HOLES START AT T1
; THROUGH (PLATED) HOLES START AT T100
M48
INCH
T100C0.035433
T101C0.074803
T102C0.125984
T103C0.038972
T104C0.043307
T105C0.035000
T106C0.039000
T107C0.038000
T108C0.038795
T109C0.031496
T110C0.040000
%
T100
X014884Y057091
X015888Y022108
X013888Y057091
X028388Y024108
X041385Y020093
T101
X042551Y070137
X066301Y044720
X070094Y036091
X044976Y012209
X070056Y042404
X036268Y008673
X042561Y008692
X012411Y033726
X066329Y033695
X036269Y070106
X012393Y044757
X033946Y012250
X008765Y036096
X008737Y042414
X044921Y066025
X033892Y066073
T102
X039388Y050609
X050888Y039609
X039388Y024608
X028388Y039609
T103
X017595Y059815
X021595Y031315
X020888Y030608
X060181Y018401
X020095Y032815
X060888Y019108
X019388Y032108
X016888Y059109
T104
X055888Y012108
X069388Y023108
X053888Y012108
X069388Y021108
X065888Y018108
X065888Y016108
X009888Y052109
X009888Y054109
T105
X016388Y025608
X013560Y022780
X015388Y026608
X012560Y023780
T106
X058767Y016987
X022303Y032023
X023010Y032730
X020803Y033523
X019010Y061230
X059474Y017694
X021510Y034230
X018303Y060523
T107
X007560Y021780
X010388Y024608
X038388Y031108
X008267Y022487
X011095Y025316
X042388Y031108
X008974Y023194
X040388Y031108
X039388Y031108
X041388Y031108
X036388Y031108
X037388Y031108
X045888Y027108
X009681Y023901
X046888Y027108
T108
X016536Y019870
X024310Y027644
X025721Y016336
X025020Y028354
X027134Y017749
X020072Y023406
X026431Y017046
X020774Y024109
X023607Y026941
X018652Y021986
X030669Y021284
X032792Y023407
X023599Y014214
X026433Y029767
X028547Y019162
X022897Y026231
X027844Y018459
X014414Y017748
X022187Y025521
X022896Y013511
X015124Y018458
X022186Y012801
X025011Y015626
X020773Y011388
X019362Y022696
X031379Y021994
X032082Y022697
X013703Y017038
X021484Y024819
X017949Y021283
X017239Y020573
X021483Y012098
X029257Y019872
X020063Y010678
X015826Y019160
X029967Y020582
X024309Y014924
X025723Y029057
T109
X048888Y020608
X064888Y036608
X057888Y020608
X048888Y036608
X057888Y036608
X064888Y020608
X055888Y020608
X055888Y036608
T110
X068388Y017608
X069388Y026108
X012888Y053609
X054388Y009108
X012888Y052609
X069388Y025108
X068388Y016608
X055388Y009108
T00
M30
