G04 MADE WITH FRITZING*
G04 WWW.FRITZING.ORG*
G04 DOUBLE SIDED*
G04 HOLES PLATED*
G04 CONTOUR ON CENTER OF CONTOUR VECTOR*
%ASAXBY*%
%FSLAX23Y23*%
%MOIN*%
%OFA0B0*%
%SFA1.0B1.0*%
%ADD10C,0.098425*%
%ADD11C,0.071858*%
%ADD12C,0.075433*%
%ADD13C,0.071000*%
%ADD14C,0.070972*%
%ADD15C,0.075000*%
%ADD16C,0.078000*%
%ADD17C,0.094488*%
%ADD18C,0.083307*%
%ADD19C,0.080000*%
%ADD20C,0.157480*%
%ADD21C,0.165354*%
%ADD22R,0.078000X0.078000*%
%ADD23R,0.083307X0.083307*%
%ADD24R,0.080000X0.080000*%
%ADD25C,0.048000*%
%ADD26C,0.020000*%
%ADD27R,0.001000X0.001000*%
%LNCOPPER0*%
G90*
G70*
G54D10*
X874Y4241D03*
G54D11*
X2643Y2977D03*
X2572Y2906D03*
X2502Y2835D03*
X2431Y2764D03*
X2361Y2694D03*
X2290Y2623D03*
X2219Y2552D03*
X2148Y2482D03*
X2077Y2411D03*
X2007Y2341D03*
X1936Y2270D03*
X1865Y2199D03*
X1795Y2128D03*
X1724Y2057D03*
X1654Y1987D03*
X1583Y1916D03*
X1512Y1846D03*
X1441Y1775D03*
X1370Y1704D03*
X2006Y1068D03*
X2077Y1139D03*
X2148Y1210D03*
X2219Y1280D03*
X2290Y1351D03*
X2360Y1421D03*
X2431Y1492D03*
X2501Y1563D03*
X2572Y1634D03*
X2643Y1705D03*
X2713Y1775D03*
X2784Y1846D03*
X2855Y1916D03*
X2926Y1987D03*
X2997Y2058D03*
X3067Y2128D03*
X3138Y2199D03*
X3208Y2270D03*
X3279Y2341D03*
G54D12*
X4139Y2009D03*
X2839Y2411D03*
G54D13*
X1901Y6123D03*
X1830Y6052D03*
G54D14*
X1760Y5982D03*
X1689Y5911D03*
G54D13*
X2151Y3423D03*
X2080Y3352D03*
G54D14*
X2010Y3282D03*
X1939Y3211D03*
G54D13*
X2301Y3273D03*
X2230Y3202D03*
G54D14*
X2160Y3132D03*
X2089Y3061D03*
G54D13*
X5877Y1699D03*
X5947Y1769D03*
G54D14*
X6018Y1840D03*
X6089Y1911D03*
G54D15*
X1256Y2378D03*
X1539Y2661D03*
X1356Y2278D03*
X1639Y2561D03*
G54D12*
X1389Y5709D03*
X1488Y5709D03*
G54D16*
X4039Y3111D03*
X3939Y3111D03*
X3839Y3111D03*
X3739Y3111D03*
X3639Y3111D03*
X4689Y2711D03*
X4589Y2711D03*
X4239Y3111D03*
X4139Y3111D03*
X1110Y2532D03*
X1039Y2461D03*
X968Y2390D03*
X897Y2319D03*
X827Y2249D03*
X756Y2178D03*
G54D12*
X1589Y2211D03*
G54D17*
X5589Y3661D03*
X4889Y3661D03*
X4889Y2061D03*
X5589Y2061D03*
X6489Y3661D03*
X5789Y3661D03*
X5789Y2061D03*
X6489Y2061D03*
G54D18*
X6589Y1811D03*
X6589Y1611D03*
X6939Y2311D03*
X6939Y2111D03*
X989Y5211D03*
X989Y5411D03*
X5589Y1211D03*
X5389Y1211D03*
G54D19*
X5539Y911D03*
X5439Y911D03*
X6839Y1761D03*
X6839Y1661D03*
X6939Y2611D03*
X6939Y2511D03*
X1289Y5361D03*
X1289Y5261D03*
G54D20*
X5089Y3961D03*
X2839Y3961D03*
G54D21*
X3939Y2461D03*
G54D20*
X3939Y5061D03*
G54D10*
X877Y3610D03*
X4498Y1221D03*
X4256Y869D03*
X3627Y867D03*
X3395Y1225D03*
X4492Y6603D03*
X4255Y7014D03*
X3389Y6607D03*
X3627Y7011D03*
X7009Y3609D03*
X7006Y4240D03*
X6633Y3370D03*
X6630Y4472D03*
X1241Y3373D03*
X1239Y4476D03*
G54D22*
X4689Y2711D03*
X4239Y3111D03*
G54D23*
X6589Y1811D03*
X6939Y2311D03*
X989Y5211D03*
X5589Y1211D03*
G54D24*
X5539Y911D03*
X6839Y1761D03*
X6939Y2611D03*
X1289Y5361D03*
G54D25*
X4239Y3070D02*
X4238Y2712D01*
D02*
X4138Y2611D02*
X3390Y2611D01*
D02*
X4238Y2712D02*
X4138Y2611D01*
D02*
X3289Y2511D02*
X3282Y2382D01*
D02*
X3390Y2611D02*
X3289Y2511D01*
D02*
X3140Y2712D02*
X2867Y2439D01*
D02*
X3939Y2712D02*
X3140Y2712D01*
D02*
X4040Y2810D02*
X3939Y2712D01*
D02*
X4039Y3070D02*
X4040Y2810D01*
D02*
X1968Y3181D02*
X2059Y3090D01*
D02*
X2130Y3161D02*
X2039Y3252D01*
D02*
X2201Y3232D02*
X2110Y3323D01*
D02*
X2272Y3303D02*
X2181Y3394D01*
D02*
X1737Y5812D02*
X1439Y5812D01*
D02*
X1439Y5812D02*
X1406Y5745D01*
D02*
X1791Y5862D02*
X1737Y5812D01*
D02*
X1770Y5941D02*
X1791Y5862D01*
D02*
X1890Y5962D02*
X1853Y6018D01*
D02*
X1890Y5812D02*
X1890Y5962D01*
D02*
X1737Y5709D02*
X1890Y5812D01*
D02*
X1528Y5709D02*
X1737Y5709D01*
D02*
X6107Y1873D02*
X6138Y1810D01*
D02*
X6138Y1810D02*
X5939Y1611D01*
D02*
X5939Y1611D02*
X3488Y1611D01*
D02*
X3488Y1611D02*
X3289Y1810D01*
D02*
X3289Y1810D02*
X3280Y2299D01*
D02*
X1889Y3412D02*
X740Y2411D01*
D02*
X740Y2411D02*
X740Y2310D01*
D02*
X1988Y3411D02*
X1889Y3412D01*
D02*
X740Y2310D02*
X793Y2273D01*
D02*
X2045Y3375D02*
X1988Y3411D01*
D02*
X4138Y1811D02*
X4138Y1969D01*
D02*
X4239Y1710D02*
X4138Y1811D01*
D02*
X5835Y1699D02*
X4239Y1710D01*
D02*
X1190Y2811D02*
X1338Y2811D01*
D02*
X1338Y2811D02*
X1507Y2685D01*
D02*
X738Y2410D02*
X1190Y2811D01*
D02*
X740Y2310D02*
X738Y2410D01*
D02*
X793Y2272D02*
X740Y2310D01*
D02*
X2338Y2912D02*
X2338Y2811D01*
D02*
X2338Y2811D02*
X1688Y2161D01*
D02*
X2186Y3099D02*
X2338Y2912D01*
D02*
X1688Y2161D02*
X1710Y2097D01*
D02*
X1639Y2410D02*
X1089Y1860D01*
D02*
X1089Y1860D02*
X940Y1860D01*
D02*
X1639Y2521D02*
X1639Y2410D01*
D02*
X940Y1860D02*
X738Y2062D01*
D02*
X738Y2062D02*
X750Y2137D01*
D02*
X640Y2460D02*
X640Y2312D01*
D02*
X640Y2312D02*
X729Y2209D01*
D02*
X1838Y3510D02*
X640Y2460D01*
D02*
X2040Y3510D02*
X1838Y3510D01*
D02*
X2118Y3449D02*
X2040Y3510D01*
D02*
X1617Y2239D02*
X2189Y2811D01*
D02*
X2189Y2912D02*
X2139Y3010D01*
D02*
X2189Y2811D02*
X2189Y2912D01*
D02*
X2139Y3010D02*
X2118Y3031D01*
D02*
X5790Y1761D02*
X5843Y1723D01*
D02*
X5789Y2023D02*
X5790Y1761D01*
D02*
X4889Y3211D02*
X4790Y3312D01*
D02*
X3389Y3310D02*
X1488Y1662D01*
D02*
X4790Y3312D02*
X3389Y3310D01*
D02*
X1488Y1662D02*
X1410Y1690D01*
D02*
X4889Y2099D02*
X4889Y3211D01*
G54D19*
D02*
X6288Y2212D02*
X6190Y2311D01*
D02*
X6190Y2311D02*
X5888Y2309D01*
D02*
X6288Y1561D02*
X6288Y2212D01*
D02*
X5888Y2309D02*
X5790Y2411D01*
D02*
X6140Y1413D02*
X6288Y1561D01*
D02*
X5790Y2411D02*
X5789Y3606D01*
D02*
X5489Y1411D02*
X6140Y1413D01*
D02*
X5416Y1265D02*
X5489Y1411D01*
G54D26*
X1151Y2532D02*
X1110Y2491D01*
X1069Y2532D01*
X1110Y2573D01*
X1151Y2532D01*
D02*
G54D27*
X5542Y3708D02*
X5635Y3708D01*
X6442Y3708D02*
X6535Y3708D01*
X5542Y3707D02*
X5635Y3707D01*
X6442Y3707D02*
X6535Y3707D01*
X5542Y3706D02*
X5635Y3706D01*
X6442Y3706D02*
X6535Y3706D01*
X5542Y3705D02*
X5635Y3705D01*
X6442Y3705D02*
X6535Y3705D01*
X5542Y3704D02*
X5635Y3704D01*
X6442Y3704D02*
X6535Y3704D01*
X5542Y3703D02*
X5635Y3703D01*
X6442Y3703D02*
X6535Y3703D01*
X5542Y3702D02*
X5635Y3702D01*
X6442Y3702D02*
X6535Y3702D01*
X5542Y3701D02*
X5635Y3701D01*
X6442Y3701D02*
X6535Y3701D01*
X5542Y3700D02*
X5635Y3700D01*
X6442Y3700D02*
X6535Y3700D01*
X5542Y3699D02*
X5635Y3699D01*
X6442Y3699D02*
X6535Y3699D01*
X5542Y3698D02*
X5635Y3698D01*
X6442Y3698D02*
X6535Y3698D01*
X5542Y3697D02*
X5635Y3697D01*
X6442Y3697D02*
X6535Y3697D01*
X5542Y3696D02*
X5635Y3696D01*
X6442Y3696D02*
X6535Y3696D01*
X5542Y3695D02*
X5635Y3695D01*
X6442Y3695D02*
X6535Y3695D01*
X5542Y3694D02*
X5635Y3694D01*
X6442Y3694D02*
X6535Y3694D01*
X5542Y3693D02*
X5635Y3693D01*
X6442Y3693D02*
X6535Y3693D01*
X5542Y3692D02*
X5635Y3692D01*
X6442Y3692D02*
X6535Y3692D01*
X5542Y3691D02*
X5635Y3691D01*
X6442Y3691D02*
X6535Y3691D01*
X5542Y3690D02*
X5635Y3690D01*
X6442Y3690D02*
X6535Y3690D01*
X5542Y3689D02*
X5635Y3689D01*
X6442Y3689D02*
X6535Y3689D01*
X5542Y3688D02*
X5635Y3688D01*
X6442Y3688D02*
X6535Y3688D01*
X5542Y3687D02*
X5635Y3687D01*
X6442Y3687D02*
X6535Y3687D01*
X5542Y3686D02*
X5635Y3686D01*
X6442Y3686D02*
X6535Y3686D01*
X5542Y3685D02*
X5635Y3685D01*
X6442Y3685D02*
X6535Y3685D01*
X5542Y3684D02*
X5635Y3684D01*
X6442Y3684D02*
X6535Y3684D01*
X5542Y3683D02*
X5635Y3683D01*
X6442Y3683D02*
X6535Y3683D01*
X5542Y3682D02*
X5635Y3682D01*
X6442Y3682D02*
X6535Y3682D01*
X5542Y3681D02*
X5587Y3681D01*
X5590Y3681D02*
X5635Y3681D01*
X6442Y3681D02*
X6487Y3681D01*
X6490Y3681D02*
X6535Y3681D01*
X5542Y3680D02*
X5582Y3680D01*
X5595Y3680D02*
X5635Y3680D01*
X6442Y3680D02*
X6482Y3680D01*
X6495Y3680D02*
X6535Y3680D01*
X5542Y3679D02*
X5579Y3679D01*
X5597Y3679D02*
X5635Y3679D01*
X6442Y3679D02*
X6479Y3679D01*
X6497Y3679D02*
X6535Y3679D01*
X5542Y3678D02*
X5577Y3678D01*
X5599Y3678D02*
X5635Y3678D01*
X6442Y3678D02*
X6477Y3678D01*
X6499Y3678D02*
X6535Y3678D01*
X5542Y3677D02*
X5576Y3677D01*
X5601Y3677D02*
X5635Y3677D01*
X6442Y3677D02*
X6476Y3677D01*
X6501Y3677D02*
X6535Y3677D01*
X5542Y3676D02*
X5575Y3676D01*
X5602Y3676D02*
X5635Y3676D01*
X6442Y3676D02*
X6475Y3676D01*
X6502Y3676D02*
X6535Y3676D01*
X5542Y3675D02*
X5574Y3675D01*
X5603Y3675D02*
X5635Y3675D01*
X6442Y3675D02*
X6474Y3675D01*
X6503Y3675D02*
X6535Y3675D01*
X5542Y3674D02*
X5573Y3674D01*
X5604Y3674D02*
X5635Y3674D01*
X6442Y3674D02*
X6473Y3674D01*
X6504Y3674D02*
X6535Y3674D01*
X5542Y3673D02*
X5572Y3673D01*
X5605Y3673D02*
X5635Y3673D01*
X6442Y3673D02*
X6472Y3673D01*
X6505Y3673D02*
X6535Y3673D01*
X5542Y3672D02*
X5571Y3672D01*
X5605Y3672D02*
X5635Y3672D01*
X6442Y3672D02*
X6471Y3672D01*
X6505Y3672D02*
X6535Y3672D01*
X5542Y3671D02*
X5571Y3671D01*
X5606Y3671D02*
X5635Y3671D01*
X6442Y3671D02*
X6471Y3671D01*
X6506Y3671D02*
X6535Y3671D01*
X5542Y3670D02*
X5570Y3670D01*
X5606Y3670D02*
X5635Y3670D01*
X6442Y3670D02*
X6470Y3670D01*
X6506Y3670D02*
X6535Y3670D01*
X5542Y3669D02*
X5570Y3669D01*
X5607Y3669D02*
X5635Y3669D01*
X6442Y3669D02*
X6470Y3669D01*
X6507Y3669D02*
X6535Y3669D01*
X5542Y3668D02*
X5569Y3668D01*
X5607Y3668D02*
X5635Y3668D01*
X6442Y3668D02*
X6469Y3668D01*
X6507Y3668D02*
X6535Y3668D01*
X5542Y3667D02*
X5569Y3667D01*
X5608Y3667D02*
X5635Y3667D01*
X6442Y3667D02*
X6469Y3667D01*
X6508Y3667D02*
X6535Y3667D01*
X5542Y3666D02*
X5569Y3666D01*
X5608Y3666D02*
X5635Y3666D01*
X6442Y3666D02*
X6469Y3666D01*
X6508Y3666D02*
X6535Y3666D01*
X5542Y3665D02*
X5569Y3665D01*
X5608Y3665D02*
X5635Y3665D01*
X6442Y3665D02*
X6469Y3665D01*
X6508Y3665D02*
X6535Y3665D01*
X5542Y3664D02*
X5568Y3664D01*
X5608Y3664D02*
X5635Y3664D01*
X6442Y3664D02*
X6468Y3664D01*
X6508Y3664D02*
X6535Y3664D01*
X5542Y3663D02*
X5568Y3663D01*
X5608Y3663D02*
X5635Y3663D01*
X6442Y3663D02*
X6468Y3663D01*
X6508Y3663D02*
X6535Y3663D01*
X5542Y3662D02*
X5568Y3662D01*
X5608Y3662D02*
X5635Y3662D01*
X6442Y3662D02*
X6468Y3662D01*
X6508Y3662D02*
X6535Y3662D01*
X5542Y3661D02*
X5568Y3661D01*
X5609Y3661D02*
X5635Y3661D01*
X6442Y3661D02*
X6468Y3661D01*
X6509Y3661D02*
X6535Y3661D01*
X5542Y3660D02*
X5568Y3660D01*
X5608Y3660D02*
X5635Y3660D01*
X6442Y3660D02*
X6468Y3660D01*
X6508Y3660D02*
X6535Y3660D01*
X5542Y3659D02*
X5568Y3659D01*
X5608Y3659D02*
X5635Y3659D01*
X6442Y3659D02*
X6468Y3659D01*
X6508Y3659D02*
X6535Y3659D01*
X5542Y3658D02*
X5569Y3658D01*
X5608Y3658D02*
X5635Y3658D01*
X6442Y3658D02*
X6469Y3658D01*
X6508Y3658D02*
X6535Y3658D01*
X5542Y3657D02*
X5569Y3657D01*
X5608Y3657D02*
X5635Y3657D01*
X6442Y3657D02*
X6469Y3657D01*
X6508Y3657D02*
X6535Y3657D01*
X5542Y3656D02*
X5569Y3656D01*
X5608Y3656D02*
X5635Y3656D01*
X6442Y3656D02*
X6469Y3656D01*
X6508Y3656D02*
X6535Y3656D01*
X5542Y3655D02*
X5569Y3655D01*
X5607Y3655D02*
X5635Y3655D01*
X6442Y3655D02*
X6469Y3655D01*
X6507Y3655D02*
X6535Y3655D01*
X5542Y3654D02*
X5570Y3654D01*
X5607Y3654D02*
X5635Y3654D01*
X6442Y3654D02*
X6470Y3654D01*
X6507Y3654D02*
X6535Y3654D01*
X5542Y3653D02*
X5570Y3653D01*
X5607Y3653D02*
X5635Y3653D01*
X6442Y3653D02*
X6470Y3653D01*
X6507Y3653D02*
X6535Y3653D01*
X5542Y3652D02*
X5571Y3652D01*
X5606Y3652D02*
X5635Y3652D01*
X6442Y3652D02*
X6471Y3652D01*
X6506Y3652D02*
X6535Y3652D01*
X5542Y3651D02*
X5571Y3651D01*
X5606Y3651D02*
X5635Y3651D01*
X6442Y3651D02*
X6471Y3651D01*
X6506Y3651D02*
X6535Y3651D01*
X5542Y3650D02*
X5572Y3650D01*
X5605Y3650D02*
X5635Y3650D01*
X6442Y3650D02*
X6472Y3650D01*
X6505Y3650D02*
X6535Y3650D01*
X5542Y3649D02*
X5573Y3649D01*
X5604Y3649D02*
X5635Y3649D01*
X6442Y3649D02*
X6473Y3649D01*
X6504Y3649D02*
X6535Y3649D01*
X5542Y3648D02*
X5574Y3648D01*
X5603Y3648D02*
X5635Y3648D01*
X6442Y3648D02*
X6474Y3648D01*
X6503Y3648D02*
X6535Y3648D01*
X5542Y3647D02*
X5575Y3647D01*
X5602Y3647D02*
X5635Y3647D01*
X6442Y3647D02*
X6475Y3647D01*
X6502Y3647D02*
X6535Y3647D01*
X5542Y3646D02*
X5576Y3646D01*
X5601Y3646D02*
X5635Y3646D01*
X6442Y3646D02*
X6476Y3646D01*
X6501Y3646D02*
X6535Y3646D01*
X5542Y3645D02*
X5577Y3645D01*
X5600Y3645D02*
X5635Y3645D01*
X6442Y3645D02*
X6477Y3645D01*
X6500Y3645D02*
X6535Y3645D01*
X5542Y3644D02*
X5579Y3644D01*
X5598Y3644D02*
X5635Y3644D01*
X6442Y3644D02*
X6479Y3644D01*
X6498Y3644D02*
X6535Y3644D01*
X5542Y3643D02*
X5581Y3643D01*
X5596Y3643D02*
X5635Y3643D01*
X6442Y3643D02*
X6481Y3643D01*
X6496Y3643D02*
X6535Y3643D01*
X5542Y3642D02*
X5585Y3642D01*
X5592Y3642D02*
X5635Y3642D01*
X6442Y3642D02*
X6485Y3642D01*
X6492Y3642D02*
X6535Y3642D01*
X5542Y3641D02*
X5635Y3641D01*
X6442Y3641D02*
X6535Y3641D01*
X5542Y3640D02*
X5635Y3640D01*
X6442Y3640D02*
X6535Y3640D01*
X5542Y3639D02*
X5635Y3639D01*
X6442Y3639D02*
X6535Y3639D01*
X5542Y3638D02*
X5635Y3638D01*
X6442Y3638D02*
X6535Y3638D01*
X5542Y3637D02*
X5635Y3637D01*
X6442Y3637D02*
X6535Y3637D01*
X5542Y3636D02*
X5635Y3636D01*
X6442Y3636D02*
X6535Y3636D01*
X5542Y3635D02*
X5635Y3635D01*
X6442Y3635D02*
X6535Y3635D01*
X5542Y3634D02*
X5635Y3634D01*
X6442Y3634D02*
X6535Y3634D01*
X5542Y3633D02*
X5635Y3633D01*
X6442Y3633D02*
X6535Y3633D01*
X5542Y3632D02*
X5635Y3632D01*
X6442Y3632D02*
X6535Y3632D01*
X5542Y3631D02*
X5635Y3631D01*
X6442Y3631D02*
X6535Y3631D01*
X5542Y3630D02*
X5635Y3630D01*
X6442Y3630D02*
X6535Y3630D01*
X5542Y3629D02*
X5635Y3629D01*
X6442Y3629D02*
X6535Y3629D01*
X5542Y3628D02*
X5635Y3628D01*
X6442Y3628D02*
X6535Y3628D01*
X5542Y3627D02*
X5635Y3627D01*
X6442Y3627D02*
X6535Y3627D01*
X5542Y3626D02*
X5635Y3626D01*
X6442Y3626D02*
X6535Y3626D01*
X5542Y3625D02*
X5635Y3625D01*
X6442Y3625D02*
X6535Y3625D01*
X5542Y3624D02*
X5635Y3624D01*
X6442Y3624D02*
X6535Y3624D01*
X5542Y3623D02*
X5635Y3623D01*
X6442Y3623D02*
X6535Y3623D01*
X5542Y3622D02*
X5635Y3622D01*
X6442Y3622D02*
X6535Y3622D01*
X5542Y3621D02*
X5635Y3621D01*
X6442Y3621D02*
X6535Y3621D01*
X5542Y3620D02*
X5635Y3620D01*
X6442Y3620D02*
X6535Y3620D01*
X5542Y3619D02*
X5635Y3619D01*
X6442Y3619D02*
X6535Y3619D01*
X5542Y3618D02*
X5635Y3618D01*
X6442Y3618D02*
X6535Y3618D01*
X5542Y3617D02*
X5635Y3617D01*
X6442Y3617D02*
X6535Y3617D01*
X5542Y3616D02*
X5635Y3616D01*
X6442Y3616D02*
X6535Y3616D01*
X5542Y3615D02*
X5635Y3615D01*
X6442Y3615D02*
X6535Y3615D01*
D02*
G04 End of Copper0*
M02*