G04 MADE WITH FRITZING*
G04 WWW.FRITZING.ORG*
G04 DOUBLE SIDED*
G04 HOLES PLATED*
G04 CONTOUR ON CENTER OF CONTOUR VECTOR*
%ASAXBY*%
%FSLAX23Y23*%
%MOIN*%
%OFA0B0*%
%SFA1.0B1.0*%
%ADD10R,0.059056X0.039361*%
%ADD11R,0.059056X0.039389*%
%ADD12R,0.059056X0.039375*%
%ADD13R,0.039361X0.059056*%
%ADD14R,0.039389X0.059056*%
%ADD15R,0.039375X0.059056*%
%LNPASTEMASK0*%
G90*
G70*
G54D10*
X3067Y4092D03*
G54D11*
X3067Y4155D03*
G54D12*
X3067Y4218D03*
X3260Y4218D03*
G54D11*
X3260Y4155D03*
G54D10*
X3260Y4092D03*
X3067Y3692D03*
G54D11*
X3067Y3755D03*
G54D12*
X3067Y3818D03*
X3260Y3818D03*
G54D11*
X3260Y3755D03*
G54D10*
X3260Y3692D03*
G54D13*
X4023Y4662D03*
G54D14*
X3960Y4662D03*
G54D15*
X3897Y4662D03*
X3897Y4855D03*
G54D14*
X3960Y4855D03*
G54D13*
X4023Y4855D03*
G54D10*
X4667Y4092D03*
G54D11*
X4667Y4155D03*
G54D12*
X4667Y4218D03*
X4860Y4218D03*
G54D11*
X4860Y4155D03*
G54D10*
X4860Y4092D03*
X4667Y3692D03*
G54D11*
X4667Y3755D03*
G54D12*
X4667Y3818D03*
X4860Y3818D03*
G54D11*
X4860Y3755D03*
G54D10*
X4860Y3692D03*
G54D13*
X4023Y3062D03*
G54D14*
X3960Y3062D03*
G54D15*
X3897Y3062D03*
X3897Y3255D03*
G54D14*
X3960Y3255D03*
G54D13*
X4023Y3255D03*
G36*
X3534Y4598D02*
X3576Y4556D01*
X3548Y4528D01*
X3506Y4570D01*
X3534Y4598D01*
G37*
D02*
G36*
X3490Y4553D02*
X3531Y4511D01*
X3504Y4484D01*
X3462Y4525D01*
X3490Y4553D01*
G37*
D02*
G36*
X3445Y4509D02*
X3487Y4467D01*
X3459Y4439D01*
X3417Y4481D01*
X3445Y4509D01*
G37*
D02*
G36*
X3309Y4645D02*
X3350Y4603D01*
X3323Y4576D01*
X3281Y4617D01*
X3309Y4645D01*
G37*
D02*
G36*
X3353Y4690D02*
X3395Y4648D01*
X3367Y4620D01*
X3325Y4662D01*
X3353Y4690D01*
G37*
D02*
G36*
X3398Y4734D02*
X3439Y4692D01*
X3412Y4665D01*
X3370Y4706D01*
X3398Y4734D01*
G37*
D02*
G36*
X4503Y4481D02*
X4461Y4439D01*
X4433Y4467D01*
X4475Y4509D01*
X4503Y4481D01*
G37*
D02*
G36*
X4459Y4525D02*
X4417Y4484D01*
X4389Y4511D01*
X4431Y4553D01*
X4459Y4525D01*
G37*
D02*
G36*
X4414Y4570D02*
X4372Y4528D01*
X4344Y4556D01*
X4386Y4598D01*
X4414Y4570D01*
G37*
D02*
G36*
X4550Y4706D02*
X4509Y4665D01*
X4481Y4692D01*
X4523Y4734D01*
X4550Y4706D01*
G37*
D02*
G36*
X4595Y4662D02*
X4553Y4620D01*
X4525Y4648D01*
X4567Y4690D01*
X4595Y4662D01*
G37*
D02*
G36*
X4639Y4617D02*
X4598Y4576D01*
X4570Y4603D01*
X4612Y4645D01*
X4639Y4617D01*
G37*
D02*
G36*
X4584Y3348D02*
X4626Y3306D01*
X4598Y3278D01*
X4556Y3320D01*
X4584Y3348D01*
G37*
D02*
G36*
X4540Y3303D02*
X4581Y3261D01*
X4554Y3234D01*
X4512Y3275D01*
X4540Y3303D01*
G37*
D02*
G36*
X4495Y3259D02*
X4537Y3217D01*
X4509Y3189D01*
X4467Y3231D01*
X4495Y3259D01*
G37*
D02*
G36*
X4359Y3395D02*
X4400Y3353D01*
X4373Y3325D01*
X4331Y3367D01*
X4359Y3395D01*
G37*
D02*
G36*
X4403Y3440D02*
X4445Y3398D01*
X4417Y3370D01*
X4375Y3412D01*
X4403Y3440D01*
G37*
D02*
G36*
X4448Y3484D02*
X4489Y3442D01*
X4462Y3415D01*
X4420Y3456D01*
X4448Y3484D01*
G37*
D02*
G36*
X3453Y3231D02*
X3411Y3189D01*
X3383Y3217D01*
X3425Y3259D01*
X3453Y3231D01*
G37*
D02*
G36*
X3409Y3275D02*
X3367Y3234D01*
X3339Y3261D01*
X3381Y3303D01*
X3409Y3275D01*
G37*
D02*
G36*
X3364Y3320D02*
X3322Y3278D01*
X3294Y3306D01*
X3336Y3348D01*
X3364Y3320D01*
G37*
D02*
G36*
X3500Y3456D02*
X3459Y3415D01*
X3431Y3442D01*
X3473Y3484D01*
X3500Y3456D01*
G37*
D02*
G36*
X3545Y3412D02*
X3503Y3370D01*
X3475Y3398D01*
X3517Y3440D01*
X3545Y3412D01*
G37*
D02*
G36*
X3589Y3367D02*
X3548Y3326D01*
X3520Y3353D01*
X3562Y3395D01*
X3589Y3367D01*
G37*
D02*
G04 End of PasteMask0*
M02*