G04 MADE WITH FRITZING*
G04 WWW.FRITZING.ORG*
G04 DOUBLE SIDED*
G04 HOLES PLATED*
G04 CONTOUR ON CENTER OF CONTOUR VECTOR*
%ASAXBY*%
%FSLAX23Y23*%
%MOIN*%
%OFA0B0*%
%SFA1.0B1.0*%
%ADD10C,0.005556*%
%ADD11R,0.001000X0.001000*%
%LNSILK0*%
G90*
G70*
G54D10*
X3262Y4244D02*
X3262Y4253D01*
X3065Y4253D01*
X3065Y4244D01*
D02*
X3065Y4065D02*
X3065Y4056D01*
X3262Y4056D01*
X3262Y4065D01*
D02*
X3262Y3844D02*
X3262Y3853D01*
X3065Y3853D01*
X3065Y3844D01*
D02*
X3065Y3665D02*
X3065Y3656D01*
X3262Y3656D01*
X3262Y3665D01*
D02*
X3295Y4593D02*
X3289Y4587D01*
X3428Y4447D01*
X3435Y4454D01*
D02*
X3561Y4580D02*
X3568Y4587D01*
X3428Y4726D01*
X3422Y4720D01*
D02*
X3871Y4857D02*
X3862Y4857D01*
X3862Y4660D01*
X3871Y4660D01*
D02*
X4050Y4660D02*
X4059Y4660D01*
X4059Y4857D01*
X4050Y4857D01*
D02*
X4498Y4720D02*
X4492Y4726D01*
X4353Y4587D01*
X4359Y4580D01*
D02*
X4486Y4454D02*
X4492Y4447D01*
X4631Y4587D01*
X4625Y4593D01*
D02*
X4862Y4244D02*
X4862Y4253D01*
X4665Y4253D01*
X4665Y4244D01*
D02*
X4665Y4065D02*
X4665Y4056D01*
X4862Y4056D01*
X4862Y4065D01*
D02*
X4862Y3844D02*
X4862Y3853D01*
X4665Y3853D01*
X4665Y3844D01*
D02*
X4665Y3665D02*
X4665Y3656D01*
X4862Y3656D01*
X4862Y3665D01*
D02*
X4345Y3343D02*
X4339Y3337D01*
X4478Y3197D01*
X4485Y3204D01*
D02*
X4611Y3330D02*
X4618Y3337D01*
X4478Y3476D01*
X4472Y3470D01*
D02*
X3871Y3257D02*
X3862Y3257D01*
X3862Y3060D01*
X3871Y3060D01*
D02*
X4050Y3060D02*
X4059Y3060D01*
X4059Y3257D01*
X4050Y3257D01*
D02*
X3448Y3470D02*
X3442Y3476D01*
X3303Y3337D01*
X3309Y3330D01*
D02*
X3436Y3204D02*
X3442Y3197D01*
X3581Y3337D01*
X3575Y3343D01*
D02*
G54D11*
X4329Y4536D02*
X4329Y4536D01*
X4326Y4535D02*
X4331Y4535D01*
X4325Y4534D02*
X4332Y4534D01*
X4323Y4533D02*
X4332Y4533D01*
X4322Y4532D02*
X4332Y4532D01*
X4320Y4531D02*
X4332Y4531D01*
X4319Y4530D02*
X4332Y4530D01*
X4318Y4529D02*
X4332Y4529D01*
X4317Y4528D02*
X4332Y4528D01*
X4316Y4527D02*
X4331Y4527D01*
X4314Y4526D02*
X4331Y4526D01*
X4313Y4525D02*
X4330Y4525D01*
X4312Y4524D02*
X4330Y4524D01*
X4311Y4523D02*
X4330Y4523D01*
X4310Y4522D02*
X4329Y4522D01*
X4309Y4521D02*
X4329Y4521D01*
X4308Y4520D02*
X4328Y4520D01*
X4307Y4519D02*
X4328Y4519D01*
X4306Y4518D02*
X4327Y4518D01*
X4305Y4517D02*
X4327Y4517D01*
X4304Y4516D02*
X4326Y4516D01*
X4303Y4515D02*
X4326Y4515D01*
X4302Y4514D02*
X4325Y4514D01*
X4301Y4513D02*
X4325Y4513D01*
X4300Y4512D02*
X4324Y4512D01*
X4299Y4511D02*
X4312Y4511D01*
X4315Y4511D02*
X4324Y4511D01*
X4298Y4510D02*
X4311Y4510D01*
X4315Y4510D02*
X4323Y4510D01*
X4297Y4509D02*
X4310Y4509D01*
X4314Y4509D02*
X4323Y4509D01*
X4296Y4508D02*
X4309Y4508D01*
X4314Y4508D02*
X4322Y4508D01*
X4295Y4507D02*
X4308Y4507D01*
X4313Y4507D02*
X4322Y4507D01*
X4294Y4506D02*
X4307Y4506D01*
X4313Y4506D02*
X4321Y4506D01*
X4293Y4505D02*
X4306Y4505D01*
X4312Y4505D02*
X4321Y4505D01*
X4292Y4504D02*
X4305Y4504D01*
X4311Y4504D02*
X4320Y4504D01*
X4290Y4503D02*
X4304Y4503D01*
X4311Y4503D02*
X4320Y4503D01*
X4289Y4502D02*
X4303Y4502D01*
X4310Y4502D02*
X4319Y4502D01*
X4288Y4501D02*
X4302Y4501D01*
X4310Y4501D02*
X4318Y4501D01*
X4287Y4500D02*
X4301Y4500D01*
X4309Y4500D02*
X4318Y4500D01*
X4286Y4499D02*
X4300Y4499D01*
X4308Y4499D02*
X4317Y4499D01*
X4285Y4498D02*
X4299Y4498D01*
X4308Y4498D02*
X4317Y4498D01*
X4284Y4497D02*
X4298Y4497D01*
X4307Y4497D02*
X4316Y4497D01*
X4283Y4496D02*
X4297Y4496D01*
X4306Y4496D02*
X4316Y4496D01*
X4282Y4495D02*
X4296Y4495D01*
X4306Y4495D02*
X4315Y4495D01*
X4281Y4494D02*
X4295Y4494D01*
X4305Y4494D02*
X4315Y4494D01*
X4280Y4493D02*
X4294Y4493D01*
X4304Y4493D02*
X4314Y4493D01*
X4279Y4492D02*
X4293Y4492D01*
X4304Y4492D02*
X4313Y4492D01*
X4278Y4491D02*
X4292Y4491D01*
X4303Y4491D02*
X4313Y4491D01*
X4277Y4490D02*
X4291Y4490D01*
X4302Y4490D02*
X4312Y4490D01*
X4276Y4489D02*
X4290Y4489D01*
X4302Y4489D02*
X4311Y4489D01*
X4275Y4488D02*
X4289Y4488D01*
X4301Y4488D02*
X4311Y4488D01*
X4274Y4487D02*
X4288Y4487D01*
X4300Y4487D02*
X4310Y4487D01*
X4273Y4486D02*
X4287Y4486D01*
X4300Y4486D02*
X4310Y4486D01*
X4272Y4485D02*
X4286Y4485D01*
X4299Y4485D02*
X4309Y4485D01*
X4271Y4484D02*
X4284Y4484D01*
X4298Y4484D02*
X4308Y4484D01*
X4270Y4483D02*
X4283Y4483D01*
X4298Y4483D02*
X4308Y4483D01*
X4269Y4482D02*
X4282Y4482D01*
X4297Y4482D02*
X4307Y4482D01*
X4268Y4481D02*
X4281Y4481D01*
X4296Y4481D02*
X4307Y4481D01*
X4267Y4480D02*
X4280Y4480D01*
X4296Y4480D02*
X4306Y4480D01*
X4266Y4479D02*
X4279Y4479D01*
X4295Y4479D02*
X4305Y4479D01*
X4264Y4478D02*
X4278Y4478D01*
X4294Y4478D02*
X4305Y4478D01*
X4263Y4477D02*
X4277Y4477D01*
X4294Y4477D02*
X4304Y4477D01*
X4262Y4476D02*
X4276Y4476D01*
X4293Y4476D02*
X4303Y4476D01*
X4261Y4475D02*
X4275Y4475D01*
X4292Y4475D02*
X4303Y4475D01*
X4260Y4474D02*
X4274Y4474D01*
X4292Y4474D02*
X4302Y4474D01*
X4258Y4473D02*
X4273Y4473D01*
X4291Y4473D02*
X4301Y4473D01*
X4257Y4472D02*
X4271Y4472D01*
X4290Y4472D02*
X4301Y4472D01*
X4256Y4471D02*
X4270Y4471D01*
X4289Y4471D02*
X4300Y4471D01*
X4254Y4470D02*
X4269Y4470D01*
X4289Y4470D02*
X4299Y4470D01*
X4253Y4469D02*
X4268Y4469D01*
X4288Y4469D02*
X4299Y4469D01*
X4252Y4468D02*
X4267Y4468D01*
X4287Y4468D02*
X4298Y4468D01*
X4250Y4467D02*
X4265Y4467D01*
X4287Y4467D02*
X4297Y4467D01*
X4249Y4466D02*
X4264Y4466D01*
X4286Y4466D02*
X4297Y4466D01*
X4247Y4465D02*
X4263Y4465D01*
X4285Y4465D02*
X4296Y4465D01*
X4246Y4464D02*
X4262Y4464D01*
X4284Y4464D02*
X4295Y4464D01*
X4244Y4463D02*
X4260Y4463D01*
X4284Y4463D02*
X4295Y4463D01*
X4243Y4462D02*
X4259Y4462D01*
X4283Y4462D02*
X4294Y4462D01*
X4241Y4461D02*
X4258Y4461D01*
X4282Y4461D02*
X4293Y4461D01*
X4239Y4460D02*
X4257Y4460D01*
X4281Y4460D02*
X4293Y4460D01*
X4238Y4459D02*
X4255Y4459D01*
X4281Y4459D02*
X4292Y4459D01*
X4236Y4458D02*
X4254Y4458D01*
X4280Y4458D02*
X4291Y4458D01*
X4234Y4457D02*
X4252Y4457D01*
X4279Y4457D02*
X4290Y4457D01*
X4233Y4456D02*
X4251Y4456D01*
X4278Y4456D02*
X4290Y4456D01*
X4231Y4455D02*
X4250Y4455D01*
X4277Y4455D02*
X4289Y4455D01*
X4230Y4454D02*
X4248Y4454D01*
X4277Y4454D02*
X4288Y4454D01*
X4336Y4454D02*
X4336Y4454D01*
X4228Y4453D02*
X4247Y4453D01*
X4276Y4453D02*
X4288Y4453D01*
X4334Y4453D02*
X4337Y4453D01*
X4226Y4452D02*
X4245Y4452D01*
X4275Y4452D02*
X4287Y4452D01*
X4333Y4452D02*
X4337Y4452D01*
X4224Y4451D02*
X4244Y4451D01*
X4274Y4451D02*
X4286Y4451D01*
X4331Y4451D02*
X4337Y4451D01*
X4223Y4450D02*
X4242Y4450D01*
X4273Y4450D02*
X4285Y4450D01*
X4330Y4450D02*
X4337Y4450D01*
X4221Y4449D02*
X4241Y4449D01*
X4273Y4449D02*
X4285Y4449D01*
X4329Y4449D02*
X4337Y4449D01*
X4219Y4448D02*
X4239Y4448D01*
X4272Y4448D02*
X4284Y4448D01*
X4328Y4448D02*
X4337Y4448D01*
X4217Y4447D02*
X4237Y4447D01*
X4271Y4447D02*
X4283Y4447D01*
X4327Y4447D02*
X4337Y4447D01*
X4216Y4446D02*
X4236Y4446D01*
X4270Y4446D02*
X4282Y4446D01*
X4326Y4446D02*
X4337Y4446D01*
X4214Y4445D02*
X4234Y4445D01*
X4269Y4445D02*
X4282Y4445D01*
X4325Y4445D02*
X4337Y4445D01*
X4212Y4444D02*
X4232Y4444D01*
X4268Y4444D02*
X4281Y4444D01*
X4324Y4444D02*
X4337Y4444D01*
X4210Y4443D02*
X4231Y4443D01*
X4268Y4443D02*
X4280Y4443D01*
X4323Y4443D02*
X4336Y4443D01*
X4208Y4442D02*
X4229Y4442D01*
X4267Y4442D02*
X4279Y4442D01*
X4322Y4442D02*
X4336Y4442D01*
X4207Y4441D02*
X4227Y4441D01*
X4266Y4441D02*
X4278Y4441D01*
X4321Y4441D02*
X4336Y4441D01*
X4205Y4440D02*
X4225Y4440D01*
X4265Y4440D02*
X4278Y4440D01*
X4320Y4440D02*
X4336Y4440D01*
X4203Y4439D02*
X4224Y4439D01*
X4264Y4439D02*
X4277Y4439D01*
X4319Y4439D02*
X4336Y4439D01*
X4201Y4438D02*
X4222Y4438D01*
X4263Y4438D02*
X4276Y4438D01*
X4318Y4438D02*
X4335Y4438D01*
X4199Y4437D02*
X4220Y4437D01*
X4262Y4437D02*
X4275Y4437D01*
X4317Y4437D02*
X4335Y4437D01*
X4197Y4436D02*
X4219Y4436D01*
X4262Y4436D02*
X4274Y4436D01*
X4316Y4436D02*
X4335Y4436D01*
X4195Y4435D02*
X4217Y4435D01*
X4261Y4435D02*
X4273Y4435D01*
X4315Y4435D02*
X4335Y4435D01*
X4193Y4434D02*
X4215Y4434D01*
X4260Y4434D02*
X4273Y4434D01*
X4314Y4434D02*
X4334Y4434D01*
X4191Y4433D02*
X4213Y4433D01*
X4259Y4433D02*
X4272Y4433D01*
X4313Y4433D02*
X4334Y4433D01*
X4189Y4432D02*
X4212Y4432D01*
X4258Y4432D02*
X4271Y4432D01*
X4312Y4432D02*
X4334Y4432D01*
X4187Y4431D02*
X4210Y4431D01*
X4257Y4431D02*
X4270Y4431D01*
X4311Y4431D02*
X4333Y4431D01*
X4185Y4430D02*
X4208Y4430D01*
X4256Y4430D02*
X4269Y4430D01*
X4310Y4430D02*
X4333Y4430D01*
X4182Y4429D02*
X4206Y4429D01*
X4255Y4429D02*
X4268Y4429D01*
X4309Y4429D02*
X4322Y4429D01*
X4324Y4429D02*
X4333Y4429D01*
X4180Y4428D02*
X4204Y4428D01*
X4254Y4428D02*
X4267Y4428D01*
X4308Y4428D02*
X4321Y4428D01*
X4323Y4428D02*
X4332Y4428D01*
X4178Y4427D02*
X4202Y4427D01*
X4253Y4427D02*
X4266Y4427D01*
X4307Y4427D02*
X4319Y4427D01*
X4323Y4427D02*
X4332Y4427D01*
X4175Y4426D02*
X4200Y4426D01*
X4252Y4426D02*
X4266Y4426D01*
X4306Y4426D02*
X4318Y4426D01*
X4322Y4426D02*
X4332Y4426D01*
X4173Y4425D02*
X4197Y4425D01*
X4251Y4425D02*
X4265Y4425D01*
X4305Y4425D02*
X4317Y4425D01*
X4322Y4425D02*
X4331Y4425D01*
X4171Y4424D02*
X4195Y4424D01*
X4251Y4424D02*
X4264Y4424D01*
X4304Y4424D02*
X4316Y4424D01*
X4321Y4424D02*
X4331Y4424D01*
X4168Y4423D02*
X4193Y4423D01*
X4250Y4423D02*
X4263Y4423D01*
X4303Y4423D02*
X4315Y4423D01*
X4321Y4423D02*
X4330Y4423D01*
X4165Y4422D02*
X4191Y4422D01*
X4249Y4422D02*
X4262Y4422D01*
X4302Y4422D02*
X4314Y4422D01*
X4320Y4422D02*
X4330Y4422D01*
X4163Y4421D02*
X4188Y4421D01*
X4248Y4421D02*
X4261Y4421D01*
X4301Y4421D02*
X4313Y4421D01*
X4320Y4421D02*
X4329Y4421D01*
X4160Y4420D02*
X4186Y4420D01*
X4247Y4420D02*
X4260Y4420D01*
X4300Y4420D02*
X4312Y4420D01*
X4319Y4420D02*
X4329Y4420D01*
X4157Y4419D02*
X4183Y4419D01*
X4246Y4419D02*
X4259Y4419D01*
X4299Y4419D02*
X4311Y4419D01*
X4319Y4419D02*
X4328Y4419D01*
X4154Y4418D02*
X4181Y4418D01*
X4245Y4418D02*
X4258Y4418D01*
X4298Y4418D02*
X4310Y4418D01*
X4318Y4418D02*
X4328Y4418D01*
X4151Y4417D02*
X4178Y4417D01*
X4244Y4417D02*
X4257Y4417D01*
X4297Y4417D02*
X4309Y4417D01*
X4317Y4417D02*
X4328Y4417D01*
X4148Y4416D02*
X4176Y4416D01*
X4243Y4416D02*
X4256Y4416D01*
X4296Y4416D02*
X4308Y4416D01*
X4317Y4416D02*
X4327Y4416D01*
X4145Y4415D02*
X4173Y4415D01*
X4242Y4415D02*
X4255Y4415D01*
X4295Y4415D02*
X4307Y4415D01*
X4316Y4415D02*
X4326Y4415D01*
X4142Y4414D02*
X4170Y4414D01*
X4241Y4414D02*
X4254Y4414D01*
X4294Y4414D02*
X4306Y4414D01*
X4316Y4414D02*
X4326Y4414D01*
X4138Y4413D02*
X4167Y4413D01*
X4240Y4413D02*
X4253Y4413D01*
X4293Y4413D02*
X4306Y4413D01*
X4315Y4413D02*
X4325Y4413D01*
X4134Y4412D02*
X4164Y4412D01*
X4239Y4412D02*
X4252Y4412D01*
X4292Y4412D02*
X4305Y4412D01*
X4314Y4412D02*
X4325Y4412D01*
X4131Y4411D02*
X4162Y4411D01*
X4238Y4411D02*
X4251Y4411D01*
X4291Y4411D02*
X4304Y4411D01*
X4314Y4411D02*
X4324Y4411D01*
X4127Y4410D02*
X4159Y4410D01*
X4237Y4410D02*
X4250Y4410D01*
X4290Y4410D02*
X4303Y4410D01*
X4313Y4410D02*
X4324Y4410D01*
X4123Y4409D02*
X4156Y4409D01*
X4236Y4409D02*
X4249Y4409D01*
X4289Y4409D02*
X4302Y4409D01*
X4313Y4409D02*
X4323Y4409D01*
X4119Y4408D02*
X4153Y4408D01*
X4235Y4408D02*
X4248Y4408D01*
X4287Y4408D02*
X4301Y4408D01*
X4312Y4408D02*
X4323Y4408D01*
X4114Y4407D02*
X4149Y4407D01*
X4234Y4407D02*
X4247Y4407D01*
X4286Y4407D02*
X4300Y4407D01*
X4312Y4407D02*
X4322Y4407D01*
X4110Y4406D02*
X4146Y4406D01*
X4233Y4406D02*
X4246Y4406D01*
X4285Y4406D02*
X4299Y4406D01*
X4311Y4406D02*
X4322Y4406D01*
X4105Y4405D02*
X4143Y4405D01*
X4231Y4405D02*
X4245Y4405D01*
X4284Y4405D02*
X4297Y4405D01*
X4310Y4405D02*
X4321Y4405D01*
X4100Y4404D02*
X4139Y4404D01*
X4230Y4404D02*
X4244Y4404D01*
X4283Y4404D02*
X4296Y4404D01*
X4310Y4404D02*
X4321Y4404D01*
X4095Y4403D02*
X4136Y4403D01*
X4229Y4403D02*
X4243Y4403D01*
X4282Y4403D02*
X4295Y4403D01*
X4309Y4403D02*
X4320Y4403D01*
X4088Y4402D02*
X4132Y4402D01*
X4228Y4402D02*
X4242Y4402D01*
X4281Y4402D02*
X4294Y4402D01*
X4308Y4402D02*
X4319Y4402D01*
X3971Y4401D02*
X4022Y4401D01*
X4070Y4401D02*
X4128Y4401D01*
X4227Y4401D02*
X4241Y4401D01*
X4280Y4401D02*
X4293Y4401D01*
X4308Y4401D02*
X4319Y4401D01*
X3942Y4400D02*
X4124Y4400D01*
X4226Y4400D02*
X4240Y4400D01*
X4279Y4400D02*
X4292Y4400D01*
X4307Y4400D02*
X4318Y4400D01*
X3930Y4399D02*
X4120Y4399D01*
X4225Y4399D02*
X4239Y4399D01*
X4277Y4399D02*
X4291Y4399D01*
X4307Y4399D02*
X4318Y4399D01*
X3921Y4398D02*
X4115Y4398D01*
X4224Y4398D02*
X4238Y4398D01*
X4276Y4398D02*
X4290Y4398D01*
X4306Y4398D02*
X4317Y4398D01*
X3913Y4397D02*
X4110Y4397D01*
X4223Y4397D02*
X4237Y4397D01*
X4275Y4397D02*
X4289Y4397D01*
X4305Y4397D02*
X4316Y4397D01*
X3908Y4396D02*
X4105Y4396D01*
X4221Y4396D02*
X4236Y4396D01*
X4274Y4396D02*
X4288Y4396D01*
X4305Y4396D02*
X4316Y4396D01*
X3902Y4395D02*
X4100Y4395D01*
X4220Y4395D02*
X4234Y4395D01*
X4272Y4395D02*
X4287Y4395D01*
X4304Y4395D02*
X4315Y4395D01*
X3897Y4394D02*
X3967Y4394D01*
X3988Y4394D02*
X4094Y4394D01*
X4219Y4394D02*
X4233Y4394D01*
X4271Y4394D02*
X4285Y4394D01*
X4303Y4394D02*
X4314Y4394D01*
X3893Y4393D02*
X3953Y4393D01*
X4004Y4393D02*
X4086Y4393D01*
X4218Y4393D02*
X4232Y4393D01*
X4270Y4393D02*
X4284Y4393D01*
X4303Y4393D02*
X4314Y4393D01*
X3889Y4392D02*
X3943Y4392D01*
X4022Y4392D02*
X4077Y4392D01*
X4217Y4392D02*
X4231Y4392D01*
X4268Y4392D02*
X4283Y4392D01*
X4302Y4392D02*
X4313Y4392D01*
X3885Y4391D02*
X3935Y4391D01*
X4215Y4391D02*
X4230Y4391D01*
X4267Y4391D02*
X4282Y4391D01*
X4302Y4391D02*
X4313Y4391D01*
X3881Y4390D02*
X3928Y4390D01*
X4214Y4390D02*
X4229Y4390D01*
X4266Y4390D02*
X4281Y4390D01*
X4301Y4390D02*
X4312Y4390D01*
X3878Y4389D02*
X3922Y4389D01*
X4213Y4389D02*
X4228Y4389D01*
X4265Y4389D02*
X4279Y4389D01*
X4300Y4389D02*
X4311Y4389D01*
X3874Y4388D02*
X3916Y4388D01*
X4212Y4388D02*
X4226Y4388D01*
X4263Y4388D02*
X4278Y4388D01*
X4300Y4388D02*
X4311Y4388D01*
X3871Y4387D02*
X3910Y4387D01*
X4211Y4387D02*
X4225Y4387D01*
X4262Y4387D02*
X4277Y4387D01*
X4299Y4387D02*
X4310Y4387D01*
X3868Y4386D02*
X3905Y4386D01*
X4209Y4386D02*
X4224Y4386D01*
X4261Y4386D02*
X4276Y4386D01*
X4298Y4386D02*
X4309Y4386D01*
X3865Y4385D02*
X3900Y4385D01*
X4208Y4385D02*
X4223Y4385D01*
X4259Y4385D02*
X4275Y4385D01*
X4298Y4385D02*
X4309Y4385D01*
X3862Y4384D02*
X3896Y4384D01*
X4207Y4384D02*
X4222Y4384D01*
X4258Y4384D02*
X4273Y4384D01*
X4297Y4384D02*
X4308Y4384D01*
X3859Y4383D02*
X3891Y4383D01*
X4205Y4383D02*
X4220Y4383D01*
X4256Y4383D02*
X4272Y4383D01*
X4296Y4383D02*
X4307Y4383D01*
X3856Y4382D02*
X3887Y4382D01*
X4204Y4382D02*
X4219Y4382D01*
X4255Y4382D02*
X4271Y4382D01*
X4296Y4382D02*
X4307Y4382D01*
X3853Y4381D02*
X3883Y4381D01*
X4203Y4381D02*
X4218Y4381D01*
X4254Y4381D02*
X4269Y4381D01*
X4295Y4381D02*
X4306Y4381D01*
X3850Y4380D02*
X3879Y4380D01*
X4201Y4380D02*
X4217Y4380D01*
X4252Y4380D02*
X4268Y4380D01*
X4294Y4380D02*
X4305Y4380D01*
X3847Y4379D02*
X3876Y4379D01*
X4200Y4379D02*
X4215Y4379D01*
X4251Y4379D02*
X4267Y4379D01*
X4294Y4379D02*
X4305Y4379D01*
X3845Y4378D02*
X3872Y4378D01*
X4199Y4378D02*
X4214Y4378D01*
X4249Y4378D02*
X4265Y4378D01*
X4293Y4378D02*
X4304Y4378D01*
X3842Y4377D02*
X3869Y4377D01*
X4197Y4377D02*
X4213Y4377D01*
X4248Y4377D02*
X4264Y4377D01*
X4292Y4377D02*
X4303Y4377D01*
X3839Y4376D02*
X3865Y4376D01*
X4196Y4376D02*
X4211Y4376D01*
X4247Y4376D02*
X4263Y4376D01*
X4291Y4376D02*
X4303Y4376D01*
X3836Y4375D02*
X3862Y4375D01*
X4194Y4375D02*
X4210Y4375D01*
X4245Y4375D02*
X4261Y4375D01*
X4291Y4375D02*
X4302Y4375D01*
X3834Y4374D02*
X3859Y4374D01*
X4193Y4374D02*
X4209Y4374D01*
X4244Y4374D02*
X4260Y4374D01*
X4290Y4374D02*
X4301Y4374D01*
X3831Y4373D02*
X3856Y4373D01*
X4191Y4373D02*
X4207Y4373D01*
X4242Y4373D02*
X4259Y4373D01*
X4289Y4373D02*
X4300Y4373D01*
X3828Y4372D02*
X3853Y4372D01*
X4190Y4372D02*
X4206Y4372D01*
X4241Y4372D02*
X4257Y4372D01*
X4289Y4372D02*
X4300Y4372D01*
X3825Y4371D02*
X3850Y4371D01*
X4189Y4371D02*
X4205Y4371D01*
X4239Y4371D02*
X4256Y4371D01*
X4288Y4371D02*
X4299Y4371D01*
X3823Y4370D02*
X3847Y4370D01*
X4187Y4370D02*
X4203Y4370D01*
X4237Y4370D02*
X4254Y4370D01*
X4287Y4370D02*
X4298Y4370D01*
X3820Y4369D02*
X3845Y4369D01*
X4186Y4369D02*
X4202Y4369D01*
X4235Y4369D02*
X4253Y4369D01*
X4287Y4369D02*
X4298Y4369D01*
X3818Y4368D02*
X3842Y4368D01*
X4185Y4368D02*
X4200Y4368D01*
X4233Y4368D02*
X4251Y4368D01*
X4286Y4368D02*
X4297Y4368D01*
X4340Y4368D02*
X4340Y4368D01*
X3816Y4367D02*
X3840Y4367D01*
X4184Y4367D02*
X4199Y4367D01*
X4231Y4367D02*
X4250Y4367D01*
X4285Y4367D02*
X4296Y4367D01*
X4338Y4367D02*
X4341Y4367D01*
X3814Y4366D02*
X3837Y4366D01*
X4182Y4366D02*
X4198Y4366D01*
X4230Y4366D02*
X4248Y4366D01*
X4284Y4366D02*
X4295Y4366D01*
X4337Y4366D02*
X4341Y4366D01*
X3812Y4365D02*
X3835Y4365D01*
X4181Y4365D02*
X4196Y4365D01*
X4228Y4365D02*
X4247Y4365D01*
X4283Y4365D02*
X4295Y4365D01*
X4335Y4365D02*
X4341Y4365D01*
X3810Y4364D02*
X3833Y4364D01*
X4180Y4364D02*
X4195Y4364D01*
X4227Y4364D02*
X4245Y4364D01*
X4283Y4364D02*
X4294Y4364D01*
X4334Y4364D02*
X4342Y4364D01*
X3808Y4363D02*
X3830Y4363D01*
X4179Y4363D02*
X4194Y4363D01*
X4225Y4363D02*
X4244Y4363D01*
X4282Y4363D02*
X4293Y4363D01*
X4333Y4363D02*
X4342Y4363D01*
X3806Y4362D02*
X3828Y4362D01*
X4178Y4362D02*
X4192Y4362D01*
X4224Y4362D02*
X4242Y4362D01*
X4281Y4362D02*
X4293Y4362D01*
X4332Y4362D02*
X4341Y4362D01*
X3804Y4361D02*
X3826Y4361D01*
X4177Y4361D02*
X4191Y4361D01*
X4222Y4361D02*
X4241Y4361D01*
X4280Y4361D02*
X4292Y4361D01*
X4331Y4361D02*
X4341Y4361D01*
X3802Y4360D02*
X3824Y4360D01*
X4176Y4360D02*
X4190Y4360D01*
X4220Y4360D02*
X4239Y4360D01*
X4280Y4360D02*
X4291Y4360D01*
X4330Y4360D02*
X4341Y4360D01*
X3800Y4359D02*
X3822Y4359D01*
X4175Y4359D02*
X4188Y4359D01*
X4219Y4359D02*
X4238Y4359D01*
X4279Y4359D02*
X4290Y4359D01*
X4329Y4359D02*
X4341Y4359D01*
X3798Y4358D02*
X3820Y4358D01*
X4174Y4358D02*
X4187Y4358D01*
X4217Y4358D02*
X4236Y4358D01*
X4278Y4358D02*
X4290Y4358D01*
X4328Y4358D02*
X4341Y4358D01*
X3797Y4357D02*
X3818Y4357D01*
X4173Y4357D02*
X4186Y4357D01*
X4215Y4357D02*
X4234Y4357D01*
X4277Y4357D02*
X4289Y4357D01*
X4326Y4357D02*
X4341Y4357D01*
X3795Y4356D02*
X3816Y4356D01*
X4171Y4356D02*
X4185Y4356D01*
X4214Y4356D02*
X4233Y4356D01*
X4276Y4356D02*
X4288Y4356D01*
X4325Y4356D02*
X4340Y4356D01*
X3793Y4355D02*
X3814Y4355D01*
X4170Y4355D02*
X4184Y4355D01*
X4212Y4355D02*
X4231Y4355D01*
X4276Y4355D02*
X4287Y4355D01*
X4324Y4355D02*
X4340Y4355D01*
X3792Y4354D02*
X3812Y4354D01*
X4169Y4354D02*
X4183Y4354D01*
X4210Y4354D02*
X4229Y4354D01*
X4275Y4354D02*
X4287Y4354D01*
X4323Y4354D02*
X4340Y4354D01*
X3790Y4353D02*
X3810Y4353D01*
X4168Y4353D02*
X4182Y4353D01*
X4208Y4353D02*
X4227Y4353D01*
X4274Y4353D02*
X4286Y4353D01*
X4322Y4353D02*
X4340Y4353D01*
X3788Y4352D02*
X3808Y4352D01*
X4167Y4352D02*
X4182Y4352D01*
X4206Y4352D02*
X4225Y4352D01*
X4273Y4352D02*
X4285Y4352D01*
X4321Y4352D02*
X4339Y4352D01*
X3786Y4351D02*
X3806Y4351D01*
X4165Y4351D02*
X4182Y4351D01*
X4204Y4351D02*
X4224Y4351D01*
X4273Y4351D02*
X4284Y4351D01*
X4320Y4351D02*
X4339Y4351D01*
X3785Y4350D02*
X3804Y4350D01*
X4164Y4350D02*
X4182Y4350D01*
X4202Y4350D02*
X4222Y4350D01*
X4272Y4350D02*
X4283Y4350D01*
X4319Y4350D02*
X4339Y4350D01*
X3783Y4349D02*
X3802Y4349D01*
X4163Y4349D02*
X4183Y4349D01*
X4199Y4349D02*
X4220Y4349D01*
X4271Y4349D02*
X4283Y4349D01*
X4318Y4349D02*
X4338Y4349D01*
X3782Y4348D02*
X3800Y4348D01*
X4161Y4348D02*
X4184Y4348D01*
X4197Y4348D02*
X4218Y4348D01*
X4270Y4348D02*
X4282Y4348D01*
X4317Y4348D02*
X4338Y4348D01*
X3780Y4347D02*
X3798Y4347D01*
X4160Y4347D02*
X4186Y4347D01*
X4194Y4347D02*
X4216Y4347D01*
X4269Y4347D02*
X4281Y4347D01*
X4316Y4347D02*
X4338Y4347D01*
X3778Y4346D02*
X3796Y4346D01*
X4158Y4346D02*
X4214Y4346D01*
X4268Y4346D02*
X4280Y4346D01*
X4315Y4346D02*
X4337Y4346D01*
X3777Y4345D02*
X3795Y4345D01*
X4157Y4345D02*
X4212Y4345D01*
X4268Y4345D02*
X4280Y4345D01*
X4314Y4345D02*
X4337Y4345D01*
X3775Y4344D02*
X3793Y4344D01*
X4155Y4344D02*
X4209Y4344D01*
X4267Y4344D02*
X4279Y4344D01*
X4313Y4344D02*
X4337Y4344D01*
X3774Y4343D02*
X3791Y4343D01*
X4153Y4343D02*
X4207Y4343D01*
X4266Y4343D02*
X4278Y4343D01*
X4312Y4343D02*
X4336Y4343D01*
X3772Y4342D02*
X3789Y4342D01*
X4151Y4342D02*
X4204Y4342D01*
X4265Y4342D02*
X4277Y4342D01*
X4311Y4342D02*
X4336Y4342D01*
X3771Y4341D02*
X3788Y4341D01*
X4150Y4341D02*
X4202Y4341D01*
X4264Y4341D02*
X4276Y4341D01*
X4310Y4341D02*
X4323Y4341D01*
X4326Y4341D02*
X4335Y4341D01*
X3769Y4340D02*
X3786Y4340D01*
X4148Y4340D02*
X4199Y4340D01*
X4264Y4340D02*
X4276Y4340D01*
X4309Y4340D02*
X4322Y4340D01*
X4326Y4340D02*
X4335Y4340D01*
X3767Y4339D02*
X3784Y4339D01*
X4146Y4339D02*
X4196Y4339D01*
X4263Y4339D02*
X4275Y4339D01*
X4308Y4339D02*
X4321Y4339D01*
X4325Y4339D02*
X4335Y4339D01*
X3766Y4338D02*
X3782Y4338D01*
X4144Y4338D02*
X4192Y4338D01*
X4262Y4338D02*
X4274Y4338D01*
X4307Y4338D02*
X4320Y4338D01*
X4325Y4338D02*
X4334Y4338D01*
X3764Y4337D02*
X3781Y4337D01*
X4142Y4337D02*
X4188Y4337D01*
X4261Y4337D02*
X4273Y4337D01*
X4306Y4337D02*
X4319Y4337D01*
X4324Y4337D02*
X4334Y4337D01*
X3763Y4336D02*
X3779Y4336D01*
X4140Y4336D02*
X4183Y4336D01*
X4260Y4336D02*
X4272Y4336D01*
X4305Y4336D02*
X4318Y4336D01*
X4324Y4336D02*
X4333Y4336D01*
X3761Y4335D02*
X3778Y4335D01*
X4137Y4335D02*
X4179Y4335D01*
X4259Y4335D02*
X4271Y4335D01*
X4305Y4335D02*
X4317Y4335D01*
X4324Y4335D02*
X4333Y4335D01*
X3760Y4334D02*
X3776Y4334D01*
X4135Y4334D02*
X4175Y4334D01*
X4259Y4334D02*
X4271Y4334D01*
X4304Y4334D02*
X4316Y4334D01*
X4323Y4334D02*
X4333Y4334D01*
X3758Y4333D02*
X3774Y4333D01*
X4133Y4333D02*
X4171Y4333D01*
X4258Y4333D02*
X4270Y4333D01*
X4303Y4333D02*
X4315Y4333D01*
X4323Y4333D02*
X4332Y4333D01*
X3757Y4332D02*
X3773Y4332D01*
X4130Y4332D02*
X4168Y4332D01*
X4257Y4332D02*
X4269Y4332D01*
X4302Y4332D02*
X4314Y4332D01*
X4322Y4332D02*
X4332Y4332D01*
X3755Y4331D02*
X3771Y4331D01*
X4128Y4331D02*
X4165Y4331D01*
X4256Y4331D02*
X4268Y4331D01*
X4301Y4331D02*
X4313Y4331D01*
X4322Y4331D02*
X4331Y4331D01*
X3754Y4330D02*
X3769Y4330D01*
X4125Y4330D02*
X4161Y4330D01*
X4255Y4330D02*
X4267Y4330D01*
X4300Y4330D02*
X4312Y4330D01*
X4321Y4330D02*
X4331Y4330D01*
X3752Y4329D02*
X3768Y4329D01*
X4123Y4329D02*
X4158Y4329D01*
X4255Y4329D02*
X4267Y4329D01*
X4299Y4329D02*
X4311Y4329D01*
X4321Y4329D02*
X4330Y4329D01*
X3751Y4328D02*
X3766Y4328D01*
X4120Y4328D02*
X4155Y4328D01*
X4254Y4328D02*
X4266Y4328D01*
X4298Y4328D02*
X4310Y4328D01*
X4320Y4328D02*
X4330Y4328D01*
X3750Y4327D02*
X3765Y4327D01*
X4117Y4327D02*
X4152Y4327D01*
X4253Y4327D02*
X4265Y4327D01*
X4297Y4327D02*
X4309Y4327D01*
X4320Y4327D02*
X4329Y4327D01*
X3748Y4326D02*
X3763Y4326D01*
X4114Y4326D02*
X4149Y4326D01*
X4252Y4326D02*
X4264Y4326D01*
X4296Y4326D02*
X4308Y4326D01*
X4319Y4326D02*
X4329Y4326D01*
X3747Y4325D02*
X3762Y4325D01*
X4111Y4325D02*
X4146Y4325D01*
X4251Y4325D02*
X4263Y4325D01*
X4295Y4325D02*
X4308Y4325D01*
X4319Y4325D02*
X4328Y4325D01*
X3745Y4324D02*
X3760Y4324D01*
X4108Y4324D02*
X4143Y4324D01*
X4251Y4324D02*
X4263Y4324D01*
X4293Y4324D02*
X4307Y4324D01*
X4318Y4324D02*
X4328Y4324D01*
X3744Y4323D02*
X3759Y4323D01*
X4105Y4323D02*
X4140Y4323D01*
X4250Y4323D02*
X4262Y4323D01*
X4292Y4323D02*
X4306Y4323D01*
X4318Y4323D02*
X4328Y4323D01*
X3742Y4322D02*
X3758Y4322D01*
X4102Y4322D02*
X4137Y4322D01*
X4249Y4322D02*
X4261Y4322D01*
X4291Y4322D02*
X4305Y4322D01*
X4317Y4322D02*
X4327Y4322D01*
X3741Y4321D02*
X3756Y4321D01*
X4098Y4321D02*
X4134Y4321D01*
X4248Y4321D02*
X4260Y4321D01*
X4290Y4321D02*
X4304Y4321D01*
X4316Y4321D02*
X4327Y4321D01*
X3739Y4320D02*
X3755Y4320D01*
X4095Y4320D02*
X4130Y4320D01*
X4247Y4320D02*
X4259Y4320D01*
X4289Y4320D02*
X4303Y4320D01*
X4316Y4320D02*
X4326Y4320D01*
X3738Y4319D02*
X3753Y4319D01*
X4091Y4319D02*
X4127Y4319D01*
X4246Y4319D02*
X4259Y4319D01*
X4288Y4319D02*
X4302Y4319D01*
X4315Y4319D02*
X4326Y4319D01*
X3737Y4318D02*
X3752Y4318D01*
X4087Y4318D02*
X4123Y4318D01*
X4246Y4318D02*
X4258Y4318D01*
X4287Y4318D02*
X4301Y4318D01*
X4315Y4318D02*
X4325Y4318D01*
X3735Y4317D02*
X3750Y4317D01*
X4083Y4317D02*
X4119Y4317D01*
X4245Y4317D02*
X4257Y4317D01*
X4286Y4317D02*
X4300Y4317D01*
X4314Y4317D02*
X4325Y4317D01*
X3734Y4316D02*
X3749Y4316D01*
X4079Y4316D02*
X4116Y4316D01*
X4244Y4316D02*
X4256Y4316D01*
X4285Y4316D02*
X4299Y4316D01*
X4314Y4316D02*
X4324Y4316D01*
X3733Y4315D02*
X3748Y4315D01*
X4075Y4315D02*
X4112Y4315D01*
X4243Y4315D02*
X4255Y4315D01*
X4284Y4315D02*
X4298Y4315D01*
X4313Y4315D02*
X4324Y4315D01*
X3731Y4314D02*
X3746Y4314D01*
X4070Y4314D02*
X4108Y4314D01*
X4242Y4314D02*
X4255Y4314D01*
X4283Y4314D02*
X4297Y4314D01*
X4312Y4314D02*
X4323Y4314D01*
X3730Y4313D02*
X3745Y4313D01*
X4066Y4313D02*
X4104Y4313D01*
X4242Y4313D02*
X4254Y4313D01*
X4282Y4313D02*
X4296Y4313D01*
X4312Y4313D02*
X4322Y4313D01*
X3729Y4312D02*
X3743Y4312D01*
X4061Y4312D02*
X4099Y4312D01*
X4241Y4312D02*
X4253Y4312D01*
X4281Y4312D02*
X4295Y4312D01*
X4311Y4312D02*
X4322Y4312D01*
X3728Y4311D02*
X3742Y4311D01*
X4057Y4311D02*
X4095Y4311D01*
X4240Y4311D02*
X4252Y4311D01*
X4280Y4311D02*
X4294Y4311D01*
X4311Y4311D02*
X4321Y4311D01*
X3726Y4310D02*
X3741Y4310D01*
X4054Y4310D02*
X4090Y4310D01*
X4239Y4310D02*
X4252Y4310D01*
X4279Y4310D02*
X4293Y4310D01*
X4310Y4310D02*
X4321Y4310D01*
X3725Y4309D02*
X3740Y4309D01*
X4050Y4309D02*
X4086Y4309D01*
X4239Y4309D02*
X4251Y4309D01*
X4277Y4309D02*
X4292Y4309D01*
X4310Y4309D02*
X4320Y4309D01*
X3724Y4308D02*
X3738Y4308D01*
X4047Y4308D02*
X4081Y4308D01*
X4238Y4308D02*
X4250Y4308D01*
X4276Y4308D02*
X4291Y4308D01*
X4309Y4308D02*
X4320Y4308D01*
X3723Y4307D02*
X3737Y4307D01*
X4045Y4307D02*
X4075Y4307D01*
X4237Y4307D02*
X4250Y4307D01*
X4275Y4307D02*
X4290Y4307D01*
X4308Y4307D02*
X4319Y4307D01*
X3722Y4306D02*
X3736Y4306D01*
X4043Y4306D02*
X4069Y4306D01*
X4236Y4306D02*
X4249Y4306D01*
X4274Y4306D02*
X4288Y4306D01*
X4308Y4306D02*
X4319Y4306D01*
X3721Y4305D02*
X3735Y4305D01*
X4042Y4305D02*
X4061Y4305D01*
X4236Y4305D02*
X4249Y4305D01*
X4273Y4305D02*
X4287Y4305D01*
X4307Y4305D02*
X4318Y4305D01*
X3720Y4304D02*
X3733Y4304D01*
X4235Y4304D02*
X4248Y4304D01*
X4272Y4304D02*
X4286Y4304D01*
X4307Y4304D02*
X4318Y4304D01*
X3718Y4303D02*
X3732Y4303D01*
X3914Y4303D02*
X3920Y4303D01*
X4234Y4303D02*
X4248Y4303D01*
X4270Y4303D02*
X4285Y4303D01*
X4306Y4303D02*
X4317Y4303D01*
X3717Y4302D02*
X3731Y4302D01*
X3908Y4302D02*
X3925Y4302D01*
X4234Y4302D02*
X4247Y4302D01*
X4269Y4302D02*
X4284Y4302D01*
X4305Y4302D02*
X4317Y4302D01*
X3717Y4301D02*
X3730Y4301D01*
X3906Y4301D02*
X3929Y4301D01*
X4233Y4301D02*
X4247Y4301D01*
X4267Y4301D02*
X4283Y4301D01*
X4305Y4301D02*
X4316Y4301D01*
X3716Y4300D02*
X3729Y4300D01*
X3903Y4300D02*
X3931Y4300D01*
X4232Y4300D02*
X4247Y4300D01*
X4266Y4300D02*
X4281Y4300D01*
X4304Y4300D02*
X4315Y4300D01*
X3715Y4299D02*
X3727Y4299D01*
X3901Y4299D02*
X3933Y4299D01*
X4231Y4299D02*
X4247Y4299D01*
X4265Y4299D02*
X4280Y4299D01*
X4304Y4299D02*
X4315Y4299D01*
X3714Y4298D02*
X3726Y4298D01*
X3899Y4298D02*
X3934Y4298D01*
X4230Y4298D02*
X4247Y4298D01*
X4263Y4298D02*
X4279Y4298D01*
X4303Y4298D02*
X4314Y4298D01*
X3713Y4297D02*
X3725Y4297D01*
X3898Y4297D02*
X3936Y4297D01*
X4229Y4297D02*
X4248Y4297D01*
X4261Y4297D02*
X4277Y4297D01*
X4302Y4297D02*
X4314Y4297D01*
X3712Y4296D02*
X3724Y4296D01*
X3897Y4296D02*
X3937Y4296D01*
X4228Y4296D02*
X4250Y4296D01*
X4258Y4296D02*
X4276Y4296D01*
X4302Y4296D02*
X4313Y4296D01*
X3711Y4295D02*
X3723Y4295D01*
X3895Y4295D02*
X3938Y4295D01*
X4227Y4295D02*
X4275Y4295D01*
X4301Y4295D02*
X4312Y4295D01*
X3710Y4294D02*
X3722Y4294D01*
X3894Y4294D02*
X3939Y4294D01*
X4226Y4294D02*
X4273Y4294D01*
X4301Y4294D02*
X4312Y4294D01*
X3709Y4293D02*
X3721Y4293D01*
X3893Y4293D02*
X3940Y4293D01*
X4225Y4293D02*
X4272Y4293D01*
X4300Y4293D02*
X4311Y4293D01*
X3709Y4292D02*
X3720Y4292D01*
X3892Y4292D02*
X3907Y4292D01*
X3924Y4292D02*
X3940Y4292D01*
X4224Y4292D02*
X4270Y4292D01*
X4299Y4292D02*
X4311Y4292D01*
X3708Y4291D02*
X3719Y4291D01*
X3892Y4291D02*
X3905Y4291D01*
X3927Y4291D02*
X3941Y4291D01*
X4223Y4291D02*
X4269Y4291D01*
X4299Y4291D02*
X4310Y4291D01*
X3707Y4290D02*
X3718Y4290D01*
X3891Y4290D02*
X3903Y4290D01*
X3929Y4290D02*
X3942Y4290D01*
X4222Y4290D02*
X4236Y4290D01*
X4238Y4290D02*
X4267Y4290D01*
X4298Y4290D02*
X4310Y4290D01*
X3706Y4289D02*
X3717Y4289D01*
X3890Y4289D02*
X3902Y4289D01*
X3930Y4289D02*
X3942Y4289D01*
X4221Y4289D02*
X4236Y4289D01*
X4239Y4289D02*
X4266Y4289D01*
X4297Y4289D02*
X4309Y4289D01*
X3706Y4288D02*
X3716Y4288D01*
X3889Y4288D02*
X3901Y4288D01*
X3931Y4288D02*
X3943Y4288D01*
X4220Y4288D02*
X4236Y4288D01*
X4239Y4288D02*
X4264Y4288D01*
X4297Y4288D02*
X4308Y4288D01*
X3705Y4287D02*
X3715Y4287D01*
X3889Y4287D02*
X3900Y4287D01*
X3932Y4287D02*
X3943Y4287D01*
X4218Y4287D02*
X4236Y4287D01*
X4238Y4287D02*
X4262Y4287D01*
X4296Y4287D02*
X4308Y4287D01*
X3704Y4286D02*
X3715Y4286D01*
X3888Y4286D02*
X3899Y4286D01*
X3933Y4286D02*
X3944Y4286D01*
X4217Y4286D02*
X4259Y4286D01*
X4295Y4286D02*
X4307Y4286D01*
X3704Y4285D02*
X3714Y4285D01*
X3888Y4285D02*
X3898Y4285D01*
X3934Y4285D02*
X3944Y4285D01*
X4216Y4285D02*
X4257Y4285D01*
X4295Y4285D02*
X4306Y4285D01*
X3703Y4284D02*
X3713Y4284D01*
X3887Y4284D02*
X3897Y4284D01*
X3935Y4284D02*
X3944Y4284D01*
X4215Y4284D02*
X4254Y4284D01*
X4294Y4284D02*
X4306Y4284D01*
X3703Y4283D02*
X3712Y4283D01*
X3887Y4283D02*
X3896Y4283D01*
X3935Y4283D02*
X3945Y4283D01*
X4213Y4283D02*
X4251Y4283D01*
X4294Y4283D02*
X4305Y4283D01*
X3702Y4282D02*
X3712Y4282D01*
X3886Y4282D02*
X3896Y4282D01*
X3936Y4282D02*
X3945Y4282D01*
X4212Y4282D02*
X4249Y4282D01*
X4293Y4282D02*
X4304Y4282D01*
X3701Y4281D02*
X3711Y4281D01*
X3886Y4281D02*
X3895Y4281D01*
X3937Y4281D02*
X3945Y4281D01*
X4211Y4281D02*
X4247Y4281D01*
X4292Y4281D02*
X4304Y4281D01*
X3701Y4280D02*
X3710Y4280D01*
X3886Y4280D02*
X3894Y4280D01*
X3937Y4280D02*
X3945Y4280D01*
X4210Y4280D02*
X4244Y4280D01*
X4292Y4280D02*
X4303Y4280D01*
X3700Y4279D02*
X3710Y4279D01*
X3885Y4279D02*
X3894Y4279D01*
X3938Y4279D02*
X3945Y4279D01*
X4208Y4279D02*
X4242Y4279D01*
X4291Y4279D02*
X4302Y4279D01*
X3700Y4278D02*
X3709Y4278D01*
X3885Y4278D02*
X3894Y4278D01*
X3938Y4278D02*
X3946Y4278D01*
X4207Y4278D02*
X4241Y4278D01*
X4290Y4278D02*
X4302Y4278D01*
X3699Y4277D02*
X3709Y4277D01*
X3885Y4277D02*
X3893Y4277D01*
X3939Y4277D02*
X3946Y4277D01*
X4205Y4277D02*
X4239Y4277D01*
X4290Y4277D02*
X4301Y4277D01*
X3699Y4276D02*
X3708Y4276D01*
X3885Y4276D02*
X3893Y4276D01*
X3939Y4276D02*
X3946Y4276D01*
X4204Y4276D02*
X4237Y4276D01*
X4289Y4276D02*
X4300Y4276D01*
X3699Y4275D02*
X3708Y4275D01*
X3885Y4275D02*
X3893Y4275D01*
X3939Y4275D02*
X3946Y4275D01*
X4203Y4275D02*
X4235Y4275D01*
X4288Y4275D02*
X4299Y4275D01*
X3698Y4274D02*
X3707Y4274D01*
X3884Y4274D02*
X3893Y4274D01*
X3939Y4274D02*
X3946Y4274D01*
X4201Y4274D02*
X4234Y4274D01*
X4288Y4274D02*
X4299Y4274D01*
X3698Y4273D02*
X3707Y4273D01*
X3884Y4273D02*
X3892Y4273D01*
X3939Y4273D02*
X3946Y4273D01*
X4200Y4273D02*
X4232Y4273D01*
X4287Y4273D02*
X4298Y4273D01*
X3697Y4272D02*
X3706Y4272D01*
X3884Y4272D02*
X3892Y4272D01*
X3939Y4272D02*
X3946Y4272D01*
X4198Y4272D02*
X4230Y4272D01*
X4286Y4272D02*
X4297Y4272D01*
X3697Y4271D02*
X3706Y4271D01*
X3884Y4271D02*
X3892Y4271D01*
X3939Y4271D02*
X3946Y4271D01*
X4197Y4271D02*
X4229Y4271D01*
X4286Y4271D02*
X4297Y4271D01*
X3697Y4270D02*
X3705Y4270D01*
X3884Y4270D02*
X3892Y4270D01*
X3939Y4270D02*
X3946Y4270D01*
X4196Y4270D02*
X4227Y4270D01*
X4285Y4270D02*
X4296Y4270D01*
X3696Y4269D02*
X3705Y4269D01*
X3884Y4269D02*
X3892Y4269D01*
X3939Y4269D02*
X3946Y4269D01*
X4194Y4269D02*
X4225Y4269D01*
X4285Y4269D02*
X4296Y4269D01*
X3696Y4268D02*
X3705Y4268D01*
X3884Y4268D02*
X3893Y4268D01*
X3939Y4268D02*
X3946Y4268D01*
X4192Y4268D02*
X4223Y4268D01*
X4284Y4268D02*
X4295Y4268D01*
X3696Y4267D02*
X3704Y4267D01*
X3885Y4267D02*
X3893Y4267D01*
X3938Y4267D02*
X3946Y4267D01*
X4191Y4267D02*
X4221Y4267D01*
X4284Y4267D02*
X4294Y4267D01*
X3696Y4266D02*
X3704Y4266D01*
X3885Y4266D02*
X3893Y4266D01*
X3938Y4266D02*
X3945Y4266D01*
X4189Y4266D02*
X4220Y4266D01*
X4283Y4266D02*
X4294Y4266D01*
X3695Y4265D02*
X3704Y4265D01*
X3885Y4265D02*
X3894Y4265D01*
X3937Y4265D02*
X3945Y4265D01*
X4188Y4265D02*
X4218Y4265D01*
X4283Y4265D02*
X4293Y4265D01*
X3695Y4264D02*
X3704Y4264D01*
X3885Y4264D02*
X3894Y4264D01*
X3937Y4264D02*
X3945Y4264D01*
X4186Y4264D02*
X4216Y4264D01*
X4282Y4264D02*
X4293Y4264D01*
X3695Y4263D02*
X3703Y4263D01*
X3886Y4263D02*
X3894Y4263D01*
X3936Y4263D02*
X3945Y4263D01*
X4185Y4263D02*
X4214Y4263D01*
X4282Y4263D02*
X4292Y4263D01*
X3695Y4262D02*
X3703Y4262D01*
X3886Y4262D02*
X3895Y4262D01*
X3936Y4262D02*
X3945Y4262D01*
X4183Y4262D02*
X4212Y4262D01*
X4281Y4262D02*
X4291Y4262D01*
X3695Y4261D02*
X3703Y4261D01*
X3886Y4261D02*
X3896Y4261D01*
X3935Y4261D02*
X3944Y4261D01*
X4181Y4261D02*
X4210Y4261D01*
X4281Y4261D02*
X4291Y4261D01*
X3695Y4260D02*
X3703Y4260D01*
X3887Y4260D02*
X3896Y4260D01*
X3934Y4260D02*
X3944Y4260D01*
X4180Y4260D02*
X4208Y4260D01*
X4280Y4260D02*
X4291Y4260D01*
X3694Y4259D02*
X3703Y4259D01*
X3887Y4259D02*
X3897Y4259D01*
X3933Y4259D02*
X3944Y4259D01*
X4178Y4259D02*
X4206Y4259D01*
X4280Y4259D02*
X4290Y4259D01*
X3694Y4258D02*
X3702Y4258D01*
X3887Y4258D02*
X3898Y4258D01*
X3932Y4258D02*
X3943Y4258D01*
X4176Y4258D02*
X4204Y4258D01*
X4280Y4258D02*
X4290Y4258D01*
X3694Y4257D02*
X3702Y4257D01*
X3888Y4257D02*
X3899Y4257D01*
X3931Y4257D02*
X3943Y4257D01*
X4175Y4257D02*
X4202Y4257D01*
X4280Y4257D02*
X4289Y4257D01*
X3694Y4256D02*
X3702Y4256D01*
X3889Y4256D02*
X3900Y4256D01*
X3930Y4256D02*
X3943Y4256D01*
X4173Y4256D02*
X4200Y4256D01*
X4280Y4256D02*
X4289Y4256D01*
X3694Y4255D02*
X3702Y4255D01*
X3889Y4255D02*
X3901Y4255D01*
X3929Y4255D02*
X3942Y4255D01*
X4171Y4255D02*
X4198Y4255D01*
X4279Y4255D02*
X4289Y4255D01*
X3694Y4254D02*
X3702Y4254D01*
X3890Y4254D02*
X3902Y4254D01*
X3928Y4254D02*
X3941Y4254D01*
X4169Y4254D02*
X4196Y4254D01*
X4279Y4254D02*
X4289Y4254D01*
X3694Y4253D02*
X3702Y4253D01*
X3891Y4253D02*
X3903Y4253D01*
X3927Y4253D02*
X3941Y4253D01*
X4167Y4253D02*
X4194Y4253D01*
X4279Y4253D02*
X4289Y4253D01*
X3694Y4252D02*
X3702Y4252D01*
X3891Y4252D02*
X3905Y4252D01*
X3925Y4252D02*
X3940Y4252D01*
X4165Y4252D02*
X4191Y4252D01*
X4280Y4252D02*
X4289Y4252D01*
X3694Y4251D02*
X3702Y4251D01*
X3892Y4251D02*
X3911Y4251D01*
X3919Y4251D02*
X3939Y4251D01*
X4163Y4251D02*
X4189Y4251D01*
X4280Y4251D02*
X4290Y4251D01*
X3694Y4250D02*
X3702Y4250D01*
X3893Y4250D02*
X3938Y4250D01*
X4161Y4250D02*
X4187Y4250D01*
X4280Y4250D02*
X4290Y4250D01*
X3694Y4249D02*
X3702Y4249D01*
X3894Y4249D02*
X3937Y4249D01*
X4159Y4249D02*
X4185Y4249D01*
X4280Y4249D02*
X4291Y4249D01*
X3695Y4248D02*
X3703Y4248D01*
X3895Y4248D02*
X3936Y4248D01*
X4157Y4248D02*
X4182Y4248D01*
X4280Y4248D02*
X4291Y4248D01*
X3695Y4247D02*
X3703Y4247D01*
X3897Y4247D02*
X3935Y4247D01*
X4155Y4247D02*
X4180Y4247D01*
X4281Y4247D02*
X4292Y4247D01*
X3695Y4246D02*
X3703Y4246D01*
X3898Y4246D02*
X3934Y4246D01*
X4153Y4246D02*
X4178Y4246D01*
X4281Y4246D02*
X4292Y4246D01*
X3695Y4245D02*
X3703Y4245D01*
X3899Y4245D02*
X3932Y4245D01*
X4151Y4245D02*
X4176Y4245D01*
X4282Y4245D02*
X4293Y4245D01*
X3695Y4244D02*
X3703Y4244D01*
X3901Y4244D02*
X3931Y4244D01*
X4148Y4244D02*
X4173Y4244D01*
X4282Y4244D02*
X4293Y4244D01*
X3695Y4243D02*
X3704Y4243D01*
X3903Y4243D02*
X3929Y4243D01*
X4146Y4243D02*
X4171Y4243D01*
X4283Y4243D02*
X4294Y4243D01*
X3696Y4242D02*
X3704Y4242D01*
X3906Y4242D02*
X3926Y4242D01*
X4144Y4242D02*
X4169Y4242D01*
X4283Y4242D02*
X4295Y4242D01*
X3696Y4241D02*
X3704Y4241D01*
X3910Y4241D02*
X3922Y4241D01*
X4141Y4241D02*
X4166Y4241D01*
X4284Y4241D02*
X4295Y4241D01*
X3696Y4240D02*
X3705Y4240D01*
X4139Y4240D02*
X4164Y4240D01*
X4285Y4240D02*
X4296Y4240D01*
X3696Y4239D02*
X3705Y4239D01*
X4137Y4239D02*
X4161Y4239D01*
X4272Y4239D02*
X4273Y4239D01*
X4285Y4239D02*
X4297Y4239D01*
X3697Y4238D02*
X3705Y4238D01*
X4134Y4238D02*
X4159Y4238D01*
X4271Y4238D02*
X4273Y4238D01*
X4286Y4238D02*
X4297Y4238D01*
X3697Y4237D02*
X3706Y4237D01*
X4132Y4237D02*
X4156Y4237D01*
X4270Y4237D02*
X4272Y4237D01*
X4287Y4237D02*
X4298Y4237D01*
X3697Y4236D02*
X3706Y4236D01*
X4129Y4236D02*
X4154Y4236D01*
X4268Y4236D02*
X4272Y4236D01*
X4287Y4236D02*
X4299Y4236D01*
X3698Y4235D02*
X3707Y4235D01*
X4127Y4235D02*
X4151Y4235D01*
X4267Y4235D02*
X4271Y4235D01*
X4288Y4235D02*
X4299Y4235D01*
X3698Y4234D02*
X3707Y4234D01*
X4124Y4234D02*
X4148Y4234D01*
X4266Y4234D02*
X4270Y4234D01*
X4289Y4234D02*
X4300Y4234D01*
X3698Y4233D02*
X3708Y4233D01*
X4122Y4233D02*
X4145Y4233D01*
X4265Y4233D02*
X4269Y4233D01*
X4289Y4233D02*
X4301Y4233D01*
X3699Y4232D02*
X3708Y4232D01*
X4119Y4232D02*
X4143Y4232D01*
X4263Y4232D02*
X4268Y4232D01*
X4290Y4232D02*
X4301Y4232D01*
X3699Y4231D02*
X3709Y4231D01*
X4116Y4231D02*
X4140Y4231D01*
X4262Y4231D02*
X4268Y4231D01*
X4291Y4231D02*
X4302Y4231D01*
X3700Y4230D02*
X3709Y4230D01*
X4114Y4230D02*
X4137Y4230D01*
X4261Y4230D02*
X4267Y4230D01*
X4292Y4230D02*
X4303Y4230D01*
X3700Y4229D02*
X3710Y4229D01*
X4111Y4229D02*
X4134Y4229D01*
X4260Y4229D02*
X4266Y4229D01*
X4292Y4229D02*
X4303Y4229D01*
X3701Y4228D02*
X3711Y4228D01*
X4108Y4228D02*
X4131Y4228D01*
X4259Y4228D02*
X4265Y4228D01*
X4293Y4228D02*
X4304Y4228D01*
X3701Y4227D02*
X3711Y4227D01*
X4106Y4227D02*
X4128Y4227D01*
X4258Y4227D02*
X4264Y4227D01*
X4294Y4227D02*
X4305Y4227D01*
X3702Y4226D02*
X3712Y4226D01*
X4103Y4226D02*
X4125Y4226D01*
X4257Y4226D02*
X4263Y4226D01*
X4294Y4226D02*
X4305Y4226D01*
X3702Y4225D02*
X3713Y4225D01*
X4102Y4225D02*
X4121Y4225D01*
X4256Y4225D02*
X4262Y4225D01*
X4295Y4225D02*
X4306Y4225D01*
X3703Y4224D02*
X3714Y4224D01*
X4100Y4224D02*
X4118Y4224D01*
X4255Y4224D02*
X4261Y4224D01*
X4296Y4224D02*
X4307Y4224D01*
X3704Y4223D02*
X3715Y4223D01*
X4099Y4223D02*
X4114Y4223D01*
X4254Y4223D02*
X4260Y4223D01*
X4296Y4223D02*
X4308Y4223D01*
X3704Y4222D02*
X3716Y4222D01*
X4099Y4222D02*
X4110Y4222D01*
X4253Y4222D02*
X4259Y4222D01*
X4297Y4222D02*
X4308Y4222D01*
X3705Y4221D02*
X3717Y4221D01*
X4099Y4221D02*
X4106Y4221D01*
X4251Y4221D02*
X4258Y4221D01*
X4298Y4221D02*
X4309Y4221D01*
X3706Y4220D02*
X3718Y4220D01*
X4250Y4220D02*
X4257Y4220D01*
X4298Y4220D02*
X4310Y4220D01*
X3706Y4219D02*
X3719Y4219D01*
X4249Y4219D02*
X4257Y4219D01*
X4299Y4219D02*
X4310Y4219D01*
X3707Y4218D02*
X3720Y4218D01*
X4248Y4218D02*
X4256Y4218D01*
X4300Y4218D02*
X4311Y4218D01*
X3708Y4217D02*
X3721Y4217D01*
X4247Y4217D02*
X4255Y4217D01*
X4300Y4217D02*
X4311Y4217D01*
X3709Y4216D02*
X3722Y4216D01*
X4246Y4216D02*
X4253Y4216D01*
X4301Y4216D02*
X4312Y4216D01*
X3710Y4215D02*
X3723Y4215D01*
X4245Y4215D02*
X4252Y4215D01*
X4302Y4215D02*
X4313Y4215D01*
X3711Y4214D02*
X3724Y4214D01*
X4244Y4214D02*
X4251Y4214D01*
X4302Y4214D02*
X4313Y4214D01*
X3712Y4213D02*
X3725Y4213D01*
X4243Y4213D02*
X4250Y4213D01*
X4303Y4213D02*
X4314Y4213D01*
X3713Y4212D02*
X3726Y4212D01*
X4242Y4212D02*
X4249Y4212D01*
X4304Y4212D02*
X4315Y4212D01*
X3714Y4211D02*
X3728Y4211D01*
X4241Y4211D02*
X4248Y4211D01*
X4304Y4211D02*
X4315Y4211D01*
X3715Y4210D02*
X3729Y4210D01*
X4240Y4210D02*
X4247Y4210D01*
X4305Y4210D02*
X4316Y4210D01*
X3716Y4209D02*
X3730Y4209D01*
X4239Y4209D02*
X4246Y4209D01*
X4305Y4209D02*
X4317Y4209D01*
X3717Y4208D02*
X3731Y4208D01*
X4237Y4208D02*
X4245Y4208D01*
X4306Y4208D02*
X4317Y4208D01*
X3718Y4207D02*
X3732Y4207D01*
X4236Y4207D02*
X4244Y4207D01*
X4307Y4207D02*
X4318Y4207D01*
X3719Y4206D02*
X3733Y4206D01*
X4235Y4206D02*
X4243Y4206D01*
X4307Y4206D02*
X4318Y4206D01*
X3721Y4205D02*
X3735Y4205D01*
X4234Y4205D02*
X4242Y4205D01*
X4308Y4205D02*
X4319Y4205D01*
X3722Y4204D02*
X3736Y4204D01*
X4233Y4204D02*
X4241Y4204D01*
X4308Y4204D02*
X4320Y4204D01*
X3723Y4203D02*
X3737Y4203D01*
X4232Y4203D02*
X4240Y4203D01*
X4309Y4203D02*
X4320Y4203D01*
X3724Y4202D02*
X3738Y4202D01*
X4231Y4202D02*
X4239Y4202D01*
X4310Y4202D02*
X4321Y4202D01*
X3725Y4201D02*
X3739Y4201D01*
X4229Y4201D02*
X4238Y4201D01*
X4310Y4201D02*
X4322Y4201D01*
X3727Y4200D02*
X3741Y4200D01*
X4228Y4200D02*
X4237Y4200D01*
X4311Y4200D02*
X4322Y4200D01*
X3641Y4199D02*
X3641Y4199D01*
X3728Y4199D02*
X3742Y4199D01*
X4227Y4199D02*
X4236Y4199D01*
X4312Y4199D02*
X4323Y4199D01*
X3639Y4198D02*
X3642Y4198D01*
X3729Y4198D02*
X3743Y4198D01*
X4226Y4198D02*
X4235Y4198D01*
X4312Y4198D02*
X4323Y4198D01*
X3638Y4197D02*
X3643Y4197D01*
X3730Y4197D02*
X3745Y4197D01*
X4225Y4197D02*
X4233Y4197D01*
X4313Y4197D02*
X4324Y4197D01*
X3637Y4196D02*
X3643Y4196D01*
X3731Y4196D02*
X3746Y4196D01*
X4223Y4196D02*
X4232Y4196D01*
X4313Y4196D02*
X4325Y4196D01*
X3636Y4195D02*
X3643Y4195D01*
X3733Y4195D02*
X3747Y4195D01*
X4222Y4195D02*
X4231Y4195D01*
X4314Y4195D02*
X4325Y4195D01*
X3635Y4194D02*
X3643Y4194D01*
X3734Y4194D02*
X3749Y4194D01*
X4221Y4194D02*
X4230Y4194D01*
X4315Y4194D02*
X4326Y4194D01*
X3634Y4193D02*
X3643Y4193D01*
X3735Y4193D02*
X3750Y4193D01*
X4220Y4193D02*
X4229Y4193D01*
X4315Y4193D02*
X4326Y4193D01*
X3633Y4192D02*
X3643Y4192D01*
X3736Y4192D02*
X3751Y4192D01*
X4218Y4192D02*
X4228Y4192D01*
X4316Y4192D02*
X4327Y4192D01*
X3632Y4191D02*
X3643Y4191D01*
X3738Y4191D02*
X3753Y4191D01*
X4217Y4191D02*
X4227Y4191D01*
X4317Y4191D02*
X4327Y4191D01*
X3632Y4190D02*
X3643Y4190D01*
X3739Y4190D02*
X3754Y4190D01*
X4216Y4190D02*
X4225Y4190D01*
X4317Y4190D02*
X4328Y4190D01*
X3631Y4189D02*
X3643Y4189D01*
X3740Y4189D02*
X3756Y4189D01*
X4215Y4189D02*
X4224Y4189D01*
X4318Y4189D02*
X4329Y4189D01*
X3630Y4188D02*
X3643Y4188D01*
X3741Y4188D02*
X3757Y4188D01*
X4213Y4188D02*
X4223Y4188D01*
X4318Y4188D02*
X4329Y4188D01*
X3629Y4187D02*
X3643Y4187D01*
X3743Y4187D02*
X3759Y4187D01*
X4212Y4187D02*
X4222Y4187D01*
X4319Y4187D02*
X4330Y4187D01*
X3629Y4186D02*
X3643Y4186D01*
X3744Y4186D02*
X3760Y4186D01*
X4211Y4186D02*
X4220Y4186D01*
X4300Y4186D02*
X4301Y4186D01*
X4319Y4186D02*
X4330Y4186D01*
X3628Y4185D02*
X3643Y4185D01*
X3745Y4185D02*
X3761Y4185D01*
X4209Y4185D02*
X4219Y4185D01*
X4300Y4185D02*
X4301Y4185D01*
X4320Y4185D02*
X4331Y4185D01*
X3627Y4184D02*
X3643Y4184D01*
X3747Y4184D02*
X3763Y4184D01*
X4208Y4184D02*
X4218Y4184D01*
X4300Y4184D02*
X4302Y4184D01*
X4321Y4184D02*
X4332Y4184D01*
X3627Y4183D02*
X3642Y4183D01*
X3748Y4183D02*
X3765Y4183D01*
X4206Y4183D02*
X4217Y4183D01*
X4300Y4183D02*
X4302Y4183D01*
X4321Y4183D02*
X4332Y4183D01*
X3626Y4182D02*
X3642Y4182D01*
X3749Y4182D02*
X3766Y4182D01*
X4205Y4182D02*
X4215Y4182D01*
X4300Y4182D02*
X4303Y4182D01*
X4322Y4182D02*
X4333Y4182D01*
X3625Y4181D02*
X3642Y4181D01*
X3751Y4181D02*
X3768Y4181D01*
X4204Y4181D02*
X4214Y4181D01*
X4300Y4181D02*
X4303Y4181D01*
X4322Y4181D02*
X4333Y4181D01*
X3625Y4180D02*
X3642Y4180D01*
X3752Y4180D02*
X3769Y4180D01*
X4202Y4180D02*
X4213Y4180D01*
X4300Y4180D02*
X4304Y4180D01*
X4323Y4180D02*
X4334Y4180D01*
X3624Y4179D02*
X3642Y4179D01*
X3754Y4179D02*
X3771Y4179D01*
X4201Y4179D02*
X4211Y4179D01*
X4300Y4179D02*
X4304Y4179D01*
X4324Y4179D02*
X4334Y4179D01*
X3623Y4178D02*
X3641Y4178D01*
X3755Y4178D02*
X3772Y4178D01*
X4199Y4178D02*
X4209Y4178D01*
X4300Y4178D02*
X4304Y4178D01*
X4324Y4178D02*
X4335Y4178D01*
X3623Y4177D02*
X3641Y4177D01*
X3756Y4177D02*
X3774Y4177D01*
X4198Y4177D02*
X4208Y4177D01*
X4300Y4177D02*
X4305Y4177D01*
X4325Y4177D02*
X4335Y4177D01*
X3622Y4176D02*
X3641Y4176D01*
X3758Y4176D02*
X3776Y4176D01*
X4196Y4176D02*
X4206Y4176D01*
X4300Y4176D02*
X4305Y4176D01*
X4325Y4176D02*
X4336Y4176D01*
X3621Y4175D02*
X3641Y4175D01*
X3759Y4175D02*
X3777Y4175D01*
X4195Y4175D02*
X4205Y4175D01*
X4300Y4175D02*
X4305Y4175D01*
X4326Y4175D02*
X4337Y4175D01*
X3621Y4174D02*
X3641Y4174D01*
X3761Y4174D02*
X3779Y4174D01*
X4193Y4174D02*
X4203Y4174D01*
X4301Y4174D02*
X4305Y4174D01*
X4326Y4174D02*
X4337Y4174D01*
X3620Y4173D02*
X3640Y4173D01*
X3762Y4173D02*
X3781Y4173D01*
X4191Y4173D02*
X4202Y4173D01*
X4301Y4173D02*
X4305Y4173D01*
X4327Y4173D02*
X4338Y4173D01*
X3620Y4172D02*
X3640Y4172D01*
X3764Y4172D02*
X3782Y4172D01*
X4190Y4172D02*
X4200Y4172D01*
X4301Y4172D02*
X4306Y4172D01*
X4328Y4172D02*
X4338Y4172D01*
X3619Y4171D02*
X3629Y4171D01*
X3631Y4171D02*
X3640Y4171D01*
X3765Y4171D02*
X3784Y4171D01*
X4188Y4171D02*
X4199Y4171D01*
X4301Y4171D02*
X4306Y4171D01*
X4328Y4171D02*
X4339Y4171D01*
X3618Y4170D02*
X3628Y4170D01*
X3631Y4170D02*
X3640Y4170D01*
X3767Y4170D02*
X3786Y4170D01*
X4186Y4170D02*
X4198Y4170D01*
X4301Y4170D02*
X4306Y4170D01*
X4329Y4170D02*
X4339Y4170D01*
X3618Y4169D02*
X3628Y4169D01*
X3631Y4169D02*
X3640Y4169D01*
X3769Y4169D02*
X3787Y4169D01*
X4185Y4169D02*
X4197Y4169D01*
X4302Y4169D02*
X4306Y4169D01*
X4329Y4169D02*
X4340Y4169D01*
X3617Y4168D02*
X3627Y4168D01*
X3631Y4168D02*
X3639Y4168D01*
X3770Y4168D02*
X3789Y4168D01*
X4183Y4168D02*
X4195Y4168D01*
X4302Y4168D02*
X4306Y4168D01*
X4330Y4168D02*
X4340Y4168D01*
X3617Y4167D02*
X3627Y4167D01*
X3631Y4167D02*
X3639Y4167D01*
X3772Y4167D02*
X3791Y4167D01*
X4181Y4167D02*
X4194Y4167D01*
X4302Y4167D02*
X4306Y4167D01*
X4330Y4167D02*
X4341Y4167D01*
X3616Y4166D02*
X3626Y4166D01*
X3631Y4166D02*
X3639Y4166D01*
X3773Y4166D02*
X3793Y4166D01*
X4180Y4166D02*
X4193Y4166D01*
X4302Y4166D02*
X4307Y4166D01*
X4331Y4166D02*
X4341Y4166D01*
X3616Y4165D02*
X3626Y4165D01*
X3631Y4165D02*
X3639Y4165D01*
X3775Y4165D02*
X3794Y4165D01*
X4178Y4165D02*
X4191Y4165D01*
X4302Y4165D02*
X4307Y4165D01*
X4332Y4165D02*
X4342Y4165D01*
X3615Y4164D02*
X3625Y4164D01*
X3630Y4164D02*
X3639Y4164D01*
X3777Y4164D02*
X3796Y4164D01*
X4176Y4164D02*
X4190Y4164D01*
X4303Y4164D02*
X4307Y4164D01*
X4332Y4164D02*
X4342Y4164D01*
X3614Y4163D02*
X3625Y4163D01*
X3630Y4163D02*
X3638Y4163D01*
X3779Y4163D02*
X3798Y4163D01*
X4174Y4163D02*
X4189Y4163D01*
X4303Y4163D02*
X4307Y4163D01*
X4333Y4163D02*
X4343Y4163D01*
X3614Y4162D02*
X3624Y4162D01*
X3630Y4162D02*
X3638Y4162D01*
X3780Y4162D02*
X3800Y4162D01*
X4173Y4162D02*
X4187Y4162D01*
X4303Y4162D02*
X4307Y4162D01*
X4333Y4162D02*
X4343Y4162D01*
X3613Y4161D02*
X3624Y4161D01*
X3630Y4161D02*
X3638Y4161D01*
X3782Y4161D02*
X3802Y4161D01*
X4171Y4161D02*
X4185Y4161D01*
X4304Y4161D02*
X4307Y4161D01*
X4334Y4161D02*
X4344Y4161D01*
X3613Y4160D02*
X3623Y4160D01*
X3630Y4160D02*
X3638Y4160D01*
X3784Y4160D02*
X3804Y4160D01*
X4169Y4160D02*
X4184Y4160D01*
X4304Y4160D02*
X4307Y4160D01*
X4334Y4160D02*
X4344Y4160D01*
X3612Y4159D02*
X3623Y4159D01*
X3629Y4159D02*
X3638Y4159D01*
X3786Y4159D02*
X3805Y4159D01*
X4167Y4159D02*
X4182Y4159D01*
X4304Y4159D02*
X4308Y4159D01*
X4335Y4159D02*
X4345Y4159D01*
X3612Y4158D02*
X3622Y4158D01*
X3629Y4158D02*
X3637Y4158D01*
X3787Y4158D02*
X3807Y4158D01*
X4165Y4158D02*
X4180Y4158D01*
X4305Y4158D02*
X4308Y4158D01*
X4335Y4158D02*
X4345Y4158D01*
X3611Y4157D02*
X3621Y4157D01*
X3629Y4157D02*
X3637Y4157D01*
X3789Y4157D02*
X3809Y4157D01*
X4163Y4157D02*
X4179Y4157D01*
X4305Y4157D02*
X4308Y4157D01*
X4336Y4157D02*
X4346Y4157D01*
X3611Y4156D02*
X3621Y4156D01*
X3629Y4156D02*
X3637Y4156D01*
X3791Y4156D02*
X3811Y4156D01*
X4161Y4156D02*
X4177Y4156D01*
X4306Y4156D02*
X4308Y4156D01*
X4336Y4156D02*
X4346Y4156D01*
X3610Y4155D02*
X3620Y4155D01*
X3629Y4155D02*
X3637Y4155D01*
X3793Y4155D02*
X3813Y4155D01*
X4159Y4155D02*
X4175Y4155D01*
X4306Y4155D02*
X4308Y4155D01*
X4337Y4155D02*
X4347Y4155D01*
X3610Y4154D02*
X3620Y4154D01*
X3629Y4154D02*
X3637Y4154D01*
X3795Y4154D02*
X3815Y4154D01*
X4157Y4154D02*
X4173Y4154D01*
X4307Y4154D02*
X4308Y4154D01*
X4337Y4154D02*
X4347Y4154D01*
X3609Y4153D02*
X3619Y4153D01*
X3628Y4153D02*
X3636Y4153D01*
X3797Y4153D02*
X3817Y4153D01*
X4155Y4153D02*
X4171Y4153D01*
X4307Y4153D02*
X4308Y4153D01*
X4338Y4153D02*
X4348Y4153D01*
X3609Y4152D02*
X3619Y4152D01*
X3628Y4152D02*
X3636Y4152D01*
X3799Y4152D02*
X3819Y4152D01*
X4153Y4152D02*
X4169Y4152D01*
X4308Y4152D02*
X4308Y4152D01*
X4338Y4152D02*
X4349Y4152D01*
X3608Y4151D02*
X3618Y4151D01*
X3628Y4151D02*
X3636Y4151D01*
X3801Y4151D02*
X3821Y4151D01*
X4151Y4151D02*
X4167Y4151D01*
X4308Y4151D02*
X4308Y4151D01*
X4339Y4151D02*
X4349Y4151D01*
X3608Y4150D02*
X3618Y4150D01*
X3628Y4150D02*
X3636Y4150D01*
X3803Y4150D02*
X3823Y4150D01*
X4149Y4150D02*
X4165Y4150D01*
X4339Y4150D02*
X4350Y4150D01*
X3607Y4149D02*
X3618Y4149D01*
X3628Y4149D02*
X3636Y4149D01*
X3805Y4149D02*
X3825Y4149D01*
X4147Y4149D02*
X4163Y4149D01*
X4340Y4149D02*
X4350Y4149D01*
X3607Y4148D02*
X3617Y4148D01*
X3627Y4148D02*
X3636Y4148D01*
X3806Y4148D02*
X3827Y4148D01*
X4145Y4148D02*
X4161Y4148D01*
X4340Y4148D02*
X4351Y4148D01*
X3606Y4147D02*
X3617Y4147D01*
X3627Y4147D02*
X3635Y4147D01*
X3808Y4147D02*
X3829Y4147D01*
X4143Y4147D02*
X4159Y4147D01*
X4341Y4147D02*
X4351Y4147D01*
X3606Y4146D02*
X3616Y4146D01*
X3627Y4146D02*
X3635Y4146D01*
X3810Y4146D02*
X3831Y4146D01*
X4141Y4146D02*
X4157Y4146D01*
X4341Y4146D02*
X4351Y4146D01*
X3605Y4145D02*
X3616Y4145D01*
X3627Y4145D02*
X3635Y4145D01*
X3813Y4145D02*
X3833Y4145D01*
X4139Y4145D02*
X4155Y4145D01*
X4342Y4145D02*
X4352Y4145D01*
X3605Y4144D02*
X3615Y4144D01*
X3627Y4144D02*
X3635Y4144D01*
X3815Y4144D02*
X3836Y4144D01*
X4137Y4144D02*
X4153Y4144D01*
X4342Y4144D02*
X4352Y4144D01*
X3604Y4143D02*
X3615Y4143D01*
X3627Y4143D02*
X3635Y4143D01*
X3817Y4143D02*
X3838Y4143D01*
X4135Y4143D02*
X4151Y4143D01*
X4343Y4143D02*
X4353Y4143D01*
X3604Y4142D02*
X3614Y4142D01*
X3627Y4142D02*
X3635Y4142D01*
X3819Y4142D02*
X3840Y4142D01*
X4133Y4142D02*
X4149Y4142D01*
X4343Y4142D02*
X4353Y4142D01*
X3603Y4141D02*
X3614Y4141D01*
X3626Y4141D02*
X3634Y4141D01*
X3821Y4141D02*
X3843Y4141D01*
X4131Y4141D02*
X4146Y4141D01*
X4344Y4141D02*
X4354Y4141D01*
X3603Y4140D02*
X3613Y4140D01*
X3626Y4140D02*
X3634Y4140D01*
X3823Y4140D02*
X3846Y4140D01*
X4129Y4140D02*
X4144Y4140D01*
X4344Y4140D02*
X4354Y4140D01*
X3602Y4139D02*
X3613Y4139D01*
X3626Y4139D02*
X3634Y4139D01*
X3825Y4139D02*
X3848Y4139D01*
X4127Y4139D02*
X4142Y4139D01*
X4345Y4139D02*
X4355Y4139D01*
X3602Y4138D02*
X3612Y4138D01*
X3626Y4138D02*
X3634Y4138D01*
X3828Y4138D02*
X3851Y4138D01*
X4125Y4138D02*
X4139Y4138D01*
X4345Y4138D02*
X4355Y4138D01*
X3602Y4137D02*
X3612Y4137D01*
X3626Y4137D02*
X3634Y4137D01*
X3830Y4137D02*
X3854Y4137D01*
X4123Y4137D02*
X4137Y4137D01*
X4345Y4137D02*
X4356Y4137D01*
X3601Y4136D02*
X3612Y4136D01*
X3626Y4136D02*
X3634Y4136D01*
X3832Y4136D02*
X3857Y4136D01*
X4122Y4136D02*
X4134Y4136D01*
X4346Y4136D02*
X4356Y4136D01*
X3601Y4135D02*
X3611Y4135D01*
X3626Y4135D02*
X3633Y4135D01*
X3835Y4135D02*
X3861Y4135D01*
X4120Y4135D02*
X4132Y4135D01*
X4346Y4135D02*
X4357Y4135D01*
X3600Y4134D02*
X3611Y4134D01*
X3626Y4134D02*
X3633Y4134D01*
X3837Y4134D02*
X3864Y4134D01*
X4118Y4134D02*
X4129Y4134D01*
X4347Y4134D02*
X4357Y4134D01*
X3600Y4133D02*
X3610Y4133D01*
X3626Y4133D02*
X3633Y4133D01*
X3840Y4133D02*
X3867Y4133D01*
X4116Y4133D02*
X4127Y4133D01*
X4347Y4133D02*
X4357Y4133D01*
X3599Y4132D02*
X3610Y4132D01*
X3625Y4132D02*
X3633Y4132D01*
X3842Y4132D02*
X3871Y4132D01*
X4114Y4132D02*
X4123Y4132D01*
X4348Y4132D02*
X4358Y4132D01*
X3599Y4131D02*
X3609Y4131D01*
X3625Y4131D02*
X3633Y4131D01*
X3845Y4131D02*
X3874Y4131D01*
X4113Y4131D02*
X4120Y4131D01*
X4348Y4131D02*
X4358Y4131D01*
X3598Y4130D02*
X3609Y4130D01*
X3625Y4130D02*
X3633Y4130D01*
X3848Y4130D02*
X3878Y4130D01*
X4112Y4130D02*
X4117Y4130D01*
X4348Y4130D02*
X4359Y4130D01*
X3598Y4129D02*
X3608Y4129D01*
X3625Y4129D02*
X3633Y4129D01*
X3850Y4129D02*
X3882Y4129D01*
X4349Y4129D02*
X4359Y4129D01*
X3598Y4128D02*
X3608Y4128D01*
X3625Y4128D02*
X3633Y4128D01*
X3853Y4128D02*
X3885Y4128D01*
X4349Y4128D02*
X4360Y4128D01*
X3597Y4127D02*
X3608Y4127D01*
X3625Y4127D02*
X3632Y4127D01*
X3856Y4127D02*
X3889Y4127D01*
X4350Y4127D02*
X4360Y4127D01*
X3597Y4126D02*
X3607Y4126D01*
X3625Y4126D02*
X3632Y4126D01*
X3859Y4126D02*
X3893Y4126D01*
X4077Y4126D02*
X4085Y4126D01*
X4350Y4126D02*
X4360Y4126D01*
X3596Y4125D02*
X3607Y4125D01*
X3625Y4125D02*
X3632Y4125D01*
X3862Y4125D02*
X3898Y4125D01*
X4068Y4125D02*
X4093Y4125D01*
X4350Y4125D02*
X4361Y4125D01*
X3596Y4124D02*
X3606Y4124D01*
X3625Y4124D02*
X3632Y4124D01*
X3865Y4124D02*
X3902Y4124D01*
X4060Y4124D02*
X4098Y4124D01*
X4351Y4124D02*
X4361Y4124D01*
X3596Y4123D02*
X3606Y4123D01*
X3625Y4123D02*
X3632Y4123D01*
X3869Y4123D02*
X3907Y4123D01*
X4053Y4123D02*
X4102Y4123D01*
X4351Y4123D02*
X4362Y4123D01*
X3595Y4122D02*
X3605Y4122D01*
X3625Y4122D02*
X3632Y4122D01*
X3872Y4122D02*
X3912Y4122D01*
X4047Y4122D02*
X4105Y4122D01*
X4352Y4122D02*
X4362Y4122D01*
X3595Y4121D02*
X3605Y4121D01*
X3625Y4121D02*
X3632Y4121D01*
X3875Y4121D02*
X3917Y4121D01*
X4041Y4121D02*
X4108Y4121D01*
X4352Y4121D02*
X4363Y4121D01*
X3594Y4120D02*
X3605Y4120D01*
X3625Y4120D02*
X3632Y4120D01*
X3879Y4120D02*
X3923Y4120D01*
X4035Y4120D02*
X4111Y4120D01*
X4352Y4120D02*
X4363Y4120D01*
X3594Y4119D02*
X3604Y4119D01*
X3624Y4119D02*
X3632Y4119D01*
X3883Y4119D02*
X3932Y4119D01*
X4025Y4119D02*
X4113Y4119D01*
X4353Y4119D02*
X4363Y4119D01*
X3594Y4118D02*
X3604Y4118D01*
X3624Y4118D02*
X3632Y4118D01*
X3887Y4118D02*
X3959Y4118D01*
X3999Y4118D02*
X4116Y4118D01*
X4353Y4118D02*
X4364Y4118D01*
X3593Y4117D02*
X3603Y4117D01*
X3624Y4117D02*
X3632Y4117D01*
X3891Y4117D02*
X4073Y4117D01*
X4078Y4117D02*
X4118Y4117D01*
X4353Y4117D02*
X4364Y4117D01*
X3593Y4116D02*
X3603Y4116D01*
X3624Y4116D02*
X3632Y4116D01*
X3896Y4116D02*
X4063Y4116D01*
X4089Y4116D02*
X4120Y4116D01*
X4354Y4116D02*
X4365Y4116D01*
X3593Y4115D02*
X3602Y4115D01*
X3624Y4115D02*
X3632Y4115D01*
X3901Y4115D02*
X4059Y4115D01*
X4094Y4115D02*
X4122Y4115D01*
X4354Y4115D02*
X4365Y4115D01*
X3592Y4114D02*
X3602Y4114D01*
X3624Y4114D02*
X3631Y4114D01*
X3906Y4114D02*
X4055Y4114D01*
X4098Y4114D02*
X4124Y4114D01*
X4355Y4114D02*
X4365Y4114D01*
X3592Y4113D02*
X3602Y4113D01*
X3624Y4113D02*
X3631Y4113D01*
X3912Y4113D02*
X4050Y4113D01*
X4102Y4113D02*
X4126Y4113D01*
X4355Y4113D02*
X4366Y4113D01*
X3592Y4112D02*
X3601Y4112D01*
X3624Y4112D02*
X3631Y4112D01*
X3919Y4112D02*
X4043Y4112D01*
X4105Y4112D02*
X4128Y4112D01*
X4355Y4112D02*
X4366Y4112D01*
X3591Y4111D02*
X3601Y4111D01*
X3624Y4111D02*
X3631Y4111D01*
X3925Y4111D02*
X4035Y4111D01*
X4108Y4111D02*
X4130Y4111D01*
X4356Y4111D02*
X4367Y4111D01*
X3591Y4110D02*
X3601Y4110D01*
X3624Y4110D02*
X3631Y4110D01*
X3933Y4110D02*
X4025Y4110D01*
X4110Y4110D02*
X4132Y4110D01*
X4356Y4110D02*
X4367Y4110D01*
X3590Y4109D02*
X3600Y4109D01*
X3624Y4109D02*
X3631Y4109D01*
X3944Y4109D02*
X4011Y4109D01*
X4113Y4109D02*
X4133Y4109D01*
X4356Y4109D02*
X4367Y4109D01*
X3590Y4108D02*
X3600Y4108D01*
X3624Y4108D02*
X3631Y4108D01*
X3966Y4108D02*
X3984Y4108D01*
X4115Y4108D02*
X4135Y4108D01*
X4357Y4108D02*
X4368Y4108D01*
X3590Y4107D02*
X3599Y4107D01*
X3624Y4107D02*
X3631Y4107D01*
X4118Y4107D02*
X4137Y4107D01*
X4357Y4107D02*
X4368Y4107D01*
X3589Y4106D02*
X3599Y4106D01*
X3624Y4106D02*
X3631Y4106D01*
X4120Y4106D02*
X4138Y4106D01*
X4358Y4106D02*
X4368Y4106D01*
X3589Y4105D02*
X3599Y4105D01*
X3624Y4105D02*
X3631Y4105D01*
X4122Y4105D02*
X4140Y4105D01*
X4358Y4105D02*
X4369Y4105D01*
X3589Y4104D02*
X3598Y4104D01*
X3624Y4104D02*
X3631Y4104D01*
X4124Y4104D02*
X4141Y4104D01*
X4358Y4104D02*
X4369Y4104D01*
X3588Y4103D02*
X3598Y4103D01*
X3624Y4103D02*
X3631Y4103D01*
X4125Y4103D02*
X4143Y4103D01*
X4359Y4103D02*
X4369Y4103D01*
X3588Y4102D02*
X3598Y4102D01*
X3624Y4102D02*
X3631Y4102D01*
X4127Y4102D02*
X4144Y4102D01*
X4359Y4102D02*
X4370Y4102D01*
X3588Y4101D02*
X3597Y4101D01*
X3624Y4101D02*
X3631Y4101D01*
X4129Y4101D02*
X4145Y4101D01*
X4359Y4101D02*
X4370Y4101D01*
X3587Y4100D02*
X3597Y4100D01*
X3624Y4100D02*
X3631Y4100D01*
X4130Y4100D02*
X4147Y4100D01*
X4360Y4100D02*
X4370Y4100D01*
X3587Y4099D02*
X3596Y4099D01*
X3624Y4099D02*
X3631Y4099D01*
X4132Y4099D02*
X4148Y4099D01*
X4360Y4099D02*
X4371Y4099D01*
X3587Y4098D02*
X3596Y4098D01*
X3624Y4098D02*
X3631Y4098D01*
X4133Y4098D02*
X4149Y4098D01*
X4360Y4098D02*
X4371Y4098D01*
X3586Y4097D02*
X3596Y4097D01*
X3624Y4097D02*
X3631Y4097D01*
X4135Y4097D02*
X4150Y4097D01*
X4361Y4097D02*
X4371Y4097D01*
X3586Y4096D02*
X3595Y4096D01*
X3624Y4096D02*
X3631Y4096D01*
X4136Y4096D02*
X4152Y4096D01*
X4361Y4096D02*
X4372Y4096D01*
X3586Y4095D02*
X3595Y4095D01*
X3624Y4095D02*
X3631Y4095D01*
X4138Y4095D02*
X4153Y4095D01*
X4361Y4095D02*
X4372Y4095D01*
X3586Y4094D02*
X3595Y4094D01*
X3624Y4094D02*
X3631Y4094D01*
X4139Y4094D02*
X4154Y4094D01*
X4362Y4094D02*
X4372Y4094D01*
X3585Y4093D02*
X3594Y4093D01*
X3624Y4093D02*
X3631Y4093D01*
X4140Y4093D02*
X4155Y4093D01*
X4362Y4093D02*
X4373Y4093D01*
X3585Y4092D02*
X3594Y4092D01*
X3624Y4092D02*
X3631Y4092D01*
X4142Y4092D02*
X4156Y4092D01*
X4362Y4092D02*
X4373Y4092D01*
X3585Y4091D02*
X3594Y4091D01*
X3624Y4091D02*
X3632Y4091D01*
X4143Y4091D02*
X4157Y4091D01*
X4363Y4091D02*
X4373Y4091D01*
X3584Y4090D02*
X3593Y4090D01*
X3624Y4090D02*
X3632Y4090D01*
X4144Y4090D02*
X4158Y4090D01*
X4363Y4090D02*
X4373Y4090D01*
X3584Y4089D02*
X3593Y4089D01*
X3624Y4089D02*
X3632Y4089D01*
X4145Y4089D02*
X4159Y4089D01*
X4363Y4089D02*
X4374Y4089D01*
X3584Y4088D02*
X3593Y4088D01*
X3624Y4088D02*
X3632Y4088D01*
X4146Y4088D02*
X4160Y4088D01*
X4364Y4088D02*
X4374Y4088D01*
X3583Y4087D02*
X3592Y4087D01*
X3624Y4087D02*
X3632Y4087D01*
X4148Y4087D02*
X4161Y4087D01*
X4364Y4087D02*
X4374Y4087D01*
X3583Y4086D02*
X3592Y4086D01*
X3624Y4086D02*
X3632Y4086D01*
X4149Y4086D02*
X4162Y4086D01*
X4364Y4086D02*
X4375Y4086D01*
X3583Y4085D02*
X3592Y4085D01*
X3624Y4085D02*
X3632Y4085D01*
X4150Y4085D02*
X4163Y4085D01*
X4365Y4085D02*
X4375Y4085D01*
X3583Y4084D02*
X3591Y4084D01*
X3624Y4084D02*
X3632Y4084D01*
X4151Y4084D02*
X4164Y4084D01*
X4365Y4084D02*
X4375Y4084D01*
X3582Y4083D02*
X3591Y4083D01*
X3624Y4083D02*
X3632Y4083D01*
X4152Y4083D02*
X4164Y4083D01*
X4365Y4083D02*
X4376Y4083D01*
X3582Y4082D02*
X3591Y4082D01*
X3624Y4082D02*
X3632Y4082D01*
X4153Y4082D02*
X4165Y4082D01*
X4366Y4082D02*
X4376Y4082D01*
X3582Y4081D02*
X3590Y4081D01*
X3624Y4081D02*
X3632Y4081D01*
X4153Y4081D02*
X4166Y4081D01*
X4366Y4081D02*
X4376Y4081D01*
X3581Y4080D02*
X3590Y4080D01*
X3624Y4080D02*
X3632Y4080D01*
X4154Y4080D02*
X4167Y4080D01*
X4366Y4080D02*
X4376Y4080D01*
X3581Y4079D02*
X3590Y4079D01*
X3624Y4079D02*
X3632Y4079D01*
X4155Y4079D02*
X4167Y4079D01*
X4366Y4079D02*
X4377Y4079D01*
X3581Y4078D02*
X3589Y4078D01*
X3624Y4078D02*
X3632Y4078D01*
X4156Y4078D02*
X4168Y4078D01*
X4367Y4078D02*
X4377Y4078D01*
X3581Y4077D02*
X3589Y4077D01*
X3624Y4077D02*
X3632Y4077D01*
X4157Y4077D02*
X4169Y4077D01*
X4367Y4077D02*
X4377Y4077D01*
X3580Y4076D02*
X3589Y4076D01*
X3624Y4076D02*
X3632Y4076D01*
X4158Y4076D02*
X4169Y4076D01*
X4367Y4076D02*
X4378Y4076D01*
X3580Y4075D02*
X3589Y4075D01*
X3624Y4075D02*
X3632Y4075D01*
X4158Y4075D02*
X4170Y4075D01*
X4368Y4075D02*
X4378Y4075D01*
X3580Y4074D02*
X3588Y4074D01*
X3624Y4074D02*
X3632Y4074D01*
X4159Y4074D02*
X4171Y4074D01*
X4368Y4074D02*
X4378Y4074D01*
X3580Y4073D02*
X3588Y4073D01*
X3624Y4073D02*
X3632Y4073D01*
X4160Y4073D02*
X4171Y4073D01*
X4368Y4073D02*
X4378Y4073D01*
X3579Y4072D02*
X3588Y4072D01*
X3624Y4072D02*
X3632Y4072D01*
X4161Y4072D02*
X4172Y4072D01*
X4369Y4072D02*
X4379Y4072D01*
X3579Y4071D02*
X3587Y4071D01*
X3624Y4071D02*
X3632Y4071D01*
X4161Y4071D02*
X4172Y4071D01*
X4369Y4071D02*
X4379Y4071D01*
X3579Y4070D02*
X3587Y4070D01*
X3624Y4070D02*
X3632Y4070D01*
X4162Y4070D02*
X4173Y4070D01*
X4369Y4070D02*
X4379Y4070D01*
X3579Y4069D02*
X3587Y4069D01*
X3624Y4069D02*
X3632Y4069D01*
X4163Y4069D02*
X4173Y4069D01*
X4369Y4069D02*
X4379Y4069D01*
X3578Y4068D02*
X3587Y4068D01*
X3624Y4068D02*
X3633Y4068D01*
X4163Y4068D02*
X4174Y4068D01*
X4370Y4068D02*
X4380Y4068D01*
X3578Y4067D02*
X3586Y4067D01*
X3624Y4067D02*
X3633Y4067D01*
X4164Y4067D02*
X4175Y4067D01*
X4370Y4067D02*
X4380Y4067D01*
X3578Y4066D02*
X3586Y4066D01*
X3624Y4066D02*
X3633Y4066D01*
X4165Y4066D02*
X4175Y4066D01*
X4370Y4066D02*
X4380Y4066D01*
X3578Y4065D02*
X3586Y4065D01*
X3624Y4065D02*
X3633Y4065D01*
X4165Y4065D02*
X4176Y4065D01*
X4371Y4065D02*
X4380Y4065D01*
X3577Y4064D02*
X3586Y4064D01*
X3624Y4064D02*
X3633Y4064D01*
X4166Y4064D02*
X4176Y4064D01*
X4371Y4064D02*
X4381Y4064D01*
X3577Y4063D02*
X3585Y4063D01*
X3625Y4063D02*
X3633Y4063D01*
X4166Y4063D02*
X4177Y4063D01*
X4371Y4063D02*
X4381Y4063D01*
X3577Y4062D02*
X3585Y4062D01*
X3625Y4062D02*
X3633Y4062D01*
X4167Y4062D02*
X4177Y4062D01*
X4371Y4062D02*
X4381Y4062D01*
X3577Y4061D02*
X3585Y4061D01*
X3625Y4061D02*
X3633Y4061D01*
X4167Y4061D02*
X4177Y4061D01*
X4372Y4061D02*
X4381Y4061D01*
X3577Y4060D02*
X3585Y4060D01*
X3625Y4060D02*
X3633Y4060D01*
X4168Y4060D02*
X4178Y4060D01*
X4372Y4060D02*
X4382Y4060D01*
X3576Y4059D02*
X3584Y4059D01*
X3625Y4059D02*
X3633Y4059D01*
X4169Y4059D02*
X4178Y4059D01*
X4372Y4059D02*
X4382Y4059D01*
X3576Y4058D02*
X3584Y4058D01*
X3625Y4058D02*
X3633Y4058D01*
X4169Y4058D02*
X4179Y4058D01*
X4372Y4058D02*
X4382Y4058D01*
X3576Y4057D02*
X3584Y4057D01*
X3625Y4057D02*
X3633Y4057D01*
X4170Y4057D02*
X4179Y4057D01*
X4373Y4057D02*
X4382Y4057D01*
X3576Y4056D02*
X3584Y4056D01*
X3625Y4056D02*
X3633Y4056D01*
X4170Y4056D02*
X4180Y4056D01*
X4373Y4056D02*
X4383Y4056D01*
X3575Y4055D02*
X3583Y4055D01*
X3625Y4055D02*
X3634Y4055D01*
X4170Y4055D02*
X4180Y4055D01*
X4373Y4055D02*
X4383Y4055D01*
X3575Y4054D02*
X3583Y4054D01*
X3625Y4054D02*
X3634Y4054D01*
X4171Y4054D02*
X4180Y4054D01*
X4373Y4054D02*
X4383Y4054D01*
X3575Y4053D02*
X3583Y4053D01*
X3625Y4053D02*
X3634Y4053D01*
X4171Y4053D02*
X4181Y4053D01*
X4374Y4053D02*
X4383Y4053D01*
X3575Y4052D02*
X3583Y4052D01*
X3626Y4052D02*
X3634Y4052D01*
X4172Y4052D02*
X4181Y4052D01*
X4374Y4052D02*
X4383Y4052D01*
X3575Y4051D02*
X3583Y4051D01*
X3626Y4051D02*
X3634Y4051D01*
X4172Y4051D02*
X4182Y4051D01*
X4374Y4051D02*
X4384Y4051D01*
X3575Y4050D02*
X3582Y4050D01*
X3626Y4050D02*
X3634Y4050D01*
X4173Y4050D02*
X4182Y4050D01*
X4374Y4050D02*
X4384Y4050D01*
X3574Y4049D02*
X3582Y4049D01*
X3626Y4049D02*
X3634Y4049D01*
X4173Y4049D02*
X4182Y4049D01*
X4375Y4049D02*
X4384Y4049D01*
X3574Y4048D02*
X3582Y4048D01*
X3626Y4048D02*
X3634Y4048D01*
X4173Y4048D02*
X4183Y4048D01*
X4375Y4048D02*
X4384Y4048D01*
X3574Y4047D02*
X3582Y4047D01*
X3626Y4047D02*
X3634Y4047D01*
X4174Y4047D02*
X4183Y4047D01*
X4375Y4047D02*
X4384Y4047D01*
X3574Y4046D02*
X3582Y4046D01*
X3626Y4046D02*
X3635Y4046D01*
X4174Y4046D02*
X4183Y4046D01*
X4375Y4046D02*
X4385Y4046D01*
X3574Y4045D02*
X3581Y4045D01*
X3626Y4045D02*
X3635Y4045D01*
X4174Y4045D02*
X4184Y4045D01*
X4319Y4045D02*
X4319Y4045D01*
X4376Y4045D02*
X4385Y4045D01*
X3573Y4044D02*
X3581Y4044D01*
X3626Y4044D02*
X3635Y4044D01*
X4175Y4044D02*
X4184Y4044D01*
X4319Y4044D02*
X4319Y4044D01*
X4376Y4044D02*
X4385Y4044D01*
X3573Y4043D02*
X3581Y4043D01*
X3627Y4043D02*
X3635Y4043D01*
X4175Y4043D02*
X4184Y4043D01*
X4319Y4043D02*
X4319Y4043D01*
X4376Y4043D02*
X4385Y4043D01*
X3573Y4042D02*
X3581Y4042D01*
X3627Y4042D02*
X3635Y4042D01*
X4176Y4042D02*
X4185Y4042D01*
X4318Y4042D02*
X4319Y4042D01*
X4376Y4042D02*
X4385Y4042D01*
X3573Y4041D02*
X3581Y4041D01*
X3627Y4041D02*
X3635Y4041D01*
X4176Y4041D02*
X4185Y4041D01*
X4318Y4041D02*
X4319Y4041D01*
X4377Y4041D02*
X4386Y4041D01*
X3573Y4040D02*
X3580Y4040D01*
X3627Y4040D02*
X3635Y4040D01*
X4176Y4040D02*
X4185Y4040D01*
X4318Y4040D02*
X4319Y4040D01*
X4377Y4040D02*
X4386Y4040D01*
X3572Y4039D02*
X3580Y4039D01*
X3627Y4039D02*
X3635Y4039D01*
X4176Y4039D02*
X4185Y4039D01*
X4317Y4039D02*
X4319Y4039D01*
X4377Y4039D02*
X4386Y4039D01*
X3572Y4038D02*
X3580Y4038D01*
X3627Y4038D02*
X3636Y4038D01*
X4177Y4038D02*
X4186Y4038D01*
X4317Y4038D02*
X4319Y4038D01*
X4377Y4038D02*
X4386Y4038D01*
X3572Y4037D02*
X3580Y4037D01*
X3628Y4037D02*
X3636Y4037D01*
X4177Y4037D02*
X4186Y4037D01*
X4317Y4037D02*
X4319Y4037D01*
X4377Y4037D02*
X4386Y4037D01*
X3572Y4036D02*
X3580Y4036D01*
X3628Y4036D02*
X3636Y4036D01*
X4177Y4036D02*
X4186Y4036D01*
X4317Y4036D02*
X4319Y4036D01*
X4378Y4036D02*
X4387Y4036D01*
X3572Y4035D02*
X3580Y4035D01*
X3628Y4035D02*
X3636Y4035D01*
X4178Y4035D02*
X4187Y4035D01*
X4316Y4035D02*
X4319Y4035D01*
X4378Y4035D02*
X4387Y4035D01*
X3572Y4034D02*
X3579Y4034D01*
X3628Y4034D02*
X3636Y4034D01*
X4178Y4034D02*
X4187Y4034D01*
X4316Y4034D02*
X4319Y4034D01*
X4378Y4034D02*
X4387Y4034D01*
X3572Y4033D02*
X3579Y4033D01*
X3628Y4033D02*
X3636Y4033D01*
X4178Y4033D02*
X4187Y4033D01*
X4316Y4033D02*
X4319Y4033D01*
X4378Y4033D02*
X4387Y4033D01*
X3571Y4032D02*
X3579Y4032D01*
X3628Y4032D02*
X3637Y4032D01*
X4178Y4032D02*
X4187Y4032D01*
X4316Y4032D02*
X4318Y4032D01*
X4378Y4032D02*
X4387Y4032D01*
X3571Y4031D02*
X3579Y4031D01*
X3629Y4031D02*
X3637Y4031D01*
X4178Y4031D02*
X4187Y4031D01*
X4316Y4031D02*
X4318Y4031D01*
X4378Y4031D02*
X4387Y4031D01*
X3571Y4030D02*
X3579Y4030D01*
X3629Y4030D02*
X3637Y4030D01*
X4179Y4030D02*
X4188Y4030D01*
X4315Y4030D02*
X4318Y4030D01*
X4379Y4030D02*
X4387Y4030D01*
X3571Y4029D02*
X3579Y4029D01*
X3629Y4029D02*
X3637Y4029D01*
X4179Y4029D02*
X4188Y4029D01*
X4315Y4029D02*
X4318Y4029D01*
X4379Y4029D02*
X4388Y4029D01*
X3571Y4028D02*
X3579Y4028D01*
X3629Y4028D02*
X3637Y4028D01*
X4179Y4028D02*
X4188Y4028D01*
X4315Y4028D02*
X4318Y4028D01*
X4379Y4028D02*
X4388Y4028D01*
X3571Y4027D02*
X3578Y4027D01*
X3629Y4027D02*
X3637Y4027D01*
X4179Y4027D02*
X4188Y4027D01*
X4315Y4027D02*
X4318Y4027D01*
X4379Y4027D02*
X4388Y4027D01*
X3570Y4026D02*
X3578Y4026D01*
X3629Y4026D02*
X3638Y4026D01*
X4179Y4026D02*
X4188Y4026D01*
X4314Y4026D02*
X4318Y4026D01*
X4379Y4026D02*
X4388Y4026D01*
X3570Y4025D02*
X3578Y4025D01*
X3630Y4025D02*
X3638Y4025D01*
X4180Y4025D02*
X4189Y4025D01*
X4314Y4025D02*
X4317Y4025D01*
X4379Y4025D02*
X4388Y4025D01*
X3570Y4024D02*
X3578Y4024D01*
X3630Y4024D02*
X3638Y4024D01*
X4180Y4024D02*
X4189Y4024D01*
X4314Y4024D02*
X4317Y4024D01*
X4379Y4024D02*
X4388Y4024D01*
X3570Y4023D02*
X3578Y4023D01*
X3630Y4023D02*
X3638Y4023D01*
X4180Y4023D02*
X4189Y4023D01*
X4314Y4023D02*
X4317Y4023D01*
X4380Y4023D02*
X4389Y4023D01*
X3570Y4022D02*
X3578Y4022D01*
X3630Y4022D02*
X3638Y4022D01*
X4180Y4022D02*
X4189Y4022D01*
X4313Y4022D02*
X4317Y4022D01*
X4380Y4022D02*
X4389Y4022D01*
X3570Y4021D02*
X3578Y4021D01*
X3630Y4021D02*
X3639Y4021D01*
X4180Y4021D02*
X4189Y4021D01*
X4313Y4021D02*
X4317Y4021D01*
X4380Y4021D02*
X4389Y4021D01*
X3570Y4020D02*
X3578Y4020D01*
X3631Y4020D02*
X3639Y4020D01*
X4180Y4020D02*
X4189Y4020D01*
X4313Y4020D02*
X4316Y4020D01*
X4380Y4020D02*
X4389Y4020D01*
X3570Y4019D02*
X3577Y4019D01*
X3631Y4019D02*
X3639Y4019D01*
X4180Y4019D02*
X4190Y4019D01*
X4313Y4019D02*
X4316Y4019D01*
X4380Y4019D02*
X4389Y4019D01*
X3569Y4018D02*
X3577Y4018D01*
X3631Y4018D02*
X3639Y4018D01*
X4181Y4018D02*
X4190Y4018D01*
X4312Y4018D02*
X4316Y4018D01*
X4380Y4018D02*
X4389Y4018D01*
X3569Y4017D02*
X3577Y4017D01*
X3631Y4017D02*
X3639Y4017D01*
X4181Y4017D02*
X4190Y4017D01*
X4312Y4017D02*
X4316Y4017D01*
X4380Y4017D02*
X4389Y4017D01*
X3569Y4016D02*
X3577Y4016D01*
X3632Y4016D02*
X3640Y4016D01*
X4181Y4016D02*
X4190Y4016D01*
X4312Y4016D02*
X4316Y4016D01*
X4381Y4016D02*
X4389Y4016D01*
X3569Y4015D02*
X3577Y4015D01*
X3632Y4015D02*
X3640Y4015D01*
X4181Y4015D02*
X4190Y4015D01*
X4312Y4015D02*
X4315Y4015D01*
X4381Y4015D02*
X4390Y4015D01*
X3569Y4014D02*
X3577Y4014D01*
X3632Y4014D02*
X3640Y4014D01*
X4181Y4014D02*
X4190Y4014D01*
X4311Y4014D02*
X4315Y4014D01*
X4381Y4014D02*
X4390Y4014D01*
X3569Y4013D02*
X3577Y4013D01*
X3632Y4013D02*
X3640Y4013D01*
X4181Y4013D02*
X4190Y4013D01*
X4311Y4013D02*
X4315Y4013D01*
X4381Y4013D02*
X4390Y4013D01*
X3569Y4012D02*
X3577Y4012D01*
X3632Y4012D02*
X3641Y4012D01*
X4181Y4012D02*
X4190Y4012D01*
X4311Y4012D02*
X4315Y4012D01*
X4381Y4012D02*
X4390Y4012D01*
X3569Y4011D02*
X3577Y4011D01*
X3633Y4011D02*
X3641Y4011D01*
X4181Y4011D02*
X4190Y4011D01*
X4311Y4011D02*
X4314Y4011D01*
X4381Y4011D02*
X4390Y4011D01*
X3569Y4010D02*
X3577Y4010D01*
X3633Y4010D02*
X3641Y4010D01*
X4181Y4010D02*
X4190Y4010D01*
X4310Y4010D02*
X4314Y4010D01*
X4381Y4010D02*
X4390Y4010D01*
X3568Y4009D02*
X3576Y4009D01*
X3633Y4009D02*
X3641Y4009D01*
X4181Y4009D02*
X4190Y4009D01*
X4310Y4009D02*
X4314Y4009D01*
X4381Y4009D02*
X4390Y4009D01*
X3568Y4008D02*
X3576Y4008D01*
X3633Y4008D02*
X3642Y4008D01*
X4181Y4008D02*
X4190Y4008D01*
X4310Y4008D02*
X4314Y4008D01*
X4381Y4008D02*
X4390Y4008D01*
X3568Y4007D02*
X3576Y4007D01*
X3634Y4007D02*
X3642Y4007D01*
X4181Y4007D02*
X4190Y4007D01*
X4310Y4007D02*
X4313Y4007D01*
X4381Y4007D02*
X4390Y4007D01*
X3568Y4006D02*
X3576Y4006D01*
X3634Y4006D02*
X3642Y4006D01*
X4181Y4006D02*
X4190Y4006D01*
X4309Y4006D02*
X4313Y4006D01*
X4382Y4006D02*
X4391Y4006D01*
X3568Y4005D02*
X3576Y4005D01*
X3634Y4005D02*
X3642Y4005D01*
X4181Y4005D02*
X4190Y4005D01*
X4309Y4005D02*
X4313Y4005D01*
X4382Y4005D02*
X4391Y4005D01*
X3568Y4004D02*
X3576Y4004D01*
X3634Y4004D02*
X3643Y4004D01*
X4181Y4004D02*
X4190Y4004D01*
X4309Y4004D02*
X4313Y4004D01*
X4382Y4004D02*
X4391Y4004D01*
X3568Y4003D02*
X3576Y4003D01*
X3635Y4003D02*
X3643Y4003D01*
X4181Y4003D02*
X4190Y4003D01*
X4308Y4003D02*
X4312Y4003D01*
X4382Y4003D02*
X4391Y4003D01*
X3568Y4002D02*
X3576Y4002D01*
X3635Y4002D02*
X3643Y4002D01*
X4181Y4002D02*
X4190Y4002D01*
X4308Y4002D02*
X4312Y4002D01*
X4382Y4002D02*
X4391Y4002D01*
X3568Y4001D02*
X3576Y4001D01*
X3635Y4001D02*
X3643Y4001D01*
X4181Y4001D02*
X4190Y4001D01*
X4308Y4001D02*
X4312Y4001D01*
X4382Y4001D02*
X4391Y4001D01*
X3568Y4000D02*
X3576Y4000D01*
X3635Y4000D02*
X3644Y4000D01*
X4181Y4000D02*
X4190Y4000D01*
X4307Y4000D02*
X4311Y4000D01*
X4382Y4000D02*
X4391Y4000D01*
X3568Y3999D02*
X3576Y3999D01*
X3636Y3999D02*
X3644Y3999D01*
X4181Y3999D02*
X4190Y3999D01*
X4307Y3999D02*
X4311Y3999D01*
X4382Y3999D02*
X4391Y3999D01*
X3567Y3998D02*
X3576Y3998D01*
X3636Y3998D02*
X3644Y3998D01*
X4181Y3998D02*
X4190Y3998D01*
X4307Y3998D02*
X4311Y3998D01*
X4382Y3998D02*
X4391Y3998D01*
X3567Y3997D02*
X3576Y3997D01*
X3636Y3997D02*
X3645Y3997D01*
X4181Y3997D02*
X4190Y3997D01*
X4307Y3997D02*
X4311Y3997D01*
X4382Y3997D02*
X4392Y3997D01*
X3567Y3996D02*
X3576Y3996D01*
X3637Y3996D02*
X3645Y3996D01*
X4181Y3996D02*
X4190Y3996D01*
X4306Y3996D02*
X4310Y3996D01*
X4382Y3996D02*
X4392Y3996D01*
X3567Y3995D02*
X3576Y3995D01*
X3637Y3995D02*
X3645Y3995D01*
X4181Y3995D02*
X4190Y3995D01*
X4306Y3995D02*
X4310Y3995D01*
X4382Y3995D02*
X4392Y3995D01*
X3567Y3994D02*
X3575Y3994D01*
X3637Y3994D02*
X3646Y3994D01*
X4180Y3994D02*
X4190Y3994D01*
X4306Y3994D02*
X4310Y3994D01*
X4383Y3994D02*
X4392Y3994D01*
X3567Y3993D02*
X3575Y3993D01*
X3638Y3993D02*
X3646Y3993D01*
X4180Y3993D02*
X4190Y3993D01*
X4305Y3993D02*
X4309Y3993D01*
X4383Y3993D02*
X4392Y3993D01*
X3567Y3992D02*
X3575Y3992D01*
X3638Y3992D02*
X3646Y3992D01*
X4180Y3992D02*
X4189Y3992D01*
X4305Y3992D02*
X4309Y3992D01*
X4383Y3992D02*
X4392Y3992D01*
X3567Y3991D02*
X3575Y3991D01*
X3638Y3991D02*
X3646Y3991D01*
X4180Y3991D02*
X4189Y3991D01*
X4305Y3991D02*
X4309Y3991D01*
X4383Y3991D02*
X4392Y3991D01*
X3567Y3990D02*
X3575Y3990D01*
X3638Y3990D02*
X3647Y3990D01*
X4180Y3990D02*
X4189Y3990D01*
X4304Y3990D02*
X4308Y3990D01*
X4383Y3990D02*
X4392Y3990D01*
X3567Y3989D02*
X3575Y3989D01*
X3639Y3989D02*
X3647Y3989D01*
X4180Y3989D02*
X4189Y3989D01*
X4304Y3989D02*
X4308Y3989D01*
X4383Y3989D02*
X4392Y3989D01*
X3567Y3988D02*
X3575Y3988D01*
X3639Y3988D02*
X3647Y3988D01*
X4180Y3988D02*
X4189Y3988D01*
X4304Y3988D02*
X4308Y3988D01*
X4383Y3988D02*
X4392Y3988D01*
X3567Y3987D02*
X3575Y3987D01*
X3639Y3987D02*
X3648Y3987D01*
X4179Y3987D02*
X4188Y3987D01*
X4303Y3987D02*
X4308Y3987D01*
X4368Y3987D02*
X4368Y3987D01*
X4383Y3987D02*
X4393Y3987D01*
X3567Y3986D02*
X3575Y3986D01*
X3640Y3986D02*
X3648Y3986D01*
X4179Y3986D02*
X4188Y3986D01*
X4303Y3986D02*
X4307Y3986D01*
X4367Y3986D02*
X4368Y3986D01*
X4383Y3986D02*
X4393Y3986D01*
X3567Y3985D02*
X3575Y3985D01*
X3640Y3985D02*
X3648Y3985D01*
X4179Y3985D02*
X4188Y3985D01*
X4303Y3985D02*
X4307Y3985D01*
X4383Y3985D02*
X4393Y3985D01*
X3567Y3984D02*
X3575Y3984D01*
X3640Y3984D02*
X3649Y3984D01*
X4179Y3984D02*
X4188Y3984D01*
X4302Y3984D02*
X4307Y3984D01*
X4383Y3984D02*
X4393Y3984D01*
X3567Y3983D02*
X3575Y3983D01*
X3641Y3983D02*
X3649Y3983D01*
X4179Y3983D02*
X4188Y3983D01*
X4302Y3983D02*
X4306Y3983D01*
X4383Y3983D02*
X4393Y3983D01*
X3567Y3982D02*
X3575Y3982D01*
X3641Y3982D02*
X3649Y3982D01*
X4178Y3982D02*
X4187Y3982D01*
X4302Y3982D02*
X4306Y3982D01*
X4383Y3982D02*
X4393Y3982D01*
X3566Y3981D02*
X3575Y3981D01*
X3641Y3981D02*
X3650Y3981D01*
X4178Y3981D02*
X4187Y3981D01*
X4301Y3981D02*
X4306Y3981D01*
X4383Y3981D02*
X4393Y3981D01*
X3566Y3980D02*
X3575Y3980D01*
X3642Y3980D02*
X3650Y3980D01*
X4178Y3980D02*
X4187Y3980D01*
X4301Y3980D02*
X4305Y3980D01*
X4366Y3980D02*
X4367Y3980D01*
X4383Y3980D02*
X4393Y3980D01*
X3566Y3979D02*
X3575Y3979D01*
X3642Y3979D02*
X3651Y3979D01*
X4177Y3979D02*
X4187Y3979D01*
X4301Y3979D02*
X4305Y3979D01*
X4366Y3979D02*
X4368Y3979D01*
X4383Y3979D02*
X4393Y3979D01*
X3566Y3978D02*
X3575Y3978D01*
X3593Y3978D02*
X3593Y3978D01*
X3642Y3978D02*
X3651Y3978D01*
X4177Y3978D02*
X4186Y3978D01*
X4300Y3978D02*
X4305Y3978D01*
X4366Y3978D02*
X4368Y3978D01*
X4384Y3978D02*
X4393Y3978D01*
X3566Y3977D02*
X3575Y3977D01*
X3593Y3977D02*
X3593Y3977D01*
X3643Y3977D02*
X3651Y3977D01*
X4177Y3977D02*
X4186Y3977D01*
X4300Y3977D02*
X4304Y3977D01*
X4365Y3977D02*
X4369Y3977D01*
X4384Y3977D02*
X4393Y3977D01*
X3566Y3976D02*
X3575Y3976D01*
X3593Y3976D02*
X3593Y3976D01*
X3643Y3976D02*
X3652Y3976D01*
X4177Y3976D02*
X4186Y3976D01*
X4299Y3976D02*
X4304Y3976D01*
X4365Y3976D02*
X4369Y3976D01*
X4384Y3976D02*
X4394Y3976D01*
X3566Y3975D02*
X3575Y3975D01*
X3593Y3975D02*
X3594Y3975D01*
X3643Y3975D02*
X3652Y3975D01*
X4176Y3975D02*
X4185Y3975D01*
X4299Y3975D02*
X4303Y3975D01*
X4365Y3975D02*
X4369Y3975D01*
X4384Y3975D02*
X4394Y3975D01*
X3566Y3974D02*
X3575Y3974D01*
X3593Y3974D02*
X3594Y3974D01*
X3644Y3974D02*
X3652Y3974D01*
X4176Y3974D02*
X4185Y3974D01*
X4299Y3974D02*
X4303Y3974D01*
X4365Y3974D02*
X4369Y3974D01*
X4384Y3974D02*
X4394Y3974D01*
X3566Y3973D02*
X3575Y3973D01*
X3593Y3973D02*
X3594Y3973D01*
X3644Y3973D02*
X3653Y3973D01*
X4176Y3973D02*
X4185Y3973D01*
X4298Y3973D02*
X4303Y3973D01*
X4365Y3973D02*
X4370Y3973D01*
X4384Y3973D02*
X4394Y3973D01*
X3566Y3972D02*
X3575Y3972D01*
X3593Y3972D02*
X3594Y3972D01*
X3644Y3972D02*
X3653Y3972D01*
X4175Y3972D02*
X4184Y3972D01*
X4298Y3972D02*
X4302Y3972D01*
X4365Y3972D02*
X4370Y3972D01*
X4384Y3972D02*
X4394Y3972D01*
X3566Y3971D02*
X3575Y3971D01*
X3593Y3971D02*
X3594Y3971D01*
X3645Y3971D02*
X3654Y3971D01*
X4175Y3971D02*
X4184Y3971D01*
X4298Y3971D02*
X4302Y3971D01*
X4365Y3971D02*
X4370Y3971D01*
X4384Y3971D02*
X4394Y3971D01*
X3566Y3970D02*
X3575Y3970D01*
X3593Y3970D02*
X3594Y3970D01*
X3645Y3970D02*
X3654Y3970D01*
X4174Y3970D02*
X4184Y3970D01*
X4297Y3970D02*
X4302Y3970D01*
X4365Y3970D02*
X4370Y3970D01*
X4384Y3970D02*
X4394Y3970D01*
X3566Y3969D02*
X3575Y3969D01*
X3593Y3969D02*
X3594Y3969D01*
X3645Y3969D02*
X3654Y3969D01*
X4174Y3969D02*
X4183Y3969D01*
X4297Y3969D02*
X4301Y3969D01*
X4365Y3969D02*
X4370Y3969D01*
X4384Y3969D02*
X4394Y3969D01*
X3566Y3968D02*
X3575Y3968D01*
X3592Y3968D02*
X3595Y3968D01*
X3646Y3968D02*
X3655Y3968D01*
X4174Y3968D02*
X4183Y3968D01*
X4296Y3968D02*
X4301Y3968D01*
X4365Y3968D02*
X4370Y3968D01*
X4384Y3968D02*
X4394Y3968D01*
X3566Y3967D02*
X3575Y3967D01*
X3592Y3967D02*
X3595Y3967D01*
X3646Y3967D02*
X3655Y3967D01*
X4173Y3967D02*
X4183Y3967D01*
X4296Y3967D02*
X4301Y3967D01*
X4365Y3967D02*
X4370Y3967D01*
X4384Y3967D02*
X4394Y3967D01*
X3566Y3966D02*
X3575Y3966D01*
X3592Y3966D02*
X3595Y3966D01*
X3647Y3966D02*
X3656Y3966D01*
X4173Y3966D02*
X4182Y3966D01*
X4296Y3966D02*
X4300Y3966D01*
X4365Y3966D02*
X4370Y3966D01*
X4384Y3966D02*
X4394Y3966D01*
X3566Y3965D02*
X3575Y3965D01*
X3592Y3965D02*
X3595Y3965D01*
X3647Y3965D02*
X3656Y3965D01*
X4172Y3965D02*
X4182Y3965D01*
X4295Y3965D02*
X4300Y3965D01*
X4365Y3965D02*
X4370Y3965D01*
X4384Y3965D02*
X4394Y3965D01*
X3566Y3964D02*
X3575Y3964D01*
X3593Y3964D02*
X3595Y3964D01*
X3647Y3964D02*
X3657Y3964D01*
X4172Y3964D02*
X4181Y3964D01*
X4295Y3964D02*
X4300Y3964D01*
X4364Y3964D02*
X4370Y3964D01*
X4384Y3964D02*
X4394Y3964D01*
X3566Y3963D02*
X3575Y3963D01*
X3593Y3963D02*
X3595Y3963D01*
X3648Y3963D02*
X3657Y3963D01*
X4171Y3963D02*
X4181Y3963D01*
X4294Y3963D02*
X4299Y3963D01*
X4364Y3963D02*
X4370Y3963D01*
X4384Y3963D02*
X4394Y3963D01*
X3566Y3962D02*
X3575Y3962D01*
X3593Y3962D02*
X3595Y3962D01*
X3648Y3962D02*
X3657Y3962D01*
X4171Y3962D02*
X4180Y3962D01*
X4294Y3962D02*
X4299Y3962D01*
X4364Y3962D02*
X4370Y3962D01*
X4384Y3962D02*
X4394Y3962D01*
X3566Y3961D02*
X3575Y3961D01*
X3593Y3961D02*
X3596Y3961D01*
X3649Y3961D02*
X3658Y3961D01*
X4170Y3961D02*
X4180Y3961D01*
X4293Y3961D02*
X4298Y3961D01*
X4364Y3961D02*
X4370Y3961D01*
X4384Y3961D02*
X4394Y3961D01*
X3566Y3960D02*
X3575Y3960D01*
X3593Y3960D02*
X3596Y3960D01*
X3649Y3960D02*
X3658Y3960D01*
X4170Y3960D02*
X4180Y3960D01*
X4293Y3960D02*
X4298Y3960D01*
X4364Y3960D02*
X4370Y3960D01*
X4384Y3960D02*
X4394Y3960D01*
X3566Y3959D02*
X3575Y3959D01*
X3593Y3959D02*
X3596Y3959D01*
X3649Y3959D02*
X3659Y3959D01*
X4169Y3959D02*
X4179Y3959D01*
X4293Y3959D02*
X4298Y3959D01*
X4364Y3959D02*
X4370Y3959D01*
X4384Y3959D02*
X4394Y3959D01*
X3566Y3958D02*
X3575Y3958D01*
X3593Y3958D02*
X3596Y3958D01*
X3650Y3958D02*
X3659Y3958D01*
X4169Y3958D02*
X4179Y3958D01*
X4292Y3958D02*
X4297Y3958D01*
X4364Y3958D02*
X4370Y3958D01*
X4384Y3958D02*
X4394Y3958D01*
X3566Y3957D02*
X3575Y3957D01*
X3593Y3957D02*
X3596Y3957D01*
X3650Y3957D02*
X3660Y3957D01*
X4168Y3957D02*
X4178Y3957D01*
X4292Y3957D02*
X4297Y3957D01*
X4364Y3957D02*
X4370Y3957D01*
X4384Y3957D02*
X4394Y3957D01*
X3566Y3956D02*
X3575Y3956D01*
X3593Y3956D02*
X3596Y3956D01*
X3651Y3956D02*
X3660Y3956D01*
X4168Y3956D02*
X4178Y3956D01*
X4291Y3956D02*
X4296Y3956D01*
X4363Y3956D02*
X4370Y3956D01*
X4384Y3956D02*
X4394Y3956D01*
X3566Y3955D02*
X3575Y3955D01*
X3593Y3955D02*
X3596Y3955D01*
X3651Y3955D02*
X3661Y3955D01*
X4167Y3955D02*
X4177Y3955D01*
X4291Y3955D02*
X4296Y3955D01*
X4363Y3955D02*
X4370Y3955D01*
X4384Y3955D02*
X4394Y3955D01*
X3566Y3954D02*
X3575Y3954D01*
X3593Y3954D02*
X3596Y3954D01*
X3652Y3954D02*
X3661Y3954D01*
X4166Y3954D02*
X4177Y3954D01*
X4290Y3954D02*
X4296Y3954D01*
X4363Y3954D02*
X4370Y3954D01*
X4384Y3954D02*
X4394Y3954D01*
X3566Y3953D02*
X3575Y3953D01*
X3594Y3953D02*
X3596Y3953D01*
X3652Y3953D02*
X3662Y3953D01*
X4166Y3953D02*
X4176Y3953D01*
X4290Y3953D02*
X4295Y3953D01*
X4363Y3953D02*
X4369Y3953D01*
X4384Y3953D02*
X4394Y3953D01*
X3566Y3952D02*
X3575Y3952D01*
X3594Y3952D02*
X3597Y3952D01*
X3652Y3952D02*
X3662Y3952D01*
X4165Y3952D02*
X4175Y3952D01*
X4290Y3952D02*
X4295Y3952D01*
X4363Y3952D02*
X4369Y3952D01*
X4384Y3952D02*
X4394Y3952D01*
X3566Y3951D02*
X3575Y3951D01*
X3594Y3951D02*
X3597Y3951D01*
X3653Y3951D02*
X3662Y3951D01*
X4165Y3951D02*
X4175Y3951D01*
X4289Y3951D02*
X4294Y3951D01*
X4363Y3951D02*
X4369Y3951D01*
X4384Y3951D02*
X4394Y3951D01*
X3566Y3950D02*
X3575Y3950D01*
X3594Y3950D02*
X3597Y3950D01*
X3653Y3950D02*
X3663Y3950D01*
X4164Y3950D02*
X4174Y3950D01*
X4289Y3950D02*
X4294Y3950D01*
X4363Y3950D02*
X4369Y3950D01*
X4384Y3950D02*
X4394Y3950D01*
X3566Y3949D02*
X3575Y3949D01*
X3594Y3949D02*
X3597Y3949D01*
X3654Y3949D02*
X3663Y3949D01*
X4163Y3949D02*
X4174Y3949D01*
X4288Y3949D02*
X4294Y3949D01*
X4362Y3949D02*
X4369Y3949D01*
X4384Y3949D02*
X4394Y3949D01*
X3566Y3948D02*
X3575Y3948D01*
X3594Y3948D02*
X3597Y3948D01*
X3654Y3948D02*
X3664Y3948D01*
X4163Y3948D02*
X4173Y3948D01*
X4288Y3948D02*
X4293Y3948D01*
X4362Y3948D02*
X4369Y3948D01*
X4384Y3948D02*
X4394Y3948D01*
X3566Y3947D02*
X3575Y3947D01*
X3595Y3947D02*
X3597Y3947D01*
X3655Y3947D02*
X3664Y3947D01*
X4162Y3947D02*
X4173Y3947D01*
X4287Y3947D02*
X4293Y3947D01*
X4362Y3947D02*
X4368Y3947D01*
X4384Y3947D02*
X4393Y3947D01*
X3566Y3946D02*
X3575Y3946D01*
X3595Y3946D02*
X3597Y3946D01*
X3655Y3946D02*
X3665Y3946D01*
X4161Y3946D02*
X4172Y3946D01*
X4287Y3946D02*
X4292Y3946D01*
X4362Y3946D02*
X4368Y3946D01*
X4384Y3946D02*
X4393Y3946D01*
X3567Y3945D02*
X3575Y3945D01*
X3595Y3945D02*
X3597Y3945D01*
X3656Y3945D02*
X3665Y3945D01*
X4161Y3945D02*
X4171Y3945D01*
X4286Y3945D02*
X4292Y3945D01*
X4362Y3945D02*
X4368Y3945D01*
X4384Y3945D02*
X4393Y3945D01*
X3567Y3944D02*
X3575Y3944D01*
X3595Y3944D02*
X3597Y3944D01*
X3656Y3944D02*
X3666Y3944D01*
X4160Y3944D02*
X4171Y3944D01*
X4286Y3944D02*
X4291Y3944D01*
X4361Y3944D02*
X4368Y3944D01*
X4384Y3944D02*
X4393Y3944D01*
X3567Y3943D02*
X3575Y3943D01*
X3595Y3943D02*
X3598Y3943D01*
X3657Y3943D02*
X3666Y3943D01*
X4159Y3943D02*
X4170Y3943D01*
X4285Y3943D02*
X4291Y3943D01*
X4361Y3943D02*
X4367Y3943D01*
X4384Y3943D02*
X4393Y3943D01*
X3567Y3942D02*
X3575Y3942D01*
X3596Y3942D02*
X3598Y3942D01*
X3657Y3942D02*
X3667Y3942D01*
X4158Y3942D02*
X4169Y3942D01*
X4285Y3942D02*
X4291Y3942D01*
X4361Y3942D02*
X4367Y3942D01*
X4384Y3942D02*
X4393Y3942D01*
X3567Y3941D02*
X3575Y3941D01*
X3596Y3941D02*
X3598Y3941D01*
X3658Y3941D02*
X3667Y3941D01*
X4158Y3941D02*
X4169Y3941D01*
X4284Y3941D02*
X4290Y3941D01*
X4361Y3941D02*
X4367Y3941D01*
X4384Y3941D02*
X4393Y3941D01*
X3567Y3940D02*
X3575Y3940D01*
X3596Y3940D02*
X3598Y3940D01*
X3658Y3940D02*
X3668Y3940D01*
X4157Y3940D02*
X4168Y3940D01*
X4284Y3940D02*
X4290Y3940D01*
X4361Y3940D02*
X4367Y3940D01*
X4383Y3940D02*
X4393Y3940D01*
X3567Y3939D02*
X3575Y3939D01*
X3596Y3939D02*
X3598Y3939D01*
X3658Y3939D02*
X3668Y3939D01*
X4156Y3939D02*
X4167Y3939D01*
X4283Y3939D02*
X4289Y3939D01*
X4360Y3939D02*
X4366Y3939D01*
X4383Y3939D02*
X4393Y3939D01*
X3567Y3938D02*
X3575Y3938D01*
X3596Y3938D02*
X3599Y3938D01*
X3659Y3938D02*
X3669Y3938D01*
X4155Y3938D02*
X4167Y3938D01*
X4283Y3938D02*
X4289Y3938D01*
X4360Y3938D02*
X4366Y3938D01*
X4383Y3938D02*
X4392Y3938D01*
X3567Y3937D02*
X3575Y3937D01*
X3597Y3937D02*
X3599Y3937D01*
X3659Y3937D02*
X3669Y3937D01*
X4154Y3937D02*
X4166Y3937D01*
X4282Y3937D02*
X4288Y3937D01*
X4360Y3937D02*
X4366Y3937D01*
X4383Y3937D02*
X4392Y3937D01*
X3567Y3936D02*
X3575Y3936D01*
X3597Y3936D02*
X3599Y3936D01*
X3660Y3936D02*
X3670Y3936D01*
X4153Y3936D02*
X4165Y3936D01*
X4282Y3936D02*
X4288Y3936D01*
X4360Y3936D02*
X4366Y3936D01*
X4383Y3936D02*
X4392Y3936D01*
X3567Y3935D02*
X3575Y3935D01*
X3597Y3935D02*
X3599Y3935D01*
X3660Y3935D02*
X3670Y3935D01*
X4152Y3935D02*
X4164Y3935D01*
X4281Y3935D02*
X4287Y3935D01*
X4360Y3935D02*
X4365Y3935D01*
X4383Y3935D02*
X4392Y3935D01*
X3567Y3934D02*
X3575Y3934D01*
X3597Y3934D02*
X3599Y3934D01*
X3661Y3934D02*
X3671Y3934D01*
X4152Y3934D02*
X4163Y3934D01*
X4281Y3934D02*
X4287Y3934D01*
X4359Y3934D02*
X4365Y3934D01*
X4383Y3934D02*
X4392Y3934D01*
X3567Y3933D02*
X3576Y3933D01*
X3598Y3933D02*
X3600Y3933D01*
X3661Y3933D02*
X3671Y3933D01*
X4151Y3933D02*
X4163Y3933D01*
X4280Y3933D02*
X4287Y3933D01*
X4359Y3933D02*
X4365Y3933D01*
X4383Y3933D02*
X4392Y3933D01*
X3567Y3932D02*
X3576Y3932D01*
X3598Y3932D02*
X3600Y3932D01*
X3662Y3932D02*
X3672Y3932D01*
X4150Y3932D02*
X4162Y3932D01*
X4280Y3932D02*
X4286Y3932D01*
X4359Y3932D02*
X4365Y3932D01*
X4383Y3932D02*
X4392Y3932D01*
X3567Y3931D02*
X3576Y3931D01*
X3598Y3931D02*
X3600Y3931D01*
X3662Y3931D02*
X3672Y3931D01*
X4149Y3931D02*
X4161Y3931D01*
X4279Y3931D02*
X4286Y3931D01*
X4359Y3931D02*
X4364Y3931D01*
X4383Y3931D02*
X4392Y3931D01*
X3567Y3930D02*
X3576Y3930D01*
X3598Y3930D02*
X3600Y3930D01*
X3663Y3930D02*
X3673Y3930D01*
X4148Y3930D02*
X4160Y3930D01*
X4279Y3930D02*
X4285Y3930D01*
X4359Y3930D02*
X4364Y3930D01*
X4383Y3930D02*
X4392Y3930D01*
X3567Y3929D02*
X3576Y3929D01*
X3598Y3929D02*
X3600Y3929D01*
X3663Y3929D02*
X3674Y3929D01*
X4146Y3929D02*
X4159Y3929D01*
X4278Y3929D02*
X4285Y3929D01*
X4358Y3929D02*
X4364Y3929D01*
X4383Y3929D02*
X4391Y3929D01*
X3568Y3928D02*
X3576Y3928D01*
X3599Y3928D02*
X3601Y3928D01*
X3664Y3928D02*
X3674Y3928D01*
X4145Y3928D02*
X4158Y3928D01*
X4278Y3928D02*
X4284Y3928D01*
X4358Y3928D02*
X4364Y3928D01*
X4382Y3928D02*
X4391Y3928D01*
X3568Y3927D02*
X3576Y3927D01*
X3599Y3927D02*
X3601Y3927D01*
X3665Y3927D02*
X3675Y3927D01*
X4144Y3927D02*
X4158Y3927D01*
X4277Y3927D02*
X4284Y3927D01*
X4358Y3927D02*
X4363Y3927D01*
X4382Y3927D02*
X4391Y3927D01*
X3568Y3926D02*
X3576Y3926D01*
X3599Y3926D02*
X3601Y3926D01*
X3665Y3926D02*
X3675Y3926D01*
X4143Y3926D02*
X4157Y3926D01*
X4276Y3926D02*
X4283Y3926D01*
X4358Y3926D02*
X4363Y3926D01*
X4382Y3926D02*
X4391Y3926D01*
X3568Y3925D02*
X3576Y3925D01*
X3599Y3925D02*
X3601Y3925D01*
X3666Y3925D02*
X3676Y3925D01*
X4142Y3925D02*
X4156Y3925D01*
X4276Y3925D02*
X4283Y3925D01*
X4357Y3925D02*
X4363Y3925D01*
X4382Y3925D02*
X4391Y3925D01*
X3568Y3924D02*
X3576Y3924D01*
X3600Y3924D02*
X3602Y3924D01*
X3666Y3924D02*
X3676Y3924D01*
X4141Y3924D02*
X4155Y3924D01*
X4275Y3924D02*
X4282Y3924D01*
X4357Y3924D02*
X4363Y3924D01*
X4382Y3924D02*
X4391Y3924D01*
X3568Y3923D02*
X3576Y3923D01*
X3600Y3923D02*
X3602Y3923D01*
X3667Y3923D02*
X3677Y3923D01*
X4140Y3923D02*
X4154Y3923D01*
X4275Y3923D02*
X4282Y3923D01*
X4357Y3923D02*
X4363Y3923D01*
X4382Y3923D02*
X4391Y3923D01*
X3568Y3922D02*
X3576Y3922D01*
X3600Y3922D02*
X3602Y3922D01*
X3667Y3922D02*
X3677Y3922D01*
X4138Y3922D02*
X4153Y3922D01*
X4274Y3922D02*
X4281Y3922D01*
X4356Y3922D02*
X4363Y3922D01*
X4382Y3922D02*
X4391Y3922D01*
X3568Y3921D02*
X3576Y3921D01*
X3600Y3921D02*
X3602Y3921D01*
X3668Y3921D02*
X3678Y3921D01*
X4137Y3921D02*
X4151Y3921D01*
X4274Y3921D02*
X4281Y3921D01*
X4356Y3921D02*
X4362Y3921D01*
X4382Y3921D02*
X4390Y3921D01*
X3568Y3920D02*
X3576Y3920D01*
X3601Y3920D02*
X3603Y3920D01*
X3668Y3920D02*
X3678Y3920D01*
X4136Y3920D02*
X4150Y3920D01*
X4273Y3920D02*
X4280Y3920D01*
X4356Y3920D02*
X4362Y3920D01*
X4381Y3920D02*
X4390Y3920D01*
X3568Y3919D02*
X3577Y3919D01*
X3601Y3919D02*
X3603Y3919D01*
X3669Y3919D02*
X3679Y3919D01*
X4134Y3919D02*
X4149Y3919D01*
X4272Y3919D02*
X4280Y3919D01*
X4355Y3919D02*
X4362Y3919D01*
X4381Y3919D02*
X4390Y3919D01*
X3568Y3918D02*
X3577Y3918D01*
X3601Y3918D02*
X3603Y3918D01*
X3669Y3918D02*
X3680Y3918D01*
X4133Y3918D02*
X4148Y3918D01*
X4272Y3918D02*
X4279Y3918D01*
X4355Y3918D02*
X4362Y3918D01*
X4381Y3918D02*
X4390Y3918D01*
X3569Y3917D02*
X3577Y3917D01*
X3601Y3917D02*
X3604Y3917D01*
X3670Y3917D02*
X3680Y3917D01*
X4131Y3917D02*
X4147Y3917D01*
X4271Y3917D02*
X4278Y3917D01*
X4355Y3917D02*
X4362Y3917D01*
X4381Y3917D02*
X4390Y3917D01*
X3569Y3916D02*
X3577Y3916D01*
X3601Y3916D02*
X3604Y3916D01*
X3670Y3916D02*
X3681Y3916D01*
X4130Y3916D02*
X4146Y3916D01*
X4271Y3916D02*
X4278Y3916D01*
X4354Y3916D02*
X4362Y3916D01*
X4381Y3916D02*
X4390Y3916D01*
X3569Y3915D02*
X3577Y3915D01*
X3602Y3915D02*
X3604Y3915D01*
X3671Y3915D02*
X3681Y3915D01*
X4128Y3915D02*
X4144Y3915D01*
X4270Y3915D02*
X4277Y3915D01*
X4354Y3915D02*
X4361Y3915D01*
X4381Y3915D02*
X4390Y3915D01*
X3569Y3914D02*
X3577Y3914D01*
X3602Y3914D02*
X3604Y3914D01*
X3672Y3914D02*
X3682Y3914D01*
X4127Y3914D02*
X4143Y3914D01*
X4270Y3914D02*
X4277Y3914D01*
X4354Y3914D02*
X4361Y3914D01*
X4381Y3914D02*
X4389Y3914D01*
X3569Y3913D02*
X3577Y3913D01*
X3602Y3913D02*
X3605Y3913D01*
X3672Y3913D02*
X3683Y3913D01*
X4125Y3913D02*
X4142Y3913D01*
X4269Y3913D02*
X4276Y3913D01*
X4354Y3913D02*
X4361Y3913D01*
X4381Y3913D02*
X4389Y3913D01*
X3569Y3912D02*
X3577Y3912D01*
X3602Y3912D02*
X3605Y3912D01*
X3673Y3912D02*
X3683Y3912D01*
X4123Y3912D02*
X4140Y3912D01*
X4268Y3912D02*
X4276Y3912D01*
X4353Y3912D02*
X4361Y3912D01*
X4380Y3912D02*
X4389Y3912D01*
X3569Y3911D02*
X3577Y3911D01*
X3602Y3911D02*
X3605Y3911D01*
X3673Y3911D02*
X3684Y3911D01*
X4121Y3911D02*
X4139Y3911D01*
X4268Y3911D02*
X4275Y3911D01*
X4353Y3911D02*
X4361Y3911D01*
X4380Y3911D02*
X4389Y3911D01*
X3569Y3910D02*
X3577Y3910D01*
X3603Y3910D02*
X3606Y3910D01*
X3674Y3910D02*
X3684Y3910D01*
X4120Y3910D02*
X4138Y3910D01*
X4267Y3910D02*
X4275Y3910D01*
X4353Y3910D02*
X4361Y3910D01*
X4380Y3910D02*
X4389Y3910D01*
X3570Y3909D02*
X3578Y3909D01*
X3603Y3909D02*
X3606Y3909D01*
X3675Y3909D02*
X3685Y3909D01*
X4118Y3909D02*
X4136Y3909D01*
X4266Y3909D02*
X4274Y3909D01*
X4352Y3909D02*
X4361Y3909D01*
X4380Y3909D02*
X4389Y3909D01*
X3570Y3908D02*
X3578Y3908D01*
X3603Y3908D02*
X3606Y3908D01*
X3675Y3908D02*
X3686Y3908D01*
X4116Y3908D02*
X4135Y3908D01*
X4266Y3908D02*
X4273Y3908D01*
X4352Y3908D02*
X4361Y3908D01*
X4380Y3908D02*
X4389Y3908D01*
X3570Y3907D02*
X3578Y3907D01*
X3603Y3907D02*
X3607Y3907D01*
X3676Y3907D02*
X3686Y3907D01*
X4114Y3907D02*
X4133Y3907D01*
X4265Y3907D02*
X4273Y3907D01*
X4352Y3907D02*
X4360Y3907D01*
X4380Y3907D02*
X4388Y3907D01*
X3570Y3906D02*
X3578Y3906D01*
X3603Y3906D02*
X3607Y3906D01*
X3677Y3906D02*
X3687Y3906D01*
X4112Y3906D02*
X4132Y3906D01*
X4265Y3906D02*
X4272Y3906D01*
X4351Y3906D02*
X4360Y3906D01*
X4379Y3906D02*
X4388Y3906D01*
X3570Y3905D02*
X3578Y3905D01*
X3603Y3905D02*
X3607Y3905D01*
X3677Y3905D02*
X3687Y3905D01*
X4110Y3905D02*
X4130Y3905D01*
X4264Y3905D02*
X4271Y3905D01*
X4351Y3905D02*
X4360Y3905D01*
X4379Y3905D02*
X4388Y3905D01*
X3570Y3904D02*
X3578Y3904D01*
X3604Y3904D02*
X3607Y3904D01*
X3678Y3904D02*
X3688Y3904D01*
X4108Y3904D02*
X4128Y3904D01*
X4263Y3904D02*
X4271Y3904D01*
X4351Y3904D02*
X4360Y3904D01*
X4379Y3904D02*
X4388Y3904D01*
X3570Y3903D02*
X3578Y3903D01*
X3604Y3903D02*
X3608Y3903D01*
X3678Y3903D02*
X3689Y3903D01*
X4106Y3903D02*
X4127Y3903D01*
X4263Y3903D02*
X4270Y3903D01*
X4351Y3903D02*
X4360Y3903D01*
X4379Y3903D02*
X4388Y3903D01*
X3571Y3902D02*
X3579Y3902D01*
X3604Y3902D02*
X3608Y3902D01*
X3679Y3902D02*
X3689Y3902D01*
X4093Y3902D02*
X4125Y3902D01*
X4262Y3902D02*
X4269Y3902D01*
X4350Y3902D02*
X4360Y3902D01*
X4379Y3902D02*
X4388Y3902D01*
X3571Y3901D02*
X3579Y3901D01*
X3604Y3901D02*
X3608Y3901D01*
X3680Y3901D02*
X3690Y3901D01*
X4036Y3901D02*
X4123Y3901D01*
X4261Y3901D02*
X4269Y3901D01*
X4350Y3901D02*
X4360Y3901D01*
X4379Y3901D02*
X4388Y3901D01*
X3571Y3900D02*
X3579Y3900D01*
X3605Y3900D02*
X3609Y3900D01*
X3680Y3900D02*
X3691Y3900D01*
X4021Y3900D02*
X4121Y3900D01*
X4261Y3900D02*
X4268Y3900D01*
X4350Y3900D02*
X4360Y3900D01*
X4378Y3900D02*
X4387Y3900D01*
X3571Y3899D02*
X3579Y3899D01*
X3605Y3899D02*
X3609Y3899D01*
X3681Y3899D02*
X3691Y3899D01*
X4012Y3899D02*
X4118Y3899D01*
X4260Y3899D02*
X4267Y3899D01*
X4349Y3899D02*
X4360Y3899D01*
X4378Y3899D02*
X4387Y3899D01*
X3571Y3898D02*
X3579Y3898D01*
X3605Y3898D02*
X3609Y3898D01*
X3681Y3898D02*
X3692Y3898D01*
X4006Y3898D02*
X4116Y3898D01*
X4259Y3898D02*
X4267Y3898D01*
X4349Y3898D02*
X4359Y3898D01*
X4378Y3898D02*
X4387Y3898D01*
X3571Y3897D02*
X3579Y3897D01*
X3605Y3897D02*
X3610Y3897D01*
X3682Y3897D02*
X3692Y3897D01*
X4001Y3897D02*
X4113Y3897D01*
X4258Y3897D02*
X4266Y3897D01*
X4349Y3897D02*
X4359Y3897D01*
X4378Y3897D02*
X4387Y3897D01*
X3571Y3896D02*
X3580Y3896D01*
X3606Y3896D02*
X3610Y3896D01*
X3683Y3896D02*
X3693Y3896D01*
X3997Y3896D02*
X4109Y3896D01*
X4258Y3896D02*
X4265Y3896D01*
X4349Y3896D02*
X4359Y3896D01*
X4378Y3896D02*
X4387Y3896D01*
X3572Y3895D02*
X3580Y3895D01*
X3606Y3895D02*
X3610Y3895D01*
X3684Y3895D02*
X3694Y3895D01*
X3993Y3895D02*
X4105Y3895D01*
X4257Y3895D02*
X4265Y3895D01*
X4348Y3895D02*
X4359Y3895D01*
X4378Y3895D02*
X4387Y3895D01*
X3572Y3894D02*
X3580Y3894D01*
X3606Y3894D02*
X3611Y3894D01*
X3684Y3894D02*
X3694Y3894D01*
X3990Y3894D02*
X4098Y3894D01*
X4256Y3894D02*
X4264Y3894D01*
X4348Y3894D02*
X4359Y3894D01*
X4377Y3894D02*
X4386Y3894D01*
X3572Y3893D02*
X3580Y3893D01*
X3607Y3893D02*
X3611Y3893D01*
X3685Y3893D02*
X3695Y3893D01*
X3986Y3893D02*
X4089Y3893D01*
X4256Y3893D02*
X4263Y3893D01*
X4348Y3893D02*
X4359Y3893D01*
X4377Y3893D02*
X4386Y3893D01*
X3572Y3892D02*
X3580Y3892D01*
X3607Y3892D02*
X3612Y3892D01*
X3686Y3892D02*
X3696Y3892D01*
X3983Y3892D02*
X4043Y3892D01*
X4255Y3892D02*
X4263Y3892D01*
X4347Y3892D02*
X4359Y3892D01*
X4377Y3892D02*
X4386Y3892D01*
X3572Y3891D02*
X3581Y3891D01*
X3607Y3891D02*
X3612Y3891D01*
X3686Y3891D02*
X3697Y3891D01*
X3980Y3891D02*
X4018Y3891D01*
X4254Y3891D02*
X4262Y3891D01*
X4347Y3891D02*
X4359Y3891D01*
X4377Y3891D02*
X4386Y3891D01*
X3573Y3890D02*
X3581Y3890D01*
X3608Y3890D02*
X3612Y3890D01*
X3687Y3890D02*
X3697Y3890D01*
X3817Y3890D02*
X3826Y3890D01*
X3977Y3890D02*
X4012Y3890D01*
X4254Y3890D02*
X4261Y3890D01*
X4347Y3890D02*
X4359Y3890D01*
X4377Y3890D02*
X4386Y3890D01*
X3573Y3889D02*
X3581Y3889D01*
X3608Y3889D02*
X3613Y3889D01*
X3688Y3889D02*
X3698Y3889D01*
X3806Y3889D02*
X3832Y3889D01*
X3975Y3889D02*
X4007Y3889D01*
X4253Y3889D02*
X4260Y3889D01*
X4346Y3889D02*
X4359Y3889D01*
X4376Y3889D02*
X4385Y3889D01*
X3573Y3888D02*
X3581Y3888D01*
X3608Y3888D02*
X3613Y3888D01*
X3688Y3888D02*
X3699Y3888D01*
X3798Y3888D02*
X3835Y3888D01*
X3972Y3888D02*
X4003Y3888D01*
X4252Y3888D02*
X4259Y3888D01*
X4346Y3888D02*
X4358Y3888D01*
X4376Y3888D02*
X4385Y3888D01*
X3573Y3887D02*
X3581Y3887D01*
X3609Y3887D02*
X3613Y3887D01*
X3689Y3887D02*
X3699Y3887D01*
X3792Y3887D02*
X3836Y3887D01*
X3969Y3887D02*
X4000Y3887D01*
X4251Y3887D02*
X4259Y3887D01*
X4346Y3887D02*
X4358Y3887D01*
X4376Y3887D02*
X4385Y3887D01*
X3573Y3886D02*
X3581Y3886D01*
X3609Y3886D02*
X3614Y3886D01*
X3690Y3886D02*
X3700Y3886D01*
X3787Y3886D02*
X3836Y3886D01*
X3967Y3886D02*
X3996Y3886D01*
X4251Y3886D02*
X4258Y3886D01*
X4345Y3886D02*
X4358Y3886D01*
X4376Y3886D02*
X4385Y3886D01*
X3573Y3885D02*
X3582Y3885D01*
X3609Y3885D02*
X3614Y3885D01*
X3690Y3885D02*
X3701Y3885D01*
X3782Y3885D02*
X3836Y3885D01*
X3965Y3885D02*
X3992Y3885D01*
X4250Y3885D02*
X4257Y3885D01*
X4345Y3885D02*
X4358Y3885D01*
X4376Y3885D02*
X4385Y3885D01*
X3574Y3884D02*
X3582Y3884D01*
X3610Y3884D02*
X3614Y3884D01*
X3691Y3884D02*
X3702Y3884D01*
X3778Y3884D02*
X3836Y3884D01*
X3962Y3884D02*
X3989Y3884D01*
X4249Y3884D02*
X4256Y3884D01*
X4344Y3884D02*
X4358Y3884D01*
X4376Y3884D02*
X4385Y3884D01*
X3574Y3883D02*
X3582Y3883D01*
X3610Y3883D02*
X3615Y3883D01*
X3692Y3883D02*
X3702Y3883D01*
X3774Y3883D02*
X3836Y3883D01*
X3960Y3883D02*
X3986Y3883D01*
X4248Y3883D02*
X4256Y3883D01*
X4344Y3883D02*
X4358Y3883D01*
X4375Y3883D02*
X4384Y3883D01*
X3574Y3882D02*
X3582Y3882D01*
X3610Y3882D02*
X3615Y3882D01*
X3693Y3882D02*
X3703Y3882D01*
X3770Y3882D02*
X3836Y3882D01*
X3958Y3882D02*
X3984Y3882D01*
X4247Y3882D02*
X4255Y3882D01*
X4344Y3882D02*
X4358Y3882D01*
X4375Y3882D02*
X4384Y3882D01*
X3574Y3881D02*
X3583Y3881D01*
X3611Y3881D02*
X3615Y3881D01*
X3693Y3881D02*
X3704Y3881D01*
X3766Y3881D02*
X3835Y3881D01*
X3956Y3881D02*
X3981Y3881D01*
X4247Y3881D02*
X4254Y3881D01*
X4343Y3881D02*
X4358Y3881D01*
X4375Y3881D02*
X4384Y3881D01*
X3574Y3880D02*
X3583Y3880D01*
X3611Y3880D02*
X3616Y3880D01*
X3694Y3880D02*
X3705Y3880D01*
X3763Y3880D02*
X3802Y3880D01*
X3818Y3880D02*
X3834Y3880D01*
X3954Y3880D02*
X3979Y3880D01*
X4246Y3880D02*
X4253Y3880D01*
X4343Y3880D02*
X4358Y3880D01*
X4375Y3880D02*
X4384Y3880D01*
X3575Y3879D02*
X3583Y3879D01*
X3612Y3879D02*
X3616Y3879D01*
X3695Y3879D02*
X3706Y3879D01*
X3760Y3879D02*
X3795Y3879D01*
X3817Y3879D02*
X3833Y3879D01*
X3952Y3879D02*
X3976Y3879D01*
X4245Y3879D02*
X4253Y3879D01*
X4343Y3879D02*
X4357Y3879D01*
X4374Y3879D02*
X4384Y3879D01*
X3575Y3878D02*
X3583Y3878D01*
X3612Y3878D02*
X3617Y3878D01*
X3696Y3878D02*
X3706Y3878D01*
X3756Y3878D02*
X3790Y3878D01*
X3815Y3878D02*
X3832Y3878D01*
X3951Y3878D02*
X3974Y3878D01*
X4244Y3878D02*
X4252Y3878D01*
X4342Y3878D02*
X4357Y3878D01*
X4374Y3878D02*
X4383Y3878D01*
X3575Y3877D02*
X3583Y3877D01*
X3612Y3877D02*
X3617Y3877D01*
X3696Y3877D02*
X3707Y3877D01*
X3753Y3877D02*
X3786Y3877D01*
X3813Y3877D02*
X3830Y3877D01*
X3949Y3877D02*
X3971Y3877D01*
X4244Y3877D02*
X4251Y3877D01*
X4342Y3877D02*
X4357Y3877D01*
X4374Y3877D02*
X4383Y3877D01*
X3575Y3876D02*
X3584Y3876D01*
X3613Y3876D02*
X3617Y3876D01*
X3697Y3876D02*
X3708Y3876D01*
X3751Y3876D02*
X3782Y3876D01*
X3811Y3876D02*
X3829Y3876D01*
X3947Y3876D02*
X3969Y3876D01*
X4243Y3876D02*
X4250Y3876D01*
X4341Y3876D02*
X4357Y3876D01*
X4374Y3876D02*
X4383Y3876D01*
X3575Y3875D02*
X3584Y3875D01*
X3613Y3875D02*
X3618Y3875D01*
X3698Y3875D02*
X3709Y3875D01*
X3748Y3875D02*
X3778Y3875D01*
X3809Y3875D02*
X3827Y3875D01*
X3945Y3875D02*
X3967Y3875D01*
X4242Y3875D02*
X4249Y3875D01*
X4341Y3875D02*
X4357Y3875D01*
X4374Y3875D02*
X4383Y3875D01*
X3576Y3874D02*
X3584Y3874D01*
X3613Y3874D02*
X3618Y3874D01*
X3699Y3874D02*
X3710Y3874D01*
X3746Y3874D02*
X3774Y3874D01*
X3808Y3874D02*
X3825Y3874D01*
X3944Y3874D02*
X3964Y3874D01*
X4241Y3874D02*
X4248Y3874D01*
X4341Y3874D02*
X4356Y3874D01*
X4373Y3874D02*
X4383Y3874D01*
X3576Y3873D02*
X3584Y3873D01*
X3614Y3873D02*
X3619Y3873D01*
X3700Y3873D02*
X3711Y3873D01*
X3743Y3873D02*
X3770Y3873D01*
X3806Y3873D02*
X3823Y3873D01*
X3942Y3873D02*
X3962Y3873D01*
X4240Y3873D02*
X4248Y3873D01*
X4340Y3873D02*
X4349Y3873D01*
X4351Y3873D02*
X4356Y3873D01*
X4373Y3873D02*
X4382Y3873D01*
X3576Y3872D02*
X3585Y3872D01*
X3614Y3872D02*
X3619Y3872D01*
X3700Y3872D02*
X3712Y3872D01*
X3741Y3872D02*
X3767Y3872D01*
X3804Y3872D02*
X3822Y3872D01*
X3941Y3872D02*
X3960Y3872D01*
X4239Y3872D02*
X4247Y3872D01*
X4340Y3872D02*
X4348Y3872D01*
X4353Y3872D02*
X4356Y3872D01*
X4373Y3872D02*
X4382Y3872D01*
X3576Y3871D02*
X3585Y3871D01*
X3615Y3871D02*
X3619Y3871D01*
X3701Y3871D02*
X3713Y3871D01*
X3738Y3871D02*
X3764Y3871D01*
X3802Y3871D02*
X3820Y3871D01*
X3939Y3871D02*
X3958Y3871D01*
X4239Y3871D02*
X4246Y3871D01*
X4339Y3871D02*
X4347Y3871D01*
X4373Y3871D02*
X4382Y3871D01*
X3577Y3870D02*
X3585Y3870D01*
X3615Y3870D02*
X3620Y3870D01*
X3702Y3870D02*
X3714Y3870D01*
X3736Y3870D02*
X3760Y3870D01*
X3801Y3870D02*
X3818Y3870D01*
X3937Y3870D02*
X3956Y3870D01*
X4238Y3870D02*
X4245Y3870D01*
X4339Y3870D02*
X4347Y3870D01*
X4373Y3870D02*
X4382Y3870D01*
X3577Y3869D02*
X3585Y3869D01*
X3615Y3869D02*
X3620Y3869D01*
X3703Y3869D02*
X3715Y3869D01*
X3734Y3869D02*
X3757Y3869D01*
X3799Y3869D02*
X3816Y3869D01*
X3936Y3869D02*
X3954Y3869D01*
X4237Y3869D02*
X4244Y3869D01*
X4338Y3869D02*
X4346Y3869D01*
X4372Y3869D02*
X4382Y3869D01*
X3577Y3868D02*
X3586Y3868D01*
X3616Y3868D02*
X3621Y3868D01*
X3704Y3868D02*
X3716Y3868D01*
X3731Y3868D02*
X3755Y3868D01*
X3797Y3868D02*
X3814Y3868D01*
X3934Y3868D02*
X3952Y3868D01*
X4236Y3868D02*
X4244Y3868D01*
X4338Y3868D02*
X4346Y3868D01*
X4372Y3868D02*
X4381Y3868D01*
X3577Y3867D02*
X3586Y3867D01*
X3616Y3867D02*
X3621Y3867D01*
X3705Y3867D02*
X3718Y3867D01*
X3728Y3867D02*
X3752Y3867D01*
X3796Y3867D02*
X3813Y3867D01*
X3933Y3867D02*
X3950Y3867D01*
X4235Y3867D02*
X4243Y3867D01*
X4338Y3867D02*
X4345Y3867D01*
X4372Y3867D02*
X4381Y3867D01*
X3578Y3866D02*
X3586Y3866D01*
X3617Y3866D02*
X3621Y3866D01*
X3705Y3866D02*
X3720Y3866D01*
X3725Y3866D02*
X3749Y3866D01*
X3794Y3866D02*
X3811Y3866D01*
X3932Y3866D02*
X3948Y3866D01*
X4234Y3866D02*
X4242Y3866D01*
X4337Y3866D02*
X4345Y3866D01*
X4372Y3866D02*
X4381Y3866D01*
X3578Y3865D02*
X3586Y3865D01*
X3617Y3865D02*
X3622Y3865D01*
X3706Y3865D02*
X3747Y3865D01*
X3793Y3865D02*
X3809Y3865D01*
X3930Y3865D02*
X3946Y3865D01*
X4233Y3865D02*
X4241Y3865D01*
X4337Y3865D02*
X4344Y3865D01*
X4371Y3865D02*
X4381Y3865D01*
X3578Y3864D02*
X3587Y3864D01*
X3617Y3864D02*
X3622Y3864D01*
X3707Y3864D02*
X3744Y3864D01*
X3791Y3864D02*
X3807Y3864D01*
X3929Y3864D02*
X3944Y3864D01*
X4232Y3864D02*
X4240Y3864D01*
X4336Y3864D02*
X4344Y3864D01*
X4371Y3864D02*
X4380Y3864D01*
X3578Y3863D02*
X3587Y3863D01*
X3618Y3863D02*
X3623Y3863D01*
X3708Y3863D02*
X3742Y3863D01*
X3790Y3863D02*
X3806Y3863D01*
X3928Y3863D02*
X3942Y3863D01*
X4232Y3863D02*
X4239Y3863D01*
X4336Y3863D02*
X4343Y3863D01*
X4371Y3863D02*
X4380Y3863D01*
X3579Y3862D02*
X3587Y3862D01*
X3618Y3862D02*
X3623Y3862D01*
X3709Y3862D02*
X3740Y3862D01*
X3789Y3862D02*
X3804Y3862D01*
X3926Y3862D02*
X3941Y3862D01*
X4231Y3862D02*
X4238Y3862D01*
X4335Y3862D02*
X4343Y3862D01*
X4371Y3862D02*
X4380Y3862D01*
X3579Y3861D02*
X3587Y3861D01*
X3619Y3861D02*
X3623Y3861D01*
X3710Y3861D02*
X3738Y3861D01*
X3787Y3861D02*
X3803Y3861D01*
X3925Y3861D02*
X3939Y3861D01*
X4230Y3861D02*
X4237Y3861D01*
X4335Y3861D02*
X4343Y3861D01*
X4370Y3861D02*
X4380Y3861D01*
X3579Y3860D02*
X3588Y3860D01*
X3619Y3860D02*
X3624Y3860D01*
X3711Y3860D02*
X3736Y3860D01*
X3786Y3860D02*
X3801Y3860D01*
X3924Y3860D02*
X3937Y3860D01*
X4229Y3860D02*
X4237Y3860D01*
X4334Y3860D02*
X4342Y3860D01*
X4370Y3860D02*
X4379Y3860D01*
X3579Y3859D02*
X3588Y3859D01*
X3619Y3859D02*
X3624Y3859D01*
X3712Y3859D02*
X3733Y3859D01*
X3785Y3859D02*
X3799Y3859D01*
X3923Y3859D02*
X3936Y3859D01*
X4228Y3859D02*
X4236Y3859D01*
X4334Y3859D02*
X4342Y3859D01*
X4370Y3859D02*
X4379Y3859D01*
X3580Y3858D02*
X3588Y3858D01*
X3620Y3858D02*
X3625Y3858D01*
X3713Y3858D02*
X3731Y3858D01*
X3783Y3858D02*
X3798Y3858D01*
X3922Y3858D02*
X3934Y3858D01*
X4227Y3858D02*
X4235Y3858D01*
X4333Y3858D02*
X4342Y3858D01*
X4370Y3858D02*
X4379Y3858D01*
X3580Y3857D02*
X3588Y3857D01*
X3620Y3857D02*
X3625Y3857D01*
X3714Y3857D02*
X3728Y3857D01*
X3782Y3857D02*
X3797Y3857D01*
X3920Y3857D02*
X3933Y3857D01*
X4226Y3857D02*
X4234Y3857D01*
X4333Y3857D02*
X4341Y3857D01*
X4369Y3857D02*
X4379Y3857D01*
X3580Y3856D02*
X3589Y3856D01*
X3621Y3856D02*
X3626Y3856D01*
X3716Y3856D02*
X3725Y3856D01*
X3781Y3856D02*
X3795Y3856D01*
X3919Y3856D02*
X3931Y3856D01*
X4225Y3856D02*
X4233Y3856D01*
X4333Y3856D02*
X4341Y3856D01*
X4369Y3856D02*
X4378Y3856D01*
X3580Y3855D02*
X3589Y3855D01*
X3621Y3855D02*
X3626Y3855D01*
X3780Y3855D02*
X3794Y3855D01*
X3918Y3855D02*
X3930Y3855D01*
X3950Y3855D02*
X3981Y3855D01*
X4224Y3855D02*
X4232Y3855D01*
X4332Y3855D02*
X4341Y3855D01*
X4369Y3855D02*
X4378Y3855D01*
X3581Y3854D02*
X3589Y3854D01*
X3622Y3854D02*
X3627Y3854D01*
X3779Y3854D02*
X3793Y3854D01*
X3917Y3854D02*
X3929Y3854D01*
X3944Y3854D02*
X3988Y3854D01*
X4223Y3854D02*
X4231Y3854D01*
X4332Y3854D02*
X4340Y3854D01*
X4368Y3854D02*
X4378Y3854D01*
X3581Y3853D02*
X3590Y3853D01*
X3622Y3853D02*
X3627Y3853D01*
X3778Y3853D02*
X3791Y3853D01*
X3917Y3853D02*
X3928Y3853D01*
X3939Y3853D02*
X3993Y3853D01*
X4222Y3853D02*
X4230Y3853D01*
X4331Y3853D02*
X4340Y3853D01*
X4368Y3853D02*
X4378Y3853D01*
X3581Y3852D02*
X3590Y3852D01*
X3622Y3852D02*
X3627Y3852D01*
X3777Y3852D02*
X3790Y3852D01*
X3916Y3852D02*
X3998Y3852D01*
X4221Y3852D02*
X4230Y3852D01*
X4331Y3852D02*
X4340Y3852D01*
X4368Y3852D02*
X4377Y3852D01*
X3582Y3851D02*
X3590Y3851D01*
X3623Y3851D02*
X3628Y3851D01*
X3776Y3851D02*
X3789Y3851D01*
X3915Y3851D02*
X4002Y3851D01*
X4220Y3851D02*
X4229Y3851D01*
X4330Y3851D02*
X4339Y3851D01*
X4368Y3851D02*
X4377Y3851D01*
X3582Y3850D02*
X3591Y3850D01*
X3623Y3850D02*
X3628Y3850D01*
X3775Y3850D02*
X3788Y3850D01*
X3914Y3850D02*
X4005Y3850D01*
X4219Y3850D02*
X4228Y3850D01*
X4330Y3850D02*
X4339Y3850D01*
X4367Y3850D02*
X4377Y3850D01*
X3582Y3849D02*
X3591Y3849D01*
X3624Y3849D02*
X3629Y3849D01*
X3774Y3849D02*
X3787Y3849D01*
X3913Y3849D02*
X4008Y3849D01*
X4218Y3849D02*
X4227Y3849D01*
X4329Y3849D02*
X4339Y3849D01*
X4367Y3849D02*
X4376Y3849D01*
X3582Y3848D02*
X3591Y3848D01*
X3624Y3848D02*
X3629Y3848D01*
X3773Y3848D02*
X3786Y3848D01*
X3913Y3848D02*
X4010Y3848D01*
X4217Y3848D02*
X4226Y3848D01*
X4329Y3848D02*
X4339Y3848D01*
X4367Y3848D02*
X4376Y3848D01*
X3583Y3847D02*
X3591Y3847D01*
X3625Y3847D02*
X3630Y3847D01*
X3697Y3847D02*
X3697Y3847D01*
X3772Y3847D02*
X3785Y3847D01*
X3912Y3847D02*
X3958Y3847D01*
X3976Y3847D02*
X4013Y3847D01*
X4216Y3847D02*
X4225Y3847D01*
X4328Y3847D02*
X4339Y3847D01*
X4366Y3847D02*
X4376Y3847D01*
X3583Y3846D02*
X3592Y3846D01*
X3625Y3846D02*
X3630Y3846D01*
X3696Y3846D02*
X3697Y3846D01*
X3771Y3846D02*
X3783Y3846D01*
X3912Y3846D02*
X3951Y3846D01*
X3983Y3846D02*
X4015Y3846D01*
X4215Y3846D02*
X4224Y3846D01*
X4328Y3846D02*
X4338Y3846D01*
X4366Y3846D02*
X4376Y3846D01*
X3583Y3845D02*
X3592Y3845D01*
X3626Y3845D02*
X3631Y3845D01*
X3695Y3845D02*
X3697Y3845D01*
X3770Y3845D02*
X3782Y3845D01*
X3911Y3845D02*
X3946Y3845D01*
X3988Y3845D02*
X4017Y3845D01*
X4214Y3845D02*
X4223Y3845D01*
X4327Y3845D02*
X4338Y3845D01*
X4366Y3845D02*
X4375Y3845D01*
X3584Y3844D02*
X3592Y3844D01*
X3626Y3844D02*
X3631Y3844D01*
X3694Y3844D02*
X3696Y3844D01*
X3769Y3844D02*
X3781Y3844D01*
X3911Y3844D02*
X3940Y3844D01*
X3992Y3844D02*
X4019Y3844D01*
X4213Y3844D02*
X4222Y3844D01*
X4327Y3844D02*
X4338Y3844D01*
X4366Y3844D02*
X4375Y3844D01*
X3584Y3843D02*
X3593Y3843D01*
X3627Y3843D02*
X3631Y3843D01*
X3693Y3843D02*
X3695Y3843D01*
X3768Y3843D02*
X3780Y3843D01*
X3911Y3843D02*
X3935Y3843D01*
X3996Y3843D02*
X4021Y3843D01*
X4212Y3843D02*
X4221Y3843D01*
X4326Y3843D02*
X4338Y3843D01*
X4365Y3843D02*
X4375Y3843D01*
X3584Y3842D02*
X3593Y3842D01*
X3627Y3842D02*
X3632Y3842D01*
X3692Y3842D02*
X3694Y3842D01*
X3767Y3842D02*
X3779Y3842D01*
X3911Y3842D02*
X3929Y3842D01*
X4000Y3842D02*
X4022Y3842D01*
X4211Y3842D02*
X4220Y3842D01*
X4326Y3842D02*
X4338Y3842D01*
X4365Y3842D02*
X4375Y3842D01*
X3585Y3841D02*
X3594Y3841D01*
X3628Y3841D02*
X3632Y3841D01*
X3691Y3841D02*
X3693Y3841D01*
X3767Y3841D02*
X3778Y3841D01*
X3912Y3841D02*
X3923Y3841D01*
X4003Y3841D02*
X4024Y3841D01*
X4210Y3841D02*
X4219Y3841D01*
X4325Y3841D02*
X4337Y3841D01*
X4365Y3841D02*
X4374Y3841D01*
X3585Y3840D02*
X3594Y3840D01*
X3628Y3840D02*
X3633Y3840D01*
X3690Y3840D02*
X3691Y3840D01*
X3766Y3840D02*
X3777Y3840D01*
X4006Y3840D02*
X4026Y3840D01*
X4209Y3840D02*
X4218Y3840D01*
X4325Y3840D02*
X4337Y3840D01*
X4364Y3840D02*
X4374Y3840D01*
X3585Y3839D02*
X3594Y3839D01*
X3629Y3839D02*
X3633Y3839D01*
X3689Y3839D02*
X3690Y3839D01*
X3765Y3839D02*
X3776Y3839D01*
X4009Y3839D02*
X4027Y3839D01*
X4208Y3839D02*
X4217Y3839D01*
X4324Y3839D02*
X4337Y3839D01*
X4364Y3839D02*
X4374Y3839D01*
X3586Y3838D02*
X3595Y3838D01*
X3629Y3838D02*
X3634Y3838D01*
X3688Y3838D02*
X3689Y3838D01*
X3765Y3838D02*
X3776Y3838D01*
X4012Y3838D02*
X4029Y3838D01*
X4207Y3838D02*
X4216Y3838D01*
X4324Y3838D02*
X4337Y3838D01*
X4364Y3838D02*
X4373Y3838D01*
X3586Y3837D02*
X3595Y3837D01*
X3630Y3837D02*
X3634Y3837D01*
X3687Y3837D02*
X3688Y3837D01*
X3764Y3837D02*
X3775Y3837D01*
X4014Y3837D02*
X4030Y3837D01*
X4206Y3837D02*
X4215Y3837D01*
X4323Y3837D02*
X4336Y3837D01*
X4363Y3837D02*
X4373Y3837D01*
X3586Y3836D02*
X3595Y3836D01*
X3630Y3836D02*
X3635Y3836D01*
X3686Y3836D02*
X3686Y3836D01*
X3763Y3836D02*
X3774Y3836D01*
X4016Y3836D02*
X4032Y3836D01*
X4204Y3836D02*
X4214Y3836D01*
X4323Y3836D02*
X4336Y3836D01*
X4363Y3836D02*
X4373Y3836D01*
X3587Y3835D02*
X3596Y3835D01*
X3631Y3835D02*
X3635Y3835D01*
X3685Y3835D02*
X3685Y3835D01*
X3763Y3835D02*
X3773Y3835D01*
X4017Y3835D02*
X4033Y3835D01*
X4203Y3835D02*
X4213Y3835D01*
X4322Y3835D02*
X4334Y3835D01*
X4363Y3835D02*
X4372Y3835D01*
X3587Y3834D02*
X3596Y3834D01*
X3631Y3834D02*
X3636Y3834D01*
X3684Y3834D02*
X3684Y3834D01*
X3762Y3834D02*
X3772Y3834D01*
X4019Y3834D02*
X4034Y3834D01*
X4202Y3834D02*
X4212Y3834D01*
X4322Y3834D02*
X4333Y3834D01*
X4362Y3834D02*
X4372Y3834D01*
X3587Y3833D02*
X3597Y3833D01*
X3632Y3833D02*
X3636Y3833D01*
X3762Y3833D02*
X3772Y3833D01*
X4021Y3833D02*
X4036Y3833D01*
X4201Y3833D02*
X4211Y3833D01*
X4321Y3833D02*
X4332Y3833D01*
X4362Y3833D02*
X4372Y3833D01*
X3588Y3832D02*
X3597Y3832D01*
X3632Y3832D02*
X3637Y3832D01*
X3761Y3832D02*
X3771Y3832D01*
X4022Y3832D02*
X4037Y3832D01*
X4200Y3832D02*
X4210Y3832D01*
X4321Y3832D02*
X4332Y3832D01*
X4362Y3832D02*
X4371Y3832D01*
X3588Y3831D02*
X3597Y3831D01*
X3633Y3831D02*
X3638Y3831D01*
X3761Y3831D02*
X3770Y3831D01*
X4024Y3831D02*
X4038Y3831D01*
X4199Y3831D02*
X4209Y3831D01*
X4320Y3831D02*
X4331Y3831D01*
X4361Y3831D02*
X4371Y3831D01*
X3588Y3830D02*
X3598Y3830D01*
X3633Y3830D02*
X3638Y3830D01*
X3760Y3830D02*
X3770Y3830D01*
X4025Y3830D02*
X4039Y3830D01*
X4197Y3830D02*
X4208Y3830D01*
X4320Y3830D02*
X4330Y3830D01*
X4361Y3830D02*
X4371Y3830D01*
X3589Y3829D02*
X3598Y3829D01*
X3634Y3829D02*
X3639Y3829D01*
X3760Y3829D02*
X3769Y3829D01*
X4026Y3829D02*
X4041Y3829D01*
X4196Y3829D02*
X4207Y3829D01*
X4319Y3829D02*
X4330Y3829D01*
X4360Y3829D02*
X4370Y3829D01*
X3589Y3828D02*
X3598Y3828D01*
X3634Y3828D02*
X3639Y3828D01*
X3760Y3828D02*
X3768Y3828D01*
X4027Y3828D02*
X4042Y3828D01*
X4195Y3828D02*
X4206Y3828D01*
X4318Y3828D02*
X4329Y3828D01*
X4360Y3828D02*
X4370Y3828D01*
X3589Y3827D02*
X3599Y3827D01*
X3635Y3827D02*
X3640Y3827D01*
X3759Y3827D02*
X3768Y3827D01*
X4029Y3827D02*
X4043Y3827D01*
X4194Y3827D02*
X4205Y3827D01*
X4318Y3827D02*
X4328Y3827D01*
X4360Y3827D02*
X4370Y3827D01*
X3590Y3826D02*
X3599Y3826D01*
X3635Y3826D02*
X3640Y3826D01*
X3759Y3826D02*
X3767Y3826D01*
X4030Y3826D02*
X4044Y3826D01*
X4193Y3826D02*
X4204Y3826D01*
X4317Y3826D02*
X4328Y3826D01*
X4359Y3826D02*
X4369Y3826D01*
X3590Y3825D02*
X3600Y3825D01*
X3636Y3825D02*
X3641Y3825D01*
X3759Y3825D02*
X3767Y3825D01*
X4031Y3825D02*
X4045Y3825D01*
X4191Y3825D02*
X4203Y3825D01*
X4317Y3825D02*
X4327Y3825D01*
X4359Y3825D02*
X4369Y3825D01*
X3590Y3824D02*
X3600Y3824D01*
X3636Y3824D02*
X3641Y3824D01*
X3759Y3824D02*
X3766Y3824D01*
X4032Y3824D02*
X4046Y3824D01*
X4190Y3824D02*
X4202Y3824D01*
X4316Y3824D02*
X4326Y3824D01*
X4358Y3824D02*
X4369Y3824D01*
X3591Y3823D02*
X3600Y3823D01*
X3637Y3823D02*
X3642Y3823D01*
X3758Y3823D02*
X3766Y3823D01*
X4033Y3823D02*
X4047Y3823D01*
X4189Y3823D02*
X4200Y3823D01*
X4316Y3823D02*
X4326Y3823D01*
X4358Y3823D02*
X4368Y3823D01*
X3591Y3822D02*
X3601Y3822D01*
X3638Y3822D02*
X3643Y3822D01*
X3758Y3822D02*
X3766Y3822D01*
X4034Y3822D02*
X4048Y3822D01*
X4188Y3822D02*
X4199Y3822D01*
X4315Y3822D02*
X4325Y3822D01*
X4358Y3822D02*
X4368Y3822D01*
X3591Y3821D02*
X3601Y3821D01*
X3638Y3821D02*
X3643Y3821D01*
X3758Y3821D02*
X3767Y3821D01*
X4035Y3821D02*
X4050Y3821D01*
X4186Y3821D02*
X4198Y3821D01*
X4315Y3821D02*
X4325Y3821D01*
X4357Y3821D02*
X4368Y3821D01*
X3592Y3820D02*
X3602Y3820D01*
X3639Y3820D02*
X3644Y3820D01*
X3758Y3820D02*
X3768Y3820D01*
X4036Y3820D02*
X4050Y3820D01*
X4185Y3820D02*
X4197Y3820D01*
X4314Y3820D02*
X4324Y3820D01*
X4357Y3820D02*
X4367Y3820D01*
X3592Y3819D02*
X3602Y3819D01*
X3639Y3819D02*
X3644Y3819D01*
X3758Y3819D02*
X3769Y3819D01*
X4037Y3819D02*
X4051Y3819D01*
X4184Y3819D02*
X4196Y3819D01*
X4313Y3819D02*
X4324Y3819D01*
X4356Y3819D02*
X4367Y3819D01*
X3593Y3818D02*
X3602Y3818D01*
X3640Y3818D02*
X3645Y3818D01*
X3758Y3818D02*
X3771Y3818D01*
X4038Y3818D02*
X4052Y3818D01*
X4182Y3818D02*
X4195Y3818D01*
X4313Y3818D02*
X4323Y3818D01*
X4356Y3818D02*
X4367Y3818D01*
X3593Y3817D02*
X3603Y3817D01*
X3640Y3817D02*
X3646Y3817D01*
X3759Y3817D02*
X3772Y3817D01*
X4039Y3817D02*
X4053Y3817D01*
X4181Y3817D02*
X4194Y3817D01*
X4312Y3817D02*
X4322Y3817D01*
X4356Y3817D02*
X4366Y3817D01*
X3593Y3816D02*
X3603Y3816D01*
X3641Y3816D02*
X3646Y3816D01*
X3759Y3816D02*
X3773Y3816D01*
X4040Y3816D02*
X4054Y3816D01*
X4180Y3816D02*
X4192Y3816D01*
X4312Y3816D02*
X4322Y3816D01*
X4355Y3816D02*
X4366Y3816D01*
X3594Y3815D02*
X3604Y3815D01*
X3642Y3815D02*
X3647Y3815D01*
X3760Y3815D02*
X3775Y3815D01*
X4041Y3815D02*
X4055Y3815D01*
X4178Y3815D02*
X4191Y3815D01*
X4311Y3815D02*
X4321Y3815D01*
X4355Y3815D02*
X4365Y3815D01*
X3594Y3814D02*
X3604Y3814D01*
X3642Y3814D02*
X3648Y3814D01*
X3761Y3814D02*
X3776Y3814D01*
X4042Y3814D02*
X4056Y3814D01*
X4177Y3814D02*
X4190Y3814D01*
X4310Y3814D02*
X4321Y3814D01*
X4354Y3814D02*
X4365Y3814D01*
X3595Y3813D02*
X3604Y3813D01*
X3643Y3813D02*
X3648Y3813D01*
X3762Y3813D02*
X3778Y3813D01*
X4043Y3813D02*
X4057Y3813D01*
X4176Y3813D02*
X4189Y3813D01*
X4310Y3813D02*
X4320Y3813D01*
X4354Y3813D02*
X4365Y3813D01*
X3595Y3812D02*
X3605Y3812D01*
X3643Y3812D02*
X3649Y3812D01*
X3763Y3812D02*
X3779Y3812D01*
X4044Y3812D02*
X4057Y3812D01*
X4174Y3812D02*
X4187Y3812D01*
X4309Y3812D02*
X4319Y3812D01*
X4354Y3812D02*
X4364Y3812D01*
X3595Y3811D02*
X3605Y3811D01*
X3644Y3811D02*
X3650Y3811D01*
X3764Y3811D02*
X3780Y3811D01*
X4045Y3811D02*
X4058Y3811D01*
X4173Y3811D02*
X4186Y3811D01*
X4309Y3811D02*
X4319Y3811D01*
X4353Y3811D02*
X4364Y3811D01*
X3596Y3810D02*
X3606Y3810D01*
X3644Y3810D02*
X3650Y3810D01*
X3765Y3810D02*
X3782Y3810D01*
X4046Y3810D02*
X4059Y3810D01*
X4171Y3810D02*
X4185Y3810D01*
X4308Y3810D02*
X4318Y3810D01*
X4353Y3810D02*
X4364Y3810D01*
X3596Y3809D02*
X3606Y3809D01*
X3645Y3809D02*
X3651Y3809D01*
X3767Y3809D02*
X3783Y3809D01*
X4047Y3809D02*
X4060Y3809D01*
X4170Y3809D02*
X4183Y3809D01*
X4307Y3809D02*
X4318Y3809D01*
X4352Y3809D02*
X4363Y3809D01*
X3597Y3808D02*
X3607Y3808D01*
X3646Y3808D02*
X3652Y3808D01*
X3768Y3808D02*
X3785Y3808D01*
X4048Y3808D02*
X4060Y3808D01*
X4168Y3808D02*
X4182Y3808D01*
X4307Y3808D02*
X4317Y3808D01*
X4352Y3808D02*
X4363Y3808D01*
X3597Y3807D02*
X3607Y3807D01*
X3646Y3807D02*
X3652Y3807D01*
X3770Y3807D02*
X3787Y3807D01*
X4049Y3807D02*
X4061Y3807D01*
X4167Y3807D02*
X4180Y3807D01*
X4306Y3807D02*
X4316Y3807D01*
X4351Y3807D02*
X4362Y3807D01*
X3597Y3806D02*
X3607Y3806D01*
X3647Y3806D02*
X3653Y3806D01*
X3771Y3806D02*
X3788Y3806D01*
X4049Y3806D02*
X4061Y3806D01*
X4165Y3806D02*
X4179Y3806D01*
X4305Y3806D02*
X4316Y3806D01*
X4351Y3806D02*
X4362Y3806D01*
X3598Y3805D02*
X3608Y3805D01*
X3648Y3805D02*
X3654Y3805D01*
X3772Y3805D02*
X3790Y3805D01*
X4050Y3805D02*
X4062Y3805D01*
X4164Y3805D02*
X4177Y3805D01*
X4305Y3805D02*
X4315Y3805D01*
X4351Y3805D02*
X4361Y3805D01*
X3598Y3804D02*
X3608Y3804D01*
X3648Y3804D02*
X3654Y3804D01*
X3774Y3804D02*
X3791Y3804D01*
X4051Y3804D02*
X4063Y3804D01*
X4162Y3804D02*
X4175Y3804D01*
X4304Y3804D02*
X4315Y3804D01*
X4350Y3804D02*
X4361Y3804D01*
X3599Y3803D02*
X3609Y3803D01*
X3649Y3803D02*
X3655Y3803D01*
X3775Y3803D02*
X3793Y3803D01*
X4052Y3803D02*
X4063Y3803D01*
X4161Y3803D02*
X4174Y3803D01*
X4303Y3803D02*
X4314Y3803D01*
X4350Y3803D02*
X4361Y3803D01*
X3599Y3802D02*
X3609Y3802D01*
X3649Y3802D02*
X3656Y3802D01*
X3777Y3802D02*
X3794Y3802D01*
X4052Y3802D02*
X4064Y3802D01*
X4159Y3802D02*
X4172Y3802D01*
X4303Y3802D02*
X4313Y3802D01*
X4349Y3802D02*
X4360Y3802D01*
X3600Y3801D02*
X3610Y3801D01*
X3650Y3801D02*
X3656Y3801D01*
X3778Y3801D02*
X3796Y3801D01*
X4053Y3801D02*
X4065Y3801D01*
X4158Y3801D02*
X4171Y3801D01*
X4302Y3801D02*
X4313Y3801D01*
X4349Y3801D02*
X4360Y3801D01*
X3600Y3800D02*
X3610Y3800D01*
X3651Y3800D02*
X3657Y3800D01*
X3780Y3800D02*
X3798Y3800D01*
X4054Y3800D02*
X4065Y3800D01*
X4156Y3800D02*
X4169Y3800D01*
X4301Y3800D02*
X4312Y3800D01*
X4348Y3800D02*
X4359Y3800D01*
X3600Y3799D02*
X3610Y3799D01*
X3651Y3799D02*
X3658Y3799D01*
X3781Y3799D02*
X3799Y3799D01*
X4055Y3799D02*
X4066Y3799D01*
X4155Y3799D02*
X4167Y3799D01*
X4301Y3799D02*
X4311Y3799D01*
X4348Y3799D02*
X4359Y3799D01*
X3601Y3798D02*
X3611Y3798D01*
X3652Y3798D02*
X3658Y3798D01*
X3783Y3798D02*
X3801Y3798D01*
X4055Y3798D02*
X4066Y3798D01*
X4153Y3798D02*
X4166Y3798D01*
X4300Y3798D02*
X4311Y3798D01*
X4347Y3798D02*
X4358Y3798D01*
X3601Y3797D02*
X3611Y3797D01*
X3653Y3797D02*
X3659Y3797D01*
X3784Y3797D02*
X3803Y3797D01*
X4056Y3797D02*
X4067Y3797D01*
X4151Y3797D02*
X4164Y3797D01*
X4299Y3797D02*
X4310Y3797D01*
X4347Y3797D02*
X4358Y3797D01*
X3602Y3796D02*
X3612Y3796D01*
X3653Y3796D02*
X3660Y3796D01*
X3786Y3796D02*
X3804Y3796D01*
X4057Y3796D02*
X4067Y3796D01*
X4150Y3796D02*
X4162Y3796D01*
X4298Y3796D02*
X4309Y3796D01*
X4346Y3796D02*
X4358Y3796D01*
X3602Y3795D02*
X3612Y3795D01*
X3654Y3795D02*
X3660Y3795D01*
X3787Y3795D02*
X3806Y3795D01*
X4057Y3795D02*
X4068Y3795D01*
X4148Y3795D02*
X4161Y3795D01*
X4298Y3795D02*
X4309Y3795D01*
X4346Y3795D02*
X4357Y3795D01*
X3603Y3794D02*
X3613Y3794D01*
X3654Y3794D02*
X3661Y3794D01*
X3789Y3794D02*
X3808Y3794D01*
X4058Y3794D02*
X4068Y3794D01*
X4146Y3794D02*
X4159Y3794D01*
X4297Y3794D02*
X4308Y3794D01*
X4345Y3794D02*
X4357Y3794D01*
X3603Y3793D02*
X3613Y3793D01*
X3655Y3793D02*
X3662Y3793D01*
X3791Y3793D02*
X3809Y3793D01*
X4059Y3793D02*
X4069Y3793D01*
X4144Y3793D02*
X4157Y3793D01*
X4296Y3793D02*
X4307Y3793D01*
X4345Y3793D02*
X4356Y3793D01*
X3604Y3792D02*
X3614Y3792D01*
X3656Y3792D02*
X3662Y3792D01*
X3792Y3792D02*
X3811Y3792D01*
X4059Y3792D02*
X4069Y3792D01*
X4143Y3792D02*
X4155Y3792D01*
X4296Y3792D02*
X4306Y3792D01*
X4345Y3792D02*
X4356Y3792D01*
X3604Y3791D02*
X3614Y3791D01*
X3656Y3791D02*
X3663Y3791D01*
X3794Y3791D02*
X3813Y3791D01*
X4060Y3791D02*
X4070Y3791D01*
X4141Y3791D02*
X4154Y3791D01*
X4295Y3791D02*
X4306Y3791D01*
X4344Y3791D02*
X4355Y3791D01*
X3605Y3790D02*
X3615Y3790D01*
X3657Y3790D02*
X3664Y3790D01*
X3795Y3790D02*
X3815Y3790D01*
X4060Y3790D02*
X4070Y3790D01*
X4139Y3790D02*
X4152Y3790D01*
X4294Y3790D02*
X4305Y3790D01*
X4344Y3790D02*
X4355Y3790D01*
X3605Y3789D02*
X3615Y3789D01*
X3658Y3789D02*
X3664Y3789D01*
X3797Y3789D02*
X3817Y3789D01*
X4061Y3789D02*
X4071Y3789D01*
X4137Y3789D02*
X4150Y3789D01*
X4294Y3789D02*
X4304Y3789D01*
X4343Y3789D02*
X4354Y3789D01*
X3605Y3788D02*
X3616Y3788D01*
X3659Y3788D02*
X3665Y3788D01*
X3799Y3788D02*
X3819Y3788D01*
X4062Y3788D02*
X4071Y3788D01*
X4135Y3788D02*
X4148Y3788D01*
X4293Y3788D02*
X4303Y3788D01*
X4343Y3788D02*
X4354Y3788D01*
X3606Y3787D02*
X3616Y3787D01*
X3659Y3787D02*
X3666Y3787D01*
X3800Y3787D02*
X3820Y3787D01*
X4062Y3787D02*
X4071Y3787D01*
X4134Y3787D02*
X4146Y3787D01*
X4292Y3787D02*
X4302Y3787D01*
X4342Y3787D02*
X4353Y3787D01*
X3606Y3786D02*
X3616Y3786D01*
X3660Y3786D02*
X3667Y3786D01*
X3802Y3786D02*
X3822Y3786D01*
X4063Y3786D02*
X4071Y3786D01*
X4132Y3786D02*
X4145Y3786D01*
X4291Y3786D02*
X4302Y3786D01*
X4342Y3786D02*
X4353Y3786D01*
X3607Y3785D02*
X3617Y3785D01*
X3661Y3785D02*
X3667Y3785D01*
X3804Y3785D02*
X3824Y3785D01*
X4063Y3785D02*
X4072Y3785D01*
X4130Y3785D02*
X4143Y3785D01*
X4291Y3785D02*
X4301Y3785D01*
X4341Y3785D02*
X4352Y3785D01*
X3607Y3784D02*
X3617Y3784D01*
X3661Y3784D02*
X3668Y3784D01*
X3806Y3784D02*
X3826Y3784D01*
X4063Y3784D02*
X4072Y3784D01*
X4128Y3784D02*
X4141Y3784D01*
X4290Y3784D02*
X4300Y3784D01*
X4341Y3784D02*
X4352Y3784D01*
X3608Y3783D02*
X3618Y3783D01*
X3662Y3783D02*
X3669Y3783D01*
X3808Y3783D02*
X3829Y3783D01*
X4064Y3783D02*
X4072Y3783D01*
X4126Y3783D02*
X4139Y3783D01*
X4289Y3783D02*
X4299Y3783D01*
X4340Y3783D02*
X4351Y3783D01*
X3608Y3782D02*
X3619Y3782D01*
X3663Y3782D02*
X3670Y3782D01*
X3810Y3782D02*
X3831Y3782D01*
X4064Y3782D02*
X4072Y3782D01*
X4124Y3782D02*
X4137Y3782D01*
X4288Y3782D02*
X4298Y3782D01*
X4340Y3782D02*
X4351Y3782D01*
X3609Y3781D02*
X3619Y3781D01*
X3663Y3781D02*
X3670Y3781D01*
X3811Y3781D02*
X3833Y3781D01*
X4065Y3781D02*
X4073Y3781D01*
X4122Y3781D02*
X4135Y3781D01*
X4288Y3781D02*
X4298Y3781D01*
X4339Y3781D02*
X4350Y3781D01*
X3609Y3780D02*
X3620Y3780D01*
X3664Y3780D02*
X3671Y3780D01*
X3813Y3780D02*
X3835Y3780D01*
X4065Y3780D02*
X4073Y3780D01*
X4120Y3780D02*
X4133Y3780D01*
X4287Y3780D02*
X4297Y3780D01*
X4339Y3780D02*
X4350Y3780D01*
X3610Y3779D02*
X3620Y3779D01*
X3665Y3779D02*
X3672Y3779D01*
X3815Y3779D02*
X3837Y3779D01*
X4065Y3779D02*
X4073Y3779D01*
X4118Y3779D02*
X4131Y3779D01*
X4286Y3779D02*
X4296Y3779D01*
X4338Y3779D02*
X4349Y3779D01*
X3610Y3778D02*
X3621Y3778D01*
X3665Y3778D02*
X3672Y3778D01*
X3817Y3778D02*
X3840Y3778D01*
X4066Y3778D02*
X4073Y3778D01*
X4116Y3778D02*
X4130Y3778D01*
X4285Y3778D02*
X4295Y3778D01*
X4338Y3778D02*
X4349Y3778D01*
X3611Y3777D02*
X3621Y3777D01*
X3666Y3777D02*
X3673Y3777D01*
X3820Y3777D02*
X3842Y3777D01*
X4066Y3777D02*
X4073Y3777D01*
X4114Y3777D02*
X4128Y3777D01*
X4285Y3777D02*
X4295Y3777D01*
X4337Y3777D02*
X4348Y3777D01*
X3611Y3776D02*
X3622Y3776D01*
X3667Y3776D02*
X3674Y3776D01*
X3822Y3776D02*
X3845Y3776D01*
X4066Y3776D02*
X4073Y3776D01*
X4112Y3776D02*
X4126Y3776D01*
X4284Y3776D02*
X4294Y3776D01*
X4305Y3776D02*
X4306Y3776D01*
X4337Y3776D02*
X4348Y3776D01*
X3612Y3775D02*
X3622Y3775D01*
X3668Y3775D02*
X3675Y3775D01*
X3824Y3775D02*
X3847Y3775D01*
X4066Y3775D02*
X4074Y3775D01*
X4110Y3775D02*
X4124Y3775D01*
X4283Y3775D02*
X4293Y3775D01*
X4304Y3775D02*
X4306Y3775D01*
X4336Y3775D02*
X4347Y3775D01*
X3612Y3774D02*
X3623Y3774D01*
X3668Y3774D02*
X3676Y3774D01*
X3826Y3774D02*
X3850Y3774D01*
X4066Y3774D02*
X4074Y3774D01*
X4108Y3774D02*
X4122Y3774D01*
X4282Y3774D02*
X4293Y3774D01*
X4304Y3774D02*
X4306Y3774D01*
X4335Y3774D02*
X4347Y3774D01*
X3613Y3773D02*
X3623Y3773D01*
X3669Y3773D02*
X3676Y3773D01*
X3828Y3773D02*
X3852Y3773D01*
X4066Y3773D02*
X4074Y3773D01*
X4106Y3773D02*
X4120Y3773D01*
X4282Y3773D02*
X4292Y3773D01*
X4304Y3773D02*
X4305Y3773D01*
X4335Y3773D02*
X4346Y3773D01*
X3613Y3772D02*
X3624Y3772D01*
X3670Y3772D02*
X3677Y3772D01*
X3830Y3772D02*
X3855Y3772D01*
X4066Y3772D02*
X4074Y3772D01*
X4104Y3772D02*
X4117Y3772D01*
X4281Y3772D02*
X4291Y3772D01*
X4334Y3772D02*
X4346Y3772D01*
X3614Y3771D02*
X3624Y3771D01*
X3671Y3771D02*
X3678Y3771D01*
X3833Y3771D02*
X3858Y3771D01*
X4066Y3771D02*
X4074Y3771D01*
X4102Y3771D02*
X4115Y3771D01*
X4280Y3771D02*
X4291Y3771D01*
X4334Y3771D02*
X4345Y3771D01*
X3615Y3770D02*
X3625Y3770D01*
X3671Y3770D02*
X3679Y3770D01*
X3835Y3770D02*
X3861Y3770D01*
X4066Y3770D02*
X4074Y3770D01*
X4100Y3770D02*
X4113Y3770D01*
X4279Y3770D02*
X4290Y3770D01*
X4333Y3770D02*
X4345Y3770D01*
X3615Y3769D02*
X3626Y3769D01*
X3672Y3769D02*
X3680Y3769D01*
X3837Y3769D02*
X3864Y3769D01*
X4066Y3769D02*
X4074Y3769D01*
X4099Y3769D02*
X4111Y3769D01*
X4278Y3769D02*
X4289Y3769D01*
X4333Y3769D02*
X4344Y3769D01*
X3616Y3768D02*
X3626Y3768D01*
X3673Y3768D02*
X3680Y3768D01*
X3840Y3768D02*
X3867Y3768D01*
X4066Y3768D02*
X4074Y3768D01*
X4097Y3768D02*
X4109Y3768D01*
X4278Y3768D02*
X4289Y3768D01*
X4332Y3768D02*
X4344Y3768D01*
X3616Y3767D02*
X3627Y3767D01*
X3674Y3767D02*
X3681Y3767D01*
X3842Y3767D02*
X3870Y3767D01*
X4065Y3767D02*
X4074Y3767D01*
X4095Y3767D02*
X4107Y3767D01*
X4277Y3767D02*
X4288Y3767D01*
X4332Y3767D02*
X4343Y3767D01*
X3617Y3766D02*
X3627Y3766D01*
X3674Y3766D02*
X3682Y3766D01*
X3845Y3766D02*
X3874Y3766D01*
X4064Y3766D02*
X4074Y3766D01*
X4094Y3766D02*
X4104Y3766D01*
X4276Y3766D02*
X4287Y3766D01*
X4331Y3766D02*
X4343Y3766D01*
X3617Y3765D02*
X3628Y3765D01*
X3675Y3765D02*
X3683Y3765D01*
X3848Y3765D02*
X3877Y3765D01*
X4064Y3765D02*
X4074Y3765D01*
X4093Y3765D02*
X4102Y3765D01*
X4275Y3765D02*
X4287Y3765D01*
X4330Y3765D02*
X4342Y3765D01*
X3618Y3764D02*
X3628Y3764D01*
X3676Y3764D02*
X3683Y3764D01*
X3850Y3764D02*
X3881Y3764D01*
X4062Y3764D02*
X4074Y3764D01*
X4092Y3764D02*
X4100Y3764D01*
X4274Y3764D02*
X4286Y3764D01*
X4330Y3764D02*
X4341Y3764D01*
X3618Y3763D02*
X3629Y3763D01*
X3677Y3763D02*
X3684Y3763D01*
X3853Y3763D02*
X3885Y3763D01*
X4060Y3763D02*
X4074Y3763D01*
X4091Y3763D02*
X4097Y3763D01*
X4274Y3763D02*
X4285Y3763D01*
X4329Y3763D02*
X4341Y3763D01*
X3619Y3762D02*
X3629Y3762D01*
X3678Y3762D02*
X3685Y3762D01*
X3856Y3762D02*
X3888Y3762D01*
X4057Y3762D02*
X4074Y3762D01*
X4091Y3762D02*
X4094Y3762D01*
X4273Y3762D02*
X4284Y3762D01*
X4329Y3762D02*
X4340Y3762D01*
X3619Y3761D02*
X3630Y3761D01*
X3679Y3761D02*
X3686Y3761D01*
X3859Y3761D02*
X3893Y3761D01*
X4053Y3761D02*
X4074Y3761D01*
X4272Y3761D02*
X4284Y3761D01*
X4328Y3761D02*
X4340Y3761D01*
X3620Y3760D02*
X3631Y3760D01*
X3679Y3760D02*
X3687Y3760D01*
X3862Y3760D02*
X3897Y3760D01*
X4049Y3760D02*
X4074Y3760D01*
X4271Y3760D02*
X4283Y3760D01*
X4328Y3760D02*
X4339Y3760D01*
X3621Y3759D02*
X3631Y3759D01*
X3680Y3759D02*
X3687Y3759D01*
X3865Y3759D02*
X3902Y3759D01*
X4045Y3759D02*
X4074Y3759D01*
X4270Y3759D02*
X4282Y3759D01*
X4327Y3759D02*
X4339Y3759D01*
X3621Y3758D02*
X3632Y3758D01*
X3681Y3758D02*
X3688Y3758D01*
X3868Y3758D02*
X3907Y3758D01*
X4040Y3758D02*
X4074Y3758D01*
X4270Y3758D02*
X4282Y3758D01*
X4327Y3758D02*
X4338Y3758D01*
X3622Y3757D02*
X3633Y3757D01*
X3682Y3757D02*
X3689Y3757D01*
X3872Y3757D02*
X3912Y3757D01*
X4034Y3757D02*
X4074Y3757D01*
X4269Y3757D02*
X4281Y3757D01*
X4326Y3757D02*
X4337Y3757D01*
X3622Y3756D02*
X3633Y3756D01*
X3683Y3756D02*
X3690Y3756D01*
X3875Y3756D02*
X3919Y3756D01*
X4028Y3756D02*
X4074Y3756D01*
X4268Y3756D02*
X4280Y3756D01*
X4325Y3756D02*
X4337Y3756D01*
X3623Y3755D02*
X3634Y3755D01*
X3684Y3755D02*
X3691Y3755D01*
X3879Y3755D02*
X3925Y3755D01*
X4021Y3755D02*
X4074Y3755D01*
X4267Y3755D02*
X4279Y3755D01*
X4325Y3755D02*
X4336Y3755D01*
X3624Y3754D02*
X3634Y3754D01*
X3685Y3754D02*
X3691Y3754D01*
X3883Y3754D02*
X3934Y3754D01*
X4012Y3754D02*
X4074Y3754D01*
X4266Y3754D02*
X4279Y3754D01*
X4324Y3754D02*
X4336Y3754D01*
X3624Y3753D02*
X3635Y3753D01*
X3685Y3753D02*
X3692Y3753D01*
X3886Y3753D02*
X3944Y3753D01*
X4002Y3753D02*
X4066Y3753D01*
X4069Y3753D02*
X4074Y3753D01*
X4265Y3753D02*
X4278Y3753D01*
X4323Y3753D02*
X4335Y3753D01*
X3625Y3752D02*
X3636Y3752D01*
X3686Y3752D02*
X3693Y3752D01*
X3891Y3752D02*
X3960Y3752D01*
X3986Y3752D02*
X4060Y3752D01*
X4069Y3752D02*
X4074Y3752D01*
X4264Y3752D02*
X4277Y3752D01*
X4323Y3752D02*
X4334Y3752D01*
X3625Y3751D02*
X3636Y3751D01*
X3687Y3751D02*
X3694Y3751D01*
X3895Y3751D02*
X4054Y3751D01*
X4069Y3751D02*
X4074Y3751D01*
X4263Y3751D02*
X4276Y3751D01*
X4322Y3751D02*
X4334Y3751D01*
X3626Y3750D02*
X3637Y3750D01*
X3688Y3750D02*
X3694Y3750D01*
X3900Y3750D02*
X4049Y3750D01*
X4069Y3750D02*
X4074Y3750D01*
X4263Y3750D02*
X4275Y3750D01*
X4322Y3750D02*
X4333Y3750D01*
X3627Y3749D02*
X3637Y3749D01*
X3690Y3749D02*
X3695Y3749D01*
X3904Y3749D02*
X4043Y3749D01*
X4069Y3749D02*
X4074Y3749D01*
X4262Y3749D02*
X4274Y3749D01*
X4321Y3749D02*
X4333Y3749D01*
X3627Y3748D02*
X3638Y3748D01*
X3691Y3748D02*
X3696Y3748D01*
X3910Y3748D02*
X4037Y3748D01*
X4069Y3748D02*
X4074Y3748D01*
X4261Y3748D02*
X4273Y3748D01*
X4320Y3748D02*
X4332Y3748D01*
X3628Y3747D02*
X3639Y3747D01*
X3692Y3747D02*
X3697Y3747D01*
X3916Y3747D02*
X4032Y3747D01*
X4068Y3747D02*
X4074Y3747D01*
X4260Y3747D02*
X4273Y3747D01*
X4320Y3747D02*
X4331Y3747D01*
X3628Y3746D02*
X3639Y3746D01*
X3693Y3746D02*
X3697Y3746D01*
X3922Y3746D02*
X4026Y3746D01*
X4068Y3746D02*
X4074Y3746D01*
X4259Y3746D02*
X4272Y3746D01*
X4319Y3746D02*
X4331Y3746D01*
X3629Y3745D02*
X3640Y3745D01*
X3694Y3745D02*
X3698Y3745D01*
X3929Y3745D02*
X4020Y3745D01*
X4068Y3745D02*
X4074Y3745D01*
X4258Y3745D02*
X4271Y3745D01*
X4319Y3745D02*
X4330Y3745D01*
X3630Y3744D02*
X3641Y3744D01*
X3696Y3744D02*
X3698Y3744D01*
X3937Y3744D02*
X4012Y3744D01*
X4068Y3744D02*
X4074Y3744D01*
X4257Y3744D02*
X4270Y3744D01*
X4318Y3744D02*
X4329Y3744D01*
X3630Y3743D02*
X3641Y3743D01*
X3697Y3743D02*
X3699Y3743D01*
X3949Y3743D02*
X4002Y3743D01*
X4068Y3743D02*
X4074Y3743D01*
X4256Y3743D02*
X4269Y3743D01*
X4317Y3743D02*
X4329Y3743D01*
X3631Y3742D02*
X3642Y3742D01*
X3699Y3742D02*
X3700Y3742D01*
X3968Y3742D02*
X3982Y3742D01*
X4068Y3742D02*
X4074Y3742D01*
X4255Y3742D02*
X4268Y3742D01*
X4317Y3742D02*
X4328Y3742D01*
X3632Y3741D02*
X3643Y3741D01*
X4068Y3741D02*
X4074Y3741D01*
X4254Y3741D02*
X4267Y3741D01*
X4316Y3741D02*
X4328Y3741D01*
X3632Y3740D02*
X3643Y3740D01*
X4068Y3740D02*
X4074Y3740D01*
X4253Y3740D02*
X4266Y3740D01*
X4315Y3740D02*
X4327Y3740D01*
X3633Y3739D02*
X3644Y3739D01*
X4068Y3739D02*
X4074Y3739D01*
X4252Y3739D02*
X4265Y3739D01*
X4315Y3739D02*
X4326Y3739D01*
X3634Y3738D02*
X3645Y3738D01*
X4068Y3738D02*
X4074Y3738D01*
X4251Y3738D02*
X4264Y3738D01*
X4314Y3738D02*
X4326Y3738D01*
X3634Y3737D02*
X3645Y3737D01*
X4068Y3737D02*
X4074Y3737D01*
X4250Y3737D02*
X4263Y3737D01*
X4313Y3737D02*
X4325Y3737D01*
X3635Y3736D02*
X3646Y3736D01*
X4068Y3736D02*
X4073Y3736D01*
X4249Y3736D02*
X4262Y3736D01*
X4313Y3736D02*
X4324Y3736D01*
X3636Y3735D02*
X3647Y3735D01*
X4068Y3735D02*
X4073Y3735D01*
X4248Y3735D02*
X4261Y3735D01*
X4312Y3735D02*
X4324Y3735D01*
X3636Y3734D02*
X3647Y3734D01*
X4067Y3734D02*
X4073Y3734D01*
X4247Y3734D02*
X4259Y3734D01*
X4311Y3734D02*
X4323Y3734D01*
X3637Y3733D02*
X3648Y3733D01*
X4067Y3733D02*
X4073Y3733D01*
X4246Y3733D02*
X4258Y3733D01*
X4311Y3733D02*
X4322Y3733D01*
X3638Y3732D02*
X3649Y3732D01*
X4067Y3732D02*
X4073Y3732D01*
X4245Y3732D02*
X4257Y3732D01*
X4310Y3732D02*
X4322Y3732D01*
X3638Y3731D02*
X3650Y3731D01*
X4067Y3731D02*
X4073Y3731D01*
X4244Y3731D02*
X4256Y3731D01*
X4309Y3731D02*
X4321Y3731D01*
X3639Y3730D02*
X3650Y3730D01*
X4067Y3730D02*
X4073Y3730D01*
X4243Y3730D02*
X4255Y3730D01*
X4309Y3730D02*
X4320Y3730D01*
X3640Y3729D02*
X3651Y3729D01*
X4067Y3729D02*
X4073Y3729D01*
X4242Y3729D02*
X4254Y3729D01*
X4308Y3729D02*
X4320Y3729D01*
X3640Y3728D02*
X3652Y3728D01*
X4067Y3728D02*
X4073Y3728D01*
X4240Y3728D02*
X4253Y3728D01*
X4307Y3728D02*
X4319Y3728D01*
X3641Y3727D02*
X3652Y3727D01*
X4067Y3727D02*
X4073Y3727D01*
X4239Y3727D02*
X4252Y3727D01*
X4306Y3727D02*
X4318Y3727D01*
X3642Y3726D02*
X3653Y3726D01*
X4066Y3726D02*
X4073Y3726D01*
X4238Y3726D02*
X4250Y3726D01*
X4306Y3726D02*
X4317Y3726D01*
X3643Y3725D02*
X3654Y3725D01*
X3757Y3725D02*
X3757Y3725D01*
X4066Y3725D02*
X4072Y3725D01*
X4237Y3725D02*
X4249Y3725D01*
X4305Y3725D02*
X4317Y3725D01*
X3643Y3724D02*
X3655Y3724D01*
X3756Y3724D02*
X3758Y3724D01*
X4066Y3724D02*
X4072Y3724D01*
X4236Y3724D02*
X4248Y3724D01*
X4304Y3724D02*
X4316Y3724D01*
X3644Y3723D02*
X3655Y3723D01*
X3756Y3723D02*
X3758Y3723D01*
X4066Y3723D02*
X4072Y3723D01*
X4235Y3723D02*
X4247Y3723D01*
X4304Y3723D02*
X4315Y3723D01*
X3645Y3722D02*
X3656Y3722D01*
X3756Y3722D02*
X3759Y3722D01*
X4066Y3722D02*
X4072Y3722D01*
X4233Y3722D02*
X4246Y3722D01*
X4303Y3722D02*
X4315Y3722D01*
X3645Y3721D02*
X3657Y3721D01*
X3756Y3721D02*
X3759Y3721D01*
X4066Y3721D02*
X4072Y3721D01*
X4232Y3721D02*
X4245Y3721D01*
X4302Y3721D02*
X4314Y3721D01*
X3646Y3720D02*
X3658Y3720D01*
X3756Y3720D02*
X3760Y3720D01*
X4065Y3720D02*
X4072Y3720D01*
X4231Y3720D02*
X4244Y3720D01*
X4301Y3720D02*
X4313Y3720D01*
X3647Y3719D02*
X3658Y3719D01*
X3756Y3719D02*
X3760Y3719D01*
X4065Y3719D02*
X4072Y3719D01*
X4230Y3719D02*
X4243Y3719D01*
X4301Y3719D02*
X4313Y3719D01*
X3648Y3718D02*
X3659Y3718D01*
X3756Y3718D02*
X3761Y3718D01*
X4065Y3718D02*
X4071Y3718D01*
X4228Y3718D02*
X4241Y3718D01*
X4300Y3718D02*
X4312Y3718D01*
X3648Y3717D02*
X3660Y3717D01*
X3756Y3717D02*
X3762Y3717D01*
X4065Y3717D02*
X4071Y3717D01*
X4227Y3717D02*
X4240Y3717D01*
X4299Y3717D02*
X4311Y3717D01*
X3649Y3716D02*
X3661Y3716D01*
X3757Y3716D02*
X3762Y3716D01*
X4064Y3716D02*
X4071Y3716D01*
X4226Y3716D02*
X4239Y3716D01*
X4298Y3716D02*
X4310Y3716D01*
X3650Y3715D02*
X3661Y3715D01*
X3757Y3715D02*
X3763Y3715D01*
X4064Y3715D02*
X4071Y3715D01*
X4225Y3715D02*
X4238Y3715D01*
X4298Y3715D02*
X4310Y3715D01*
X3651Y3714D02*
X3662Y3714D01*
X3757Y3714D02*
X3763Y3714D01*
X4064Y3714D02*
X4071Y3714D01*
X4223Y3714D02*
X4237Y3714D01*
X4297Y3714D02*
X4309Y3714D01*
X3651Y3713D02*
X3663Y3713D01*
X3757Y3713D02*
X3764Y3713D01*
X4064Y3713D02*
X4070Y3713D01*
X4222Y3713D02*
X4236Y3713D01*
X4296Y3713D02*
X4308Y3713D01*
X3652Y3712D02*
X3664Y3712D01*
X3757Y3712D02*
X3765Y3712D01*
X4063Y3712D02*
X4070Y3712D01*
X4221Y3712D02*
X4235Y3712D01*
X4295Y3712D02*
X4307Y3712D01*
X3653Y3711D02*
X3665Y3711D01*
X3757Y3711D02*
X3765Y3711D01*
X4063Y3711D02*
X4070Y3711D01*
X4220Y3711D02*
X4233Y3711D01*
X4294Y3711D02*
X4306Y3711D01*
X3654Y3710D02*
X3665Y3710D01*
X3757Y3710D02*
X3766Y3710D01*
X4063Y3710D02*
X4070Y3710D01*
X4218Y3710D02*
X4232Y3710D01*
X4294Y3710D02*
X4306Y3710D01*
X3654Y3709D02*
X3666Y3709D01*
X3757Y3709D02*
X3767Y3709D01*
X4062Y3709D02*
X4070Y3709D01*
X4217Y3709D02*
X4231Y3709D01*
X4293Y3709D02*
X4305Y3709D01*
X3655Y3708D02*
X3667Y3708D01*
X3758Y3708D02*
X3768Y3708D01*
X4062Y3708D02*
X4069Y3708D01*
X4216Y3708D02*
X4230Y3708D01*
X4292Y3708D02*
X4304Y3708D01*
X3656Y3707D02*
X3668Y3707D01*
X3758Y3707D02*
X3768Y3707D01*
X4062Y3707D02*
X4069Y3707D01*
X4214Y3707D02*
X4229Y3707D01*
X4291Y3707D02*
X4303Y3707D01*
X3657Y3706D02*
X3669Y3706D01*
X3758Y3706D02*
X3769Y3706D01*
X4061Y3706D02*
X4069Y3706D01*
X4213Y3706D02*
X4228Y3706D01*
X4290Y3706D02*
X4303Y3706D01*
X3658Y3705D02*
X3669Y3705D01*
X3759Y3705D02*
X3770Y3705D01*
X4061Y3705D02*
X4068Y3705D01*
X4212Y3705D02*
X4227Y3705D01*
X4290Y3705D02*
X4302Y3705D01*
X3658Y3704D02*
X3670Y3704D01*
X3760Y3704D02*
X3771Y3704D01*
X4060Y3704D02*
X4068Y3704D01*
X4210Y3704D02*
X4225Y3704D01*
X4289Y3704D02*
X4301Y3704D01*
X3659Y3703D02*
X3671Y3703D01*
X3761Y3703D02*
X3772Y3703D01*
X4060Y3703D02*
X4068Y3703D01*
X4209Y3703D02*
X4224Y3703D01*
X4250Y3703D02*
X4250Y3703D01*
X4288Y3703D02*
X4300Y3703D01*
X3660Y3702D02*
X3672Y3702D01*
X3761Y3702D02*
X3773Y3702D01*
X4060Y3702D02*
X4068Y3702D01*
X4207Y3702D02*
X4223Y3702D01*
X4249Y3702D02*
X4250Y3702D01*
X4287Y3702D02*
X4300Y3702D01*
X3661Y3701D02*
X3673Y3701D01*
X3762Y3701D02*
X3773Y3701D01*
X4059Y3701D02*
X4067Y3701D01*
X4206Y3701D02*
X4222Y3701D01*
X4248Y3701D02*
X4249Y3701D01*
X4286Y3701D02*
X4299Y3701D01*
X3662Y3700D02*
X3674Y3700D01*
X3763Y3700D02*
X3774Y3700D01*
X4059Y3700D02*
X4067Y3700D01*
X4205Y3700D02*
X4221Y3700D01*
X4248Y3700D02*
X4248Y3700D01*
X4285Y3700D02*
X4298Y3700D01*
X3662Y3699D02*
X3675Y3699D01*
X3764Y3699D02*
X3775Y3699D01*
X4058Y3699D02*
X4066Y3699D01*
X4203Y3699D02*
X4219Y3699D01*
X4285Y3699D02*
X4297Y3699D01*
X3663Y3698D02*
X3675Y3698D01*
X3764Y3698D02*
X3776Y3698D01*
X4058Y3698D02*
X4066Y3698D01*
X4202Y3698D02*
X4218Y3698D01*
X4284Y3698D02*
X4296Y3698D01*
X3664Y3697D02*
X3676Y3697D01*
X3765Y3697D02*
X3777Y3697D01*
X4057Y3697D02*
X4066Y3697D01*
X4200Y3697D02*
X4217Y3697D01*
X4283Y3697D02*
X4295Y3697D01*
X3665Y3696D02*
X3677Y3696D01*
X3766Y3696D02*
X3778Y3696D01*
X4057Y3696D02*
X4065Y3696D01*
X4199Y3696D02*
X4216Y3696D01*
X4282Y3696D02*
X4295Y3696D01*
X3666Y3695D02*
X3678Y3695D01*
X3767Y3695D02*
X3779Y3695D01*
X4057Y3695D02*
X4065Y3695D01*
X4197Y3695D02*
X4214Y3695D01*
X4281Y3695D02*
X4294Y3695D01*
X3667Y3694D02*
X3679Y3694D01*
X3768Y3694D02*
X3780Y3694D01*
X4056Y3694D02*
X4064Y3694D01*
X4196Y3694D02*
X4213Y3694D01*
X4280Y3694D02*
X4293Y3694D01*
X3667Y3693D02*
X3680Y3693D01*
X3769Y3693D02*
X3781Y3693D01*
X4056Y3693D02*
X4064Y3693D01*
X4195Y3693D02*
X4212Y3693D01*
X4279Y3693D02*
X4292Y3693D01*
X3668Y3692D02*
X3681Y3692D01*
X3770Y3692D02*
X3782Y3692D01*
X4055Y3692D02*
X4064Y3692D01*
X4193Y3692D02*
X4210Y3692D01*
X4278Y3692D02*
X4291Y3692D01*
X3669Y3691D02*
X3682Y3691D01*
X3771Y3691D02*
X3783Y3691D01*
X4055Y3691D02*
X4063Y3691D01*
X4192Y3691D02*
X4209Y3691D01*
X4278Y3691D02*
X4290Y3691D01*
X3670Y3690D02*
X3682Y3690D01*
X3772Y3690D02*
X3784Y3690D01*
X4054Y3690D02*
X4063Y3690D01*
X4190Y3690D02*
X4207Y3690D01*
X4277Y3690D02*
X4289Y3690D01*
X3671Y3689D02*
X3683Y3689D01*
X3773Y3689D02*
X3785Y3689D01*
X4054Y3689D02*
X4062Y3689D01*
X4188Y3689D02*
X4206Y3689D01*
X4276Y3689D02*
X4289Y3689D01*
X3672Y3688D02*
X3684Y3688D01*
X3774Y3688D02*
X3786Y3688D01*
X4053Y3688D02*
X4062Y3688D01*
X4187Y3688D02*
X4204Y3688D01*
X4275Y3688D02*
X4288Y3688D01*
X3673Y3687D02*
X3685Y3687D01*
X3775Y3687D02*
X3787Y3687D01*
X4052Y3687D02*
X4061Y3687D01*
X4185Y3687D02*
X4203Y3687D01*
X4274Y3687D02*
X4287Y3687D01*
X3674Y3686D02*
X3686Y3686D01*
X3776Y3686D02*
X3788Y3686D01*
X4052Y3686D02*
X4060Y3686D01*
X4184Y3686D02*
X4201Y3686D01*
X4273Y3686D02*
X4286Y3686D01*
X3674Y3685D02*
X3687Y3685D01*
X3778Y3685D02*
X3789Y3685D01*
X4051Y3685D02*
X4060Y3685D01*
X4182Y3685D02*
X4200Y3685D01*
X4272Y3685D02*
X4285Y3685D01*
X3675Y3684D02*
X3688Y3684D01*
X3779Y3684D02*
X3790Y3684D01*
X4050Y3684D02*
X4059Y3684D01*
X4181Y3684D02*
X4198Y3684D01*
X4271Y3684D02*
X4284Y3684D01*
X3676Y3683D02*
X3689Y3683D01*
X3780Y3683D02*
X3791Y3683D01*
X4049Y3683D02*
X4059Y3683D01*
X4179Y3683D02*
X4197Y3683D01*
X4270Y3683D02*
X4283Y3683D01*
X3677Y3682D02*
X3690Y3682D01*
X3781Y3682D02*
X3792Y3682D01*
X4049Y3682D02*
X4058Y3682D01*
X4177Y3682D02*
X4195Y3682D01*
X4269Y3682D02*
X4282Y3682D01*
X3678Y3681D02*
X3691Y3681D01*
X3782Y3681D02*
X3793Y3681D01*
X4048Y3681D02*
X4057Y3681D01*
X4176Y3681D02*
X4194Y3681D01*
X4268Y3681D02*
X4281Y3681D01*
X3679Y3680D02*
X3692Y3680D01*
X3784Y3680D02*
X3794Y3680D01*
X4047Y3680D02*
X4057Y3680D01*
X4174Y3680D02*
X4192Y3680D01*
X4267Y3680D02*
X4280Y3680D01*
X3680Y3679D02*
X3693Y3679D01*
X3785Y3679D02*
X3795Y3679D01*
X4046Y3679D02*
X4056Y3679D01*
X4172Y3679D02*
X4191Y3679D01*
X4266Y3679D02*
X4279Y3679D01*
X3681Y3678D02*
X3694Y3678D01*
X3786Y3678D02*
X3796Y3678D01*
X4045Y3678D02*
X4055Y3678D01*
X4171Y3678D02*
X4189Y3678D01*
X4265Y3678D02*
X4278Y3678D01*
X3682Y3677D02*
X3695Y3677D01*
X3787Y3677D02*
X3797Y3677D01*
X4044Y3677D02*
X4055Y3677D01*
X4169Y3677D02*
X4188Y3677D01*
X4264Y3677D02*
X4278Y3677D01*
X3683Y3676D02*
X3696Y3676D01*
X3789Y3676D02*
X3798Y3676D01*
X4043Y3676D02*
X4054Y3676D01*
X4167Y3676D02*
X4186Y3676D01*
X4263Y3676D02*
X4277Y3676D01*
X3684Y3675D02*
X3697Y3675D01*
X3790Y3675D02*
X3799Y3675D01*
X4043Y3675D02*
X4053Y3675D01*
X4166Y3675D02*
X4184Y3675D01*
X4262Y3675D02*
X4276Y3675D01*
X3685Y3674D02*
X3698Y3674D01*
X3791Y3674D02*
X3800Y3674D01*
X4042Y3674D02*
X4052Y3674D01*
X4164Y3674D02*
X4183Y3674D01*
X4261Y3674D02*
X4275Y3674D01*
X3686Y3673D02*
X3699Y3673D01*
X3792Y3673D02*
X3801Y3673D01*
X4041Y3673D02*
X4051Y3673D01*
X4162Y3673D02*
X4181Y3673D01*
X4260Y3673D02*
X4274Y3673D01*
X3686Y3672D02*
X3700Y3672D01*
X3794Y3672D02*
X3802Y3672D01*
X4040Y3672D02*
X4051Y3672D01*
X4160Y3672D02*
X4179Y3672D01*
X4259Y3672D02*
X4273Y3672D01*
X3687Y3671D02*
X3701Y3671D01*
X3795Y3671D02*
X3803Y3671D01*
X4039Y3671D02*
X4050Y3671D01*
X4158Y3671D02*
X4177Y3671D01*
X4258Y3671D02*
X4272Y3671D01*
X3688Y3670D02*
X3702Y3670D01*
X3796Y3670D02*
X3805Y3670D01*
X4038Y3670D02*
X4049Y3670D01*
X4157Y3670D02*
X4175Y3670D01*
X4257Y3670D02*
X4271Y3670D01*
X3689Y3669D02*
X3703Y3669D01*
X3798Y3669D02*
X3806Y3669D01*
X4037Y3669D02*
X4048Y3669D01*
X4155Y3669D02*
X4173Y3669D01*
X4256Y3669D02*
X4270Y3669D01*
X3690Y3668D02*
X3704Y3668D01*
X3799Y3668D02*
X3807Y3668D01*
X4036Y3668D02*
X4047Y3668D01*
X4153Y3668D02*
X4171Y3668D01*
X4255Y3668D02*
X4269Y3668D01*
X3691Y3667D02*
X3705Y3667D01*
X3800Y3667D02*
X3808Y3667D01*
X4035Y3667D02*
X4046Y3667D01*
X4151Y3667D02*
X4169Y3667D01*
X4254Y3667D02*
X4268Y3667D01*
X3692Y3666D02*
X3706Y3666D01*
X3802Y3666D02*
X3810Y3666D01*
X4034Y3666D02*
X4046Y3666D01*
X4149Y3666D02*
X4167Y3666D01*
X4253Y3666D02*
X4267Y3666D01*
X3693Y3665D02*
X3707Y3665D01*
X3803Y3665D02*
X3811Y3665D01*
X4033Y3665D02*
X4045Y3665D01*
X4147Y3665D02*
X4165Y3665D01*
X4251Y3665D02*
X4266Y3665D01*
X3694Y3664D02*
X3708Y3664D01*
X3805Y3664D02*
X3812Y3664D01*
X4032Y3664D02*
X4044Y3664D01*
X4145Y3664D02*
X4163Y3664D01*
X4250Y3664D02*
X4265Y3664D01*
X3695Y3663D02*
X3709Y3663D01*
X3806Y3663D02*
X3814Y3663D01*
X4031Y3663D02*
X4043Y3663D01*
X4143Y3663D02*
X4161Y3663D01*
X4249Y3663D02*
X4263Y3663D01*
X3696Y3662D02*
X3711Y3662D01*
X3807Y3662D02*
X3815Y3662D01*
X4030Y3662D02*
X4042Y3662D01*
X4141Y3662D02*
X4159Y3662D01*
X4248Y3662D02*
X4262Y3662D01*
X3697Y3661D02*
X3712Y3661D01*
X3809Y3661D02*
X3817Y3661D01*
X4028Y3661D02*
X4041Y3661D01*
X4139Y3661D02*
X4157Y3661D01*
X4247Y3661D02*
X4261Y3661D01*
X3699Y3660D02*
X3713Y3660D01*
X3810Y3660D02*
X3819Y3660D01*
X4027Y3660D02*
X4040Y3660D01*
X4136Y3660D02*
X4156Y3660D01*
X4246Y3660D02*
X4260Y3660D01*
X3700Y3659D02*
X3714Y3659D01*
X3812Y3659D02*
X3821Y3659D01*
X4026Y3659D02*
X4039Y3659D01*
X4134Y3659D02*
X4154Y3659D01*
X4245Y3659D02*
X4259Y3659D01*
X3701Y3658D02*
X3715Y3658D01*
X3813Y3658D02*
X3823Y3658D01*
X4025Y3658D02*
X4037Y3658D01*
X4132Y3658D02*
X4152Y3658D01*
X4243Y3658D02*
X4258Y3658D01*
X3702Y3657D02*
X3716Y3657D01*
X3815Y3657D02*
X3826Y3657D01*
X4024Y3657D02*
X4036Y3657D01*
X4129Y3657D02*
X4150Y3657D01*
X4242Y3657D02*
X4257Y3657D01*
X3703Y3656D02*
X3717Y3656D01*
X3817Y3656D02*
X3828Y3656D01*
X4022Y3656D02*
X4035Y3656D01*
X4127Y3656D02*
X4149Y3656D01*
X4241Y3656D02*
X4256Y3656D01*
X3704Y3655D02*
X3719Y3655D01*
X3819Y3655D02*
X3831Y3655D01*
X4021Y3655D02*
X4034Y3655D01*
X4124Y3655D02*
X4147Y3655D01*
X4240Y3655D02*
X4255Y3655D01*
X3705Y3654D02*
X3720Y3654D01*
X3821Y3654D02*
X3833Y3654D01*
X4019Y3654D02*
X4033Y3654D01*
X4122Y3654D02*
X4144Y3654D01*
X4239Y3654D02*
X4254Y3654D01*
X3706Y3653D02*
X3721Y3653D01*
X3823Y3653D02*
X3836Y3653D01*
X4018Y3653D02*
X4032Y3653D01*
X4119Y3653D02*
X4142Y3653D01*
X4237Y3653D02*
X4252Y3653D01*
X3707Y3652D02*
X3722Y3652D01*
X3825Y3652D02*
X3838Y3652D01*
X4016Y3652D02*
X4030Y3652D01*
X4116Y3652D02*
X4140Y3652D01*
X4236Y3652D02*
X4251Y3652D01*
X3708Y3651D02*
X3723Y3651D01*
X3828Y3651D02*
X3841Y3651D01*
X4014Y3651D02*
X4029Y3651D01*
X4113Y3651D02*
X4138Y3651D01*
X4235Y3651D02*
X4250Y3651D01*
X3710Y3650D02*
X3725Y3650D01*
X3830Y3650D02*
X3844Y3650D01*
X4013Y3650D02*
X4028Y3650D01*
X4111Y3650D02*
X4135Y3650D01*
X4233Y3650D02*
X4249Y3650D01*
X3711Y3649D02*
X3726Y3649D01*
X3833Y3649D02*
X3847Y3649D01*
X4011Y3649D02*
X4026Y3649D01*
X4108Y3649D02*
X4133Y3649D01*
X4232Y3649D02*
X4248Y3649D01*
X3712Y3648D02*
X3727Y3648D01*
X3836Y3648D02*
X3850Y3648D01*
X4009Y3648D02*
X4025Y3648D01*
X4105Y3648D02*
X4130Y3648D01*
X4231Y3648D02*
X4247Y3648D01*
X3713Y3647D02*
X3728Y3647D01*
X3839Y3647D02*
X3853Y3647D01*
X4007Y3647D02*
X4023Y3647D01*
X4102Y3647D02*
X4127Y3647D01*
X4230Y3647D02*
X4245Y3647D01*
X3714Y3646D02*
X3730Y3646D01*
X3842Y3646D02*
X3856Y3646D01*
X4004Y3646D02*
X4022Y3646D01*
X4099Y3646D02*
X4125Y3646D01*
X4228Y3646D02*
X4244Y3646D01*
X3716Y3645D02*
X3731Y3645D01*
X3845Y3645D02*
X3859Y3645D01*
X4002Y3645D02*
X4020Y3645D01*
X4096Y3645D02*
X4122Y3645D01*
X4227Y3645D02*
X4243Y3645D01*
X3717Y3644D02*
X3732Y3644D01*
X3848Y3644D02*
X3862Y3644D01*
X4000Y3644D02*
X4018Y3644D01*
X4092Y3644D02*
X4119Y3644D01*
X4226Y3644D02*
X4242Y3644D01*
X3718Y3643D02*
X3734Y3643D01*
X3851Y3643D02*
X3865Y3643D01*
X3997Y3643D02*
X4017Y3643D01*
X4089Y3643D02*
X4116Y3643D01*
X4224Y3643D02*
X4240Y3643D01*
X3719Y3642D02*
X3735Y3642D01*
X3854Y3642D02*
X3869Y3642D01*
X3995Y3642D02*
X4015Y3642D01*
X4086Y3642D02*
X4113Y3642D01*
X4223Y3642D02*
X4239Y3642D01*
X3721Y3641D02*
X3736Y3641D01*
X3857Y3641D02*
X3872Y3641D01*
X3993Y3641D02*
X4013Y3641D01*
X4082Y3641D02*
X4110Y3641D01*
X4221Y3641D02*
X4238Y3641D01*
X3722Y3640D02*
X3738Y3640D01*
X3861Y3640D02*
X3876Y3640D01*
X3990Y3640D02*
X4011Y3640D01*
X4079Y3640D02*
X4107Y3640D01*
X4220Y3640D02*
X4237Y3640D01*
X3723Y3639D02*
X3739Y3639D01*
X3864Y3639D02*
X3879Y3639D01*
X3988Y3639D02*
X4008Y3639D01*
X4075Y3639D02*
X4104Y3639D01*
X4219Y3639D02*
X4235Y3639D01*
X3725Y3638D02*
X3741Y3638D01*
X3867Y3638D02*
X3883Y3638D01*
X3986Y3638D02*
X4005Y3638D01*
X4071Y3638D02*
X4101Y3638D01*
X4217Y3638D02*
X4234Y3638D01*
X3726Y3637D02*
X3742Y3637D01*
X3870Y3637D02*
X3887Y3637D01*
X3985Y3637D02*
X4001Y3637D01*
X4068Y3637D02*
X4098Y3637D01*
X4216Y3637D02*
X4233Y3637D01*
X3727Y3636D02*
X3743Y3636D01*
X3874Y3636D02*
X3891Y3636D01*
X3985Y3636D02*
X3996Y3636D01*
X4063Y3636D02*
X4095Y3636D01*
X4214Y3636D02*
X4231Y3636D01*
X3729Y3635D02*
X3745Y3635D01*
X3877Y3635D02*
X3896Y3635D01*
X4058Y3635D02*
X4092Y3635D01*
X4213Y3635D02*
X4230Y3635D01*
X3730Y3634D02*
X3747Y3634D01*
X3880Y3634D02*
X3901Y3634D01*
X4052Y3634D02*
X4088Y3634D01*
X4211Y3634D02*
X4229Y3634D01*
X3732Y3633D02*
X3748Y3633D01*
X3884Y3633D02*
X3906Y3633D01*
X4046Y3633D02*
X4085Y3633D01*
X4210Y3633D02*
X4227Y3633D01*
X3733Y3632D02*
X3750Y3632D01*
X3888Y3632D02*
X3911Y3632D01*
X4040Y3632D02*
X4081Y3632D01*
X4208Y3632D02*
X4226Y3632D01*
X3735Y3631D02*
X3751Y3631D01*
X3891Y3631D02*
X3916Y3631D01*
X4034Y3631D02*
X4077Y3631D01*
X4207Y3631D02*
X4225Y3631D01*
X3736Y3630D02*
X3753Y3630D01*
X3895Y3630D02*
X3922Y3630D01*
X4028Y3630D02*
X4073Y3630D01*
X4205Y3630D02*
X4223Y3630D01*
X3738Y3629D02*
X3754Y3629D01*
X3900Y3629D02*
X3926Y3629D01*
X4022Y3629D02*
X4068Y3629D01*
X4204Y3629D02*
X4222Y3629D01*
X3739Y3628D02*
X3756Y3628D01*
X3906Y3628D02*
X3930Y3628D01*
X4015Y3628D02*
X4063Y3628D01*
X4202Y3628D02*
X4221Y3628D01*
X3740Y3627D02*
X3758Y3627D01*
X3914Y3627D02*
X3932Y3627D01*
X4008Y3627D02*
X4057Y3627D01*
X4200Y3627D02*
X4219Y3627D01*
X3742Y3626D02*
X3759Y3626D01*
X4000Y3626D02*
X4051Y3626D01*
X4199Y3626D02*
X4218Y3626D01*
X3744Y3625D02*
X3761Y3625D01*
X3967Y3625D02*
X3976Y3625D01*
X3990Y3625D02*
X4045Y3625D01*
X4197Y3625D02*
X4216Y3625D01*
X3745Y3624D02*
X3762Y3624D01*
X3960Y3624D02*
X4039Y3624D01*
X4196Y3624D02*
X4215Y3624D01*
X3747Y3623D02*
X3764Y3623D01*
X3958Y3623D02*
X4032Y3623D01*
X4194Y3623D02*
X4213Y3623D01*
X3748Y3622D02*
X3766Y3622D01*
X3961Y3622D02*
X4025Y3622D01*
X4192Y3622D02*
X4212Y3622D01*
X3750Y3621D02*
X3767Y3621D01*
X3966Y3621D02*
X4017Y3621D01*
X4191Y3621D02*
X4210Y3621D01*
X3751Y3620D02*
X3769Y3620D01*
X3971Y3620D02*
X4008Y3620D01*
X4189Y3620D02*
X4209Y3620D01*
X3753Y3619D02*
X3771Y3619D01*
X3978Y3619D02*
X3999Y3619D01*
X4187Y3619D02*
X4207Y3619D01*
X3754Y3618D02*
X3772Y3618D01*
X4186Y3618D02*
X4206Y3618D01*
X3756Y3617D02*
X3774Y3617D01*
X4184Y3617D02*
X4204Y3617D01*
X3758Y3616D02*
X3776Y3616D01*
X4182Y3616D02*
X4202Y3616D01*
X3759Y3615D02*
X3777Y3615D01*
X4180Y3615D02*
X4201Y3615D01*
X3761Y3614D02*
X3779Y3614D01*
X4178Y3614D02*
X4199Y3614D01*
X3763Y3613D02*
X3781Y3613D01*
X4177Y3613D02*
X4197Y3613D01*
X3764Y3612D02*
X3783Y3612D01*
X4175Y3612D02*
X4196Y3612D01*
X3766Y3611D02*
X3785Y3611D01*
X4173Y3611D02*
X4194Y3611D01*
X3768Y3610D02*
X3787Y3610D01*
X4171Y3610D02*
X4192Y3610D01*
X3769Y3609D02*
X3788Y3609D01*
X4169Y3609D02*
X4191Y3609D01*
X3771Y3608D02*
X3790Y3608D01*
X4167Y3608D02*
X4189Y3608D01*
X3773Y3607D02*
X3793Y3607D01*
X4165Y3607D02*
X4187Y3607D01*
X3774Y3606D02*
X3795Y3606D01*
X4163Y3606D02*
X4185Y3606D01*
X3776Y3605D02*
X3797Y3605D01*
X4162Y3605D02*
X4184Y3605D01*
X3778Y3604D02*
X3799Y3604D01*
X4160Y3604D02*
X4182Y3604D01*
X3780Y3603D02*
X3801Y3603D01*
X4158Y3603D02*
X4180Y3603D01*
X3781Y3602D02*
X3803Y3602D01*
X4156Y3602D02*
X4178Y3602D01*
X3783Y3601D02*
X3805Y3601D01*
X4154Y3601D02*
X4176Y3601D01*
X3785Y3600D02*
X3807Y3600D01*
X4152Y3600D02*
X4174Y3600D01*
X3787Y3599D02*
X3809Y3599D01*
X4149Y3599D02*
X4172Y3599D01*
X3789Y3598D02*
X3811Y3598D01*
X4147Y3598D02*
X4170Y3598D01*
X3791Y3597D02*
X3813Y3597D01*
X4145Y3597D02*
X4168Y3597D01*
X3792Y3596D02*
X3816Y3596D01*
X4143Y3596D02*
X4166Y3596D01*
X3794Y3595D02*
X3818Y3595D01*
X4141Y3595D02*
X4164Y3595D01*
X3796Y3594D02*
X3820Y3594D01*
X4139Y3594D02*
X4162Y3594D01*
X3798Y3593D02*
X3822Y3593D01*
X4136Y3593D02*
X4160Y3593D01*
X3800Y3592D02*
X3825Y3592D01*
X4134Y3592D02*
X4158Y3592D01*
X3802Y3591D02*
X3827Y3591D01*
X4132Y3591D02*
X4156Y3591D01*
X3804Y3590D02*
X3829Y3590D01*
X4129Y3590D02*
X4154Y3590D01*
X3806Y3589D02*
X3831Y3589D01*
X4127Y3589D02*
X4152Y3589D01*
X3808Y3588D02*
X3834Y3588D01*
X4125Y3588D02*
X4149Y3588D01*
X3810Y3587D02*
X3836Y3587D01*
X4122Y3587D02*
X4147Y3587D01*
X3812Y3586D02*
X3839Y3586D01*
X4120Y3586D02*
X4145Y3586D01*
X3814Y3585D02*
X3841Y3585D01*
X4117Y3585D02*
X4143Y3585D01*
X3817Y3584D02*
X3844Y3584D01*
X4114Y3584D02*
X4140Y3584D01*
X3819Y3583D02*
X3846Y3583D01*
X4112Y3583D02*
X4138Y3583D01*
X3821Y3582D02*
X3849Y3582D01*
X4109Y3582D02*
X4136Y3582D01*
X3824Y3581D02*
X3852Y3581D01*
X4106Y3581D02*
X4133Y3581D01*
X3826Y3580D02*
X3854Y3580D01*
X4103Y3580D02*
X4131Y3580D01*
X3829Y3579D02*
X3858Y3579D01*
X4100Y3579D02*
X4128Y3579D01*
X3831Y3578D02*
X3861Y3578D01*
X4097Y3578D02*
X4125Y3578D01*
X3834Y3577D02*
X3864Y3577D01*
X4094Y3577D02*
X4123Y3577D01*
X3837Y3576D02*
X3867Y3576D01*
X4091Y3576D02*
X4120Y3576D01*
X3840Y3575D02*
X3871Y3575D01*
X4088Y3575D02*
X4118Y3575D01*
X3843Y3574D02*
X3874Y3574D01*
X4084Y3574D02*
X4115Y3574D01*
X3846Y3573D02*
X3878Y3573D01*
X4081Y3573D02*
X4112Y3573D01*
X3849Y3572D02*
X3881Y3572D01*
X4077Y3572D02*
X4109Y3572D01*
X3852Y3571D02*
X3885Y3571D01*
X4074Y3571D02*
X4106Y3571D01*
X3855Y3570D02*
X3890Y3570D01*
X4071Y3570D02*
X4103Y3570D01*
X3858Y3569D02*
X3894Y3569D01*
X4067Y3569D02*
X4101Y3569D01*
X3862Y3568D02*
X3900Y3568D01*
X4063Y3568D02*
X4098Y3568D01*
X3865Y3567D02*
X3906Y3567D01*
X4058Y3567D02*
X4095Y3567D01*
X3868Y3566D02*
X3913Y3566D01*
X4053Y3566D02*
X4091Y3566D01*
X3872Y3565D02*
X3923Y3565D01*
X4046Y3565D02*
X4088Y3565D01*
X3876Y3564D02*
X3940Y3564D01*
X4035Y3564D02*
X4085Y3564D01*
X3880Y3563D02*
X4082Y3563D01*
X3884Y3562D02*
X4078Y3562D01*
X3889Y3561D02*
X4075Y3561D01*
X3893Y3560D02*
X4071Y3560D01*
X3898Y3559D02*
X4067Y3559D01*
X3904Y3558D02*
X4063Y3558D01*
X3910Y3557D02*
X4057Y3557D01*
X3917Y3556D02*
X4051Y3556D01*
X3925Y3555D02*
X4045Y3555D01*
X3935Y3554D02*
X4036Y3554D01*
X3947Y3553D02*
X4025Y3553D01*
X3965Y3552D02*
X4009Y3552D01*
X3603Y3504D02*
X3632Y3504D01*
X3687Y3504D02*
X3690Y3504D01*
X3740Y3504D02*
X3741Y3504D01*
X3773Y3504D02*
X3785Y3504D01*
X3832Y3504D02*
X3833Y3504D01*
X3884Y3504D02*
X3925Y3504D01*
X3965Y3504D02*
X4001Y3504D01*
X4047Y3504D02*
X4050Y3504D01*
X4100Y3504D02*
X4117Y3504D01*
X4172Y3504D02*
X4217Y3504D01*
X4253Y3504D02*
X4289Y3504D01*
X4316Y3504D02*
X4333Y3504D01*
X3600Y3503D02*
X3635Y3503D01*
X3683Y3503D02*
X3694Y3503D01*
X3738Y3503D02*
X3743Y3503D01*
X3772Y3503D02*
X3785Y3503D01*
X3830Y3503D02*
X3835Y3503D01*
X3882Y3503D02*
X3927Y3503D01*
X3961Y3503D02*
X4001Y3503D01*
X4043Y3503D02*
X4054Y3503D01*
X4098Y3503D02*
X4121Y3503D01*
X4170Y3503D02*
X4217Y3503D01*
X4249Y3503D02*
X4289Y3503D01*
X4314Y3503D02*
X4337Y3503D01*
X3598Y3502D02*
X3636Y3502D01*
X3682Y3502D02*
X3695Y3502D01*
X3737Y3502D02*
X3744Y3502D01*
X3772Y3502D02*
X3785Y3502D01*
X3829Y3502D02*
X3836Y3502D01*
X3881Y3502D02*
X3928Y3502D01*
X3959Y3502D02*
X4001Y3502D01*
X4042Y3502D02*
X4055Y3502D01*
X4097Y3502D02*
X4123Y3502D01*
X4169Y3502D02*
X4217Y3502D01*
X4247Y3502D02*
X4289Y3502D01*
X4313Y3502D02*
X4339Y3502D01*
X3597Y3501D02*
X3637Y3501D01*
X3681Y3501D02*
X3696Y3501D01*
X3736Y3501D02*
X3745Y3501D01*
X3771Y3501D02*
X3785Y3501D01*
X3828Y3501D02*
X3837Y3501D01*
X3880Y3501D02*
X3928Y3501D01*
X3958Y3501D02*
X4001Y3501D01*
X4041Y3501D02*
X4056Y3501D01*
X4096Y3501D02*
X4124Y3501D01*
X4168Y3501D02*
X4217Y3501D01*
X4246Y3501D02*
X4289Y3501D01*
X4312Y3501D02*
X4340Y3501D01*
X3596Y3500D02*
X3638Y3500D01*
X3679Y3500D02*
X3698Y3500D01*
X3736Y3500D02*
X3745Y3500D01*
X3771Y3500D02*
X3785Y3500D01*
X3828Y3500D02*
X3837Y3500D01*
X3880Y3500D02*
X3929Y3500D01*
X3957Y3500D02*
X4001Y3500D01*
X4039Y3500D02*
X4058Y3500D01*
X4096Y3500D02*
X4126Y3500D01*
X4168Y3500D02*
X4217Y3500D01*
X4245Y3500D02*
X4289Y3500D01*
X4312Y3500D02*
X4342Y3500D01*
X3595Y3499D02*
X3639Y3499D01*
X3679Y3499D02*
X3698Y3499D01*
X3736Y3499D02*
X3745Y3499D01*
X3770Y3499D02*
X3785Y3499D01*
X3828Y3499D02*
X3837Y3499D01*
X3880Y3499D02*
X3929Y3499D01*
X3956Y3499D02*
X4001Y3499D01*
X4039Y3499D02*
X4058Y3499D01*
X4096Y3499D02*
X4126Y3499D01*
X4168Y3499D02*
X4217Y3499D01*
X4244Y3499D02*
X4289Y3499D01*
X4312Y3499D02*
X4342Y3499D01*
X3594Y3498D02*
X3640Y3498D01*
X3678Y3498D02*
X3699Y3498D01*
X3736Y3498D02*
X3745Y3498D01*
X3770Y3498D02*
X3785Y3498D01*
X3827Y3498D02*
X3838Y3498D01*
X3880Y3498D02*
X3929Y3498D01*
X3955Y3498D02*
X4001Y3498D01*
X4038Y3498D02*
X4059Y3498D01*
X4096Y3498D02*
X4127Y3498D01*
X4168Y3498D02*
X4217Y3498D01*
X4243Y3498D02*
X4289Y3498D01*
X4312Y3498D02*
X4343Y3498D01*
X3594Y3497D02*
X3640Y3497D01*
X3677Y3497D02*
X3700Y3497D01*
X3736Y3497D02*
X3745Y3497D01*
X3769Y3497D02*
X3785Y3497D01*
X3827Y3497D02*
X3838Y3497D01*
X3881Y3497D02*
X3928Y3497D01*
X3954Y3497D02*
X4001Y3497D01*
X4037Y3497D02*
X4060Y3497D01*
X4097Y3497D02*
X4128Y3497D01*
X4169Y3497D02*
X4217Y3497D01*
X4242Y3497D02*
X4289Y3497D01*
X4313Y3497D02*
X4344Y3497D01*
X3593Y3496D02*
X3640Y3496D01*
X3677Y3496D02*
X3700Y3496D01*
X3736Y3496D02*
X3745Y3496D01*
X3769Y3496D02*
X3785Y3496D01*
X3827Y3496D02*
X3838Y3496D01*
X3881Y3496D02*
X3928Y3496D01*
X3954Y3496D02*
X4001Y3496D01*
X4037Y3496D02*
X4060Y3496D01*
X4097Y3496D02*
X4129Y3496D01*
X4169Y3496D02*
X4217Y3496D01*
X4242Y3496D02*
X4289Y3496D01*
X4313Y3496D02*
X4345Y3496D01*
X3593Y3495D02*
X3641Y3495D01*
X3676Y3495D02*
X3701Y3495D01*
X3736Y3495D02*
X3745Y3495D01*
X3768Y3495D02*
X3785Y3495D01*
X3826Y3495D02*
X3838Y3495D01*
X3882Y3495D02*
X3926Y3495D01*
X3953Y3495D02*
X4001Y3495D01*
X4036Y3495D02*
X4061Y3495D01*
X4098Y3495D02*
X4130Y3495D01*
X4170Y3495D02*
X4217Y3495D01*
X4241Y3495D02*
X4289Y3495D01*
X4314Y3495D02*
X4346Y3495D01*
X3592Y3494D02*
X3604Y3494D01*
X3631Y3494D02*
X3641Y3494D01*
X3676Y3494D02*
X3687Y3494D01*
X3690Y3494D02*
X3701Y3494D01*
X3736Y3494D02*
X3745Y3494D01*
X3768Y3494D02*
X3785Y3494D01*
X3826Y3494D02*
X3839Y3494D01*
X3900Y3494D02*
X3909Y3494D01*
X3953Y3494D02*
X3966Y3494D01*
X3991Y3494D02*
X4001Y3494D01*
X4036Y3494D02*
X4047Y3494D01*
X4050Y3494D02*
X4061Y3494D01*
X4117Y3494D02*
X4130Y3494D01*
X4207Y3494D02*
X4217Y3494D01*
X4241Y3494D02*
X4254Y3494D01*
X4279Y3494D02*
X4289Y3494D01*
X4333Y3494D02*
X4346Y3494D01*
X3592Y3493D02*
X3602Y3493D01*
X3632Y3493D02*
X3641Y3493D01*
X3675Y3493D02*
X3686Y3493D01*
X3691Y3493D02*
X3702Y3493D01*
X3736Y3493D02*
X3745Y3493D01*
X3768Y3493D02*
X3785Y3493D01*
X3826Y3493D02*
X3839Y3493D01*
X3900Y3493D02*
X3909Y3493D01*
X3953Y3493D02*
X3963Y3493D01*
X3992Y3493D02*
X4001Y3493D01*
X4035Y3493D02*
X4046Y3493D01*
X4051Y3493D02*
X4062Y3493D01*
X4119Y3493D02*
X4131Y3493D01*
X4208Y3493D02*
X4217Y3493D01*
X4241Y3493D02*
X4251Y3493D01*
X4280Y3493D02*
X4289Y3493D01*
X4335Y3493D02*
X4347Y3493D01*
X3592Y3492D02*
X3601Y3492D01*
X3631Y3492D02*
X3641Y3492D01*
X3675Y3492D02*
X3685Y3492D01*
X3692Y3492D02*
X3702Y3492D01*
X3736Y3492D02*
X3745Y3492D01*
X3767Y3492D02*
X3785Y3492D01*
X3826Y3492D02*
X3839Y3492D01*
X3900Y3492D02*
X3909Y3492D01*
X3952Y3492D02*
X3962Y3492D01*
X3992Y3492D02*
X4001Y3492D01*
X4035Y3492D02*
X4045Y3492D01*
X4052Y3492D02*
X4062Y3492D01*
X4120Y3492D02*
X4132Y3492D01*
X4208Y3492D02*
X4217Y3492D01*
X4240Y3492D02*
X4250Y3492D01*
X4280Y3492D02*
X4289Y3492D01*
X4336Y3492D02*
X4348Y3492D01*
X3592Y3491D02*
X3601Y3491D01*
X3631Y3491D02*
X3641Y3491D01*
X3674Y3491D02*
X3685Y3491D01*
X3692Y3491D02*
X3703Y3491D01*
X3736Y3491D02*
X3745Y3491D01*
X3767Y3491D02*
X3785Y3491D01*
X3825Y3491D02*
X3840Y3491D01*
X3900Y3491D02*
X3909Y3491D01*
X3952Y3491D02*
X3962Y3491D01*
X3992Y3491D02*
X4001Y3491D01*
X4034Y3491D02*
X4045Y3491D01*
X4052Y3491D02*
X4063Y3491D01*
X4121Y3491D02*
X4133Y3491D01*
X4208Y3491D02*
X4217Y3491D01*
X4240Y3491D02*
X4250Y3491D01*
X4280Y3491D02*
X4289Y3491D01*
X4337Y3491D02*
X4349Y3491D01*
X3592Y3490D02*
X3601Y3490D01*
X3630Y3490D02*
X3640Y3490D01*
X3674Y3490D02*
X3684Y3490D01*
X3693Y3490D02*
X3703Y3490D01*
X3736Y3490D02*
X3745Y3490D01*
X3766Y3490D02*
X3785Y3490D01*
X3825Y3490D02*
X3840Y3490D01*
X3900Y3490D02*
X3909Y3490D01*
X3952Y3490D02*
X3961Y3490D01*
X3992Y3490D02*
X4001Y3490D01*
X4034Y3490D02*
X4044Y3490D01*
X4053Y3490D02*
X4063Y3490D01*
X4122Y3490D02*
X4134Y3490D01*
X4208Y3490D02*
X4217Y3490D01*
X4240Y3490D02*
X4249Y3490D01*
X4280Y3490D02*
X4289Y3490D01*
X4338Y3490D02*
X4350Y3490D01*
X3592Y3489D02*
X3601Y3489D01*
X3629Y3489D02*
X3640Y3489D01*
X3673Y3489D02*
X3684Y3489D01*
X3693Y3489D02*
X3704Y3489D01*
X3736Y3489D02*
X3745Y3489D01*
X3766Y3489D02*
X3785Y3489D01*
X3825Y3489D02*
X3840Y3489D01*
X3900Y3489D02*
X3909Y3489D01*
X3952Y3489D02*
X3961Y3489D01*
X3992Y3489D02*
X4001Y3489D01*
X4033Y3489D02*
X4044Y3489D01*
X4053Y3489D02*
X4064Y3489D01*
X4122Y3489D02*
X4134Y3489D01*
X4208Y3489D02*
X4217Y3489D01*
X4240Y3489D02*
X4249Y3489D01*
X4280Y3489D02*
X4289Y3489D01*
X4338Y3489D02*
X4350Y3489D01*
X3593Y3488D02*
X3600Y3488D01*
X3628Y3488D02*
X3640Y3488D01*
X3673Y3488D02*
X3683Y3488D01*
X3694Y3488D02*
X3704Y3488D01*
X3736Y3488D02*
X3745Y3488D01*
X3765Y3488D02*
X3785Y3488D01*
X3824Y3488D02*
X3841Y3488D01*
X3900Y3488D02*
X3909Y3488D01*
X3952Y3488D02*
X3961Y3488D01*
X3992Y3488D02*
X4001Y3488D01*
X4033Y3488D02*
X4043Y3488D01*
X4054Y3488D02*
X4064Y3488D01*
X4123Y3488D02*
X4135Y3488D01*
X4208Y3488D02*
X4217Y3488D01*
X4240Y3488D02*
X4249Y3488D01*
X4280Y3488D02*
X4289Y3488D01*
X4339Y3488D02*
X4351Y3488D01*
X3594Y3487D02*
X3599Y3487D01*
X3627Y3487D02*
X3639Y3487D01*
X3672Y3487D02*
X3683Y3487D01*
X3694Y3487D02*
X3705Y3487D01*
X3736Y3487D02*
X3745Y3487D01*
X3765Y3487D02*
X3785Y3487D01*
X3824Y3487D02*
X3841Y3487D01*
X3900Y3487D02*
X3909Y3487D01*
X3952Y3487D02*
X3961Y3487D01*
X3992Y3487D02*
X4001Y3487D01*
X4032Y3487D02*
X4043Y3487D01*
X4054Y3487D02*
X4065Y3487D01*
X4124Y3487D02*
X4136Y3487D01*
X4208Y3487D02*
X4217Y3487D01*
X4240Y3487D02*
X4249Y3487D01*
X4280Y3487D02*
X4289Y3487D01*
X4340Y3487D02*
X4352Y3487D01*
X3595Y3486D02*
X3598Y3486D01*
X3627Y3486D02*
X3639Y3486D01*
X3672Y3486D02*
X3682Y3486D01*
X3695Y3486D02*
X3705Y3486D01*
X3736Y3486D02*
X3745Y3486D01*
X3765Y3486D02*
X3785Y3486D01*
X3824Y3486D02*
X3841Y3486D01*
X3900Y3486D02*
X3909Y3486D01*
X3952Y3486D02*
X3961Y3486D01*
X3992Y3486D02*
X4001Y3486D01*
X4032Y3486D02*
X4042Y3486D01*
X4055Y3486D02*
X4065Y3486D01*
X4125Y3486D02*
X4137Y3486D01*
X4208Y3486D02*
X4217Y3486D01*
X4240Y3486D02*
X4249Y3486D01*
X4280Y3486D02*
X4289Y3486D01*
X4341Y3486D02*
X4353Y3486D01*
X3626Y3485D02*
X3638Y3485D01*
X3671Y3485D02*
X3682Y3485D01*
X3695Y3485D02*
X3706Y3485D01*
X3736Y3485D02*
X3745Y3485D01*
X3764Y3485D02*
X3774Y3485D01*
X3776Y3485D02*
X3785Y3485D01*
X3824Y3485D02*
X3841Y3485D01*
X3900Y3485D02*
X3909Y3485D01*
X3952Y3485D02*
X3961Y3485D01*
X3992Y3485D02*
X4001Y3485D01*
X4031Y3485D02*
X4042Y3485D01*
X4055Y3485D02*
X4066Y3485D01*
X4126Y3485D02*
X4137Y3485D01*
X4208Y3485D02*
X4217Y3485D01*
X4240Y3485D02*
X4249Y3485D01*
X4280Y3485D02*
X4289Y3485D01*
X4342Y3485D02*
X4353Y3485D01*
X3625Y3484D02*
X3637Y3484D01*
X3671Y3484D02*
X3681Y3484D01*
X3696Y3484D02*
X3706Y3484D01*
X3736Y3484D02*
X3745Y3484D01*
X3764Y3484D02*
X3774Y3484D01*
X3776Y3484D02*
X3785Y3484D01*
X3823Y3484D02*
X3842Y3484D01*
X3900Y3484D02*
X3909Y3484D01*
X3952Y3484D02*
X3961Y3484D01*
X3992Y3484D02*
X4001Y3484D01*
X4031Y3484D02*
X4041Y3484D01*
X4056Y3484D02*
X4066Y3484D01*
X4126Y3484D02*
X4138Y3484D01*
X4208Y3484D02*
X4217Y3484D01*
X4240Y3484D02*
X4249Y3484D01*
X4280Y3484D02*
X4289Y3484D01*
X4342Y3484D02*
X4354Y3484D01*
X3624Y3483D02*
X3636Y3483D01*
X3670Y3483D02*
X3681Y3483D01*
X3696Y3483D02*
X3707Y3483D01*
X3736Y3483D02*
X3745Y3483D01*
X3763Y3483D02*
X3773Y3483D01*
X3776Y3483D02*
X3785Y3483D01*
X3823Y3483D02*
X3842Y3483D01*
X3900Y3483D02*
X3909Y3483D01*
X3952Y3483D02*
X3961Y3483D01*
X3992Y3483D02*
X4001Y3483D01*
X4030Y3483D02*
X4041Y3483D01*
X4056Y3483D02*
X4067Y3483D01*
X4127Y3483D02*
X4139Y3483D01*
X4208Y3483D02*
X4217Y3483D01*
X4240Y3483D02*
X4249Y3483D01*
X4280Y3483D02*
X4289Y3483D01*
X4343Y3483D02*
X4355Y3483D01*
X3624Y3482D02*
X3636Y3482D01*
X3670Y3482D02*
X3680Y3482D01*
X3697Y3482D02*
X3707Y3482D01*
X3736Y3482D02*
X3745Y3482D01*
X3763Y3482D02*
X3773Y3482D01*
X3776Y3482D02*
X3785Y3482D01*
X3823Y3482D02*
X3842Y3482D01*
X3900Y3482D02*
X3909Y3482D01*
X3952Y3482D02*
X3962Y3482D01*
X3992Y3482D02*
X4001Y3482D01*
X4030Y3482D02*
X4040Y3482D01*
X4057Y3482D02*
X4067Y3482D01*
X4128Y3482D02*
X4140Y3482D01*
X4208Y3482D02*
X4217Y3482D01*
X4240Y3482D02*
X4250Y3482D01*
X4280Y3482D02*
X4289Y3482D01*
X4344Y3482D02*
X4356Y3482D01*
X3623Y3481D02*
X3635Y3481D01*
X3669Y3481D02*
X3680Y3481D01*
X3697Y3481D02*
X3708Y3481D01*
X3736Y3481D02*
X3745Y3481D01*
X3762Y3481D02*
X3772Y3481D01*
X3776Y3481D02*
X3785Y3481D01*
X3822Y3481D02*
X3843Y3481D01*
X3900Y3481D02*
X3909Y3481D01*
X3952Y3481D02*
X3962Y3481D01*
X3992Y3481D02*
X4001Y3481D01*
X4029Y3481D02*
X4040Y3481D01*
X4057Y3481D02*
X4068Y3481D01*
X4129Y3481D02*
X4140Y3481D01*
X4208Y3481D02*
X4217Y3481D01*
X4240Y3481D02*
X4250Y3481D01*
X4280Y3481D02*
X4289Y3481D01*
X4345Y3481D02*
X4356Y3481D01*
X3622Y3480D02*
X3634Y3480D01*
X3669Y3480D02*
X3679Y3480D01*
X3698Y3480D02*
X3708Y3480D01*
X3736Y3480D02*
X3745Y3480D01*
X3762Y3480D02*
X3772Y3480D01*
X3776Y3480D02*
X3785Y3480D01*
X3822Y3480D02*
X3843Y3480D01*
X3900Y3480D02*
X3909Y3480D01*
X3953Y3480D02*
X3963Y3480D01*
X3992Y3480D02*
X4001Y3480D01*
X4029Y3480D02*
X4039Y3480D01*
X4058Y3480D02*
X4068Y3480D01*
X4130Y3480D02*
X4141Y3480D01*
X4208Y3480D02*
X4217Y3480D01*
X4241Y3480D02*
X4251Y3480D01*
X4280Y3480D02*
X4289Y3480D01*
X4346Y3480D02*
X4357Y3480D01*
X3621Y3479D02*
X3633Y3479D01*
X3668Y3479D02*
X3679Y3479D01*
X3698Y3479D02*
X3709Y3479D01*
X3736Y3479D02*
X3745Y3479D01*
X3761Y3479D02*
X3772Y3479D01*
X3776Y3479D02*
X3785Y3479D01*
X3822Y3479D02*
X3831Y3479D01*
X3834Y3479D02*
X3843Y3479D01*
X3900Y3479D02*
X3909Y3479D01*
X3953Y3479D02*
X3965Y3479D01*
X3992Y3479D02*
X4001Y3479D01*
X4028Y3479D02*
X4039Y3479D01*
X4058Y3479D02*
X4069Y3479D01*
X4130Y3479D02*
X4142Y3479D01*
X4208Y3479D02*
X4217Y3479D01*
X4241Y3479D02*
X4253Y3479D01*
X4280Y3479D02*
X4289Y3479D01*
X4346Y3479D02*
X4358Y3479D01*
X3620Y3478D02*
X3632Y3478D01*
X3668Y3478D02*
X3678Y3478D01*
X3699Y3478D02*
X3709Y3478D01*
X3736Y3478D02*
X3745Y3478D01*
X3761Y3478D02*
X3771Y3478D01*
X3776Y3478D02*
X3785Y3478D01*
X3822Y3478D02*
X3831Y3478D01*
X3834Y3478D02*
X3843Y3478D01*
X3900Y3478D02*
X3909Y3478D01*
X3953Y3478D02*
X4001Y3478D01*
X4028Y3478D02*
X4038Y3478D01*
X4059Y3478D02*
X4069Y3478D01*
X4131Y3478D02*
X4142Y3478D01*
X4208Y3478D02*
X4217Y3478D01*
X4241Y3478D02*
X4289Y3478D01*
X4347Y3478D02*
X4358Y3478D01*
X3620Y3477D02*
X3632Y3477D01*
X3667Y3477D02*
X3678Y3477D01*
X3699Y3477D02*
X3710Y3477D01*
X3736Y3477D02*
X3745Y3477D01*
X3761Y3477D02*
X3771Y3477D01*
X3776Y3477D02*
X3785Y3477D01*
X3821Y3477D02*
X3831Y3477D01*
X3834Y3477D02*
X3844Y3477D01*
X3900Y3477D02*
X3909Y3477D01*
X3954Y3477D02*
X4001Y3477D01*
X4027Y3477D02*
X4038Y3477D01*
X4059Y3477D02*
X4070Y3477D01*
X4132Y3477D02*
X4143Y3477D01*
X4208Y3477D02*
X4217Y3477D01*
X4242Y3477D02*
X4289Y3477D01*
X4348Y3477D02*
X4359Y3477D01*
X3619Y3476D02*
X3631Y3476D01*
X3667Y3476D02*
X3677Y3476D01*
X3700Y3476D02*
X3710Y3476D01*
X3736Y3476D02*
X3745Y3476D01*
X3760Y3476D02*
X3770Y3476D01*
X3776Y3476D02*
X3785Y3476D01*
X3821Y3476D02*
X3830Y3476D01*
X3835Y3476D02*
X3844Y3476D01*
X3900Y3476D02*
X3909Y3476D01*
X3954Y3476D02*
X4001Y3476D01*
X4027Y3476D02*
X4037Y3476D01*
X4060Y3476D02*
X4070Y3476D01*
X4133Y3476D02*
X4143Y3476D01*
X4208Y3476D02*
X4217Y3476D01*
X4242Y3476D02*
X4289Y3476D01*
X4349Y3476D02*
X4359Y3476D01*
X3618Y3475D02*
X3630Y3475D01*
X3666Y3475D02*
X3677Y3475D01*
X3700Y3475D02*
X3711Y3475D01*
X3736Y3475D02*
X3745Y3475D01*
X3760Y3475D02*
X3770Y3475D01*
X3776Y3475D02*
X3785Y3475D01*
X3821Y3475D02*
X3830Y3475D01*
X3835Y3475D02*
X3844Y3475D01*
X3900Y3475D02*
X3909Y3475D01*
X3955Y3475D02*
X4001Y3475D01*
X4026Y3475D02*
X4037Y3475D01*
X4060Y3475D02*
X4071Y3475D01*
X4133Y3475D02*
X4144Y3475D01*
X4208Y3475D02*
X4217Y3475D01*
X4243Y3475D02*
X4289Y3475D01*
X4349Y3475D02*
X4360Y3475D01*
X3617Y3474D02*
X3629Y3474D01*
X3666Y3474D02*
X3676Y3474D01*
X3701Y3474D02*
X3711Y3474D01*
X3736Y3474D02*
X3745Y3474D01*
X3759Y3474D02*
X3769Y3474D01*
X3776Y3474D02*
X3785Y3474D01*
X3820Y3474D02*
X3830Y3474D01*
X3835Y3474D02*
X3845Y3474D01*
X3900Y3474D02*
X3909Y3474D01*
X3956Y3474D02*
X4001Y3474D01*
X4026Y3474D02*
X4036Y3474D01*
X4061Y3474D02*
X4071Y3474D01*
X4134Y3474D02*
X4144Y3474D01*
X4208Y3474D02*
X4217Y3474D01*
X4244Y3474D02*
X4289Y3474D01*
X4350Y3474D02*
X4360Y3474D01*
X3617Y3473D02*
X3629Y3473D01*
X3665Y3473D02*
X3676Y3473D01*
X3701Y3473D02*
X3711Y3473D01*
X3736Y3473D02*
X3745Y3473D01*
X3759Y3473D02*
X3769Y3473D01*
X3776Y3473D02*
X3785Y3473D01*
X3820Y3473D02*
X3830Y3473D01*
X3835Y3473D02*
X3845Y3473D01*
X3900Y3473D02*
X3909Y3473D01*
X3957Y3473D02*
X4001Y3473D01*
X4025Y3473D02*
X4036Y3473D01*
X4061Y3473D02*
X4071Y3473D01*
X4135Y3473D02*
X4144Y3473D01*
X4208Y3473D02*
X4217Y3473D01*
X4245Y3473D02*
X4289Y3473D01*
X4351Y3473D02*
X4360Y3473D01*
X3616Y3472D02*
X3628Y3472D01*
X3665Y3472D02*
X3675Y3472D01*
X3702Y3472D02*
X3712Y3472D01*
X3736Y3472D02*
X3745Y3472D01*
X3758Y3472D02*
X3768Y3472D01*
X3776Y3472D02*
X3785Y3472D01*
X3820Y3472D02*
X3829Y3472D01*
X3836Y3472D02*
X3845Y3472D01*
X3900Y3472D02*
X3909Y3472D01*
X3958Y3472D02*
X4001Y3472D01*
X4025Y3472D02*
X4035Y3472D01*
X4062Y3472D02*
X4072Y3472D01*
X4135Y3472D02*
X4145Y3472D01*
X4208Y3472D02*
X4217Y3472D01*
X4246Y3472D02*
X4289Y3472D01*
X4351Y3472D02*
X4361Y3472D01*
X3615Y3471D02*
X3627Y3471D01*
X3665Y3471D02*
X3675Y3471D01*
X3702Y3471D02*
X3712Y3471D01*
X3736Y3471D02*
X3745Y3471D01*
X3758Y3471D02*
X3768Y3471D01*
X3776Y3471D02*
X3785Y3471D01*
X3819Y3471D02*
X3829Y3471D01*
X3836Y3471D02*
X3845Y3471D01*
X3900Y3471D02*
X3909Y3471D01*
X3959Y3471D02*
X4001Y3471D01*
X4025Y3471D02*
X4035Y3471D01*
X4062Y3471D02*
X4072Y3471D01*
X4135Y3471D02*
X4145Y3471D01*
X4208Y3471D02*
X4217Y3471D01*
X4247Y3471D02*
X4289Y3471D01*
X4351Y3471D02*
X4361Y3471D01*
X3614Y3470D02*
X3626Y3470D01*
X3665Y3470D02*
X3674Y3470D01*
X3703Y3470D02*
X3712Y3470D01*
X3736Y3470D02*
X3745Y3470D01*
X3758Y3470D02*
X3768Y3470D01*
X3776Y3470D02*
X3785Y3470D01*
X3819Y3470D02*
X3829Y3470D01*
X3836Y3470D02*
X3846Y3470D01*
X3900Y3470D02*
X3909Y3470D01*
X3961Y3470D02*
X4001Y3470D01*
X4025Y3470D02*
X4034Y3470D01*
X4063Y3470D02*
X4072Y3470D01*
X4136Y3470D02*
X4145Y3470D01*
X4191Y3470D02*
X4217Y3470D01*
X4249Y3470D02*
X4289Y3470D01*
X4352Y3470D02*
X4361Y3470D01*
X3613Y3469D02*
X3625Y3469D01*
X3664Y3469D02*
X3674Y3469D01*
X3703Y3469D02*
X3712Y3469D01*
X3736Y3469D02*
X3745Y3469D01*
X3757Y3469D02*
X3767Y3469D01*
X3776Y3469D02*
X3785Y3469D01*
X3819Y3469D02*
X3828Y3469D01*
X3837Y3469D02*
X3846Y3469D01*
X3900Y3469D02*
X3909Y3469D01*
X3964Y3469D02*
X4001Y3469D01*
X4024Y3469D02*
X4034Y3469D01*
X4063Y3469D02*
X4072Y3469D01*
X4136Y3469D02*
X4145Y3469D01*
X4190Y3469D02*
X4217Y3469D01*
X4252Y3469D02*
X4289Y3469D01*
X4352Y3469D02*
X4361Y3469D01*
X3613Y3468D02*
X3625Y3468D01*
X3664Y3468D02*
X3673Y3468D01*
X3703Y3468D02*
X3713Y3468D01*
X3736Y3468D02*
X3745Y3468D01*
X3757Y3468D02*
X3767Y3468D01*
X3776Y3468D02*
X3785Y3468D01*
X3819Y3468D02*
X3828Y3468D01*
X3837Y3468D02*
X3846Y3468D01*
X3900Y3468D02*
X3909Y3468D01*
X3973Y3468D02*
X3983Y3468D01*
X3992Y3468D02*
X4001Y3468D01*
X4024Y3468D02*
X4033Y3468D01*
X4063Y3468D02*
X4073Y3468D01*
X4136Y3468D02*
X4145Y3468D01*
X4189Y3468D02*
X4217Y3468D01*
X4261Y3468D02*
X4271Y3468D01*
X4280Y3468D02*
X4289Y3468D01*
X4352Y3468D02*
X4361Y3468D01*
X3612Y3467D02*
X3624Y3467D01*
X3664Y3467D02*
X3673Y3467D01*
X3704Y3467D02*
X3713Y3467D01*
X3736Y3467D02*
X3745Y3467D01*
X3756Y3467D02*
X3766Y3467D01*
X3776Y3467D02*
X3785Y3467D01*
X3818Y3467D02*
X3828Y3467D01*
X3837Y3467D02*
X3847Y3467D01*
X3900Y3467D02*
X3909Y3467D01*
X3972Y3467D02*
X3983Y3467D01*
X3992Y3467D02*
X4001Y3467D01*
X4024Y3467D02*
X4033Y3467D01*
X4064Y3467D02*
X4073Y3467D01*
X4136Y3467D02*
X4145Y3467D01*
X4188Y3467D02*
X4217Y3467D01*
X4260Y3467D02*
X4271Y3467D01*
X4280Y3467D02*
X4289Y3467D01*
X4352Y3467D02*
X4361Y3467D01*
X3611Y3466D02*
X3623Y3466D01*
X3664Y3466D02*
X3673Y3466D01*
X3704Y3466D02*
X3713Y3466D01*
X3736Y3466D02*
X3745Y3466D01*
X3756Y3466D02*
X3766Y3466D01*
X3776Y3466D02*
X3785Y3466D01*
X3818Y3466D02*
X3828Y3466D01*
X3837Y3466D02*
X3847Y3466D01*
X3900Y3466D02*
X3909Y3466D01*
X3971Y3466D02*
X3982Y3466D01*
X3992Y3466D02*
X4001Y3466D01*
X4024Y3466D02*
X4033Y3466D01*
X4064Y3466D02*
X4073Y3466D01*
X4136Y3466D02*
X4145Y3466D01*
X4188Y3466D02*
X4217Y3466D01*
X4259Y3466D02*
X4270Y3466D01*
X4280Y3466D02*
X4289Y3466D01*
X4352Y3466D02*
X4361Y3466D01*
X3610Y3465D02*
X3622Y3465D01*
X3664Y3465D02*
X3673Y3465D01*
X3704Y3465D02*
X3713Y3465D01*
X3736Y3465D02*
X3745Y3465D01*
X3755Y3465D02*
X3765Y3465D01*
X3776Y3465D02*
X3785Y3465D01*
X3818Y3465D02*
X3827Y3465D01*
X3838Y3465D02*
X3847Y3465D01*
X3900Y3465D02*
X3909Y3465D01*
X3971Y3465D02*
X3982Y3465D01*
X3992Y3465D02*
X4001Y3465D01*
X4024Y3465D02*
X4033Y3465D01*
X4064Y3465D02*
X4073Y3465D01*
X4136Y3465D02*
X4145Y3465D01*
X4188Y3465D02*
X4217Y3465D01*
X4259Y3465D02*
X4270Y3465D01*
X4280Y3465D02*
X4289Y3465D01*
X4352Y3465D02*
X4361Y3465D01*
X3610Y3464D02*
X3622Y3464D01*
X3664Y3464D02*
X3673Y3464D01*
X3704Y3464D02*
X3713Y3464D01*
X3736Y3464D02*
X3745Y3464D01*
X3755Y3464D02*
X3765Y3464D01*
X3776Y3464D02*
X3785Y3464D01*
X3817Y3464D02*
X3827Y3464D01*
X3838Y3464D02*
X3848Y3464D01*
X3900Y3464D02*
X3909Y3464D01*
X3970Y3464D02*
X3981Y3464D01*
X3992Y3464D02*
X4001Y3464D01*
X4024Y3464D02*
X4033Y3464D01*
X4064Y3464D02*
X4073Y3464D01*
X4136Y3464D02*
X4145Y3464D01*
X4188Y3464D02*
X4217Y3464D01*
X4258Y3464D02*
X4269Y3464D01*
X4280Y3464D02*
X4289Y3464D01*
X4352Y3464D02*
X4361Y3464D01*
X3609Y3463D02*
X3621Y3463D01*
X3664Y3463D02*
X3673Y3463D01*
X3703Y3463D02*
X3713Y3463D01*
X3736Y3463D02*
X3745Y3463D01*
X3754Y3463D02*
X3765Y3463D01*
X3776Y3463D02*
X3785Y3463D01*
X3817Y3463D02*
X3827Y3463D01*
X3838Y3463D02*
X3848Y3463D01*
X3900Y3463D02*
X3909Y3463D01*
X3970Y3463D02*
X3981Y3463D01*
X3992Y3463D02*
X4001Y3463D01*
X4024Y3463D02*
X4033Y3463D01*
X4063Y3463D02*
X4073Y3463D01*
X4136Y3463D02*
X4145Y3463D01*
X4189Y3463D02*
X4217Y3463D01*
X4258Y3463D02*
X4269Y3463D01*
X4280Y3463D02*
X4289Y3463D01*
X4352Y3463D02*
X4361Y3463D01*
X3608Y3462D02*
X3620Y3462D01*
X3664Y3462D02*
X3674Y3462D01*
X3703Y3462D02*
X3713Y3462D01*
X3736Y3462D02*
X3745Y3462D01*
X3754Y3462D02*
X3764Y3462D01*
X3776Y3462D02*
X3785Y3462D01*
X3817Y3462D02*
X3826Y3462D01*
X3839Y3462D02*
X3848Y3462D01*
X3900Y3462D02*
X3909Y3462D01*
X3969Y3462D02*
X3980Y3462D01*
X3992Y3462D02*
X4001Y3462D01*
X4024Y3462D02*
X4034Y3462D01*
X4063Y3462D02*
X4073Y3462D01*
X4136Y3462D02*
X4145Y3462D01*
X4189Y3462D02*
X4217Y3462D01*
X4257Y3462D02*
X4268Y3462D01*
X4280Y3462D02*
X4289Y3462D01*
X4352Y3462D02*
X4361Y3462D01*
X3607Y3461D02*
X3619Y3461D01*
X3664Y3461D02*
X3674Y3461D01*
X3703Y3461D02*
X3712Y3461D01*
X3736Y3461D02*
X3745Y3461D01*
X3754Y3461D02*
X3764Y3461D01*
X3776Y3461D02*
X3785Y3461D01*
X3817Y3461D02*
X3826Y3461D01*
X3839Y3461D02*
X3848Y3461D01*
X3900Y3461D02*
X3909Y3461D01*
X3969Y3461D02*
X3979Y3461D01*
X3992Y3461D02*
X4001Y3461D01*
X4024Y3461D02*
X4034Y3461D01*
X4063Y3461D02*
X4072Y3461D01*
X4096Y3461D02*
X4118Y3461D01*
X4136Y3461D02*
X4145Y3461D01*
X4190Y3461D02*
X4217Y3461D01*
X4257Y3461D02*
X4267Y3461D01*
X4280Y3461D02*
X4289Y3461D01*
X4312Y3461D02*
X4334Y3461D01*
X4352Y3461D02*
X4361Y3461D01*
X3606Y3460D02*
X3618Y3460D01*
X3665Y3460D02*
X3674Y3460D01*
X3703Y3460D02*
X3712Y3460D01*
X3736Y3460D02*
X3745Y3460D01*
X3753Y3460D02*
X3763Y3460D01*
X3776Y3460D02*
X3785Y3460D01*
X3816Y3460D02*
X3826Y3460D01*
X3839Y3460D02*
X3849Y3460D01*
X3900Y3460D02*
X3909Y3460D01*
X3968Y3460D02*
X3979Y3460D01*
X3992Y3460D02*
X4001Y3460D01*
X4025Y3460D02*
X4034Y3460D01*
X4063Y3460D02*
X4072Y3460D01*
X4096Y3460D02*
X4119Y3460D01*
X4136Y3460D02*
X4145Y3460D01*
X4208Y3460D02*
X4217Y3460D01*
X4256Y3460D02*
X4267Y3460D01*
X4280Y3460D02*
X4289Y3460D01*
X4312Y3460D02*
X4335Y3460D01*
X4352Y3460D02*
X4361Y3460D01*
X3606Y3459D02*
X3618Y3459D01*
X3665Y3459D02*
X3675Y3459D01*
X3702Y3459D02*
X3712Y3459D01*
X3736Y3459D02*
X3745Y3459D01*
X3753Y3459D02*
X3763Y3459D01*
X3776Y3459D02*
X3785Y3459D01*
X3816Y3459D02*
X3825Y3459D01*
X3839Y3459D02*
X3849Y3459D01*
X3900Y3459D02*
X3909Y3459D01*
X3967Y3459D02*
X3978Y3459D01*
X3992Y3459D02*
X4001Y3459D01*
X4025Y3459D02*
X4035Y3459D01*
X4062Y3459D02*
X4072Y3459D01*
X4096Y3459D02*
X4119Y3459D01*
X4136Y3459D02*
X4145Y3459D01*
X4208Y3459D02*
X4217Y3459D01*
X4255Y3459D02*
X4266Y3459D01*
X4280Y3459D02*
X4289Y3459D01*
X4312Y3459D02*
X4335Y3459D01*
X4352Y3459D02*
X4361Y3459D01*
X3605Y3458D02*
X3617Y3458D01*
X3665Y3458D02*
X3675Y3458D01*
X3702Y3458D02*
X3712Y3458D01*
X3736Y3458D02*
X3745Y3458D01*
X3752Y3458D02*
X3762Y3458D01*
X3776Y3458D02*
X3785Y3458D01*
X3816Y3458D02*
X3825Y3458D01*
X3840Y3458D02*
X3849Y3458D01*
X3900Y3458D02*
X3909Y3458D01*
X3967Y3458D02*
X3978Y3458D01*
X3992Y3458D02*
X4001Y3458D01*
X4025Y3458D02*
X4035Y3458D01*
X4062Y3458D02*
X4072Y3458D01*
X4096Y3458D02*
X4120Y3458D01*
X4136Y3458D02*
X4145Y3458D01*
X4208Y3458D02*
X4217Y3458D01*
X4255Y3458D02*
X4266Y3458D01*
X4280Y3458D02*
X4289Y3458D01*
X4312Y3458D02*
X4336Y3458D01*
X4352Y3458D02*
X4361Y3458D01*
X3604Y3457D02*
X3616Y3457D01*
X3666Y3457D02*
X3676Y3457D01*
X3701Y3457D02*
X3711Y3457D01*
X3736Y3457D02*
X3745Y3457D01*
X3752Y3457D02*
X3762Y3457D01*
X3776Y3457D02*
X3785Y3457D01*
X3815Y3457D02*
X3825Y3457D01*
X3840Y3457D02*
X3850Y3457D01*
X3900Y3457D02*
X3909Y3457D01*
X3966Y3457D02*
X3977Y3457D01*
X3992Y3457D02*
X4001Y3457D01*
X4026Y3457D02*
X4036Y3457D01*
X4061Y3457D02*
X4071Y3457D01*
X4096Y3457D02*
X4120Y3457D01*
X4136Y3457D02*
X4145Y3457D01*
X4208Y3457D02*
X4217Y3457D01*
X4254Y3457D02*
X4265Y3457D01*
X4280Y3457D02*
X4289Y3457D01*
X4312Y3457D02*
X4336Y3457D01*
X4352Y3457D02*
X4361Y3457D01*
X3603Y3456D02*
X3615Y3456D01*
X3666Y3456D02*
X3676Y3456D01*
X3701Y3456D02*
X3711Y3456D01*
X3736Y3456D02*
X3745Y3456D01*
X3751Y3456D02*
X3761Y3456D01*
X3776Y3456D02*
X3785Y3456D01*
X3815Y3456D02*
X3825Y3456D01*
X3840Y3456D02*
X3850Y3456D01*
X3900Y3456D02*
X3909Y3456D01*
X3966Y3456D02*
X3976Y3456D01*
X3992Y3456D02*
X4001Y3456D01*
X4026Y3456D02*
X4036Y3456D01*
X4061Y3456D02*
X4071Y3456D01*
X4096Y3456D02*
X4120Y3456D01*
X4136Y3456D02*
X4145Y3456D01*
X4208Y3456D02*
X4217Y3456D01*
X4254Y3456D02*
X4264Y3456D01*
X4280Y3456D02*
X4289Y3456D01*
X4312Y3456D02*
X4336Y3456D01*
X4352Y3456D02*
X4361Y3456D01*
X3603Y3455D02*
X3615Y3455D01*
X3666Y3455D02*
X3677Y3455D01*
X3700Y3455D02*
X3710Y3455D01*
X3736Y3455D02*
X3745Y3455D01*
X3751Y3455D02*
X3761Y3455D01*
X3776Y3455D02*
X3785Y3455D01*
X3815Y3455D02*
X3824Y3455D01*
X3841Y3455D02*
X3850Y3455D01*
X3900Y3455D02*
X3909Y3455D01*
X3965Y3455D02*
X3976Y3455D01*
X3992Y3455D02*
X4001Y3455D01*
X4026Y3455D02*
X4037Y3455D01*
X4060Y3455D02*
X4070Y3455D01*
X4096Y3455D02*
X4120Y3455D01*
X4136Y3455D02*
X4145Y3455D01*
X4208Y3455D02*
X4217Y3455D01*
X4253Y3455D02*
X4264Y3455D01*
X4280Y3455D02*
X4289Y3455D01*
X4312Y3455D02*
X4336Y3455D01*
X4352Y3455D02*
X4361Y3455D01*
X3602Y3454D02*
X3614Y3454D01*
X3667Y3454D02*
X3677Y3454D01*
X3700Y3454D02*
X3710Y3454D01*
X3736Y3454D02*
X3745Y3454D01*
X3750Y3454D02*
X3761Y3454D01*
X3776Y3454D02*
X3785Y3454D01*
X3815Y3454D02*
X3824Y3454D01*
X3841Y3454D02*
X3850Y3454D01*
X3900Y3454D02*
X3909Y3454D01*
X3964Y3454D02*
X3975Y3454D01*
X3992Y3454D02*
X4001Y3454D01*
X4027Y3454D02*
X4037Y3454D01*
X4060Y3454D02*
X4070Y3454D01*
X4096Y3454D02*
X4119Y3454D01*
X4136Y3454D02*
X4145Y3454D01*
X4208Y3454D02*
X4217Y3454D01*
X4252Y3454D02*
X4263Y3454D01*
X4280Y3454D02*
X4289Y3454D01*
X4312Y3454D02*
X4335Y3454D01*
X4352Y3454D02*
X4361Y3454D01*
X3601Y3453D02*
X3613Y3453D01*
X3667Y3453D02*
X3678Y3453D01*
X3699Y3453D02*
X3709Y3453D01*
X3736Y3453D02*
X3745Y3453D01*
X3750Y3453D02*
X3760Y3453D01*
X3776Y3453D02*
X3785Y3453D01*
X3814Y3453D02*
X3851Y3453D01*
X3900Y3453D02*
X3909Y3453D01*
X3964Y3453D02*
X3975Y3453D01*
X3992Y3453D02*
X4001Y3453D01*
X4027Y3453D02*
X4038Y3453D01*
X4059Y3453D02*
X4069Y3453D01*
X4096Y3453D02*
X4118Y3453D01*
X4136Y3453D02*
X4145Y3453D01*
X4208Y3453D02*
X4217Y3453D01*
X4252Y3453D02*
X4263Y3453D01*
X4280Y3453D02*
X4289Y3453D01*
X4312Y3453D02*
X4334Y3453D01*
X4352Y3453D02*
X4361Y3453D01*
X3600Y3452D02*
X3612Y3452D01*
X3668Y3452D02*
X3678Y3452D01*
X3699Y3452D02*
X3709Y3452D01*
X3736Y3452D02*
X3745Y3452D01*
X3750Y3452D02*
X3760Y3452D01*
X3776Y3452D02*
X3785Y3452D01*
X3814Y3452D02*
X3851Y3452D01*
X3900Y3452D02*
X3909Y3452D01*
X3963Y3452D02*
X3974Y3452D01*
X3992Y3452D02*
X4001Y3452D01*
X4028Y3452D02*
X4038Y3452D01*
X4059Y3452D02*
X4069Y3452D01*
X4096Y3452D02*
X4116Y3452D01*
X4136Y3452D02*
X4145Y3452D01*
X4208Y3452D02*
X4217Y3452D01*
X4251Y3452D02*
X4262Y3452D01*
X4280Y3452D02*
X4289Y3452D01*
X4312Y3452D02*
X4332Y3452D01*
X4352Y3452D02*
X4361Y3452D01*
X3599Y3451D02*
X3611Y3451D01*
X3668Y3451D02*
X3679Y3451D01*
X3698Y3451D02*
X3708Y3451D01*
X3736Y3451D02*
X3745Y3451D01*
X3749Y3451D02*
X3759Y3451D01*
X3776Y3451D02*
X3785Y3451D01*
X3814Y3451D02*
X3851Y3451D01*
X3900Y3451D02*
X3909Y3451D01*
X3963Y3451D02*
X3974Y3451D01*
X3992Y3451D02*
X4001Y3451D01*
X4028Y3451D02*
X4039Y3451D01*
X4058Y3451D02*
X4068Y3451D01*
X4096Y3451D02*
X4105Y3451D01*
X4136Y3451D02*
X4145Y3451D01*
X4208Y3451D02*
X4217Y3451D01*
X4251Y3451D02*
X4262Y3451D01*
X4280Y3451D02*
X4289Y3451D01*
X4312Y3451D02*
X4321Y3451D01*
X4352Y3451D02*
X4361Y3451D01*
X3599Y3450D02*
X3611Y3450D01*
X3669Y3450D02*
X3679Y3450D01*
X3698Y3450D02*
X3708Y3450D01*
X3736Y3450D02*
X3745Y3450D01*
X3749Y3450D02*
X3759Y3450D01*
X3776Y3450D02*
X3785Y3450D01*
X3813Y3450D02*
X3852Y3450D01*
X3900Y3450D02*
X3909Y3450D01*
X3962Y3450D02*
X3973Y3450D01*
X3992Y3450D02*
X4001Y3450D01*
X4029Y3450D02*
X4039Y3450D01*
X4058Y3450D02*
X4068Y3450D01*
X4096Y3450D02*
X4105Y3450D01*
X4136Y3450D02*
X4145Y3450D01*
X4208Y3450D02*
X4217Y3450D01*
X4250Y3450D02*
X4261Y3450D01*
X4280Y3450D02*
X4289Y3450D01*
X4312Y3450D02*
X4321Y3450D01*
X4352Y3450D02*
X4361Y3450D01*
X3598Y3449D02*
X3610Y3449D01*
X3669Y3449D02*
X3680Y3449D01*
X3697Y3449D02*
X3707Y3449D01*
X3736Y3449D02*
X3745Y3449D01*
X3748Y3449D02*
X3758Y3449D01*
X3776Y3449D02*
X3785Y3449D01*
X3813Y3449D02*
X3852Y3449D01*
X3900Y3449D02*
X3909Y3449D01*
X3962Y3449D02*
X3972Y3449D01*
X3992Y3449D02*
X4001Y3449D01*
X4029Y3449D02*
X4040Y3449D01*
X4057Y3449D02*
X4067Y3449D01*
X4096Y3449D02*
X4105Y3449D01*
X4136Y3449D02*
X4145Y3449D01*
X4208Y3449D02*
X4217Y3449D01*
X4250Y3449D02*
X4260Y3449D01*
X4280Y3449D02*
X4289Y3449D01*
X4312Y3449D02*
X4321Y3449D01*
X4352Y3449D02*
X4361Y3449D01*
X3597Y3448D02*
X3609Y3448D01*
X3670Y3448D02*
X3680Y3448D01*
X3697Y3448D02*
X3707Y3448D01*
X3736Y3448D02*
X3745Y3448D01*
X3748Y3448D02*
X3758Y3448D01*
X3776Y3448D02*
X3785Y3448D01*
X3813Y3448D02*
X3852Y3448D01*
X3900Y3448D02*
X3909Y3448D01*
X3961Y3448D02*
X3972Y3448D01*
X3992Y3448D02*
X4001Y3448D01*
X4030Y3448D02*
X4040Y3448D01*
X4057Y3448D02*
X4067Y3448D01*
X4096Y3448D02*
X4105Y3448D01*
X4136Y3448D02*
X4145Y3448D01*
X4208Y3448D02*
X4217Y3448D01*
X4249Y3448D02*
X4260Y3448D01*
X4280Y3448D02*
X4289Y3448D01*
X4312Y3448D02*
X4321Y3448D01*
X4352Y3448D02*
X4361Y3448D01*
X3596Y3447D02*
X3608Y3447D01*
X3670Y3447D02*
X3681Y3447D01*
X3696Y3447D02*
X3706Y3447D01*
X3736Y3447D02*
X3745Y3447D01*
X3747Y3447D02*
X3758Y3447D01*
X3776Y3447D02*
X3785Y3447D01*
X3812Y3447D02*
X3853Y3447D01*
X3900Y3447D02*
X3909Y3447D01*
X3960Y3447D02*
X3971Y3447D01*
X3992Y3447D02*
X4001Y3447D01*
X4030Y3447D02*
X4041Y3447D01*
X4056Y3447D02*
X4066Y3447D01*
X4096Y3447D02*
X4105Y3447D01*
X4136Y3447D02*
X4145Y3447D01*
X4208Y3447D02*
X4217Y3447D01*
X4248Y3447D02*
X4259Y3447D01*
X4280Y3447D02*
X4289Y3447D01*
X4312Y3447D02*
X4321Y3447D01*
X4352Y3447D02*
X4361Y3447D01*
X3596Y3446D02*
X3608Y3446D01*
X3671Y3446D02*
X3681Y3446D01*
X3696Y3446D02*
X3706Y3446D01*
X3736Y3446D02*
X3745Y3446D01*
X3747Y3446D02*
X3757Y3446D01*
X3776Y3446D02*
X3785Y3446D01*
X3812Y3446D02*
X3853Y3446D01*
X3900Y3446D02*
X3909Y3446D01*
X3960Y3446D02*
X3971Y3446D01*
X3992Y3446D02*
X4001Y3446D01*
X4031Y3446D02*
X4041Y3446D01*
X4056Y3446D02*
X4066Y3446D01*
X4096Y3446D02*
X4105Y3446D01*
X4136Y3446D02*
X4145Y3446D01*
X4208Y3446D02*
X4217Y3446D01*
X4248Y3446D02*
X4259Y3446D01*
X4280Y3446D02*
X4289Y3446D01*
X4312Y3446D02*
X4321Y3446D01*
X4352Y3446D02*
X4361Y3446D01*
X3595Y3445D02*
X3607Y3445D01*
X3671Y3445D02*
X3682Y3445D01*
X3695Y3445D02*
X3705Y3445D01*
X3736Y3445D02*
X3757Y3445D01*
X3776Y3445D02*
X3785Y3445D01*
X3812Y3445D02*
X3853Y3445D01*
X3900Y3445D02*
X3909Y3445D01*
X3959Y3445D02*
X3970Y3445D01*
X3992Y3445D02*
X4001Y3445D01*
X4031Y3445D02*
X4042Y3445D01*
X4055Y3445D02*
X4065Y3445D01*
X4096Y3445D02*
X4105Y3445D01*
X4136Y3445D02*
X4145Y3445D01*
X4208Y3445D02*
X4217Y3445D01*
X4247Y3445D02*
X4258Y3445D01*
X4280Y3445D02*
X4289Y3445D01*
X4312Y3445D02*
X4321Y3445D01*
X4352Y3445D02*
X4361Y3445D01*
X3594Y3444D02*
X3606Y3444D01*
X3634Y3444D02*
X3638Y3444D01*
X3672Y3444D02*
X3682Y3444D01*
X3695Y3444D02*
X3705Y3444D01*
X3736Y3444D02*
X3756Y3444D01*
X3776Y3444D02*
X3785Y3444D01*
X3812Y3444D02*
X3853Y3444D01*
X3900Y3444D02*
X3909Y3444D01*
X3959Y3444D02*
X3969Y3444D01*
X3992Y3444D02*
X4001Y3444D01*
X4032Y3444D02*
X4042Y3444D01*
X4055Y3444D02*
X4065Y3444D01*
X4096Y3444D02*
X4105Y3444D01*
X4136Y3444D02*
X4145Y3444D01*
X4208Y3444D02*
X4217Y3444D01*
X4247Y3444D02*
X4257Y3444D01*
X4280Y3444D02*
X4289Y3444D01*
X4312Y3444D02*
X4321Y3444D01*
X4352Y3444D02*
X4361Y3444D01*
X3593Y3443D02*
X3605Y3443D01*
X3633Y3443D02*
X3640Y3443D01*
X3672Y3443D02*
X3683Y3443D01*
X3694Y3443D02*
X3704Y3443D01*
X3736Y3443D02*
X3756Y3443D01*
X3776Y3443D02*
X3785Y3443D01*
X3811Y3443D02*
X3821Y3443D01*
X3844Y3443D02*
X3854Y3443D01*
X3900Y3443D02*
X3909Y3443D01*
X3958Y3443D02*
X3969Y3443D01*
X3992Y3443D02*
X4001Y3443D01*
X4032Y3443D02*
X4043Y3443D01*
X4054Y3443D02*
X4064Y3443D01*
X4096Y3443D02*
X4105Y3443D01*
X4136Y3443D02*
X4145Y3443D01*
X4208Y3443D02*
X4217Y3443D01*
X4246Y3443D02*
X4257Y3443D01*
X4280Y3443D02*
X4289Y3443D01*
X4312Y3443D02*
X4321Y3443D01*
X4352Y3443D02*
X4361Y3443D01*
X3593Y3442D02*
X3605Y3442D01*
X3632Y3442D02*
X3640Y3442D01*
X3673Y3442D02*
X3683Y3442D01*
X3694Y3442D02*
X3704Y3442D01*
X3736Y3442D02*
X3755Y3442D01*
X3776Y3442D02*
X3785Y3442D01*
X3811Y3442D02*
X3820Y3442D01*
X3844Y3442D02*
X3854Y3442D01*
X3900Y3442D02*
X3909Y3442D01*
X3957Y3442D02*
X3968Y3442D01*
X3992Y3442D02*
X4001Y3442D01*
X4033Y3442D02*
X4043Y3442D01*
X4054Y3442D02*
X4064Y3442D01*
X4096Y3442D02*
X4105Y3442D01*
X4136Y3442D02*
X4145Y3442D01*
X4208Y3442D02*
X4217Y3442D01*
X4245Y3442D02*
X4256Y3442D01*
X4280Y3442D02*
X4289Y3442D01*
X4312Y3442D02*
X4321Y3442D01*
X4352Y3442D02*
X4361Y3442D01*
X3593Y3441D02*
X3604Y3441D01*
X3632Y3441D02*
X3641Y3441D01*
X3673Y3441D02*
X3684Y3441D01*
X3693Y3441D02*
X3703Y3441D01*
X3736Y3441D02*
X3755Y3441D01*
X3776Y3441D02*
X3785Y3441D01*
X3811Y3441D02*
X3820Y3441D01*
X3845Y3441D02*
X3854Y3441D01*
X3900Y3441D02*
X3909Y3441D01*
X3957Y3441D02*
X3968Y3441D01*
X3992Y3441D02*
X4001Y3441D01*
X4033Y3441D02*
X4044Y3441D01*
X4053Y3441D02*
X4063Y3441D01*
X4096Y3441D02*
X4105Y3441D01*
X4136Y3441D02*
X4145Y3441D01*
X4208Y3441D02*
X4217Y3441D01*
X4245Y3441D02*
X4256Y3441D01*
X4280Y3441D02*
X4289Y3441D01*
X4312Y3441D02*
X4321Y3441D01*
X4352Y3441D02*
X4361Y3441D01*
X3592Y3440D02*
X3603Y3440D01*
X3632Y3440D02*
X3641Y3440D01*
X3674Y3440D02*
X3684Y3440D01*
X3693Y3440D02*
X3703Y3440D01*
X3736Y3440D02*
X3754Y3440D01*
X3776Y3440D02*
X3785Y3440D01*
X3810Y3440D02*
X3820Y3440D01*
X3845Y3440D02*
X3855Y3440D01*
X3900Y3440D02*
X3909Y3440D01*
X3956Y3440D02*
X3967Y3440D01*
X3992Y3440D02*
X4001Y3440D01*
X4034Y3440D02*
X4044Y3440D01*
X4053Y3440D02*
X4063Y3440D01*
X4096Y3440D02*
X4105Y3440D01*
X4135Y3440D02*
X4145Y3440D01*
X4208Y3440D02*
X4217Y3440D01*
X4244Y3440D02*
X4255Y3440D01*
X4280Y3440D02*
X4289Y3440D01*
X4312Y3440D02*
X4321Y3440D01*
X4351Y3440D02*
X4361Y3440D01*
X3592Y3439D02*
X3602Y3439D01*
X3632Y3439D02*
X3641Y3439D01*
X3674Y3439D02*
X3685Y3439D01*
X3692Y3439D02*
X3702Y3439D01*
X3736Y3439D02*
X3754Y3439D01*
X3776Y3439D02*
X3785Y3439D01*
X3810Y3439D02*
X3820Y3439D01*
X3845Y3439D02*
X3855Y3439D01*
X3900Y3439D02*
X3909Y3439D01*
X3956Y3439D02*
X3967Y3439D01*
X3992Y3439D02*
X4001Y3439D01*
X4034Y3439D02*
X4045Y3439D01*
X4052Y3439D02*
X4062Y3439D01*
X4096Y3439D02*
X4106Y3439D01*
X4135Y3439D02*
X4145Y3439D01*
X4208Y3439D02*
X4217Y3439D01*
X4244Y3439D02*
X4255Y3439D01*
X4280Y3439D02*
X4289Y3439D01*
X4312Y3439D02*
X4322Y3439D01*
X4351Y3439D02*
X4361Y3439D01*
X3592Y3438D02*
X3601Y3438D01*
X3631Y3438D02*
X3641Y3438D01*
X3675Y3438D02*
X3685Y3438D01*
X3692Y3438D02*
X3702Y3438D01*
X3736Y3438D02*
X3754Y3438D01*
X3776Y3438D02*
X3785Y3438D01*
X3810Y3438D02*
X3819Y3438D01*
X3846Y3438D02*
X3855Y3438D01*
X3900Y3438D02*
X3909Y3438D01*
X3955Y3438D02*
X3966Y3438D01*
X3992Y3438D02*
X4001Y3438D01*
X4035Y3438D02*
X4045Y3438D01*
X4052Y3438D02*
X4062Y3438D01*
X4096Y3438D02*
X4107Y3438D01*
X4134Y3438D02*
X4144Y3438D01*
X4208Y3438D02*
X4217Y3438D01*
X4243Y3438D02*
X4254Y3438D01*
X4280Y3438D02*
X4289Y3438D01*
X4312Y3438D02*
X4323Y3438D01*
X4350Y3438D02*
X4360Y3438D01*
X3592Y3437D02*
X3601Y3437D01*
X3630Y3437D02*
X3641Y3437D01*
X3675Y3437D02*
X3686Y3437D01*
X3691Y3437D02*
X3701Y3437D01*
X3736Y3437D02*
X3753Y3437D01*
X3776Y3437D02*
X3785Y3437D01*
X3810Y3437D02*
X3819Y3437D01*
X3846Y3437D02*
X3855Y3437D01*
X3900Y3437D02*
X3909Y3437D01*
X3955Y3437D02*
X3965Y3437D01*
X3992Y3437D02*
X4001Y3437D01*
X4035Y3437D02*
X4046Y3437D01*
X4051Y3437D02*
X4061Y3437D01*
X4097Y3437D02*
X4108Y3437D01*
X4133Y3437D02*
X4144Y3437D01*
X4208Y3437D02*
X4217Y3437D01*
X4243Y3437D02*
X4253Y3437D01*
X4280Y3437D02*
X4289Y3437D01*
X4313Y3437D02*
X4324Y3437D01*
X4349Y3437D02*
X4360Y3437D01*
X3592Y3436D02*
X3640Y3436D01*
X3676Y3436D02*
X3701Y3436D01*
X3736Y3436D02*
X3753Y3436D01*
X3776Y3436D02*
X3785Y3436D01*
X3809Y3436D02*
X3819Y3436D01*
X3846Y3436D02*
X3856Y3436D01*
X3883Y3436D02*
X3926Y3436D01*
X3954Y3436D02*
X3965Y3436D01*
X3992Y3436D02*
X4001Y3436D01*
X4036Y3436D02*
X4061Y3436D01*
X4097Y3436D02*
X4144Y3436D01*
X4171Y3436D02*
X4217Y3436D01*
X4242Y3436D02*
X4253Y3436D01*
X4280Y3436D02*
X4289Y3436D01*
X4313Y3436D02*
X4360Y3436D01*
X3592Y3435D02*
X3640Y3435D01*
X3676Y3435D02*
X3700Y3435D01*
X3736Y3435D02*
X3752Y3435D01*
X3776Y3435D02*
X3785Y3435D01*
X3809Y3435D02*
X3818Y3435D01*
X3847Y3435D02*
X3856Y3435D01*
X3882Y3435D02*
X3927Y3435D01*
X3953Y3435D02*
X3964Y3435D01*
X3992Y3435D02*
X4001Y3435D01*
X4036Y3435D02*
X4060Y3435D01*
X4098Y3435D02*
X4143Y3435D01*
X4170Y3435D02*
X4217Y3435D01*
X4241Y3435D02*
X4252Y3435D01*
X4280Y3435D02*
X4289Y3435D01*
X4314Y3435D02*
X4359Y3435D01*
X3593Y3434D02*
X3639Y3434D01*
X3677Y3434D02*
X3700Y3434D01*
X3736Y3434D02*
X3752Y3434D01*
X3776Y3434D02*
X3785Y3434D01*
X3809Y3434D02*
X3818Y3434D01*
X3847Y3434D02*
X3856Y3434D01*
X3881Y3434D02*
X3928Y3434D01*
X3953Y3434D02*
X3964Y3434D01*
X3992Y3434D02*
X4001Y3434D01*
X4037Y3434D02*
X4060Y3434D01*
X4098Y3434D02*
X4143Y3434D01*
X4169Y3434D02*
X4217Y3434D01*
X4241Y3434D02*
X4252Y3434D01*
X4280Y3434D02*
X4289Y3434D01*
X4314Y3434D02*
X4359Y3434D01*
X3593Y3433D02*
X3639Y3433D01*
X3678Y3433D02*
X3699Y3433D01*
X3736Y3433D02*
X3751Y3433D01*
X3776Y3433D02*
X3785Y3433D01*
X3808Y3433D02*
X3818Y3433D01*
X3847Y3433D02*
X3857Y3433D01*
X3880Y3433D02*
X3928Y3433D01*
X3952Y3433D02*
X3963Y3433D01*
X3992Y3433D02*
X4001Y3433D01*
X4038Y3433D02*
X4059Y3433D01*
X4099Y3433D02*
X4142Y3433D01*
X4168Y3433D02*
X4217Y3433D01*
X4240Y3433D02*
X4251Y3433D01*
X4280Y3433D02*
X4289Y3433D01*
X4315Y3433D02*
X4358Y3433D01*
X3594Y3432D02*
X3638Y3432D01*
X3678Y3432D02*
X3699Y3432D01*
X3736Y3432D02*
X3751Y3432D01*
X3776Y3432D02*
X3785Y3432D01*
X3808Y3432D02*
X3818Y3432D01*
X3847Y3432D02*
X3857Y3432D01*
X3880Y3432D02*
X3929Y3432D01*
X3952Y3432D02*
X3962Y3432D01*
X3992Y3432D02*
X4001Y3432D01*
X4038Y3432D02*
X4059Y3432D01*
X4099Y3432D02*
X4141Y3432D01*
X4168Y3432D02*
X4217Y3432D01*
X4240Y3432D02*
X4250Y3432D01*
X4280Y3432D02*
X4289Y3432D01*
X4315Y3432D02*
X4357Y3432D01*
X3594Y3431D02*
X3637Y3431D01*
X3679Y3431D02*
X3698Y3431D01*
X3736Y3431D02*
X3751Y3431D01*
X3776Y3431D02*
X3785Y3431D01*
X3808Y3431D02*
X3817Y3431D01*
X3848Y3431D02*
X3857Y3431D01*
X3880Y3431D02*
X3929Y3431D01*
X3952Y3431D02*
X3962Y3431D01*
X3992Y3431D02*
X4001Y3431D01*
X4039Y3431D02*
X4058Y3431D01*
X4100Y3431D02*
X4141Y3431D01*
X4168Y3431D02*
X4217Y3431D01*
X4240Y3431D02*
X4250Y3431D01*
X4280Y3431D02*
X4289Y3431D01*
X4316Y3431D02*
X4357Y3431D01*
X3595Y3430D02*
X3637Y3430D01*
X3680Y3430D02*
X3697Y3430D01*
X3736Y3430D02*
X3750Y3430D01*
X3776Y3430D02*
X3785Y3430D01*
X3808Y3430D02*
X3817Y3430D01*
X3848Y3430D02*
X3857Y3430D01*
X3880Y3430D02*
X3929Y3430D01*
X3952Y3430D02*
X3961Y3430D01*
X3992Y3430D02*
X4001Y3430D01*
X4040Y3430D02*
X4057Y3430D01*
X4101Y3430D02*
X4140Y3430D01*
X4168Y3430D02*
X4217Y3430D01*
X4240Y3430D02*
X4249Y3430D01*
X4280Y3430D02*
X4289Y3430D01*
X4317Y3430D02*
X4356Y3430D01*
X3596Y3429D02*
X3635Y3429D01*
X3681Y3429D02*
X3696Y3429D01*
X3736Y3429D02*
X3750Y3429D01*
X3776Y3429D02*
X3784Y3429D01*
X3809Y3429D02*
X3817Y3429D01*
X3848Y3429D02*
X3856Y3429D01*
X3881Y3429D02*
X3928Y3429D01*
X3953Y3429D02*
X3961Y3429D01*
X3992Y3429D02*
X4000Y3429D01*
X4041Y3429D02*
X4056Y3429D01*
X4103Y3429D02*
X4138Y3429D01*
X4169Y3429D02*
X4217Y3429D01*
X4241Y3429D02*
X4249Y3429D01*
X4280Y3429D02*
X4288Y3429D01*
X4319Y3429D02*
X4354Y3429D01*
X3597Y3428D02*
X3634Y3428D01*
X3683Y3428D02*
X3694Y3428D01*
X3736Y3428D02*
X3749Y3428D01*
X3777Y3428D02*
X3784Y3428D01*
X3809Y3428D02*
X3816Y3428D01*
X3849Y3428D02*
X3856Y3428D01*
X3881Y3428D02*
X3928Y3428D01*
X3953Y3428D02*
X3960Y3428D01*
X3993Y3428D02*
X4000Y3428D01*
X4043Y3428D02*
X4054Y3428D01*
X4104Y3428D02*
X4137Y3428D01*
X4169Y3428D02*
X4217Y3428D01*
X4241Y3428D02*
X4248Y3428D01*
X4281Y3428D02*
X4288Y3428D01*
X4320Y3428D02*
X4353Y3428D01*
X3599Y3427D02*
X3632Y3427D01*
X3685Y3427D02*
X3692Y3427D01*
X3736Y3427D02*
X3749Y3427D01*
X3778Y3427D02*
X3782Y3427D01*
X3811Y3427D02*
X3815Y3427D01*
X3850Y3427D02*
X3854Y3427D01*
X3883Y3427D02*
X3926Y3427D01*
X3955Y3427D02*
X3959Y3427D01*
X3994Y3427D02*
X3998Y3427D01*
X4045Y3427D02*
X4052Y3427D01*
X4107Y3427D02*
X4134Y3427D01*
X4171Y3427D02*
X4217Y3427D01*
X4243Y3427D02*
X4247Y3427D01*
X4282Y3427D02*
X4286Y3427D01*
X4323Y3427D02*
X4350Y3427D01*
D02*
G04 End of Silk0*
M02*